<svg id="svg" version="1.1" width="400" height="258.8235294117647" xmlns="http://www.w3.org/2000/svg" xmlns:xlink="http://www.w3.org/1999/xlink" style="display: block;"><g id="svgg"><path id="path0" d="M196.276 76.688 C 195.568 77.272,195.099 78.218,194.334 80.609 C 194.054 81.482,193.689 82.470,193.523 82.806 C 193.357 83.142,193.089 84.092,192.929 84.917 C 192.495 87.143,190.601 94.048,190.334 94.376 C 190.177 94.569,189.212 93.105,188.754 91.977 C 188.528 91.422,187.955 90.281,187.480 89.442 C 185.670 86.247,185.508 85.910,185.502 85.333 C 185.495 84.543,184.855 83.226,184.085 82.417 C 183.668 81.979,183.264 81.264,182.906 80.333 C 182.306 78.769,182.247 78.727,180.625 78.686 L 179.833 78.667 179.833 79.594 C 179.833 81.003,179.222 84.694,178.648 86.750 C 177.828 89.690,177.713 90.189,177.592 91.333 C 177.471 92.487,176.907 94.889,175.927 98.417 C 175.369 100.426,175.340 100.641,175.528 101.379 C 175.726 102.152,175.665 102.781,175.212 104.661 C 175.118 105.051,175.150 105.041,175.819 104.467 L 176.526 103.862 177.709 104.264 C 179.729 104.951,179.667 105.029,179.667 101.824 C 179.667 99.802,179.716 99.375,180.058 98.462 C 180.829 96.400,181.536 93.800,181.670 92.536 C 181.745 91.829,181.931 90.763,182.084 90.167 C 182.264 89.464,182.342 88.630,182.305 87.792 C 182.273 87.081,182.272 86.500,182.301 86.500 C 182.494 86.500,183.000 86.875,183.000 87.018 C 183.000 87.113,183.367 87.954,183.816 88.887 C 184.265 89.820,184.874 91.258,185.169 92.083 C 185.677 93.505,186.028 94.231,187.625 97.167 C 187.999 97.854,188.432 98.867,188.588 99.417 C 189.741 103.476,191.833 105.297,192.558 102.872 C 192.687 102.438,193.056 101.806,193.376 101.468 C 194.104 100.700,194.230 99.976,194.076 97.450 C 193.965 95.629,193.978 95.521,194.639 93.000 C 195.011 91.579,195.367 89.929,195.429 89.333 C 195.491 88.737,195.639 88.138,195.758 88.000 C 195.877 87.862,196.166 87.412,196.402 87.000 L 196.829 86.250 196.835 87.250 C 196.848 89.725,197.689 93.703,199.195 98.417 C 199.840 100.433,200.444 102.346,200.537 102.667 C 200.948 104.078,201.614 104.683,201.957 103.958 C 202.055 103.752,202.639 103.036,203.255 102.366 C 204.674 100.825,204.615 100.111,202.707 95.762 C 202.067 94.303,201.784 93.224,200.841 88.667 C 200.315 86.126,200.218 85.361,200.288 84.320 C 200.411 82.497,199.177 78.965,197.715 76.958 C 197.031 76.020,197.077 76.028,196.276 76.688 M131.640 77.666 C 131.010 78.003,130.882 78.247,130.238 80.333 C 129.873 81.516,129.563 82.125,128.994 82.779 C 128.729 83.083,128.455 83.672,128.349 84.166 C 128.248 84.639,128.076 85.189,127.968 85.388 C 127.860 85.587,127.535 86.526,127.246 87.475 L 126.721 89.200 126.132 88.308 C 125.482 87.325,124.986 86.295,124.568 85.061 C 123.330 81.404,122.227 80.603,119.080 81.075 C 118.202 81.207,118.172 81.347,118.804 82.344 C 119.621 83.631,119.898 84.548,119.675 85.223 C 119.500 85.754,119.534 85.911,120.045 86.945 C 120.354 87.571,120.746 88.571,120.916 89.167 C 121.086 89.763,121.316 90.362,121.427 90.500 C 121.539 90.638,122.107 91.650,122.690 92.750 L 123.750 94.750 123.707 98.250 C 123.642 103.547,124.091 106.335,125.299 108.130 C 125.410 108.294,125.860 108.149,127.240 107.505 L 129.037 106.666 128.924 106.041 C 128.863 105.698,128.583 104.482,128.303 103.340 C 127.538 100.218,127.719 98.706,129.037 97.229 C 129.349 96.878,129.347 96.865,128.859 96.149 C 128.316 95.353,128.376 94.966,129.150 94.265 C 129.398 94.041,129.500 93.748,129.500 93.261 C 129.500 92.418,129.879 91.833,130.426 91.833 C 130.799 91.833,130.833 91.768,130.833 91.072 C 130.833 90.531,130.948 90.158,131.229 89.781 C 131.503 89.413,131.651 88.943,131.712 88.250 C 131.820 87.008,132.554 84.931,133.654 82.750 C 134.522 81.030,134.764 79.325,134.351 77.833 C 134.194 77.262,132.582 77.163,131.640 77.666 M331.732 77.940 L 330.048 78.511 329.942 79.714 C 329.778 81.573,328.828 84.099,327.770 85.491 C 327.530 85.806,327.333 86.272,327.333 86.525 C 327.333 86.989,327.037 87.846,325.931 90.582 C 325.597 91.406,325.279 92.362,325.224 92.707 C 325.087 93.563,324.755 93.494,324.492 92.556 C 324.352 92.056,324.016 91.509,323.554 91.026 L 322.833 90.274 322.833 88.836 C 322.833 87.229,323.049 87.681,320.537 84.023 L 319.491 82.500 317.188 82.500 L 314.884 82.500 314.959 84.125 C 315.029 85.653,314.885 87.414,314.249 92.833 C 313.967 95.233,313.496 97.392,313.072 98.234 C 311.837 100.682,311.130 105.974,312.000 106.250 C 312.562 106.428,314.868 106.605,315.750 106.537 L 316.583 106.473 316.600 104.528 C 316.615 102.723,316.660 102.464,317.228 100.917 C 318.071 98.624,318.500 96.872,318.500 95.731 C 318.500 94.439,318.716 94.754,319.084 96.583 C 319.285 97.585,319.541 98.312,319.853 98.770 C 321.577 101.306,322.192 103.486,321.589 104.928 C 321.347 105.508,321.349 105.514,321.881 105.839 C 323.117 106.593,326.768 106.056,327.060 105.078 C 327.376 104.019,327.521 103.808,328.091 103.569 L 328.682 103.323 328.359 102.870 C 328.181 102.620,327.878 102.274,327.685 102.099 C 327.215 101.675,327.235 101.503,327.917 100.121 C 328.237 99.470,328.500 98.768,328.500 98.563 C 328.500 97.637,328.954 97.007,329.625 97.003 C 329.975 97.000,330.000 96.929,330.000 95.909 C 330.000 95.021,330.104 94.595,330.559 93.617 C 330.867 92.957,331.215 92.004,331.334 91.500 C 331.528 90.673,332.379 88.475,333.559 85.750 C 333.797 85.200,333.994 84.450,333.997 84.083 C 333.999 83.717,334.120 82.742,334.266 81.917 C 334.574 80.170,334.514 79.012,334.068 78.095 C 333.663 77.262,333.723 77.266,331.732 77.940 M221.167 77.907 C 220.662 78.024,219.803 78.242,219.257 78.393 C 218.710 78.543,217.751 78.667,217.125 78.667 C 216.325 78.667,215.797 78.763,215.349 78.992 C 214.998 79.171,214.345 79.400,213.897 79.502 C 213.450 79.604,212.746 79.765,212.333 79.860 C 207.427 80.987,206.392 83.172,210.375 83.993 C 211.235 84.170,211.325 84.228,211.249 84.554 C 211.129 85.065,210.500 91.373,210.500 92.060 C 210.500 92.858,210.028 94.249,209.378 95.368 L 208.825 96.320 209.157 96.939 C 209.777 98.095,209.912 99.171,209.696 101.240 C 209.588 102.274,209.500 103.535,209.500 104.042 C 209.500 105.062,209.396 105.167,208.384 105.167 C 207.902 105.167,207.810 105.220,207.877 105.458 C 207.922 105.619,208.173 106.444,208.434 107.292 L 208.910 108.833 209.663 108.832 C 210.078 108.831,211.339 108.722,212.466 108.589 C 214.282 108.375,214.673 108.376,215.885 108.601 C 217.074 108.822,217.474 108.825,218.919 108.630 C 220.024 108.480,220.807 108.454,221.250 108.554 C 223.194 108.991,225.276 108.860,227.702 108.151 C 229.086 107.745,229.052 107.810,228.634 106.377 L 228.288 105.190 227.186 105.278 C 225.431 105.418,215.009 104.618,214.831 104.329 C 214.590 103.940,214.125 99.783,214.207 98.759 C 214.402 96.329,214.900 95.848,218.083 95.018 C 219.087 94.757,222.065 94.333,222.902 94.333 C 223.573 94.333,223.649 94.292,223.736 93.875 C 223.832 93.419,224.157 91.197,224.163 90.958 C 224.171 90.654,220.510 90.845,218.139 91.272 C 214.756 91.883,215.009 92.382,215.275 85.627 L 215.384 82.868 216.400 82.668 C 216.959 82.558,218.542 82.180,219.917 81.829 C 222.588 81.146,224.922 80.667,225.573 80.667 C 226.314 80.667,227.849 78.156,227.314 77.818 C 226.964 77.596,222.212 77.665,221.167 77.907 M71.250 78.979 C 69.717 79.422,67.818 80.489,67.372 81.158 C 66.751 82.089,66.863 82.185,69.075 82.620 C 71.456 83.088,71.167 82.660,70.913 85.333 C 70.796 86.571,70.645 88.596,70.578 89.833 C 70.411 92.909,70.325 93.017,67.083 94.190 C 66.762 94.305,66.500 94.455,66.500 94.521 C 66.500 94.846,67.825 95.670,68.785 95.943 C 70.306 96.375,70.344 96.509,70.084 100.552 L 69.948 102.687 69.463 102.885 C 67.950 103.504,66.158 107.572,66.839 108.844 C 67.234 109.582,70.050 109.031,71.244 107.983 C 71.690 107.591,71.948 107.500,72.605 107.500 C 74.061 107.501,79.346 106.516,80.250 106.075 C 80.869 105.774,81.546 105.630,82.880 105.515 C 84.437 105.380,84.803 105.288,85.630 104.821 C 86.154 104.525,87.108 104.004,87.750 103.664 C 88.392 103.324,89.205 102.780,89.558 102.455 C 89.910 102.130,90.585 101.725,91.058 101.557 C 92.328 101.103,93.699 98.178,94.186 94.884 C 94.445 93.134,94.139 92.715,92.390 92.424 C 91.201 92.227,90.964 91.922,91.746 91.596 C 93.706 90.777,93.922 89.967,92.935 87.143 C 91.786 83.854,91.762 83.829,87.750 81.749 C 85.194 80.424,84.276 80.123,81.417 79.676 C 80.133 79.475,78.322 79.165,77.392 78.988 C 75.257 78.582,72.639 78.578,71.250 78.979 M162.738 79.124 L 160.892 79.177 160.211 80.464 C 159.159 82.449,158.372 85.401,158.071 88.494 C 157.976 89.469,157.850 89.877,157.488 90.377 C 157.052 90.978,155.333 94.821,155.333 95.194 C 155.333 95.558,153.918 98.284,153.379 98.957 C 152.872 99.590,152.824 99.739,152.917 100.374 C 153.016 101.042,152.976 101.137,152.235 102.000 C 151.280 103.114,150.841 104.030,150.840 104.917 C 150.838 106.004,150.964 106.087,152.589 106.058 C 154.263 106.029,154.377 105.958,155.179 104.449 C 155.481 103.881,156.158 102.985,156.684 102.458 L 157.640 101.500 159.778 101.516 C 162.212 101.533,164.926 101.703,165.069 101.847 C 165.122 101.900,165.476 103.464,165.856 105.322 C 166.434 108.151,166.630 108.830,167.065 109.495 C 167.350 109.931,167.717 110.533,167.880 110.833 C 168.644 112.237,173.251 109.858,172.817 108.283 C 172.067 105.563,171.474 103.165,171.244 101.917 C 171.051 100.871,170.828 100.215,170.506 99.750 C 170.083 99.139,170.037 98.917,169.951 97.083 C 169.900 95.983,169.765 94.803,169.652 94.461 C 169.493 93.980,169.490 93.691,169.640 93.192 C 169.954 92.141,169.863 90.867,169.333 88.917 C 169.059 87.908,168.835 86.922,168.834 86.724 C 168.834 86.526,168.636 85.983,168.394 85.518 C 168.000 84.758,167.972 84.587,168.116 83.857 C 168.241 83.223,168.225 82.973,168.044 82.730 C 167.600 82.134,166.000 79.351,166.000 79.176 C 166.000 79.074,165.700 79.015,165.292 79.036 C 164.902 79.055,163.753 79.095,162.738 79.124 M100.244 81.396 C 99.160 82.126,99.123 82.179,98.603 83.758 C 97.705 86.487,97.491 89.029,98.050 90.322 C 98.151 90.558,98.241 91.688,98.250 92.833 C 98.264 94.761,98.434 97.316,98.837 101.647 C 98.974 103.111,99.057 103.431,99.377 103.730 C 100.455 104.735,101.167 106.307,101.167 107.684 L 101.167 108.307 102.325 108.570 C 105.695 109.337,108.143 108.755,109.314 106.908 C 109.984 105.852,110.195 105.649,110.943 105.338 C 111.868 104.954,111.948 104.825,112.809 102.305 C 112.987 101.786,113.360 101.029,113.639 100.624 L 114.146 99.887 113.885 98.743 L 113.624 97.599 114.227 97.091 C 114.908 96.518,114.895 96.584,115.091 92.833 C 115.176 91.196,115.289 90.425,115.503 90.002 L 115.798 89.420 114.993 88.408 C 114.551 87.852,114.096 87.195,113.984 86.948 C 113.783 86.506,113.758 86.500,112.140 86.500 C 109.783 86.500,109.511 86.865,110.087 89.250 C 110.390 90.507,110.392 92.942,110.091 95.000 C 109.254 100.726,108.983 101.792,107.964 103.370 C 107.617 103.906,107.333 104.415,107.333 104.502 C 107.333 104.804,106.519 105.189,105.991 105.136 C 105.209 105.058,104.142 102.154,103.829 99.250 C 103.740 98.425,103.436 97.000,103.155 96.083 C 102.770 94.827,102.607 93.883,102.496 92.250 C 102.414 91.058,102.189 89.183,101.996 88.083 C 101.311 84.193,101.304 83.687,101.924 82.917 C 103.378 81.107,102.224 80.062,100.244 81.396 M261.038 81.792 C 260.839 81.966,260.271 83.354,259.623 85.250 C 259.028 86.992,258.304 89.054,258.015 89.833 C 257.718 90.632,257.383 92.001,257.246 92.970 C 257.114 93.917,256.970 94.747,256.927 94.817 C 256.439 95.606,256.171 101.726,256.520 104.077 C 256.737 105.535,256.455 105.433,259.417 105.113 L 261.250 104.915 261.359 103.999 C 261.418 103.495,261.474 102.133,261.484 100.970 C 261.504 98.320,261.739 96.577,262.277 95.083 C 262.590 94.215,262.727 93.413,262.814 91.946 L 262.930 89.976 263.545 89.446 C 264.445 88.671,264.863 84.766,264.305 82.346 L 264.109 81.500 262.740 81.500 C 261.673 81.500,261.297 81.565,261.038 81.792 M228.000 83.505 C 228.000 85.658,229.246 88.000,230.391 88.000 C 231.028 88.000,233.873 88.309,233.934 88.385 C 233.949 88.402,233.861 89.017,233.740 89.750 C 233.619 90.483,233.466 92.080,233.401 93.299 L 233.282 95.514 232.766 95.866 C 232.482 96.060,231.981 96.473,231.652 96.784 L 231.053 97.349 231.217 98.299 C 231.351 99.080,231.499 99.365,232.044 99.895 C 232.691 100.523,232.706 100.563,232.604 101.395 C 232.112 105.404,232.382 107.516,233.549 108.792 C 233.968 109.250,234.178 109.255,235.526 108.839 C 237.229 108.313,237.202 108.358,236.911 106.500 C 236.534 104.092,236.382 99.335,236.682 99.329 C 236.811 99.327,237.664 99.252,238.577 99.163 L 240.238 99.002 240.842 99.591 C 241.174 99.916,241.851 100.746,242.348 101.436 C 242.844 102.126,243.700 103.296,244.250 104.036 C 245.678 105.957,245.783 106.131,246.088 107.071 C 246.589 108.618,249.130 110.092,249.925 109.297 C 250.350 108.872,250.188 106.822,249.663 105.972 C 248.809 104.592,246.501 100.514,246.494 100.375 C 246.491 100.306,246.311 99.875,246.094 99.417 L 245.701 98.583 246.059 98.445 C 246.256 98.369,246.988 98.013,247.687 97.653 C 248.455 97.259,249.190 97.000,249.543 97.000 C 250.014 97.000,250.245 96.870,250.731 96.333 L 251.333 95.666 251.326 93.791 C 251.319 91.886,251.115 90.920,250.599 90.351 C 250.453 90.189,250.333 89.782,250.333 89.445 C 250.333 88.780,250.012 88.354,249.192 87.930 C 248.921 87.789,248.542 87.421,248.350 87.111 C 248.011 86.561,247.963 86.543,246.416 86.367 C 245.361 86.247,244.677 86.080,244.373 85.869 C 243.611 85.338,241.644 84.696,240.572 84.629 C 239.896 84.587,239.400 84.452,239.072 84.220 C 238.654 83.924,238.268 83.862,236.417 83.798 C 234.403 83.728,234.142 83.679,232.712 83.111 C 231.319 82.558,231.024 82.500,229.587 82.500 L 228.000 82.500 228.000 83.505 M296.943 82.625 C 296.901 82.694,296.777 83.087,296.666 83.499 C 296.555 83.912,296.173 84.875,295.816 85.641 C 295.459 86.407,295.167 87.094,295.167 87.167 C 295.167 87.241,294.917 87.601,294.612 87.966 C 294.307 88.331,293.810 89.126,293.509 89.733 C 293.146 90.461,292.688 91.063,292.159 91.507 C 291.678 91.909,291.316 92.368,291.253 92.653 C 291.034 93.649,288.870 96.840,288.200 97.154 C 287.990 97.253,287.315 97.334,286.700 97.336 C 285.428 97.339,285.085 97.481,285.233 97.947 C 285.346 98.303,286.636 99.667,286.859 99.667 C 287.117 99.667,287.005 99.958,286.410 100.843 C 285.624 102.011,284.727 103.937,284.615 104.697 L 284.525 105.311 285.304 105.477 C 288.703 106.200,289.156 106.248,289.716 105.944 C 290.376 105.584,291.609 103.750,291.819 102.813 C 292.230 100.984,295.631 101.263,300.000 103.485 C 303.092 105.058,302.966 104.959,303.195 106.000 C 303.345 106.685,303.557 107.081,304.036 107.566 L 304.676 108.215 306.135 108.121 C 309.109 107.928,310.724 106.463,309.244 105.299 C 308.075 104.380,307.336 101.188,307.329 97.025 C 307.326 95.235,307.240 94.207,307.006 93.172 C 306.702 91.827,306.700 91.696,306.962 90.339 C 307.604 87.019,307.082 84.219,305.570 82.875 C 305.140 82.493,297.165 82.262,296.943 82.625 M80.800 83.417 C 82.197 83.646,83.754 83.833,84.260 83.833 C 85.069 83.833,85.286 83.912,86.049 84.479 C 87.132 85.286,87.517 85.487,88.667 85.845 L 89.583 86.131 89.527 86.940 C 89.454 87.978,89.721 87.813,86.231 88.973 C 82.704 90.146,82.083 90.273,78.750 90.499 C 77.375 90.592,75.912 90.737,75.500 90.820 C 74.592 91.003,74.683 91.196,74.842 89.417 C 74.916 88.592,74.982 87.271,74.988 86.483 C 74.995 85.694,75.048 84.588,75.107 84.024 L 75.214 83.000 76.738 83.000 C 77.576 83.000,79.404 83.188,80.800 83.417 M276.917 84.732 C 276.092 84.953,275.093 85.186,274.697 85.250 C 274.205 85.330,273.624 85.634,272.863 86.210 C 270.806 87.768,270.689 87.931,270.244 89.860 C 270.025 90.809,269.656 92.242,269.423 93.045 C 269.190 93.848,268.998 94.898,268.997 95.378 C 268.995 95.857,268.875 97.375,268.731 98.750 C 268.415 101.757,268.408 101.264,268.806 104.000 C 269.275 107.225,269.242 107.139,270.097 107.354 C 270.599 107.481,270.918 107.685,271.127 108.016 C 272.716 110.525,277.279 112.068,281.705 111.594 C 283.433 111.409,284.667 110.015,284.667 108.248 L 284.667 107.213 283.708 107.113 L 282.750 107.013 281.667 108.081 L 280.583 109.148 279.323 108.927 C 277.214 108.556,276.600 108.118,274.947 105.801 C 272.713 102.670,272.472 99.788,273.971 94.109 C 274.762 91.114,274.920 90.689,275.644 89.609 C 276.084 88.953,276.624 88.051,276.845 87.605 C 277.374 86.533,277.246 86.537,279.987 87.501 C 283.586 88.767,285.156 88.726,286.417 87.333 C 286.792 86.919,286.931 87.027,284.750 86.042 C 281.266 84.468,279.196 84.122,276.917 84.732 M239.096 88.422 C 241.758 88.795,243.017 89.207,243.917 89.997 C 244.110 90.168,244.642 90.328,245.187 90.381 C 246.053 90.465,247.360 90.971,247.564 91.303 C 247.612 91.380,247.336 91.792,246.951 92.219 C 245.949 93.327,243.645 94.102,240.651 94.336 C 239.496 94.427,238.202 94.566,237.776 94.645 L 237.000 94.790 237.001 93.103 C 237.002 91.593,237.172 88.167,237.246 88.167 C 237.262 88.167,238.095 88.282,239.096 88.422 M301.916 92.276 C 302.049 93.156,302.199 94.861,302.250 96.063 C 302.301 97.266,302.380 98.655,302.426 99.149 L 302.509 100.049 301.317 99.938 C 299.787 99.796,297.518 99.297,296.278 98.831 L 295.307 98.466 295.421 97.608 C 295.591 96.330,296.126 95.231,296.916 94.535 C 297.302 94.195,297.786 93.579,297.992 93.167 C 298.197 92.754,298.902 91.613,299.557 90.630 L 300.750 88.843 301.213 89.759 C 301.513 90.351,301.761 91.240,301.916 92.276 M163.277 90.500 C 163.475 90.500,163.667 92.794,163.667 95.175 L 163.667 98.167 161.497 98.167 L 159.327 98.167 159.434 97.708 C 159.673 96.678,161.329 93.728,161.848 93.408 C 161.932 93.356,162.001 92.887,162.002 92.365 C 162.005 90.512,162.125 90.178,162.726 90.350 C 163.013 90.433,163.261 90.500,163.277 90.500 M87.083 93.838 C 90.001 94.249,89.978 94.238,90.517 95.428 C 91.504 97.604,90.369 98.934,86.891 99.676 C 85.985 99.869,85.835 99.959,85.602 100.447 C 85.457 100.751,85.281 101.000,85.211 101.000 C 85.141 101.000,84.555 101.111,83.909 101.245 C 83.263 101.380,81.309 101.676,79.566 101.904 C 77.823 102.131,76.064 102.394,75.657 102.488 C 75.250 102.582,74.822 102.660,74.705 102.663 C 74.539 102.666,74.504 101.821,74.539 98.716 L 74.583 94.764 75.333 94.541 C 75.746 94.418,77.246 94.245,78.667 94.156 C 80.087 94.067,81.625 93.931,82.083 93.853 C 83.265 93.652,85.713 93.645,87.083 93.838 M336.208 104.122 C 335.377 104.197,335.380 104.186,335.913 105.393 L 336.326 106.327 335.162 107.934 L 333.998 109.541 334.362 110.146 C 334.562 110.478,334.862 110.949,335.029 111.192 C 335.197 111.436,335.333 111.717,335.333 111.817 C 335.333 112.515,336.916 111.778,338.333 110.421 C 338.929 109.851,339.655 109.261,339.947 109.110 C 340.524 108.812,340.597 108.660,340.751 107.417 C 340.808 106.958,340.891 106.389,340.935 106.151 C 340.998 105.812,340.849 105.535,340.242 104.860 L 339.469 104.000 338.193 104.029 C 337.491 104.045,336.598 104.087,336.208 104.122 M184.568 121.875 C 184.629 122.448,184.875 123.910,185.113 125.125 L 185.547 127.333 187.149 127.372 C 188.029 127.393,189.106 127.409,189.542 127.406 C 190.463 127.402,190.402 127.136,190.163 130.122 C 189.719 135.660,189.669 135.976,189.165 136.334 C 188.104 137.090,187.890 138.997,188.604 141.325 L 189.042 142.750 188.827 145.381 C 188.363 151.045,189.403 152.602,192.894 151.466 L 194.038 151.093 193.943 150.338 C 193.891 149.923,193.731 148.820,193.589 147.886 C 193.107 144.734,193.258 140.061,193.830 140.415 C 193.897 140.456,194.732 140.420,195.684 140.333 L 197.417 140.176 197.811 140.630 C 198.729 141.687,198.958 141.970,199.732 143.000 C 200.179 143.596,200.868 144.743,201.262 145.550 C 201.882 146.818,202.077 147.069,202.698 147.401 C 203.377 147.764,203.414 147.821,203.363 148.432 C 203.295 149.249,204.165 150.956,204.906 151.459 C 205.187 151.650,205.695 152.010,206.036 152.259 C 206.759 152.788,207.228 152.620,207.841 151.616 C 208.450 150.617,208.331 150.244,205.751 145.066 C 202.953 139.452,203.085 139.929,204.234 139.595 C 204.993 139.375,205.185 139.235,205.457 138.708 C 205.842 137.963,206.346 137.672,207.256 137.669 C 207.845 137.667,208.035 137.558,208.797 136.786 L 209.667 135.906 209.667 134.649 C 209.667 132.991,208.261 127.833,207.809 127.833 C 207.482 127.833,206.173 126.440,205.996 125.903 C 205.892 125.590,205.784 125.333,205.755 125.333 C 205.726 125.333,204.813 125.102,203.726 124.820 C 202.639 124.538,201.249 124.265,200.636 124.214 C 199.604 124.127,199.506 124.085,199.324 123.643 C 199.096 123.094,199.171 123.110,197.953 123.355 L 197.018 123.542 196.447 122.938 C 195.892 122.349,195.845 122.333,194.647 122.332 C 192.380 122.330,190.741 122.052,189.276 121.423 C 187.999 120.874,187.783 120.833,186.180 120.833 L 184.457 120.833 184.568 121.875 M169.667 123.164 C 168.725 124.144,167.812 124.710,166.894 124.885 C 166.607 124.939,166.082 125.182,165.728 125.425 C 164.551 126.230,162.526 127.161,160.525 127.818 C 159.437 128.176,158.405 128.550,158.232 128.651 C 157.481 129.086,156.240 129.508,155.432 129.603 C 154.721 129.687,154.502 129.792,154.244 130.176 C 153.667 131.034,152.735 131.373,149.714 131.825 C 148.387 132.023,147.428 132.452,145.670 133.633 L 144.256 134.583 142.712 134.641 L 141.167 134.699 141.167 135.748 C 141.167 136.551,141.229 136.821,141.430 136.899 C 141.953 137.099,143.946 136.977,145.333 136.658 C 148.434 135.946,149.045 135.823,149.117 135.895 C 149.242 136.020,148.646 138.014,148.154 139.119 C 147.405 140.801,147.107 143.049,146.919 148.433 L 146.825 151.116 148.454 151.224 C 150.520 151.360,152.146 151.363,152.813 151.229 L 153.333 151.125 153.333 149.764 C 153.333 149.015,153.441 147.543,153.573 146.493 C 153.705 145.443,153.859 144.021,153.916 143.333 C 154.123 140.834,155.185 135.966,155.790 134.750 C 156.785 132.747,157.455 132.337,160.583 131.815 C 163.455 131.335,164.187 131.095,166.333 129.923 C 167.387 129.347,168.700 128.748,169.250 128.591 C 170.231 128.310,172.187 127.314,172.989 126.686 C 174.253 125.698,173.549 123.762,171.545 122.714 L 170.583 122.211 169.667 123.164 M324.208 122.370 C 323.618 122.655,323.775 123.669,324.827 126.352 L 325.389 127.787 326.820 127.890 C 327.606 127.946,328.596 128.041,329.019 128.099 L 329.788 128.206 329.721 128.978 C 329.684 129.403,329.576 130.336,329.483 131.052 C 329.389 131.769,329.286 133.044,329.253 133.886 L 329.195 135.417 328.181 135.818 L 327.167 136.219 327.167 137.695 L 327.167 139.171 327.936 139.544 L 328.705 139.917 328.602 141.167 C 328.290 144.976,328.282 146.766,328.575 147.213 C 329.187 148.148,330.898 148.589,332.047 148.109 C 332.969 147.724,332.980 147.670,332.736 144.833 C 332.614 143.412,332.511 141.567,332.507 140.731 L 332.500 139.213 333.958 139.097 C 334.760 139.033,335.568 138.944,335.752 138.899 C 336.346 138.754,337.993 140.437,339.394 142.620 C 339.616 142.966,340.177 143.633,340.640 144.101 C 341.452 144.921,341.485 144.990,341.533 145.999 L 341.583 147.047 343.333 148.104 C 345.468 149.393,345.448 149.392,345.591 148.243 C 345.818 146.429,345.647 145.689,344.586 143.896 C 341.401 138.510,341.225 138.048,342.303 137.905 C 343.295 137.773,343.383 137.722,343.713 137.076 C 343.953 136.608,344.107 136.539,345.736 136.178 L 347.500 135.786 347.499 134.601 C 347.497 131.614,346.348 128.288,345.142 127.777 C 344.451 127.484,344.357 127.379,344.264 126.801 C 344.149 126.084,344.195 126.110,342.631 125.870 C 342.016 125.776,341.004 125.472,340.381 125.195 C 339.471 124.790,338.933 124.672,337.622 124.592 C 336.676 124.535,335.628 124.360,335.122 124.175 C 334.622 123.993,333.325 123.774,332.083 123.663 C 329.908 123.467,328.364 123.080,327.397 122.486 C 326.808 122.124,324.864 122.054,324.208 122.370 M43.500 122.751 C 41.630 123.076,39.255 123.627,37.692 124.100 C 36.927 124.331,35.465 124.620,34.442 124.742 C 32.407 124.985,29.530 126.136,28.698 127.041 C 27.863 127.949,28.770 128.881,31.175 129.587 L 32.101 129.858 31.806 132.471 C 31.643 133.908,31.431 136.130,31.335 137.408 C 31.163 139.671,31.137 139.781,30.356 141.484 L 29.553 143.234 30.192 144.164 L 30.830 145.095 30.580 146.294 C 30.356 147.370,30.009 150.711,30.003 151.865 C 30.000 152.269,29.925 152.324,29.231 152.428 L 28.463 152.543 28.574 153.378 C 28.678 154.164,29.206 155.389,29.723 156.042 C 30.018 156.415,30.678 156.418,33.359 156.057 C 35.325 155.792,35.572 155.792,37.025 156.047 C 38.234 156.259,38.845 156.285,39.750 156.162 C 42.508 155.788,42.792 155.781,43.492 156.061 C 44.639 156.519,46.819 156.424,49.351 155.804 L 51.514 155.274 51.412 154.762 C 51.044 152.917,51.092 152.940,46.713 152.579 C 45.083 152.445,42.813 152.222,41.667 152.085 C 40.521 151.947,38.749 151.786,37.729 151.726 L 35.875 151.618 35.672 149.934 C 35.560 149.008,35.431 147.350,35.384 146.250 L 35.300 144.250 36.000 143.217 C 36.799 142.038,36.308 142.207,41.167 141.430 C 45.950 140.665,45.909 140.693,46.260 138.041 L 46.371 137.204 45.227 137.091 C 43.984 136.968,42.213 137.147,39.536 137.667 C 38.593 137.850,37.532 138.000,37.178 138.000 L 36.535 138.000 36.416 136.494 C 36.351 135.666,36.352 133.463,36.418 131.598 L 36.539 128.208 37.395 128.104 C 38.211 128.004,39.949 127.595,42.667 126.861 C 43.354 126.675,44.592 126.399,45.417 126.247 C 48.233 125.728,49.770 124.762,49.948 123.400 L 50.037 122.717 49.245 122.609 C 47.990 122.437,44.866 122.514,43.500 122.751 M61.146 122.645 C 60.101 122.896,59.057 124.555,58.945 126.142 C 58.773 128.588,58.018 131.796,57.411 132.667 C 56.666 133.734,55.167 137.323,55.167 138.039 C 55.167 138.724,54.497 140.078,53.392 141.627 C 52.825 142.421,52.613 142.886,52.560 143.451 C 52.513 143.952,52.252 144.609,51.791 145.385 C 50.895 146.893,50.600 149.833,51.345 149.833 C 53.172 149.833,55.225 148.488,55.299 147.242 C 55.343 146.505,55.413 146.369,55.936 146.010 C 56.260 145.788,56.681 145.334,56.873 145.000 C 57.285 144.285,57.570 144.275,61.083 144.849 C 63.987 145.323,64.740 145.541,64.801 145.928 C 64.860 146.299,65.702 149.106,66.699 152.250 C 67.076 153.442,67.413 154.521,67.446 154.648 C 67.493 154.825,67.734 154.858,68.472 154.791 C 70.796 154.581,72.965 152.550,72.281 151.226 C 71.790 150.277,71.337 148.351,70.836 145.083 C 70.065 140.066,70.026 139.892,69.321 138.327 C 68.703 136.954,68.510 136.168,68.792 136.166 C 68.860 136.165,69.125 135.997,69.380 135.791 L 69.844 135.417 69.330 133.917 C 69.011 132.983,68.744 131.746,68.624 130.641 C 68.442 128.967,68.404 128.849,67.969 128.591 C 67.526 128.330,67.511 128.278,67.607 127.354 C 67.703 126.443,67.659 126.284,66.812 124.450 L 65.917 122.511 63.750 122.525 C 62.558 122.533,61.387 122.587,61.146 122.645 M377.333 124.625 C 376.149 124.724,374.559 124.999,373.717 125.250 L 372.850 125.508 372.932 126.379 C 372.977 126.858,373.131 128.273,373.274 129.524 C 373.512 131.601,373.512 131.900,373.267 132.974 C 372.969 134.287,372.927 135.910,373.166 136.917 C 373.317 137.548,373.296 137.607,372.787 138.030 C 372.431 138.327,372.261 138.607,372.282 138.864 C 372.300 139.076,372.407 140.253,372.520 141.479 L 372.725 143.708 373.274 143.937 C 374.430 144.421,376.665 143.926,376.669 143.186 C 376.671 142.946,376.816 142.188,376.992 141.500 C 379.165 133.010,379.256 132.507,379.118 129.770 C 379.030 128.049,378.364 124.910,378.034 124.664 C 377.969 124.616,377.654 124.599,377.333 124.625 M295.417 125.188 C 293.870 125.381,290.645 126.214,289.500 126.717 C 288.537 127.140,287.970 127.290,285.250 127.839 C 282.758 128.342,281.179 128.840,280.250 129.416 C 278.676 130.392,274.052 132.167,273.084 132.167 C 272.877 132.167,272.672 133.011,272.669 133.875 L 272.667 134.333 274.072 134.333 C 276.102 134.333,277.619 133.958,279.635 132.959 C 281.357 132.105,281.419 132.089,283.134 132.025 L 284.879 131.960 284.759 132.439 C 284.693 132.702,284.578 134.792,284.503 137.083 C 284.367 141.282,284.225 142.252,283.562 143.539 C 283.349 143.953,283.367 144.090,283.758 145.020 C 284.179 146.019,284.185 146.083,283.987 147.527 C 283.733 149.385,283.866 151.565,284.340 153.320 L 284.703 154.667 285.810 154.666 C 288.738 154.663,288.636 154.921,288.540 147.789 C 288.494 144.377,288.542 140.345,288.655 138.167 C 288.761 136.104,288.894 133.534,288.949 132.456 L 289.049 130.496 290.483 130.067 C 291.271 129.831,292.391 129.495,292.970 129.321 C 294.197 128.951,297.656 128.243,299.044 128.076 C 300.383 127.916,301.667 126.557,301.667 125.301 C 301.667 124.961,297.798 124.891,295.417 125.188 M216.501 125.665 C 216.273 126.090,215.553 126.461,214.684 126.600 L 214.000 126.709 214.000 127.620 C 214.000 128.416,213.928 128.614,213.428 129.198 C 212.939 129.770,212.842 130.027,212.759 130.975 C 212.609 132.686,212.334 134.247,211.832 136.250 C 211.123 139.081,210.857 143.812,211.307 145.599 C 211.612 146.812,212.575 147.881,214.629 149.290 C 215.596 149.954,216.527 150.624,216.697 150.778 C 217.475 151.481,221.071 151.729,222.777 151.196 C 224.227 150.744,226.573 149.135,227.104 148.230 C 227.341 147.825,227.667 147.402,227.829 147.288 C 228.712 146.670,230.454 143.799,230.776 142.432 C 230.904 141.890,231.352 140.749,231.773 139.897 L 232.537 138.347 232.560 135.548 C 232.585 132.545,232.465 132.012,231.493 130.819 C 231.300 130.582,231.106 130.057,231.061 129.652 C 231.016 129.248,230.948 128.758,230.909 128.564 C 230.826 128.152,228.621 126.439,227.608 125.999 C 225.991 125.298,216.845 125.022,216.501 125.665 M94.931 126.124 C 94.480 126.159,92.770 126.558,91.130 127.010 C 89.489 127.463,87.908 127.835,87.615 127.836 C 85.916 127.845,82.839 128.835,79.509 130.445 C 77.397 131.465,76.715 131.717,75.801 131.815 C 75.101 131.890,74.559 132.046,74.354 132.231 C 74.174 132.394,73.587 132.735,73.049 132.990 C 72.065 133.455,71.044 134.766,71.393 135.116 C 71.619 135.343,75.345 135.382,76.079 135.166 C 76.448 135.057,77.760 134.483,78.994 133.891 C 82.254 132.325,84.472 131.863,84.275 132.792 C 84.221 133.044,84.061 134.787,83.919 136.667 C 83.559 141.436,83.285 142.923,82.657 143.509 C 82.027 144.098,82.009 144.867,82.601 146.034 C 82.933 146.690,83.010 147.029,82.929 147.487 C 82.871 147.815,82.753 149.196,82.667 150.556 L 82.510 153.029 82.995 153.990 C 83.613 155.215,84.399 155.521,86.066 155.185 C 87.750 154.846,88.168 154.654,88.080 154.260 C 87.374 151.117,87.203 147.344,87.591 143.482 C 88.049 138.937,88.329 135.125,88.331 133.415 C 88.333 132.007,88.379 131.719,88.625 131.567 C 89.256 131.179,93.388 130.002,95.917 129.491 C 99.597 128.747,101.391 127.749,101.104 126.607 C 100.959 126.030,98.560 125.842,94.931 126.124 M315.500 126.770 C 313.150 127.191,310.350 127.751,309.333 128.003 C 308.646 128.174,307.312 128.467,306.370 128.654 C 303.753 129.174,301.991 130.148,301.494 131.348 C 301.240 131.960,301.248 131.968,302.833 132.583 C 304.517 133.237,304.426 133.090,304.200 134.788 C 304.091 135.601,303.924 137.425,303.827 138.842 C 303.644 141.528,303.278 144.074,302.981 144.725 C 302.854 145.003,302.878 145.450,303.070 146.379 C 303.345 147.710,303.410 150.407,303.224 152.792 L 303.117 154.167 302.381 154.167 C 301.751 154.167,301.658 154.210,301.738 154.463 C 301.790 154.626,301.948 155.203,302.089 155.745 C 302.519 157.394,302.986 157.618,305.573 157.414 C 306.495 157.342,307.587 157.296,308.000 157.312 C 308.412 157.329,310.100 157.376,311.750 157.416 C 313.400 157.457,315.593 157.536,316.623 157.593 C 318.295 157.685,318.711 157.647,320.498 157.237 L 322.500 156.777 322.500 156.243 C 322.500 155.949,322.455 155.481,322.399 155.204 L 322.298 154.699 320.774 154.591 C 319.936 154.531,317.900 154.338,316.250 154.161 C 314.600 153.985,312.104 153.775,310.704 153.694 C 307.685 153.520,307.999 153.751,307.643 151.453 C 306.712 145.456,308.165 143.667,313.966 143.667 C 317.241 143.667,317.405 143.556,317.994 140.942 C 318.273 139.706,315.360 139.363,311.750 140.205 C 310.742 140.440,309.519 140.681,309.032 140.740 L 308.148 140.847 308.258 139.049 C 308.319 138.059,308.417 136.096,308.476 134.685 L 308.583 132.119 309.333 131.887 C 311.080 131.347,316.555 130.000,317.006 130.000 C 318.707 130.000,321.833 127.611,321.096 126.873 C 320.960 126.738,316.171 126.650,315.500 126.770 M225.615 127.863 C 226.619 128.807,226.881 129.432,227.021 131.232 C 227.095 132.178,227.311 133.825,227.502 134.891 C 228.234 138.975,226.303 145.083,223.667 147.028 C 222.279 148.052,218.522 147.575,217.297 146.219 C 216.743 145.606,216.278 143.112,216.277 140.750 C 216.276 138.503,216.339 137.967,217.194 132.842 L 217.708 129.767 216.819 128.988 L 215.931 128.208 216.424 128.108 C 220.436 127.294,224.882 127.175,225.615 127.863 M267.333 127.832 C 263.990 128.567,262.984 129.005,261.584 130.335 C 260.647 131.225,259.466 131.833,258.673 131.833 C 258.396 131.833,256.915 133.479,256.627 134.107 C 256.493 134.398,255.297 135.265,254.016 136.000 C 253.831 136.107,254.000 136.536,254.833 138.070 L 255.884 140.005 256.734 140.240 C 257.201 140.370,258.183 140.525,258.917 140.586 C 263.270 140.945,266.204 142.257,266.842 144.128 C 267.422 145.828,262.788 150.900,258.942 152.775 L 257.967 153.250 258.067 153.982 C 258.122 154.384,258.167 154.890,258.167 155.107 C 258.167 155.593,259.877 155.673,261.265 155.252 C 261.715 155.115,262.264 155.003,262.485 155.002 C 263.229 154.998,264.686 154.442,264.870 154.091 C 265.390 153.099,267.211 151.513,268.355 151.055 C 268.943 150.820,268.969 150.774,269.107 149.718 C 269.245 148.662,269.269 148.619,269.830 148.438 C 270.660 148.170,271.092 147.286,271.399 145.228 C 271.538 144.302,271.777 143.279,271.931 142.956 L 272.211 142.369 271.647 141.666 C 270.544 140.291,269.684 139.755,268.228 139.536 C 264.047 138.906,262.492 138.678,261.718 138.581 C 260.911 138.479,260.828 138.424,260.494 137.777 C 260.297 137.396,259.980 136.915,259.789 136.709 C 259.402 136.290,259.395 136.306,260.083 135.951 C 260.358 135.809,260.996 135.328,261.500 134.882 C 263.074 133.489,264.034 132.881,266.997 131.404 L 269.870 129.972 271.409 130.087 C 273.598 130.251,274.271 129.784,274.536 127.917 C 274.606 127.423,269.469 127.363,267.333 127.832 M198.283 128.003 C 199.793 128.168,201.081 128.709,201.633 129.411 C 201.909 129.763,202.104 129.833,202.804 129.833 C 203.639 129.833,205.493 131.274,205.222 131.712 C 204.405 133.034,197.351 135.497,194.375 135.499 C 193.720 135.500,193.724 135.547,194.030 130.799 L 194.232 127.682 195.574 127.768 C 196.313 127.815,197.532 127.921,198.283 128.003 M336.324 128.005 C 337.486 128.155,339.367 128.869,339.997 129.398 C 340.136 129.514,340.692 129.774,341.233 129.975 C 341.773 130.176,342.592 130.617,343.053 130.956 L 343.891 131.571 343.033 131.947 C 340.709 132.966,334.578 134.657,333.182 134.665 C 332.986 134.666,332.965 134.214,333.053 131.875 C 333.191 128.217,333.230 128.036,333.894 127.952 C 334.821 127.836,335.063 127.841,336.324 128.005 M362.781 128.173 C 362.082 128.348,359.687 129.304,359.407 129.519 C 359.310 129.593,358.821 129.761,358.321 129.891 C 357.672 130.060,357.220 130.317,356.747 130.787 C 356.134 131.396,355.236 131.838,354.142 132.071 C 353.860 132.131,353.211 132.717,352.341 133.699 C 351.592 134.543,350.761 135.340,350.494 135.469 C 348.986 136.199,348.885 136.828,349.938 138.946 C 350.626 140.329,350.486 140.269,354.167 140.761 C 359.438 141.466,361.404 142.748,360.813 145.093 C 360.457 146.508,356.344 150.678,354.835 151.154 C 353.582 151.550,352.833 152.209,352.833 152.917 C 352.833 153.137,352.650 153.454,352.414 153.639 L 351.995 153.968 352.857 154.499 L 353.719 155.029 355.803 154.779 L 357.886 154.529 359.328 153.056 C 360.120 152.246,361.140 151.290,361.593 150.931 C 362.696 150.057,362.780 149.939,362.911 149.066 C 362.973 148.652,363.112 148.287,363.220 148.254 C 363.328 148.221,363.618 148.151,363.864 148.097 C 364.404 147.979,364.425 147.917,364.754 145.500 C 364.933 144.185,365.117 143.442,365.341 143.132 C 365.769 142.539,365.779 142.583,364.907 141.333 C 363.865 139.842,362.824 139.511,358.083 139.165 C 355.148 138.950,355.326 139.025,354.408 137.628 C 353.858 136.790,353.839 136.829,355.208 135.907 C 355.873 135.460,356.904 134.714,357.500 134.251 C 360.421 131.978,363.018 130.978,365.269 131.260 C 366.428 131.404,368.075 130.584,368.235 129.782 C 368.458 128.668,368.372 128.377,367.792 128.276 C 366.699 128.086,363.398 128.018,362.781 128.173 M128.777 129.266 C 128.612 129.899,128.045 131.242,127.518 132.250 C 125.083 136.900,124.764 137.385,123.907 137.743 C 123.546 137.894,123.333 138.097,123.333 138.292 C 123.333 139.943,120.802 143.092,119.347 143.251 C 118.340 143.361,117.000 143.782,117.000 143.989 C 117.000 144.059,117.418 144.447,117.928 144.850 C 119.193 145.850,119.149 146.116,117.272 148.808 C 115.983 150.655,116.594 151.446,119.736 151.997 C 121.939 152.383,122.460 152.020,123.674 149.259 C 124.303 147.828,125.110 147.352,126.561 147.558 C 129.188 147.930,135.332 150.838,135.334 151.710 C 135.340 153.818,136.902 154.638,139.621 153.960 C 140.971 153.623,141.208 153.508,141.575 153.011 L 141.992 152.446 141.424 151.654 C 140.543 150.428,140.195 149.635,139.998 148.407 C 139.899 147.785,139.769 147.197,139.709 147.100 C 139.649 147.004,139.551 145.423,139.490 143.587 C 139.407 141.046,139.308 140.019,139.074 139.284 C 138.797 138.410,138.788 138.188,138.985 136.951 C 139.702 132.429,139.637 131.840,138.185 129.713 C 137.180 128.241,137.487 128.330,133.054 128.217 L 129.077 128.116 128.777 129.266 M238.500 131.224 L 238.500 131.833 237.321 131.833 L 236.142 131.833 236.185 132.754 C 236.224 133.595,236.184 133.714,235.720 134.129 C 235.234 134.564,235.204 134.670,235.022 136.583 C 234.918 137.683,234.683 139.146,234.501 139.833 C 234.318 140.521,234.091 141.983,233.996 143.083 C 233.901 144.183,233.751 145.487,233.663 145.980 C 233.361 147.672,234.673 150.981,235.790 151.342 C 236.743 151.651,237.843 152.240,238.583 152.838 C 240.765 154.601,242.638 154.585,245.698 152.776 C 248.695 151.003,249.215 150.407,250.802 146.916 C 251.344 145.725,252.073 144.188,252.422 143.500 L 253.056 142.250 253.056 139.286 L 253.055 136.323 252.528 135.778 C 252.228 135.470,251.999 135.057,251.999 134.825 C 251.997 134.221,251.178 132.927,250.417 132.327 C 248.794 131.046,247.965 130.880,242.375 130.723 L 238.500 130.614 238.500 131.224 M246.409 132.493 C 247.430 133.453,248.191 135.585,248.733 139.007 C 249.126 141.492,248.888 142.646,247.188 146.474 C 246.726 147.515,246.266 148.616,246.165 148.923 C 246.014 149.379,245.747 149.607,244.699 150.178 C 243.994 150.561,243.257 151.069,243.062 151.306 L 242.708 151.738 242.104 151.207 C 241.772 150.915,240.940 150.299,240.256 149.837 C 238.576 148.704,238.581 148.723,238.594 143.250 C 238.605 138.926,238.606 138.912,239.134 136.926 L 239.664 134.935 238.999 134.146 C 238.633 133.712,238.333 133.316,238.333 133.267 C 238.333 133.188,239.973 132.653,241.667 132.179 C 242.898 131.835,245.923 132.035,246.409 132.493 M62.905 133.708 C 62.965 134.006,63.058 135.929,63.111 137.980 L 63.207 141.710 62.312 141.611 C 61.820 141.556,60.835 141.463,60.125 141.403 C 59.415 141.343,58.833 141.226,58.833 141.142 C 58.833 140.933,59.681 139.283,60.393 138.105 C 60.947 137.190,61.560 135.813,62.238 133.958 C 62.578 133.029,62.754 132.963,62.905 133.708 M133.378 135.708 C 134.327 138.764,134.866 146.252,134.125 146.092 C 133.919 146.047,133.150 145.931,132.417 145.833 C 129.420 145.434,127.072 144.568,127.268 143.934 C 127.665 142.646,128.119 141.708,128.784 140.805 C 129.203 140.236,130.063 138.949,130.693 137.946 C 132.801 134.595,132.984 134.442,133.378 135.708 M372.398 147.286 C 371.388 147.413,371.041 149.438,371.704 151.333 L 372.083 152.417 374.197 152.463 L 376.311 152.510 376.845 151.733 C 377.504 150.775,377.833 149.720,377.833 148.563 L 377.833 147.680 376.970 147.423 C 376.160 147.183,373.780 147.111,372.398 147.286 M277.160 162.875 C 275.779 163.572,276.078 164.976,277.640 165.126 C 279.844 165.338,281.529 164.014,280.440 162.925 C 279.858 162.343,278.263 162.319,277.160 162.875 M232.538 164.094 C 229.755 165.433,228.328 167.333,230.104 167.333 L 230.500 167.333 230.500 169.548 C 230.500 172.082,230.803 173.038,231.748 173.487 C 233.503 174.320,236.500 173.396,236.500 172.022 C 236.500 170.999,236.164 170.781,235.238 171.202 C 234.448 171.563,234.144 170.947,234.202 169.099 L 234.250 167.583 235.375 167.439 L 236.500 167.294 236.500 166.481 L 236.500 165.667 235.417 165.667 L 234.333 165.667 234.333 164.867 C 234.333 163.568,233.962 163.408,232.538 164.094 M300.917 165.346 C 300.466 165.656,300.277 165.677,299.000 165.565 C 294.484 165.167,291.980 167.124,293.821 169.614 L 294.189 170.111 293.594 170.706 C 292.890 171.410,292.833 171.954,293.396 172.608 L 293.792 173.068 293.396 173.380 C 292.441 174.131,293.275 175.716,294.882 176.204 C 298.320 177.247,302.000 175.740,302.000 173.289 C 302.000 171.501,301.044 170.984,298.364 171.320 C 296.950 171.497,296.167 171.370,296.167 170.962 C 296.167 170.808,296.543 170.748,297.542 170.742 C 299.811 170.728,301.333 169.608,301.333 167.951 C 301.333 167.606,301.457 167.273,301.650 167.098 C 302.699 166.149,302.039 164.574,300.917 165.346 M206.525 165.588 C 203.078 166.342,201.827 170.180,204.244 172.584 C 207.041 175.366,212.167 173.316,212.167 169.417 C 212.167 166.513,209.761 164.880,206.525 165.588 M216.367 165.516 C 211.001 166.430,211.564 173.833,217.000 173.833 C 220.113 173.833,222.351 171.185,221.662 168.316 C 221.167 166.249,218.948 165.076,216.367 165.516 M227.272 165.450 C 227.207 165.515,226.458 165.571,225.607 165.575 C 221.777 165.595,220.824 169.273,224.232 170.886 C 225.230 171.359,225.464 171.603,225.186 171.881 C 225.050 172.016,224.878 171.967,224.542 171.698 C 222.914 170.392,222.281 170.238,222.065 171.096 C 221.748 172.358,222.685 173.688,223.861 173.646 C 224.258 173.631,224.965 173.676,225.430 173.746 C 227.404 174.042,228.966 173.031,229.127 171.354 C 229.256 170.010,228.653 169.240,226.708 168.266 C 225.899 167.860,225.624 167.482,225.980 167.262 C 226.060 167.213,226.454 167.432,226.855 167.751 C 228.397 168.977,229.493 168.220,228.749 166.441 C 228.464 165.759,227.566 165.156,227.272 165.450 M240.221 165.506 C 235.426 166.466,235.735 173.403,240.590 173.793 C 242.693 173.961,244.735 172.896,244.634 171.684 C 244.576 171.000,244.108 170.916,242.740 171.341 C 241.923 171.595,241.277 171.459,240.736 170.917 C 239.926 170.108,240.124 170.000,242.407 170.000 C 244.683 170.000,245.001 169.857,244.999 168.838 C 244.994 166.550,242.765 164.996,240.221 165.506 M258.848 165.488 C 258.718 165.570,258.069 165.596,257.406 165.546 C 255.595 165.409,254.199 166.200,253.956 167.502 C 253.901 167.800,253.872 167.736,253.856 167.275 C 253.800 165.695,251.621 164.854,250.496 165.978 L 250.018 166.456 249.967 166.020 C 249.917 165.590,249.898 165.584,248.648 165.602 C 246.199 165.638,244.593 166.841,245.755 167.768 C 246.424 168.301,246.414 170.972,245.741 171.676 C 244.525 172.947,245.390 173.583,248.333 173.583 C 251.407 173.583,252.162 173.017,250.667 171.833 L 250.000 171.305 250.000 169.903 C 250.000 168.328,250.017 168.305,250.667 169.000 C 251.364 169.747,252.479 169.721,253.261 168.939 C 253.865 168.335,254.000 168.336,254.000 168.944 C 254.000 169.456,255.145 170.594,256.007 170.939 C 256.656 171.199,257.098 171.680,256.883 171.895 C 256.691 172.086,256.527 172.006,255.765 171.346 C 254.207 169.998,253.297 170.479,253.859 172.353 C 254.215 173.542,254.642 173.692,257.750 173.725 C 261.405 173.764,262.006 170.247,258.658 168.412 C 258.021 168.063,257.500 167.677,257.500 167.555 C 257.500 167.180,258.011 167.308,258.609 167.833 C 259.214 168.365,260.093 168.507,260.467 168.133 C 261.291 167.309,259.805 164.881,258.848 165.488 M278.833 165.580 C 276.324 166.096,275.554 166.867,276.583 167.833 C 276.971 168.197,277.000 168.335,277.000 169.797 C 277.000 171.230,276.963 171.412,276.583 171.864 C 275.631 172.995,276.242 173.553,278.523 173.637 C 281.395 173.741,282.490 173.120,281.413 171.997 L 280.917 171.479 280.833 168.448 L 280.750 165.417 280.333 165.387 C 280.104 165.371,279.429 165.458,278.833 165.580 M284.401 165.648 C 282.331 166.241,281.636 167.058,282.574 167.796 C 283.163 168.259,283.233 171.404,282.667 171.917 C 281.551 172.926,282.405 173.583,284.833 173.583 C 287.314 173.583,287.847 173.169,287.083 171.833 C 286.736 171.226,286.744 168.613,287.095 168.262 C 288.083 167.274,288.914 171.064,287.944 172.136 C 287.089 173.081,287.951 173.667,290.167 173.648 C 292.679 173.625,293.373 173.145,292.532 172.008 C 292.205 171.566,292.166 171.306,292.163 169.548 C 292.158 166.647,291.715 165.856,289.905 165.512 C 288.863 165.313,287.770 165.566,287.347 166.104 C 286.956 166.600,286.833 166.603,286.833 166.117 C 286.833 165.279,286.151 165.147,284.401 165.648 M307.333 165.498 C 307.195 165.587,306.594 165.614,305.984 165.558 C 302.126 165.204,300.924 169.241,304.399 170.886 C 305.397 171.359,305.631 171.603,305.353 171.881 C 305.217 172.016,305.045 171.967,304.709 171.698 C 303.081 170.392,302.447 170.238,302.232 171.096 C 301.889 172.464,302.807 173.629,304.264 173.671 C 307.002 173.750,307.257 173.732,307.915 173.410 C 310.250 172.264,309.731 169.696,306.875 168.266 C 306.062 167.859,305.791 167.482,306.151 167.260 C 306.234 167.209,306.616 167.429,307.000 167.750 C 308.091 168.661,309.167 168.517,309.167 167.460 C 309.167 166.290,308.018 165.060,307.333 165.498 M318.030 165.520 C 313.500 166.273,313.202 172.719,317.653 173.664 C 320.394 174.246,323.475 172.342,322.414 170.723 C 322.116 170.268,321.663 170.232,320.667 170.583 C 319.685 170.930,319.587 170.911,318.845 170.241 C 318.066 169.537,317.852 168.833,318.239 168.243 C 318.634 167.641,319.085 167.726,319.510 168.483 C 320.683 170.569,323.370 169.058,322.326 166.901 C 321.746 165.704,320.101 165.175,318.030 165.520 M327.083 165.448 C 323.190 166.008,321.608 169.968,324.215 172.630 C 325.795 174.245,328.857 174.241,330.613 172.621 C 333.869 169.620,331.504 164.813,327.083 165.448 M334.653 165.639 C 332.697 166.149,332.236 166.764,333.016 167.820 C 333.490 168.460,333.440 171.423,332.947 171.967 C 332.424 172.544,332.624 173.365,333.333 173.547 C 335.277 174.048,337.325 173.476,337.082 172.500 C 336.659 170.800,336.810 168.167,337.331 168.167 C 338.081 168.167,338.302 170.755,337.658 172.016 C 337.037 173.233,337.518 173.667,339.490 173.667 C 341.874 173.667,342.258 173.342,341.757 171.748 C 341.397 170.605,341.446 168.409,341.837 168.159 C 342.610 167.665,342.971 170.186,342.386 171.997 C 341.941 173.375,342.260 173.621,344.531 173.650 C 346.540 173.676,347.278 173.120,346.602 172.088 C 346.392 171.768,346.333 171.231,346.332 169.631 C 346.331 166.509,346.060 165.834,344.673 165.502 C 343.642 165.254,342.736 165.486,342.087 166.163 L 341.606 166.665 341.095 166.108 C 340.197 165.131,338.435 165.166,337.486 166.181 C 336.923 166.784,336.833 166.787,336.833 166.200 C 336.833 165.279,336.429 165.175,334.653 165.639 M196.388 165.674 C 194.487 166.050,193.602 167.219,194.753 167.835 C 195.442 168.204,195.381 170.936,194.667 171.667 C 193.325 173.039,194.564 173.777,197.983 173.639 C 200.016 173.558,200.848 172.905,199.905 172.132 C 198.990 171.381,199.000 171.406,199.005 169.792 C 199.010 168.400,199.034 168.281,199.255 168.574 C 199.390 168.751,199.500 168.946,199.500 169.005 C 199.500 169.213,200.355 169.500,200.977 169.500 C 202.699 169.500,203.432 166.730,201.950 165.826 C 200.958 165.221,199.635 165.425,199.199 166.250 C 199.058 166.516,199.007 166.533,198.944 166.333 C 198.901 166.196,198.823 165.952,198.771 165.792 C 198.667 165.468,197.678 165.419,196.388 165.674 M262.008 165.670 C 260.980 165.912,260.661 166.816,261.459 167.229 C 262.151 167.587,262.347 167.874,263.748 170.583 C 265.837 174.626,266.190 174.737,267.581 171.794 C 267.916 171.085,268.257 170.464,268.338 170.414 C 268.492 170.319,268.517 170.354,269.643 172.265 C 271.012 174.589,271.324 174.420,273.416 170.227 C 274.548 167.958,274.970 167.266,275.311 167.116 C 276.743 166.488,276.124 165.498,274.303 165.502 C 272.548 165.507,272.291 165.768,272.582 167.250 C 272.730 167.999,271.991 168.882,271.566 168.465 C 271.284 168.188,271.261 167.956,271.370 166.429 C 271.430 165.589,270.942 165.429,268.677 165.544 C 267.303 165.613,267.067 165.671,266.802 165.997 C 266.407 166.485,266.420 166.599,266.917 167.031 C 267.394 167.447,267.471 168.179,267.071 168.511 C 266.771 168.759,266.654 168.646,266.235 167.705 C 266.066 167.325,266.042 167.067,266.154 166.856 C 266.744 165.754,264.445 165.096,262.008 165.670 M297.794 167.042 C 298.317 167.691,298.206 169.245,297.624 169.430 C 296.884 169.665,296.153 167.235,296.875 166.944 C 297.254 166.791,297.623 166.830,297.794 167.042 M241.764 167.415 C 242.179 168.049,241.970 168.333,241.089 168.333 C 240.425 168.333,240.333 168.290,240.333 167.971 C 240.333 167.086,241.302 166.709,241.764 167.415 M207.803 167.958 C 208.734 169.268,208.716 172.144,207.779 171.784 C 207.169 171.550,206.524 169.022,206.834 168.081 C 207.065 167.381,207.366 167.343,207.803 167.958 M217.117 167.632 C 217.863 168.106,218.337 171.179,217.741 171.674 C 217.356 171.993,216.874 171.432,216.578 170.321 C 216.104 168.539,216.379 167.164,217.117 167.632 M327.635 167.838 C 328.368 168.625,328.707 170.883,328.185 171.501 L 327.833 171.917 327.502 171.525 C 326.331 170.143,326.460 166.576,327.635 167.838 M311.167 170.117 C 309.744 170.635,309.523 172.906,310.830 173.582 C 312.951 174.678,314.852 172.076,313.072 170.513 C 312.504 170.014,311.833 169.875,311.167 170.117 M297.264 174.000 C 298.362 174.000,298.500 174.035,298.500 174.313 C 298.500 175.012,296.818 175.189,295.899 174.587 C 295.448 174.291,295.338 173.736,295.764 173.899 C 295.909 173.954,296.584 174.000,297.264 174.000 " stroke="none" fill="#000000" fill-rule="evenodd"></path><path id="path1" d="M75.875 83.129 L 75.167 83.186 75.157 85.051 C 75.152 86.077,75.085 87.779,75.008 88.833 C 74.843 91.096,74.723 90.831,75.833 90.650 C 76.337 90.568,77.875 90.428,79.250 90.340 C 81.990 90.165,83.301 89.869,87.040 88.582 C 88.242 88.168,89.240 87.812,89.258 87.790 C 89.510 87.481,89.478 86.167,89.219 86.167 C 88.789 86.166,86.902 85.247,85.999 84.599 C 85.363 84.142,85.027 84.030,83.993 83.933 C 83.309 83.869,81.737 83.676,80.500 83.504 C 77.821 83.133,76.824 83.052,75.875 83.129 M237.272 88.708 C 237.041 89.569,237.155 94.707,237.403 94.612 C 237.533 94.562,238.714 94.433,240.028 94.325 C 241.867 94.174,242.735 94.018,243.800 93.648 C 244.561 93.383,245.341 93.167,245.533 93.167 C 246.116 93.167,247.618 91.547,247.315 91.244 C 246.986 90.915,245.297 90.333,244.669 90.333 C 244.371 90.333,243.878 90.126,243.468 89.829 C 242.581 89.186,239.124 88.333,237.407 88.333 C 237.388 88.333,237.327 88.502,237.272 88.708 M300.566 89.258 C 300.503 89.437,300.175 89.958,299.837 90.417 C 299.085 91.438,297.833 93.504,297.833 93.723 C 297.833 93.812,297.530 94.144,297.160 94.461 C 296.320 95.180,295.665 96.447,295.548 97.580 L 295.459 98.448 296.854 98.891 C 298.730 99.487,300.397 99.827,301.466 99.830 L 302.349 99.833 302.260 98.208 C 302.212 97.315,302.130 95.757,302.080 94.747 C 301.937 91.914,300.926 88.246,300.566 89.258 M162.142 91.778 C 162.084 93.229,162.072 93.266,161.299 94.344 C 160.539 95.404,159.500 97.385,159.500 97.775 C 159.500 98.043,161.248 98.220,162.530 98.083 L 163.587 97.970 163.623 96.110 C 163.663 94.013,163.431 90.862,163.221 90.658 C 163.146 90.584,162.885 90.475,162.642 90.415 L 162.201 90.306 162.142 91.778 M81.333 94.078 C 80.554 94.202,79.124 94.311,78.155 94.319 C 77.097 94.328,76.049 94.436,75.530 94.590 L 74.667 94.846 74.667 98.695 L 74.667 102.544 75.292 102.432 C 75.635 102.371,77.904 102.029,80.333 101.672 C 85.376 100.932,85.173 100.984,85.559 100.329 C 85.724 100.050,86.046 99.792,86.301 99.736 C 90.217 98.873,91.397 97.609,90.351 95.398 L 89.869 94.379 88.560 94.171 C 86.608 93.861,82.984 93.814,81.333 94.078 M220.667 127.607 C 220.438 127.641,219.387 127.790,218.333 127.938 C 216.005 128.266,216.079 128.202,217.052 129.053 L 217.849 129.750 217.413 132.250 C 217.174 133.625,216.859 135.425,216.713 136.250 C 216.098 139.732,216.437 144.905,217.355 146.074 C 218.125 147.052,220.160 147.626,222.127 147.421 C 224.526 147.171,226.598 143.725,227.434 138.597 L 227.722 136.825 227.274 134.038 C 227.028 132.504,226.828 130.904,226.830 130.482 C 226.833 129.683,226.446 128.927,225.535 127.958 C 225.111 127.508,222.578 127.325,220.667 127.607 M194.105 130.547 C 194.043 132.126,193.945 133.895,193.888 134.481 L 193.783 135.545 194.766 135.428 C 197.949 135.052,203.321 133.253,204.591 132.137 L 205.187 131.614 204.329 130.746 C 203.517 129.924,203.434 129.882,202.773 129.956 C 202.134 130.028,202.017 129.978,201.408 129.368 C 200.537 128.498,199.525 128.204,196.703 128.003 C 195.484 127.915,194.425 127.807,194.351 127.761 C 194.278 127.716,194.167 128.969,194.105 130.547 M333.734 128.151 C 333.283 128.348,332.854 134.501,333.292 134.499 C 335.103 134.492,343.500 132.021,343.500 131.495 C 343.500 131.277,341.646 130.176,340.917 129.961 C 340.550 129.852,339.956 129.554,339.598 129.297 C 338.364 128.414,334.750 127.707,333.734 128.151 M242.597 132.180 C 241.359 132.366,239.864 132.746,239.076 133.076 L 238.470 133.329 239.124 134.094 L 239.778 134.859 239.297 136.804 C 238.505 140.008,238.346 146.432,239.009 148.444 C 239.135 148.826,239.491 149.171,240.299 149.694 C 240.913 150.092,241.705 150.677,242.060 150.995 L 242.705 151.573 243.034 151.166 C 243.216 150.942,243.929 150.456,244.619 150.087 C 245.833 149.438,245.885 149.385,246.247 148.417 C 246.453 147.867,247.010 146.525,247.486 145.434 C 248.945 142.087,249.056 141.297,248.502 138.217 C 247.536 132.851,246.331 131.619,242.597 132.180 M62.024 134.841 C 61.734 135.707,61.150 137.017,60.725 137.750 C 58.524 141.547,58.379 141.113,61.958 141.434 L 63.167 141.543 63.165 139.730 C 63.163 137.681,62.887 134.174,62.685 133.627 C 62.575 133.331,62.453 133.555,62.024 134.841 M132.209 135.870 C 131.856 136.354,131.127 137.462,130.588 138.333 C 130.050 139.204,129.357 140.232,129.049 140.618 C 128.479 141.332,127.603 143.064,127.414 143.849 C 127.239 144.579,131.648 145.991,134.125 145.999 C 134.824 146.002,133.741 135.541,132.994 135.080 C 132.915 135.031,132.562 135.387,132.209 135.870 " stroke="none" fill="#ffffff" fill-rule="evenodd"></path><path id="path2" d="M237.065 92.417 C 237.065 93.608,237.092 94.074,237.124 93.451 C 237.156 92.829,237.156 91.854,237.123 91.285 C 237.091 90.716,237.064 91.225,237.065 92.417 M196.875 127.948 C 197.035 127.990,197.298 127.990,197.458 127.948 C 197.619 127.906,197.487 127.872,197.167 127.872 C 196.846 127.872,196.715 127.906,196.875 127.948 M334.627 127.951 C 334.834 127.991,335.134 127.990,335.294 127.948 C 335.453 127.906,335.283 127.874,334.917 127.875 C 334.550 127.877,334.420 127.911,334.627 127.951 M226.875 130.417 C 226.877 130.783,226.911 130.914,226.951 130.706 C 226.991 130.499,226.990 130.199,226.948 130.040 C 226.906 129.880,226.874 130.050,226.875 130.417 M333.050 131.667 C 333.050 132.171,333.081 132.377,333.119 132.125 C 333.158 131.873,333.158 131.460,333.119 131.208 C 333.081 130.956,333.050 131.162,333.050 131.667 M62.375 141.615 C 62.535 141.657,62.798 141.657,62.958 141.615 C 63.119 141.573,62.987 141.539,62.667 141.539 C 62.346 141.539,62.215 141.573,62.375 141.615 " stroke="none" fill="#2d2e2f" fill-rule="evenodd"></path><path id="path3" d="M75.045 85.167 C 75.045 85.579,75.078 85.748,75.118 85.542 C 75.157 85.335,75.157 84.998,75.118 84.792 C 75.078 84.585,75.045 84.754,75.045 85.167 M78.461 90.454 C 78.761 90.491,79.211 90.490,79.461 90.452 C 79.712 90.414,79.467 90.384,78.917 90.385 C 78.367 90.386,78.162 90.417,78.461 90.454 M162.048 91.917 C 162.049 92.375,162.081 92.543,162.120 92.289 C 162.158 92.036,162.157 91.661,162.117 91.456 C 162.078 91.251,162.046 91.458,162.048 91.917 M83.880 93.789 C 84.318 93.824,84.993 93.823,85.380 93.788 C 85.767 93.754,85.408 93.725,84.583 93.726 C 83.758 93.726,83.442 93.755,83.880 93.789 M77.625 94.287 C 77.923 94.324,78.410 94.324,78.708 94.287 C 79.006 94.250,78.762 94.220,78.167 94.220 C 77.571 94.220,77.327 94.250,77.625 94.287 M74.539 95.333 C 74.539 95.654,74.573 95.785,74.615 95.625 C 74.657 95.465,74.657 95.202,74.615 95.042 C 74.573 94.881,74.539 95.013,74.539 95.333 M223.044 127.453 C 223.297 127.491,223.672 127.490,223.877 127.451 C 224.082 127.411,223.875 127.380,223.417 127.381 C 222.958 127.382,222.791 127.415,223.044 127.453 M195.875 127.948 C 196.035 127.990,196.298 127.990,196.458 127.948 C 196.619 127.906,196.487 127.872,196.167 127.872 C 195.846 127.872,195.715 127.906,195.875 127.948 M204.333 130.719 C 204.333 130.748,204.577 130.991,204.875 131.260 L 205.417 131.750 204.927 131.208 C 204.471 130.703,204.333 130.590,204.333 130.719 M333.050 133.333 C 333.050 133.837,333.081 134.044,333.119 133.792 C 333.158 133.540,333.158 133.127,333.119 132.875 C 333.081 132.623,333.050 132.829,333.050 133.333 M216.212 140.667 C 216.212 141.079,216.245 141.248,216.284 141.042 C 216.324 140.835,216.324 140.498,216.284 140.292 C 216.245 140.085,216.212 140.254,216.212 140.667 M238.539 141.833 C 238.539 142.154,238.573 142.285,238.615 142.125 C 238.657 141.965,238.657 141.702,238.615 141.542 C 238.573 141.381,238.539 141.512,238.539 141.833 M134.375 144.083 C 134.377 144.450,134.411 144.580,134.451 144.373 C 134.491 144.166,134.490 143.866,134.448 143.706 C 134.406 143.547,134.374 143.717,134.375 144.083 " stroke="none" fill="#636466" fill-rule="evenodd"></path><path id="path4" d="M75.708 83.115 C 75.869 83.157,76.131 83.157,76.292 83.115 C 76.452 83.073,76.321 83.039,76.000 83.039 C 75.679 83.039,75.548 83.073,75.708 83.115 M77.208 83.115 C 77.369 83.157,77.631 83.157,77.792 83.115 C 77.952 83.073,77.821 83.039,77.500 83.039 C 77.179 83.039,77.048 83.073,77.208 83.115 M75.050 86.667 C 75.050 87.171,75.081 87.377,75.119 87.125 C 75.158 86.873,75.158 86.460,75.119 86.208 C 75.081 85.956,75.050 86.162,75.050 86.667 M74.872 89.667 C 74.872 89.987,74.906 90.119,74.948 89.958 C 74.990 89.798,74.990 89.535,74.948 89.375 C 74.906 89.215,74.872 89.346,74.872 89.667 M163.542 92.917 C 163.544 93.283,163.578 93.414,163.618 93.206 C 163.658 92.999,163.656 92.699,163.615 92.540 C 163.573 92.380,163.540 92.550,163.542 92.917 M79.375 94.282 C 79.535 94.323,79.798 94.323,79.958 94.282 C 80.119 94.240,79.987 94.205,79.667 94.205 C 79.346 94.205,79.215 94.240,79.375 94.282 M74.533 99.208 C 74.515 101.110,74.556 102.667,74.625 102.667 C 74.694 102.667,74.731 101.636,74.707 100.375 C 74.627 96.134,74.566 95.728,74.533 99.208 M163.539 96.667 C 163.539 96.987,163.573 97.119,163.615 96.958 C 163.657 96.798,163.657 96.535,163.615 96.375 C 163.573 96.215,163.539 96.346,163.539 96.667 M302.220 97.500 C 302.220 98.096,302.250 98.340,302.287 98.042 C 302.324 97.744,302.324 97.256,302.287 96.958 C 302.250 96.660,302.220 96.904,302.220 97.500 M159.708 98.115 C 159.869 98.157,160.131 98.157,160.292 98.115 C 160.452 98.073,160.321 98.039,160.000 98.039 C 159.679 98.039,159.548 98.073,159.708 98.115 M162.794 98.118 C 163.001 98.158,163.301 98.156,163.460 98.115 C 163.620 98.073,163.450 98.040,163.083 98.042 C 162.717 98.044,162.586 98.078,162.794 98.118 M301.542 99.948 C 301.702 99.990,301.965 99.990,302.125 99.948 C 302.285 99.906,302.154 99.872,301.833 99.872 C 301.512 99.872,301.381 99.906,301.542 99.948 M202.125 129.951 C 202.331 129.991,202.669 129.991,202.875 129.951 C 203.081 129.911,202.912 129.879,202.500 129.879 C 202.088 129.879,201.919 129.911,202.125 129.951 M134.209 141.750 C 134.211 142.117,134.245 142.247,134.285 142.040 C 134.324 141.832,134.323 141.532,134.281 141.373 C 134.239 141.214,134.207 141.383,134.209 141.750 M238.552 143.250 C 238.553 143.800,238.584 144.005,238.621 143.705 C 238.658 143.406,238.657 142.956,238.619 142.705 C 238.581 142.455,238.551 142.700,238.552 143.250 M134.379 145.333 C 134.379 145.746,134.411 145.915,134.451 145.708 C 134.491 145.502,134.491 145.165,134.451 144.958 C 134.411 144.752,134.379 144.921,134.379 145.333 " stroke="none" fill="#e0e0e1" fill-rule="evenodd"></path></g></svg>