<?xml version="1.0" encoding="utf-8"?>
<!-- Generator: Adobe Illustrator 16.0.0, SVG Export Plug-In . SVG Version: 6.00 Build 0)  -->
<!DOCTYPE svg PUBLIC "-//W3C//DTD SVG 1.1//EN" "http://www.w3.org/Graphics/SVG/1.1/DTD/svg11.dtd">
<svg version="1.1" id="Layer_1" xmlns="http://www.w3.org/2000/svg" xmlns:xlink="http://www.w3.org/1999/xlink" x="0px" y="0px"
	 width="360px" height="360px" viewBox="0 0 360 360" enable-background="new 0 0 360 360" xml:space="preserve">
<g>
	<path fill-rule="evenodd" clip-rule="evenodd" d="M67.837,43.144c-1.061,0.286-1.982,0.743-2.714,1.546
		c-0.202,0.223-0.512,0.353-0.783,0.505c-1.001,0.565-1.994,1.145-3.015,1.671c-0.41,0.21-0.875,0.346-1.332,0.425
		c-0.616,0.108-1.246,0.146-1.873,0.183c-0.739,0.043-1.433,0.149-2.074,0.59c-0.327,0.227-0.774,0.312-1.181,0.38
		c-1.959,0.321-3.918,0.654-5.888,0.903c-0.8,0.101-1.498,0.301-2.161,0.776c-1.003,0.724-2.139,1.089-3.4,0.914
		c-0.102-0.014-0.198-0.063-0.353-0.115c-0.507-0.799-0.467-1.697-0.051-2.498c0.575-1.108,1.279-2.152,1.988-3.184
		c0.188-0.275,0.594-0.4,0.906-0.599c0.541-4.914,0.541-4.914,0.149-6.364c-1.074-0.54-2.459-0.555-3.279-1.806
		c0.559-0.517,1.301-0.604,1.921-0.921c0.599-0.309,1.183-0.645,1.771-0.968c0.229-3.248,0.451-6.418,0.68-9.668
		c-1.38-0.323-2.69-0.63-4.015-0.94c0.087-0.85,0.592-1.3,1.168-1.67c2.243-1.438,4.704-2.019,7.338-1.655
		c2.226,0.308,4.43,0.754,6.648,1.107c1.722,0.275,3.347,0.82,4.88,1.641c1.199,0.642,2.386,1.302,3.583,1.944
		c0.479,0.255,0.839,0.607,1.042,1.119c0.498,1.262,1.017,2.514,1.496,3.781c0.127,0.338,0.162,0.715,0.2,1.077
		c0.032,0.307,0.006,0.621,0.006,1.03c-0.759,0.502-1.53,1.01-2.414,1.595c0.424,0.169,0.735,0.315,1.06,0.416
		c0.348,0.108,0.721,0.14,1.062,0.262c0.982,0.353,1.195,0.737,1.035,1.781C69.879,38.751,69.163,40.976,67.837,43.144z
		 M66.018,36.362c-2.291-0.635-4.58-0.874-6.878-0.645c-2.183,0.219-4.354,0.521-6.555,0.547c-0.681,0.009-1.334,0.169-1.852,0.592
		c-0.25,2.088-0.221,6.306,0.043,7.534c1.387-0.025,9.22-1.228,10.554-1.63c0.344-0.702,0.912-1.164,1.786-1.244
		c0.406-0.037,0.82-0.191,1.19-0.374c0.696-0.347,1.384-0.722,2.039-1.142c0.67-0.429,0.784-1.088,0.508-1.795
		C66.608,37.579,66.299,36.977,66.018,36.362z M65.5,28.098c-1.513-0.419-2.736-1.091-3.868-1.949
		c-0.232-0.177-0.562-0.265-0.86-0.309c-1.961-0.276-3.922-0.556-5.89-0.782c-1.181-0.135-2.375-0.266-3.55,0.039
		c-0.05,0.201-0.113,0.349-0.121,0.498c-0.112,2.188-0.221,4.377-0.314,6.567c-0.008,0.182,0.109,0.367,0.147,0.484
		c1.904-0.14,3.725-0.24,5.536-0.424c0.981-0.098,1.97-0.263,2.915-0.535c1.65-0.475,3.272-1.055,4.902-1.602
		c0.337-0.113,0.659-0.269,1.023-0.421C65.446,29.16,65.469,28.701,65.5,28.098z"/>
	<path fill-rule="evenodd" clip-rule="evenodd" d="M165.856,77.894c0.25-2.816,0.658-5.609,0.703-8.47
		c-1.6-0.079-3.097-0.152-4.664-0.228c-0.483-0.932-0.478-1.992-0.694-2.992c-0.219-1.014-0.371-2.041-0.568-3.158
		c1.432-0.348,2.776-0.542,4.04,0.108c1.829,0.942,3.769,1.195,5.776,1.195c1.506-0.002,1.506-0.002,2.671,1.155
		c0.544-0.075,1.155-0.16,1.873-0.26c0.238,0.249,0.519,0.54,0.871,0.909c1.971,0.069,3.929,0.619,5.914,1.256
		c0.278,0.461,0.519,0.988,0.879,1.42c0.329,0.393,0.792,0.671,1.184,1.016c0.148,0.134,0.315,0.295,0.378,0.476
		c0.659,1.927,1.435,3.825,1.567,5.892c0.008,0.104,0.001,0.211,0.021,0.313c0.258,1.453-0.753,2.188-1.705,2.917
		c-0.214,0.163-0.601,0.119-0.907,0.131c-0.621,0.026-1.214,0.245-1.445,0.792c-0.359,0.848-1.021,1.121-1.806,1.311
		c-0.143,0.033-0.268,0.149-0.484,0.276c0.122,0.331,0.218,0.67,0.371,0.981c1.197,2.44,2.406,4.876,3.615,7.312
		c0.162,0.328,0.348,0.645,0.506,0.976c0.687,1.434,0.384,2.354-1.139,3.299c-1.05-0.685-2.19-1.28-2.772-2.568
		c-0.421-0.931-0.478-0.905-0.309-2.14c-1.261-0.43-1.838-1.491-2.379-2.654c-0.717-1.548-2.127-3.329-3.681-4.958
		c-1.198-0.185-2.428,0.181-3.72,0.177c-0.544,0.696-0.586,1.527-0.598,2.357c-0.028,2.201,0.119,4.392,0.5,6.562
		c0.091,0.511,0.156,1.027,0.238,1.583c-1.032,0.688-2.103,0.981-3.288,0.852c-0.562-0.062-0.971-0.335-1.209-0.867
		c-0.343-0.772-0.612-1.57-0.602-2.418c0.014-1.149,0.03-2.304,0.155-3.445c0.143-1.314,0.222-2.583-0.358-3.842
		c-0.258-0.554-0.336-1.207-0.407-1.827c-0.131-1.148,0.133-2.183,1.055-2.975C165.591,78.224,165.715,78.053,165.856,77.894z
		 M179.781,71.8c-1.067,0.182-1.84-0.052-2.499-0.791c-0.291-0.327-0.779-0.558-1.219-0.662c-0.855-0.204-1.737-0.318-2.616-0.413
		c-0.775-0.083-1.56-0.091-2.341-0.133c-0.247-0.014-0.515-0.136-0.696,0.143c-0.439,4.833-0.474,6.285-0.155,7.532
		c0.649-0.068,1.322-0.105,1.983-0.219c2.426-0.411,4.725-1.262,7.025-2.098c0.843-0.308,1.532-0.838,2.063-1.607
		c-0.277-0.318-0.516-0.592-0.755-0.863C180.332,72.418,180.089,72.147,179.781,71.8z"/>
	<path fill-rule="evenodd" clip-rule="evenodd" d="M177.797,46.082c-0.636-0.363-0.831-0.917-0.998-1.455
		c-0.913-2.943-1.857-5.879-2.681-8.847c-0.601-2.169-0.938-4.397-1.028-6.655c-0.008-0.19-0.05-0.379-0.083-0.625
		c-0.759,0.637-1.3,1.385-1.365,2.054c-0.18,1.834-0.702,3.59-1.165,5.358c-0.323,1.23-0.481,2.449-0.258,3.72
		c0.099,0.562,0.078,1.147,0.064,1.721c-0.016,0.697-0.206,1.369-0.702,1.868c-0.458,0.462-0.785,0.964-0.954,1.589
		c-0.053,0.198-0.155,0.392-0.267,0.565c-0.411,0.636-1.147,0.848-1.619,0.05c-0.721-1.217-1.416-2.449-1.819-3.811
		c-0.373-1.267-0.939-2.438-1.591-3.573c-0.862-1.497-1.578-3.049-2.141-4.695c-0.522-1.524-1.321-2.954-2.019-4.417
		c-0.105-0.222-0.293-0.438-0.73-0.346c-0.011,0.207-0.029,0.441-0.033,0.678c-0.017,0.678,0.095,1.389-0.064,2.031
		c-0.716,2.877-0.807,5.904-2.081,8.65c-0.425,0.915-0.519,1.908-0.508,2.913c0.007,0.731,0.02,1.464-0.011,2.195
		c-0.019,0.454-0.115,0.906-0.178,1.365c-1.083,0.097-1.907-0.454-2.897-0.631c-0.295,0.179-0.642,0.388-0.997,0.603
		c-0.053-0.142-0.131-0.241-0.113-0.314c0.28-1.071,0.457-2.121,0.14-3.243c-0.129-0.457,0.076-1.029,0.203-1.531
		c0.293-1.164,0.619-2.322,0.954-3.478c0.453-1.56,0.806-3.137,0.979-4.754c0.066-0.621,0.177-1.245,0.352-1.844
		c0.976-3.319,1.767-6.671,1.957-10.141c0.006-0.097,0.069-0.189,0.146-0.393c0.682-0.162,1.365,0.133,2.08,0.175
		c0.136,0.292,0.269,0.515,0.348,0.757c0.395,1.205,0.925,2.315,1.862,3.223c0.574,0.556,0.906,1.295,0.959,2.102
		c0.05,0.756,0.302,1.419,0.672,2.062c1.092,1.904,2.221,3.788,3.062,5.827c0.233,0.564,0.653,1.051,0.967,1.541
		c0.513-0.066,0.516-0.426,0.593-0.693c0.944-3.263,1.936-6.514,2.563-9.859c0.039-0.205,0.056-0.427,0.152-0.604
		c0.699-1.304,1.03-2.735,1.481-4.126c0.275-0.85,0.649-1.662,1.311-2.292c0.216-0.206,0.488-0.351,0.746-0.533
		c0.637,0.358,0.974,0.887,1.288,1.423c0.958,1.642,1.515,3.442,2.005,5.261c0.131,0.481,0.058,1.037-0.005,1.549
		c-0.085,0.686-0.045,1.337,0.116,2.015c0.393,1.68,0.73,3.372,1.061,5.065c0.315,1.596,0.783,3.137,1.437,4.631
		c0.44,1.002,0.809,2.04,1.146,3.082c0.174,0.535,0.213,1.116,0.308,1.646C179.522,44.03,178.659,45.058,177.797,46.082z"/>
	<path fill-rule="evenodd" clip-rule="evenodd" d="M301.302,35.293c0.606-1.566,1.18-2.965,1.689-4.388
		c0.369-1.028,0.579-2.119,1.002-3.124c0.402-0.956,1.036-1.814,1.481-2.757c0.541-1.142,0.853-2.357,0.861-3.637
		c0.001-0.258,0.039-0.515,0.063-0.806c1.091-0.557,2.27-0.78,3.39-1.181c0.7,0.515,0.945,1.224,0.924,1.951
		c-0.065,2.353-0.179,4.726-1.162,6.907c-0.82,1.817-1.576,3.645-2.078,5.576c-0.118,0.453-0.269,0.914-0.499,1.318
		c-0.535,0.943-0.742,1.941-0.663,3.014c0.012,0.152-0.033,0.311-0.059,0.534c-0.256,0.107-0.569,0.178-0.805,0.354
		c-0.235,0.178-0.555,0.452-0.561,0.692c-0.034,1.213-0.774,2.152-1.143,3.23c-0.049,0.147-0.096,0.296-0.165,0.511
		c0.357,0.513,0.736,1.057,1.112,1.596c-1.034,0.774-1.034,0.774-1.609,2.362c-1.681,0.455-3.39,1.295-5.192,0.002
		c0.056-0.246,0.095-0.442,0.146-0.638c0.3-1.1,0.229-2.185-0.211-3.227c-0.305-0.721-0.611-1.462-1.062-2.093
		c-0.814-1.14-1.253-2.394-1.462-3.754c-0.022-0.146-0.109-0.285-0.179-0.42c-0.017-0.032-0.089-0.033-0.146-0.052
		c-0.052,0.062-0.155,0.13-0.156,0.196c-0.034,1.326-0.393,2.581-0.81,3.824c-0.201,0.594-0.397,1.19-0.611,1.78
		c-0.544,1.497-0.802,3.029-0.611,4.625c0.019,0.149-0.022,0.308-0.035,0.454c-1.188,0.495-2.058,0.479-4.486-0.091
		c-0.312-1.152-0.18-2.352-0.078-3.534c0.104-1.2,0.347-2.395,0.907-3.474c0.86-1.659,1.127-3.476,1.446-5.272
		c0.21-1.181,0.248-2.393,0.405-3.584c0.324-2.44,0.442-4.89,0.348-7.435c0.329-0.082,0.612-0.209,0.899-0.211
		c1.198-0.013,2.396,0.012,3.559,0.022c1.002,1.411,1.935,2.734,2.885,4.048c0.32,0.443,0.46,0.93,0.46,1.467
		c0,0.73,0,1.461,0,2.053c0.498,0.607,0.881,1.1,1.291,1.567C300.785,34.153,300.58,34.953,301.302,35.293z"/>
	<path fill-rule="evenodd" clip-rule="evenodd" d="M141.28,43.703c-0.332-0.06-0.634-0.157-0.937-0.163
		c-1.882-0.044-3.765-0.033-5.645-0.109c-0.935-0.038-1.635,0.32-2.166,1.02c-0.503,0.664-1.027,1.339-1.379,2.086
		c-0.495,1.051-1.271,1.452-2.367,1.406c-0.157-0.007-0.313,0.02-0.471,0.019c-1.087-0.006-1.53-0.517-1.271-1.591
		c0.12-0.495,0.379-0.972,0.646-1.413c0.27-0.444,0.612-0.85,0.951-1.244c0.393-0.46,0.65-0.938,0.495-1.567
		c-0.095-0.385,0.061-0.701,0.303-1.008c0.952-1.203,1.557-2.593,2.099-4.012c0.688-1.807,1.316-3.636,2.413-5.261
		c0.216-0.317,0.24-0.784,0.292-1.19c0.224-1.763,0.429-3.53,0.943-5.239c0.452-1.501,0.985-2.974,2.018-4.293
		c1.536-0.126,3.097-0.055,4.694-0.088c0.746,1.24,1.488,2.433,2.18,3.654c0.14,0.244,0.144,0.605,0.112,0.9
		c-0.086,0.805-0.056,1.567,0.446,2.246c0.062,0.083,0.125,0.178,0.147,0.275c0.356,1.578,0.765,3.147,1.031,4.741
		c0.117,0.699,0.01,1.462-0.129,2.168c-0.095,0.478-0.14,0.901-0.016,1.375c0.335,1.27,0.516,2.561,0.472,3.879
		c-0.018,0.479,0.025,0.938,0.369,1.32c0.4,0.444,0.514,1.001,0.646,1.569c0.536,2.288,1.092,4.571,1.696,6.844
		c0.159,0.6,0,1.007-0.398,1.4c-1.086,1.079-2.428,1.585-3.99,1.799c-0.849-1.295-1.764-2.536-2.037-4.139
		c-0.253-1.491-0.596-2.97-0.906-4.452C141.458,44.334,141.369,44.039,141.28,43.703z M139.639,39.998
		c0.352-2.219,0.223-5.495-0.271-7.432c-0.159-0.076-0.337-0.186-0.531-0.244c-0.136-0.039-0.292-0.007-0.492-0.007
		c-0.037,0.385-0.124,0.745-0.096,1.099c0.088,1.093-0.224,2.017-0.912,2.884c-0.51,0.644-0.884,1.403-1.278,2.135
		c-0.242,0.448-0.481,0.924-0.358,1.53C136.98,40.136,138.267,40.061,139.639,39.998z"/>
	<path fill-rule="evenodd" clip-rule="evenodd" d="M41.834,64.541c0.592,1.253,1.143,2.378,1.649,3.521
		c0.12,0.271,0.128,0.606,0.127,0.913c-0.001,0.363-0.068,0.725-0.115,1.175c0.259,0.269,0.541,0.56,0.88,0.911
		c0.012,2.103,0.666,4.146,1.298,6.253c-0.336,0.34-0.658,0.664-1.058,1.069c0.087,0.346,0.151,0.756,0.293,1.135
		c0.237,0.636,0.565,1.24,0.781,1.884c0.231,0.688,0.434,1.393,0.552,2.108c0.374,2.269,0.648,4.556,1.073,6.813
		c0.23,1.225,0.689,2.404,1.056,3.64c-0.948,2.07-2.502,2.956-4.803,2.632c-0.968-2.923-1.942-5.891-2.768-9.021
		c-2.424-0.77-4.955-1.014-7.421-1.238c-0.686,0.755-1.312,1.443-2.062,2.267c0.01-0.034-0.085,0.116-0.073,0.259
		c0.095,1.122-0.573,1.715-1.457,2.183c-0.799,0.422-1.637,0.665-2.539,0.652c-0.387-1.512-0.263-2.83,0.417-3.936
		c0.495-0.804,1.015-1.57,0.997-2.59c-0.005-0.321,0.267-0.665,0.459-0.971c0.364-0.573,0.775-1.117,1.144-1.689
		c0.515-0.797,0.928-1.636,0.975-2.614c0.012-0.257,0.067-0.524,0.171-0.756c0.703-1.574,1.239-3.223,2.204-4.678
		c0.281-0.424,0.484-0.931,0.599-1.429c0.4-1.731,0.753-3.472,0.826-5.261c0.071-1.731,1.48-3.112,3.192-3.213
		c0.312-0.02,0.627-0.018,0.941-0.02C40.007,64.539,40.843,64.541,41.834,64.541z M38.679,75.357
		c-0.228,0.368-0.376,0.523-0.431,0.707c-0.585,1.968-1.542,3.754-2.627,5.481c-0.165,0.263-0.293,0.553-0.415,0.841
		c-0.095,0.227-0.276,0.458-0.021,0.782c0.578,0.268,1.266,0.22,1.93,0.232c0.651,0.015,1.325,0.304,2.092-0.102
		C39.176,80.72,39.268,78.133,38.679,75.357z"/>
	<path fill-rule="evenodd" clip-rule="evenodd" d="M105.384,70.245c2.637-0.153,5.237-0.062,7.949,0.28
		c0.414,0.586,0.888,1.203,1.304,1.856c0.727,1.145,1.01,2.401,0.805,3.749c-0.148,0.981-0.303,1.962-0.485,2.937
		c-0.148,0.792-0.1,1.573,0.131,2.326c0.419,1.371,0.551,2.772,0.474,4.187c-0.098,1.792,0.146,3.551,0.508,5.284
		c0.166,0.798,0.617,1.541,0.989,2.284c0.23,0.46,0.555,0.874,0.815,1.274c-0.266,0.769-0.73,1.181-1.478,1.309
		c-0.46,0.078-0.904,0.258-1.361,0.365c-0.302,0.071-0.616,0.13-0.926,0.136c-1.304,0.026-2.258-0.629-2.475-1.905
		c-0.161-0.946-0.66-1.443-1.445-1.868c-2.307-1.244-4.658-2.354-7.238-2.922c-0.589-0.13-1.126-0.078-1.693,0.079
		c-0.706,0.197-1.169,0.563-1.427,1.292c-0.349,0.986-0.859,1.904-1.582,2.686c-0.383,0.413-0.811,0.611-1.393,0.501
		c-0.769-0.147-1.552-0.223-2.32-0.375c-0.354-0.069-0.702-0.214-1.024-0.378c-0.64-0.328-0.821-0.72-0.54-1.421
		c0.25-0.622,0.631-1.19,0.959-1.78c0.304-0.547,0.662-1.067,0.908-1.639c0.222-0.513,0.129-0.999-0.368-1.39
		c-0.397-0.31-0.895-0.557-1.045-1.13c0.53-0.534,1.251-0.569,1.897-0.625c1.042-0.088,1.787-0.604,2.335-1.398
		c0.53-0.767,0.966-1.604,1.392-2.436c0.234-0.461,0.364-0.975,0.548-1.486c0.229-0.125,0.448-0.27,0.686-0.367
		c0.459-0.189,0.763-0.511,0.997-0.944c0.796-1.472,1.66-2.907,2.411-4.4c0.514-1.021,0.884-2.114,1.319-3.176
		C105.129,70.864,105.247,70.58,105.384,70.245z M103.374,86.197c2.178,1.396,4.616,1.531,7.013,1.855
		c0.497-2.7-0.314-9.111-1.386-10.983c-0.625,0.34-0.919,0.962-1.287,1.505c-1.083,1.596-2.148,3.207-3.212,4.816
		C103.951,84.223,103.629,85.147,103.374,86.197z"/>
	<path fill-rule="evenodd" clip-rule="evenodd" d="M279.256,46.889c-2.326-1.27-4.592-2.693-7.261-3.223
		c-1.25-0.249-2.488-0.29-3.767,0.277c-0.084,1.168-0.803,2.077-1.409,3.043c-0.465,0.737-1.125,1.073-1.991,0.941
		c-1.285-0.196-2.576-0.377-3.896-0.784c0.193-2.066,1.423-3.599,2.426-5.261c-0.482-0.852-1.667-1.191-1.69-2.434
		c0.719-0.045,1.39-0.116,2.063-0.123c0.631-0.008,1.08-0.278,1.47-0.756c0.865-1.06,1.677-2.152,2.172-3.435
		c0.292-0.76,0.715-1.375,1.363-1.869c0.323-0.247,0.618-0.579,0.816-0.935c1.354-2.407,2.904-4.719,3.71-7.402
		c0.027-0.093,0.124-0.165,0.269-0.351c0.75-0.009,1.582-0.025,2.414-0.027c1.571-0.003,3.142,0.021,4.711-0.002
		c0.768-0.011,1.3,0.317,1.678,0.946c0.967,1.61,1.651,3.278,1.093,5.213c-0.116,0.401-0.188,0.815-0.259,1.227
		c-0.173,0.986-0.272,1.979-0.021,2.962c0.383,1.483,0.487,2.992,0.495,4.514c0.009,1.519,0.062,3.027,0.352,4.531
		c0.25,1.308,0.558,2.54,1.596,3.492c0.5,0.457,0.41,1.158-0.088,1.664c-0.788,0.801-3.653,1.27-4.619,0.766
		c-0.595-0.312-0.946-0.822-1.165-1.424C279.541,47.952,279.418,47.442,279.256,46.889z M277.001,31.028
		c-0.84,1.267-1.809,2.357-2.46,3.665c-0.352,0.704-0.762,1.327-1.37,1.873c-1.12,1.004-1.504,2.343-1.283,3.801
		c2.034,0.957,4.928,1.571,6.634,1.407c0.029-0.042,0.083-0.086,0.085-0.13c0.069-2.882-0.108-5.747-0.619-8.585
		C277.859,32.345,277.554,31.674,277.001,31.028z"/>
	<path fill-rule="evenodd" clip-rule="evenodd" d="M4.586,94.662c0.463-0.123,0.945-0.251,1.48-0.394
		c0.042-0.811,0.048-1.592,0.131-2.364c0.139-1.3,0.271-2.604,0.514-3.886c0.139-0.737,0.027-1.322-0.437-1.887
		c-0.229-0.278-0.4-0.602-0.632-0.958c0.296-0.621,0.576-1.234,0.876-1.836c0.473-0.95,0.704-1.947,0.792-3.011
		c0.23-2.762,0.524-5.519,0.803-8.391c-0.274-0.143-0.569-0.339-0.892-0.457c-0.44-0.16-0.928-0.208-1.349-0.404
		c-0.415-0.193-0.819-0.462-1.141-0.783c-0.392-0.393-0.326-0.858,0.077-1.241c0.152-0.145,0.304-0.298,0.483-0.4
		c1.643-0.933,3.312-1.763,5.252-1.924c0.981-0.08,1.961-0.294,2.918-0.54c2.228-0.569,4.435-1.261,6.733-1.474
		c1.504-0.139,3.026-0.104,4.54-0.1c0.397,0.002,0.793,0.184,1.2,0.286c-0.064,1.221-0.802,1.86-1.682,2.373
		c-0.918,0.535-1.957,0.721-2.976,0.95c-1.529,0.345-3.055,0.696-4.583,1.043c-1.069,0.246-2.138,0.49-3.207,0.736
		c-0.351,0.08-0.7,0.169-1.029,0.25c-0.251,1.812-0.218,8.322,0.059,9.815c0.279,0,0.58,0.036,0.87-0.006
		c2.018-0.289,4.03-0.614,6.05-0.89c0.931-0.127,1.864-0.084,2.833,0.258c-0.079,0.518-0.119,0.98-0.222,1.426
		c-0.373,1.607-0.442,1.696-2.13,2.023c-1.59,0.307-3.193,0.546-4.792,0.813c-0.361,0.061-0.734,0.08-1.083,0.181
		c-0.582,0.169-1.29,0.009-1.703,0.637c-0.516,0.781-1.072,1.507-1.06,2.548c0.024,2.196,0.215,4.366,0.567,6.575
		c0.249,0.048,0.444,0.103,0.644,0.12c2.76,0.25,5.521,0.496,8.281,0.743c1.042,0.093,2.085,0.181,3.125,0.282
		c0.625,0.061,1.246,0.177,1.871,0.212c0.878,0.051,1.324,0.512,1.442,1.354c0.036,0.247,0.106,0.491,0.18,0.824
		c-0.343,0.121-0.621,0.248-0.912,0.315c-1.222,0.283-2.447,0.552-3.671,0.819c-0.997,0.218-2.002,0.205-2.934-0.192
		c-0.872-0.372-1.746-0.365-2.617-0.214c-1.613,0.279-3.193,0.332-4.824,0.014c-0.95-0.186-1.978-0.018-2.966,0.057
		c-0.833,0.062-1.667,0.179-2.486,0.343c-0.748,0.149-1.185-0.172-1.547-0.767C4.904,96.675,4.669,95.956,4.586,94.662z"/>
	<path fill-rule="evenodd" clip-rule="evenodd" d="M221.9,40.502c0.992,2.715,2.543,5.083,3.959,7.521
		c0.759,1.306,0.771,1.641,0.012,3.188c-1.81,0.064-2.812-0.529-3.405-2.102c-0.357-0.941-0.845-1.776-1.486-2.56
		c-0.694-0.847-1.261-1.798-1.92-2.677c-0.628-0.833-1.299-1.637-1.961-2.446c-0.319-0.389-0.728-0.563-1.246-0.494
		c-1.021,0.138-2.088-0.047-3.143,0.433c-0.304,2.861,0.205,5.646,0.533,8.479c-0.371,0.555-1.021,0.665-1.592,0.878
		c-1.397,0.522-1.784,0.352-2.458-1.019c-0.352-0.713-0.571-1.473-0.549-2.268c0.035-1.202,0.052-2.41,0.206-3.598
		c0.121-0.903,0.033-1.651-0.7-2.256c-0.731-0.605-0.744-1.441-0.732-2.333c0.343-0.318,0.675-0.647,1.03-0.946
		c0.357-0.303,0.738-0.578,1.033-0.803c0.208-2.389,0.408-4.678,0.614-7.056c-0.189-0.344-0.63-0.374-1.038-0.403
		c-0.989-0.069-1.981-0.104-3.099-0.158c-0.973-1.5-1.817-3.08-1.709-5.052c0.682-0.418,1.434-0.316,2.134-0.301
		c0.666,0.016,1.36,0.138,1.983,0.368c1.034,0.387,2.07,0.73,3.169,0.858c0.467,0.054,0.943,0.119,1.407,0.081
		c0.95-0.078,1.845-0.107,2.667,0.55c0.293,0.233,0.803,0.306,1.199,0.274c1.104-0.088,2.084,0.29,2.984,0.803
		c1.084,0.618,2.231,0.844,3.438,0.932c0.258,0.02,0.516,0.055,0.609,0.064c0.887,0.793,1.655,1.484,2.551,2.288
		c0.071,0.663,0.308,1.435,0.69,2.191c0.659,1.306,0.584,2.76,0.433,4.162c-0.096,0.887-0.79,1.572-1.611,1.73
		c-0.958,0.182-1.78,0.553-2.602,1.017C222.853,40.102,222.367,40.286,221.9,40.502z M213.495,36.577
		c0.812-0.104,1.534-0.255,2.259-0.272c1.897-0.044,3.712-0.424,5.517-1.014c1.121-0.367,1.908-0.979,2.473-1.993
		c-0.741-0.733-1.661-0.931-2.592-1.054c-0.475-0.063-0.884-0.176-1.297-0.449c-1.67-1.107-4.002-1.61-6.274-1.422
		C213.32,31.533,213.265,34.771,213.495,36.577z"/>
	<path fill-rule="evenodd" clip-rule="evenodd" d="M308.72,81.217c-0.013,0.789-0.066,1.413-0.022,2.028
		c0.092,1.251,0.251,2.498,0.357,3.75c0.07,0.828,0.1,1.66,0.143,2.422c-1.458,1.062-2.628,1.093-3.799,0.179
		c-0.435-0.34-0.721-0.742-0.688-1.329c0.078-1.408,0.142-2.818,0.228-4.227c0.038-0.675,0.115-1.345,0.176-2.05
		c-0.535-0.324-1.017-0.616-1.521-0.919c0-0.902,0-1.778,0-2.721c0.683-0.308,1.343-0.605,2.09-0.941
		c-0.261-2.389,0.496-4.73,0.396-7.141c-1.407-0.633-2.885-0.22-4.264-0.659c-0.7-1.566-1.524-3.083-1.517-4.912
		c1.035-0.659,2.109-0.83,3.141-0.271c1.808,0.98,3.753,1.262,5.748,1.365c0.738,0.039,1.434,0.206,2.147,0.385
		c1.007,0.255,2.053,0.374,3.088,0.481c0.783,0.081,1.519,0.164,2.246,0.567c1.058,0.587,2.263,0.791,3.514,0.828
		c0.107,0.21,0.257,0.381,0.277,0.565c0.072,0.654,0.433,1.037,1.03,1.249c0.408,0.145,0.71,0.396,0.891,0.82
		c0.697,1.646,1.27,3.325,1.438,5.116c0.055,0.562-0.008,1.137-0.018,1.729c-1.097,0.579-2.277,0.584-3.426,0.975
		c-0.192,0.289-0.42,0.632-0.7,1.051c-0.53,0.153-1.126,0.328-1.807,0.526c0.076,0.325,0.089,0.64,0.219,0.895
		c0.501,0.978,1.022,1.943,1.566,2.898c0.546,0.955,1.144,1.877,1.683,2.835c0.76,1.354,0.837,2.765,0.277,4.291
		c-1.368-0.427-2.401-1.331-3.6-2.043c-0.046-0.682-0.089-1.354-0.139-2.114c-1.22-0.947-2.042-2.292-2.975-3.553
		c-0.525-0.711-1.142-1.356-1.748-2.004c-0.335-0.357-0.776-0.506-1.285-0.442C310.886,80.973,309.899,81.082,308.72,81.217z
		 M309.627,76.489c1.775-0.033,3.474-0.551,5.167-1.014c1.743-0.478,3.493-0.988,5.142-1.938c-0.621-0.742-1.366-1.12-2.132-1.445
		c-0.769-0.325-1.514-0.675-2.231-1.11c-1.667-1.008-3.979-1.289-5.719-0.79C309.44,71.746,309.322,74.751,309.627,76.489z"/>
	<path fill-rule="evenodd" clip-rule="evenodd" d="M204.389,47.242c0.278,0.841,0.502,1.521,0.74,2.245
		c-0.26,0.139-0.431,0.255-0.615,0.322c-1.437,0.515-2.916,0.827-4.44,0.918c-0.729,0.045-1.437,0.059-2.156-0.237
		c-0.789-0.326-1.658-0.217-2.483-0.07c-1.253,0.222-2.478,0.217-3.732-0.032c-1.353-0.268-2.713,0.003-4.064,0.151
		c-0.468,0.049-0.936,0.104-1.405,0.12c-0.308,0.012-0.617-0.04-0.952-0.064c-0.609-0.977-0.733-2.079-1.148-3.165
		c0.524-0.154,0.957-0.283,1.34-0.395c0.089-0.148,0.179-0.229,0.186-0.32c0.114-1.249,0.221-2.498,0.324-3.749
		c0.13-1.584,0.108-3.146-0.792-4.63c0.284-0.593,0.565-1.204,0.87-1.802c0.387-0.754,0.612-1.531,0.677-2.391
		c0.182-2.399,0.439-4.795,0.662-7.191c0.024-0.253,0.031-0.509,0.05-0.842c-0.672-0.201-1.328-0.349-1.944-0.598
		c-0.816-0.331-1.448-0.848-1.319-1.935c1.749-0.938,3.573-1.677,5.541-2.05c0.511-0.098,1.042-0.192,1.504-0.412
		c0.729-0.348,1.475-0.516,2.272-0.506c0.952,0.013,1.87-0.182,2.772-0.469c2.353-0.751,4.748-0.536,7.27-0.438
		c-0.082,0.408-0.075,0.729-0.21,0.971c-0.332,0.585-0.73,1.136-0.99,1.528c-3.7,0.869-7.204,1.692-10.658,2.502
		c-0.481,2.586-0.557,7.425-0.136,8.894c0.279,0,0.583,0.04,0.874-0.008c1.238-0.201,2.469-0.464,3.711-0.637
		c0.826-0.115,1.668-0.136,2.503-0.162c0.461-0.013,0.924,0.053,1.365,0.081c0.208,1.3,0.19,1.492-0.274,3.115
		c-0.458,0.312-0.999,0.233-1.512,0.279c-1.879,0.169-3.719,0.538-5.55,1c-1.301,0.328-1.916,1.173-2.175,2.382
		c-0.088,0.407-0.125,0.829-0.141,1.247c-0.065,1.839,0.285,3.632,0.607,5.492c1.449,0.408,2.927,0.244,4.359,0.453
		c1.499,0.22,3.02,0.322,4.534,0.388C201.312,47.29,202.776,47.242,204.389,47.242z"/>
	<path fill-rule="evenodd" clip-rule="evenodd" d="M190.224,68.913c1.972-0.604,1.972-0.604,2.854-1.533
		c3.163-0.024,6.4-0.141,9.614,0.352c0.6,0.091,1.208,0.353,1.727,0.675c0.884,0.547,1.7,1.204,2.553,1.82
		c0.045,0.403,0.1,0.76,0.119,1.119c0.033,0.593,0.207,1.124,0.583,1.589c0.988,1.219,1.176,2.636,1.054,4.141
		c-0.055,0.673-0.075,1.353-0.049,2.027c0.033,0.809-0.165,1.55-0.527,2.261c-0.589,1.162-1.226,2.305-1.361,3.645
		c-0.029,0.293-0.233,0.576-0.388,0.846c-0.762,1.311-1.514,2.63-2.666,3.655c-0.117,0.104-0.236,0.216-0.312,0.349
		c-1.027,1.796-2.77,2.673-4.584,3.309c-1.651,0.581-3.399,0.394-5.092-0.068c-0.149-0.041-0.298-0.109-0.424-0.195
		c-1.374-0.95-2.774-1.863-4.104-2.872c-1.186-0.898-1.751-2.184-1.896-3.65c-0.042-0.415-0.065-0.836-0.043-1.252
		c0.129-2.293,0.281-4.574,0.807-6.829c0.425-1.827,0.685-3.694,0.972-5.55c0.082-0.532,0.17-1.029,0.558-1.42
		c0.476-0.479,0.654-1.047,0.568-1.716C190.159,69.411,190.206,69.199,190.224,68.913z M193.936,71.774
		c-0.178,1.116-0.339,2.199-0.529,3.277c-0.396,2.266-0.817,4.528-0.914,6.835c-0.078,1.841,0.098,3.648,0.624,5.426
		c0.192,0.648,0.545,1.104,1.127,1.425c1.382,0.76,2.822,1.023,4.389,0.729c0.767-0.143,1.362-0.468,1.868-1.04
		c0.77-0.871,1.382-1.837,1.848-2.9c0.867-1.981,1.272-4.087,1.564-6.213c0.062-0.457,0.011-0.942-0.051-1.403
		c-0.262-1.97-0.563-3.932-0.81-5.901c-0.114-0.914-0.74-1.465-1.281-2.096c-0.392-0.456-0.919-0.495-1.436-0.479
		c-1.462,0.038-2.932,0.046-4.382,0.216c-1.128,0.133-2.294,0.166-3.509,0.651C192.944,70.793,193.375,71.218,193.936,71.774z"/>
	<path fill-rule="evenodd" clip-rule="evenodd" d="M294.347,82.546c-0.25,0.767-0.492,1.501-0.731,2.237
		c-0.169,0.518-0.541,0.743-1.066,0.759c-0.889,0.021-1.779,0.091-2.666,0.06c-1.497-0.054-2.887,0.421-4.293,0.809
		c-0.866,0.237-1.454,0.821-1.643,1.725c-0.128,0.611-0.251,1.231-0.285,1.853c-0.1,1.788,0.219,3.542,0.53,5.292
		c0.016,0.094,0.116,0.171,0.169,0.242c4.686,0.426,9.361,0.852,14.063,1.278c0.413,0.552,0.269,1.179,0.339,1.861
		c-1.824,0.521-3.579,0.981-5.413,1.044c-0.516,0.017-1.058-0.018-1.55-0.158c-0.876-0.249-1.745-0.269-2.64-0.206
		c-1.461,0.101-2.917,0.178-4.376-0.131c-0.542-0.112-1.14,0.037-1.712,0.072c-0.886,0.054-1.771,0.162-2.656,0.155
		c-0.987-0.009-1.686-0.466-1.893-1.517c-0.09-0.453-0.246-0.894-0.397-1.426c0.473-0.107,0.857-0.196,1.347-0.308
		c0.033-0.268,0.091-0.561,0.102-0.854c0.039-1.15,0.071-2.301,0.09-3.452c0.022-1.308,0-2.61-0.292-3.902
		c-0.1-0.438-0.104-0.955,0.031-1.38c0.479-1.513,0.605-3.075,0.752-4.636c0.167-1.769,0.298-3.542,0.427-5.313
		c0.034-0.463,0.005-0.931,0.005-1.395c-0.827-0.739-1.962-0.801-2.808-1.452c0.135-0.94,0.737-1.531,1.493-1.906
		c0.884-0.438,1.809-0.848,2.764-1.07c2.696-0.631,5.411-1.183,8.129-1.722c1.642-0.325,3.306-0.53,4.987-0.446
		c0.47,0.024,0.939,0.074,1.404,0.145c0.25,0.035,0.491,0.136,0.754,0.211c-0.085,0.864-0.63,1.357-1.212,1.799
		c-0.72,0.544-1.543,0.854-2.437,1.01c-2.524,0.445-5.006,1.075-7.458,1.816c-0.449,0.138-0.896,0.282-1.373,0.434
		c-0.286,0.933-0.106,1.879-0.162,2.807c-0.061,0.992-0.07,1.985-0.111,2.979c-0.04,0.929-0.201,1.857-0.094,2.819
		c0.746,0.267,1.406,0.084,2.058-0.046c1.075-0.216,2.138-0.5,3.22-0.683c1.349-0.229,2.707-0.303,4.021,0.219
		C293.947,82.241,294.103,82.385,294.347,82.546z"/>
	<path fill-rule="evenodd" clip-rule="evenodd" d="M125.315,77.848c-0.961-0.009-1.711,0.2-2.465,0.382
		c-0.863,0.208-1.722,0.438-2.592,0.618c-0.871,0.18-1.751,0.231-2.591-0.02c-0.301-0.861-0.299-0.861-0.092-1.964
		c0.312-0.032,0.661-0.125,0.999-0.091c1.163,0.111,2.162-0.241,3.067-0.95c0.328-0.255,0.693-0.467,1.041-0.699
		c1.014-0.675,2.086-1.149,3.333-1.254c0.879-0.073,1.748-0.306,2.613-0.498c0.679-0.15,1.295-0.466,1.723-1.02
		c0.354-0.457,0.806-0.595,1.333-0.691c1.032-0.19,2.021-0.51,2.934-1.056c0.35-0.21,0.766-0.323,1.165-0.436
		c2.075-0.582,4.032-1.436,5.888-2.53c0.445-0.263,0.911-0.52,1.401-0.672c1.288-0.401,2.365-1.089,3.214-2.137
		c0.126-0.158,0.293-0.281,0.463-0.44c0.874,0.187,1.527,0.692,2.167,1.232c0.574,0.483,0.743,1.066,0.667,1.809
		c-0.064,0.625-0.276,1.067-0.824,1.406c-1.116,0.687-2.244,1.311-3.512,1.705c-0.889,0.277-1.744,0.705-2.556,1.168
		c-1.885,1.079-3.857,1.846-6.043,2.011c-0.52,0.039-1.035,0.154-1.547,0.256c-1.423,0.284-2.469,1.044-3.108,2.381
		c-0.616,1.287-0.956,2.647-1.234,4.035c-0.804,4.004-1.277,8.048-1.408,12.131c-0.005,0.151-0.073,0.301-0.108,0.442
		c-1.707,0.592-3.688,0.556-6.038-0.121c-0.037-0.175-0.121-0.375-0.115-0.571c0.083-2.664-0.016-5.336,0.415-7.983
		c0.186-1.14,0.433-2.248,0.914-3.311C124.845,80.038,125.25,79.071,125.315,77.848z"/>
	<path fill-rule="evenodd" clip-rule="evenodd" d="M77.403,50.078c-0.091-0.612-0.146-1.076-0.232-1.536
		c-0.178-0.947-0.537-1.851-1.249-2.484c-0.789-0.702-0.967-1.57-1.028-2.52c-0.121-1.878-0.202-3.76-0.353-5.636
		c-0.1-1.248-0.279-2.477-0.101-3.742c0.083-0.591-0.073-1.255-0.264-1.838c-0.44-1.34-0.425-2.684-0.141-4.025
		c0.215-1.021,0.599-2.004,0.823-3.023c0.3-1.36,1.38-1.879,2.447-2.437c0.087-0.045,0.202-0.05,0.305-0.058
		c0.32-0.026,0.692-0.035,0.824,0.292c0.106,0.265,0.097,0.611,0.028,0.893c-0.06,0.238-0.269,0.441-0.43,0.645
		c-0.194,0.244-0.409,0.47-0.597,0.685c-0.147,1.262,0.13,2.445,0.344,3.62c0.375,2.059,0.731,4.109,0.75,6.216
		c0.007,0.719,0.187,1.455,0.4,2.146c0.494,1.604,0.848,3.217,1.008,4.898c0.164,1.723,0.868,3.325,1.595,4.96
		c0.835,0.22,1.502,0.041,1.961-0.771c0.41-0.729,0.91-1.414,1.254-2.169c0.322-0.705,0.571-1.466,0.712-2.228
		c0.313-1.695,0.533-3.407,0.804-5.109c0.349-2.188,0.432-4.358-0.226-6.521c-0.331-1.088,0.105-1.708,1.208-1.89
		c0.256-0.043,0.521-0.049,0.781-0.051c0.52-0.01,1.039-0.004,1.55-0.004c0.732,1.027,1.423,1.997,2.164,3.037
		c-0.56,0.789-0.568,1.726-0.613,2.662c-0.06,1.254-0.17,2.505-0.242,3.756c-0.022,0.389-0.133,0.712-0.45,0.953
		c-0.247,0.19-0.49,0.385-0.814,0.639c0.156,0.741,0.315,1.495,0.48,2.287c-0.865,1.189-1.424,2.537-1.827,3.95
		c-0.233,0.816-0.652,1.414-1.51,1.624c-0.621,0.151-0.989,0.597-1.21,1.139c-0.586,1.436-1.76,2.012-3.177,2.203
		C80.699,50.868,79.047,50.738,77.403,50.078z"/>
	<path fill-rule="evenodd" clip-rule="evenodd" d="M211.448,93.103c-0.31-0.658-0.582-1.221-0.838-1.79
		c-0.587-1.31-0.94-2.635-0.573-4.1c0.177-0.699,0.125-1.455,0.22-2.179c0.114-0.879,0.269-1.752,0.413-2.628
		c0.238-1.439,0.567-2.871,0.696-4.322c0.087-0.981,0.255-1.839,1.085-2.402c0.025-0.581,0.047-1.091,0.075-1.696
		c0.68-0.053,1.287-0.102,1.988-0.156c0.16-0.314,0.339-0.669,0.526-1.038c2.955-0.117,5.894-0.161,8.782,0.3
		c2.12,0.337,3.747,1.517,4.349,3.76c0.091,0.337,0.231,0.72,0.476,0.943c0.438,0.398,0.55,0.883,0.559,1.409
		c0.023,1.461,0.048,2.923,0.008,4.381c-0.014,0.45-0.176,0.923-0.365,1.34c-0.665,1.475-1.38,2.926-2.061,4.394
		c-1.454,3.135-1.802,3.536-4.779,5.334c-0.939,0.566-1.914,1.05-2.973,1.378c-0.914,0.286-1.752,0.197-2.572-0.228
		c-0.417-0.216-0.853-0.425-1.208-0.722C214.157,94.164,212.918,93.524,211.448,93.103z M214.767,75.426
		c0.11,0.155,0.203,0.354,0.355,0.484c0.727,0.63,0.777,1.335,0.522,2.245c-0.364,1.303-0.64,2.649-0.762,3.996
		c-0.156,1.715-0.177,3.449-0.15,5.173c0.014,0.983,0.208,1.972,0.39,2.944c0.062,0.334,0.268,0.708,0.526,0.923
		c0.517,0.435,1.122,0.765,1.678,1.155c0.541,0.381,1.066,0.785,1.479,1.093c0.843-0.51,1.53-0.975,2.264-1.356
		c0.724-0.376,1.246-0.821,1.498-1.67c0.295-0.996,0.813-1.925,1.208-2.892c0.355-0.871,0.701-1.746,0.999-2.638
		c0.3-0.901,0.42-1.846,0.279-2.788c-0.21-1.396-0.447-2.788-0.738-4.168c-0.219-1.029-0.665-1.979-1.262-2.855
		c-0.406-0.597-0.936-0.972-1.665-1.04c-2.297-0.219-4.467,0.242-6.53,1.24C214.822,75.29,214.811,75.351,214.767,75.426z"/>
	<path fill-rule="evenodd" clip-rule="evenodd" d="M64.396,73.639c-0.031,0.41-0.07,0.718-0.076,1.027
		c-0.088,4.45-0.537,8.877-0.977,13.303c-0.193,1.949,0.098,3.863,0.317,5.784c0.101,0.878,0.24,1.753,0.37,2.687
		c-1.095,0.682-2.234,0.923-3.463,0.777c-0.613-0.072-1.067-0.377-1.335-0.955c-0.31-0.668-0.595-1.332-0.528-2.101
		c0.129-1.51,0.216-3.021,0.354-4.53c0.039-0.429,0.049-0.817-0.167-1.211c-0.177-0.316-0.305-0.664-0.433-1.006
		c-0.258-0.689-0.211-1.354,0.319-1.897c0.43-0.439,0.612-0.969,0.682-1.547c0.196-1.607,0.39-3.217,0.552-4.828
		c0.135-1.353,0.227-2.71,0.332-4.064c0.016-0.201,0.002-0.405,0.002-0.654c-0.696-0.279-1.367-0.187-2.007,0.021
		c-0.842,0.274-1.671,0.598-2.485,0.949c-0.814,0.354-1.597,0.783-2.405,1.15c-2.078,0.948-3.951,1.099-5.871,0.434
		c0.082-0.75,0.386-1.348,1.104-1.698c0.282-0.138,0.594-0.229,0.846-0.408c0.87-0.612,1.785-1.002,2.881-1.062
		c0.598-0.032,1.192-0.356,1.76-0.609c1.622-0.726,3.209-1.531,4.85-2.208c1.551-0.641,3.182-1.025,4.873-1.108
		c0.31-0.015,0.624-0.067,0.922-0.148c1.563-0.423,3.111-0.91,4.686-1.281c2.05-0.484,4.139-0.589,6.239-0.423
		c0.206,0.016,0.417,0.054,0.615,0.114c0.292,0.09,0.681,0.149,0.676,0.533c-0.004,0.285-0.103,0.659-0.3,0.832
		c-0.917,0.798-1.961,1.358-3.179,1.59c-1.592,0.301-3.181,0.628-4.759,0.994C67.319,72.438,65.865,72.859,64.396,73.639z"/>
	<path fill-rule="evenodd" clip-rule="evenodd" d="M265.317,72.494c-0.037,0.166-0.096,0.315-0.103,0.467
		c-0.187,4.128-0.427,8.255-0.527,12.383c-0.068,2.771,0.063,5.546,0.107,8.317c0.006,0.419-0.021,0.841,0.023,1.255
		c0.099,0.888-0.394,1.456-1.359,1.586c-0.764,0.103-1.552,0.021-2.344,0.021c-0.639-1.182-0.772-2.44-0.868-3.676
		c-0.086-1.086-0.027-2.199,0.114-3.28c0.126-0.962,0.19-1.874-0.294-2.744c-0.281-0.507-0.208-0.971-0.002-1.495
		c0.521-1.326,0.743-2.719,0.75-4.146c0.005-1.046-0.013-2.094,0.03-3.139c0.053-1.305,0.158-2.604,0.246-4.01
		c-1.729-0.232-3.411-0.261-4.978,0.687c-1.598,0.968-3.338,1.47-5.194,1.601c-0.575,0.041-1.146,0.071-1.701-0.115
		c-0.24-0.614-0.062-1.169,0.002-1.813c0.384-0.136,0.761-0.292,1.151-0.399c2.327-0.648,4.571-1.487,6.637-2.764
		c0.903-0.558,1.932-0.79,2.953-1.016c1.069-0.237,2.158-0.4,3.225-0.659c0.91-0.221,1.829-0.462,2.698-0.81
		c2.654-1.062,5.414-1.574,8.256-1.682c1.145-0.045,2.293-0.009,3.369-0.009c0.386,0.404,0.266,0.773,0.12,1.091
		c-0.484,1.046-1.164,1.732-2.457,1.864c-3.132,0.321-6.14,1.248-9.141,2.165C265.785,72.249,265.557,72.384,265.317,72.494z"/>
	<path fill-rule="evenodd" clip-rule="evenodd" d="M94.561,23.203c1.023-0.287,1.945-0.314,2.896-0.256
		c0.831,0.052,1.388,0.418,1.739,1.121c0.466,0.937,0.908,1.883,1.337,2.834c0.343,0.762,0.628,1.551,0.982,2.309
		c0.287,0.61,0.606,1.215,1.256,1.729c0.136-0.254,0.277-0.447,0.348-0.663c0.519-1.59,1.018-3.184,1.54-4.772
		c0.079-0.238,0.196-0.495,0.371-0.667c0.779-0.767,1.125-1.75,1.451-2.747c0.097-0.299,0.174-0.603,0.272-0.899
		c0.547-1.646,1.6-2.191,3.493-1.73c0.396,1.498,0.5,3.012-0.228,4.502c-0.414,0.846-0.85,1.682-1.241,2.538
		c-0.569,1.242-0.999,2.527-1.072,3.911c-0.016,0.304-0.025,0.711-0.21,0.886c-0.643,0.608-0.611,1.408-0.734,2.252
		c-0.71,0.217-1.317,0.572-1.222,1.493c0.052,0.502-0.218,0.89-0.534,1.262c-0.232,0.272-0.402,0.597-0.623,0.934
		c0.291,0.524,0.565,1.019,0.867,1.562c-0.114,0.165-0.215,0.343-0.346,0.491c-0.963,1.106-1.241,2.414-1.026,3.814
		c0.167,1.082,0.476,2.141,0.688,3.218c0.14,0.707,0.499,1.382,0.371,2.259c-1.039,0.495-2.115,1.006-3.271,1.556
		c-0.23-0.328-0.479-0.593-0.627-0.904c-0.661-1.386-1.018-2.858-1.075-4.391c-0.048-1.307-0.032-2.615-0.034-3.923
		c-0.002-1.1,0.001-2.198,0.021-3.297c0.01-0.592-0.111-1.141-0.397-1.656c-0.102-0.184-0.174-0.384-0.285-0.56
		c-1.401-2.223-2.269-4.692-3.297-7.088c-0.144-0.335-0.289-0.653-0.161-1.049c0.282-0.868-0.021-1.638-0.459-2.385
		C95.067,24.399,94.684,23.952,94.561,23.203z"/>
	<path fill-rule="evenodd" clip-rule="evenodd" d="M234.704,97.411c-0.358-0.654-0.29-1.325-0.237-2.072
		c0.442-0.241,0.9-0.482,1.353-0.735c2.938-1.647,5.299-3.887,6.958-6.836c0.711-1.267,0.581-2.087-0.521-3.026
		c-0.433-0.369-0.938-0.676-1.452-0.914c-1.238-0.573-2.534-0.949-3.902-1.1c-1.297-0.142-2.583-0.385-3.874-0.573
		c-0.507-0.075-0.867-0.349-1.11-0.78c-0.565-0.997-1.122-1.999-1.728-3.078c0.34-0.252,0.603-0.48,0.895-0.657
		c0.947-0.577,1.818-1.22,2.375-2.219c0.175-0.316,0.45-0.575,0.673-0.866c0.262-0.345,0.576-0.584,1.027-0.646
		c0.308-0.044,0.604-0.167,0.905-0.252c0.616-0.175,1.132-0.472,1.549-0.988c0.776-0.959,1.798-1.607,2.961-1.981
		c3.064-0.984,6.195-1.48,9.424-1.118c0.203,0.024,0.403,0.081,0.589,0.121c0.326,1.644-1.172,2.746-2.453,2.407
		c-2.011-0.533-2.424,0.015-4.016,0.762c-1.229,0.577-2.445,1.188-3.619,1.868c-0.854,0.496-1.648,1.104-2.434,1.706
		c-0.775,0.596-1.504,1.252-2.305,1.924c0.408,0.662,0.843,1.369,1.332,2.164c1.481,0.213,3.03,0.433,4.578,0.658
		c0.931,0.137,1.855,0.308,2.788,0.421c1.148,0.139,2.079,0.658,2.834,1.511c0.343,0.386,0.67,0.788,0.917,1.079
		c-0.249,1.323-0.467,2.498-0.696,3.671c-0.069,0.359-0.155,0.716-0.266,1.063c-0.23,0.717-0.541,1.368-1.387,1.547
		c-0.139,0.029-0.256,0.165-0.396,0.262c-0.111,0.614-0.222,1.229-0.341,1.896c-0.3,0.179-0.603,0.372-0.917,0.543
		c-1.166,0.632-2.198,1.414-2.908,2.56c-0.225,0.365-0.477,0.709-0.914,0.81c-1.673,0.384-3.301,1.008-5.056,0.954
		C235.127,97.488,234.925,97.44,234.704,97.411z"/>
	<path fill-rule="evenodd" clip-rule="evenodd" d="M253.624,28.588c-0.853,1.337-1.67,2.607-2.473,3.889
		c-0.109,0.173-0.17,0.383-0.219,0.583c-0.518,2.08-1.057,4.156-1.535,6.245c-0.928,4.052,0.483,7.398,3.188,10.342
		c0.438,0.476,0.988,0.789,1.598,0.951c0.854,0.229,1.729,0.385,2.645,0.582c0.753-0.692,1.479-1.358,2.249-2.069
		c0.493,0.025,1.007,0.051,1.583,0.08c0.226,0.981,0.339,1.86-0.305,2.71c-0.688,0.908-1.427,1.62-2.682,1.658
		c-2.001,0.061-3.977,0.016-5.892-0.649c-1.56-0.542-2.929-1.373-4.023-2.63c-0.77-0.886-0.777-0.882-1.902-1.282
		c-0.383-0.459-0.394-1.043-0.479-1.609c-0.17-1.138-0.378-2.269-0.527-3.407c-0.059-0.459-0.033-0.936,0.005-1.399
		c0.145-1.771,0.302-3.541,0.471-5.31c0.048-0.518,0.104-1.04,0.229-1.544c0.4-1.623,0.854-3.237,1.245-4.861
		c0.141-0.588,0.388-1.066,0.865-1.438c0.495-0.388,0.97-0.798,1.45-1.2c0.697-0.582,1.457-0.988,2.387-1.093
		c0.564-0.065,1.114-0.278,1.667-0.438c1.122-0.324,2.251-0.409,3.407-0.169c2.164,0.449,4.191,1.24,6.194,2.367
		c-0.799,0.975-1.716,1.518-2.891,1.404c-0.771-0.073-1.538-0.281-2.284-0.504c-0.801-0.236-1.575-0.563-2.361-0.85
		C254.701,28.75,254.162,28.566,253.624,28.588z"/>
	<path fill-rule="evenodd" clip-rule="evenodd" d="M330.255,78.78c0.12,0.269,0.171,0.418,0.25,0.553
		c1.028,1.748,1.029,1.769,3.062,1.817c1.893,0.049,3.75,0.317,5.593,0.724c0.856,0.19,1.549,0.566,1.963,1.386
		c0.21,0.415,0.5,0.79,0.779,1.228c-1.031,1.621-0.626,3.575-1.336,5.357c-0.328,0.115-0.712,0.25-1.136,0.398
		c-0.162,0.601-0.323,1.201-0.489,1.821c-1.543,1.105-2.917,2.39-4.144,3.826c-0.406,0.48-0.885,0.676-1.499,0.701
		c-0.571,0.023-1.148,0.091-1.711,0.207c-1.041,0.215-1.965,0.035-2.81-0.719c0.153-0.335,0.393-0.677,0.465-1.053
		c0.158-0.816,0.648-1.371,1.389-1.548c1.642-0.39,2.687-1.534,3.747-2.696c0.67-0.734,1.35-1.461,2.049-2.169
		c0.457-0.459,0.777-0.986,0.917-1.614c0.276-1.26-0.347-2.407-1.368-2.862c-1.594-0.711-3.232-1.177-4.961-1.385
		c-1.088-0.132-2.166-0.352-3.25-0.519c-0.506-0.076-0.851-0.333-1.106-0.775c-0.422-0.725-0.871-1.433-0.948-2.299
		c-0.046-0.5,0.03-0.951,0.536-1.194c1.322-0.636,2.169-1.787,3.078-2.86c0.49-0.578,1.026-1.002,1.808-1.139
		c0.84-0.149,1.582-0.566,2.153-1.21c0.366-0.414,0.808-0.6,1.321-0.759c0.746-0.23,1.48-0.531,2.179-0.884
		c1.533-0.776,3.138-1.124,4.854-0.969c0.929,0.085,1.882-0.044,2.854,0.301c0.027,0.312,0.067,0.61,0.079,0.91
		c0.022,0.594-0.279,0.954-0.801,1.225c-0.754,0.389-1.463,0.72-2.379,0.535c-0.988-0.201-1.973,0.097-2.924,0.401
		c-1.358,0.433-2.592,1.116-3.75,1.938c-1.235,0.877-2.458,1.773-3.68,2.669C330.789,78.306,330.563,78.521,330.255,78.78z"/>
	<path fill-rule="evenodd" clip-rule="evenodd" d="M237.439,46.739c-0.467,0.088-0.718,0.153-0.973,0.179
		c-1.086,0.107-2.173,0.203-3.325,0.31c-0.11-0.345-0.241-0.623-0.288-0.914c-0.525-3.244-0.358-6.455,0.432-9.646
		c0.213-0.857,0.253-1.757,0.407-2.629c0.102-0.564,0.221-1.13,0.407-1.669c0.838-2.418,1.711-4.824,2.553-7.242
		c0.54-1.55,0.764-1.731,2.358-1.712c0.362,0.005,0.722,0.05,1.135,0.08c0.384,0.721,0.499,1.485,0.536,2.265
		c0.066,1.413-0.008,2.816-0.222,4.221c-0.104,0.684-0.331,1.187-0.946,1.507c-0.13,0.068-0.231,0.194-0.427,0.365
		c0,0.572-0.005,1.197,0.001,1.821c0.013,1.003-0.146,1.973-0.528,2.909c-0.458,1.123-0.717,2.293-0.771,3.506
		c-0.061,1.41-0.109,2.821-0.179,4.23C237.572,45.094,237.501,45.865,237.439,46.739z"/>
	<path fill-rule="evenodd" clip-rule="evenodd" d="M352.812,85.53c-0.942,0.448-1.89,0.635-2.9,0.397
		c-0.45-0.104-0.763-0.341-0.81-0.825c-0.146-1.501-0.286-3.004-0.425-4.478c0.38-0.352,0.681-0.631,0.978-0.907
		c0.013-0.176,0.062-0.339,0.027-0.481c-0.372-1.616-0.204-3.207,0.143-4.808c0.117-0.545,0.083-1.136,0.032-1.7
		c-0.105-1.194-0.282-2.382-0.396-3.577c-0.05-0.508-0.01-1.024-0.01-1.599c1.631-0.54,3.209-0.985,4.983-0.84
		c0.719,2.34,1.294,4.648,1.029,7.09c-0.188,1.716-0.529,3.398-0.971,5.065C353.922,81.034,353.396,83.212,352.812,85.53z"/>
	<path fill-rule="evenodd" clip-rule="evenodd" d="M312.853,107.605c0.161,0.356,0.325,0.718,0.492,1.088
		c2.017-1.605,2.967-1.608,4.513,0.003c0.318-0.242,0.623-0.532,0.979-0.725c0.357-0.193,0.758-0.375,1.156-0.419
		c1.526-0.166,2.417,0.529,2.569,2.057c0.093,0.934,0.036,1.882,0.047,2.824c0.007,0.625,0.013,1.23,0.298,1.834
		c0.289,0.614,0.071,1.041-0.521,1.243c-1.02,0.352-2.059,0.353-3.077,0.006c-0.607-0.207-0.796-0.586-0.552-1.229
		c0.324-0.86,0.331-1.741,0.324-2.631c-0.002-0.311-0.053-0.625-0.111-0.933c-0.078-0.43-0.303-0.653-0.58-0.608
		c-0.382,0.062-0.485,0.368-0.54,0.682c-0.053,0.308-0.084,0.623-0.079,0.934c0.013,0.838,0.013,1.679,0.35,2.471
		c0.257,0.602-0.014,1.17-0.653,1.356c-0.972,0.285-1.966,0.283-2.938,0.011c-0.602-0.167-0.855-0.647-0.562-1.227
		c0.584-1.15,0.486-2.33,0.3-3.526c-0.028-0.194-0.148-0.382-0.256-0.553c-0.127-0.203-0.587-0.153-0.658,0.072
		c-0.075,0.247-0.163,0.506-0.158,0.758c0.021,1.042,0.044,2.089,0.125,3.129c0.07,0.913-0.124,1.299-1.008,1.436
		c-0.929,0.142-1.879,0.219-2.777-0.195c-0.501-0.229-0.655-0.677-0.375-1.155c0.921-1.568,0.875-3.149,0.087-4.744
		c-0.289-0.585-0.192-1.018,0.393-1.296C310.633,107.794,311.657,107.399,312.853,107.605z"/>
	<path fill-rule="evenodd" clip-rule="evenodd" d="M270.542,112.158c-0.197-0.298-0.435-0.581-0.589-0.904
		c-0.491-1.025-0.249-2.09,0.635-2.819c0.62-0.511,1.338-0.847,2.146-0.856c0.777-0.01,1.575,0,2.332,0.152
		c0.76,0.153,1.442,0.131,2.118-0.245c0.179-0.101,0.375-0.177,0.572-0.233c0.229-0.066,0.513,0.166,0.566,0.418
		c0.111,0.501-0.051,0.936-0.353,1.314c-0.27,0.337-0.404,0.689-0.468,1.127c-0.206,1.427-0.967,2.234-2.402,2.483
		c-0.763,0.131-1.56,0.078-2.338,0.138c-0.107,0.008-0.278,0.183-0.288,0.29c-0.01,0.114,0.117,0.274,0.228,0.354
		c0.117,0.088,0.281,0.142,0.432,0.152c0.311,0.021,0.627,0.022,0.938,0.002c0.418-0.025,0.832-0.104,1.248-0.113
		c0.468-0.014,0.94-0.009,1.402,0.044c1.194,0.133,1.843,1.197,1.562,2.427c-0.172,0.75-0.618,1.336-1.277,1.713
		c-2.038,1.164-4.154,1.275-6.316,0.369c-0.236-0.101-0.461-0.252-0.659-0.419c-0.707-0.591-0.792-1.211-0.302-2.052
		c0.074-0.132,0.164-0.253,0.237-0.365C269.216,113.58,269.232,113.494,270.542,112.158z M272.826,110.155
		c0.07,0.22,0.165,0.681,0.367,1.085c0.227,0.448,0.98,0.397,1.129-0.084c0.131-0.425,0.175-0.908,0.123-1.352
		c-0.082-0.724-0.472-1.064-0.95-0.982C273.106,108.89,272.84,109.325,272.826,110.155z M271.713,116.008
		c0.479,1.021,1.244,1.05,2.02,1.023c0.524-0.018,1.044-0.088,1.151-0.851C273.854,115.849,272.854,116.07,271.713,116.008z"/>
	<path fill-rule="evenodd" clip-rule="evenodd" d="M247.271,115.796c-1.307-0.824-1.542-2.378-2.477-3.384
		c-0.497,0.087-0.563,0.479-0.729,0.779c-0.4,0.731-0.768,1.485-1.21,2.191c-0.316,0.506-0.793,0.51-1.147,0.038
		c-0.345-0.458-0.657-0.944-0.929-1.448c-0.568-1.059-1.107-2.131-1.645-3.204c-0.308-0.616-0.666-1.146-1.291-1.521
		c-0.621-0.371-0.531-0.992,0.119-1.311c0.141-0.068,0.292-0.117,0.44-0.163c1.023-0.314,2.07-0.271,3.103-0.108
		c0.704,0.111,0.993,0.504,0.846,1.201c-0.166,0.781,0.236,1.285,0.581,1.799c0.496,0.104,0.657-0.209,0.726-0.496
		c0.054-0.223-0.006-0.516-0.117-0.721c-0.167-0.311-0.423-0.572-0.603-0.803c0.036-0.53,0.342-0.711,0.705-0.827
		c1.071-0.345,2.167-0.312,3.254-0.133c0.706,0.116,0.873,0.52,0.638,1.27c-0.306,0.96-0.27,1.065,0.636,1.837
		c0.824-0.685,1.055-1.482,0.519-2.375c0.125-0.501,0.445-0.717,0.81-0.749c0.672-0.059,1.353-0.058,2.025-0.02
		c0.314,0.017,0.632,0.229,0.633,0.581c0,0.221-0.147,0.562-0.32,0.64c-0.804,0.352-1.095,1.072-1.441,1.777
		c-0.599,1.218-1.209,2.429-1.836,3.633C248.273,114.832,248.021,115.422,247.271,115.796z"/>
	<path fill-rule="evenodd" clip-rule="evenodd" d="M263.977,114.923c0.75-1.105,0.691-2.311,0.639-3.51
		c-0.009-0.209-0.036-0.42-0.082-0.622c-0.092-0.405-0.395-0.682-0.738-0.703c-0.339-0.019-0.685,0.261-0.712,0.699
		c-0.073,1.142-0.22,2.286,0.285,3.396c0.322,0.709,0.138,1.127-0.54,1.338c-1.068,0.336-2.161,0.321-3.248,0.073
		c-0.197-0.046-0.388-0.162-0.56-0.276c-0.305-0.202-0.429-0.648-0.201-0.967c0.887-1.231,0.498-2.614,0.479-3.945
		c-0.002-0.255-0.328-0.503-0.5-0.758c-0.299-0.439-0.284-0.829,0.117-1.088c1.163-0.748,2.427-1.144,3.844-1.073
		c0.155,0.362,0.273,0.637,0.404,0.944c0.14-0.044,0.325-0.049,0.412-0.144c0.724-0.796,1.646-0.85,2.607-0.692
		c1.197,0.191,1.995,0.979,2.122,2.188c0.092,0.881,0.054,1.775,0.045,2.665c-0.005,0.635,0.033,1.213,0.449,1.772
		c0.391,0.522,0.195,1.053-0.391,1.247c-1.217,0.403-2.467,0.427-3.698,0.072C264.45,115.464,264.254,115.165,263.977,114.923z"/>
	<path fill-rule="evenodd" clip-rule="evenodd" d="M193.183,115.811c-1.796,0.061-3.143-0.718-3.935-2.304
		c-0.739-1.479-0.568-2.943,0.484-4.241c1.362-1.679,4.023-2.257,5.985-1.343c2.327,1.086,2.931,4.194,1.194,6.242
		C195.944,115.309,194.679,115.835,193.183,115.811z M194.375,112.488c-0.12-0.536-0.262-1.302-0.478-2.045
		c-0.08-0.283-0.308-0.535-0.506-0.77c-0.214-0.249-0.65-0.157-0.764,0.163c-0.101,0.288-0.235,0.612-0.194,0.897
		c0.108,0.77,0.252,1.541,0.474,2.283c0.201,0.671,0.609,0.941,0.968,0.785C194.356,113.592,194.278,113.128,194.375,112.488z"/>
	<path fill-rule="evenodd" clip-rule="evenodd" d="M184.479,107.547c0.108,0.014,0.59,0.017,1.03,0.152
		c2.722,0.839,3.176,3.301,2.524,5.231c-0.257,0.758-0.728,1.375-1.359,1.869c-1.385,1.082-2.975,1.286-4.59,0.813
		c-1.502-0.44-2.451-1.548-2.765-3.107c-0.304-1.512,0.196-2.774,1.345-3.776C181.647,107.873,182.814,107.489,184.479,107.547z
		 M184.771,112.663c-0.021-0.279-0.011-0.546-0.065-0.797c-0.159-0.762-0.256-1.553-0.84-2.151
		c-0.271-0.279-0.792-0.186-0.887,0.188c-0.076,0.299-0.118,0.616-0.115,0.925c0.009,0.952,0.185,1.875,0.718,2.681
		c0.115,0.173,0.453,0.328,0.642,0.286c0.192-0.044,0.37-0.32,0.475-0.535C184.783,113.085,184.751,112.853,184.771,112.663z"/>
	<path fill-rule="evenodd" clip-rule="evenodd" d="M304.439,107.533c0.208,0.027,0.687,0.034,1.133,0.158
		c2.367,0.662,3.475,3.206,2.421,5.519c-0.526,1.153-1.405,1.945-2.601,2.321c-2.231,0.702-4.167,0.172-5.324-1.445
		c-1.138-1.589-0.961-3.768,0.426-5.143C301.441,108.004,302.7,107.522,304.439,107.533z M304.813,112.557
		c-0.026-0.304-0.005-0.683-0.104-1.028c-0.154-0.547-0.352-1.088-0.607-1.595c-0.093-0.186-0.402-0.368-0.613-0.368
		c-0.359,0-0.478,0.343-0.543,0.656c-0.034,0.152-0.042,0.312-0.042,0.468c0.003,0.899,0.21,1.759,0.58,2.576
		c0.194,0.432,0.545,0.657,0.833,0.56c0.345-0.118,0.439-0.414,0.471-0.739C304.803,112.932,304.803,112.775,304.813,112.557z"/>
	<path fill-rule="evenodd" clip-rule="evenodd" d="M220.713,111.866c-1.316,0.293-2.739-0.07-4.113,0.22
		c0.135,0.925,0.427,1.342,1.162,1.457c0.449,0.072,0.933,0.007,1.388-0.069c0.3-0.051,0.57-0.257,0.868-0.352
		c0.488-0.157,0.976,0.311,0.826,0.801c-0.074,0.241-0.188,0.505-0.365,0.677c-1.336,1.305-2.97,1.524-4.659,1.012
		c-1.584-0.479-2.512-1.68-2.717-3.327c-0.204-1.639,0.408-2.998,1.746-3.958c1.391-0.996,2.925-1.075,4.461-0.38
		c1.015,0.458,1.618,1.304,1.806,2.413C221.203,110.887,221.187,111.407,220.713,111.866z M216.576,110.288
		c0.491,0.22,0.978,0.224,1.458-0.02c0.068-0.833-0.073-1.131-0.551-1.189C216.851,109,216.563,109.377,216.576,110.288z"/>
	<path fill-rule="evenodd" clip-rule="evenodd" d="M295.472,107.522c0.853-0.014,1.666,0.13,2.391,0.61
		c0.715,0.476,1.075,1.129,0.935,2c-0.101,0.62-0.462,1.053-1.077,1.207c-0.594,0.15-1.148,0.055-1.549-0.467
		c-0.189-0.248-0.313-0.557-0.539-0.762c-0.168-0.153-0.473-0.287-0.669-0.24c-0.209,0.051-0.455,0.3-0.521,0.512
		c-0.411,1.327,0.827,2.719,2.173,2.459c0.408-0.078,0.795-0.261,1.203-0.347c0.582-0.122,1.004,0.273,1.001,0.878
		c-0.003,0.507-0.234,0.896-0.575,1.242c-1.273,1.286-3.785,1.579-5.394,0.63c-1.633-0.966-2.436-2.883-1.864-4.734
		c0.528-1.716,1.843-2.588,3.55-2.921C294.841,107.531,295.159,107.542,295.472,107.522z"/>
	<path fill-rule="evenodd" clip-rule="evenodd" d="M225.868,107.635c0.151,0.246,0.286,0.466,0.427,0.694
		c0.079-0.014,0.193,0.004,0.242-0.046c0.371-0.381,0.751-0.697,1.335-0.717c1.333-0.04,2.318,0.951,2.224,2.274
		c-0.092,1.276-1.72,2.033-2.9,1.338c-0.257-0.152-0.473-0.374-0.723-0.577c-0.278,0.82-0.414,2.273-0.168,2.725
		c0.163,0.302,0.489,0.518,0.743,0.77c0.525,0.523,0.439,1.073-0.227,1.356c-0.238,0.102-0.497,0.213-0.747,0.221
		c-0.939,0.028-1.882,0.056-2.818,0c-0.4-0.023-0.81-0.206-1.175-0.394c-0.471-0.244-0.627-0.83-0.259-1.189
		c1.112-1.091,0.635-2.442,0.67-3.7c0.006-0.235-0.339-0.48-0.527-0.718c-0.373-0.468-0.344-0.885,0.163-1.182
		C223.275,107.82,224.502,107.445,225.868,107.635z"/>
	<path fill-rule="evenodd" clip-rule="evenodd" d="M175.201,108.499c0.505-0.633,1.039-1,1.797-0.932
		c0.55,0.049,1.012,0.241,1.382,0.639c0.605,0.65,0.62,1.889,0.046,2.608c-0.704,0.884-1.734,0.832-3.137-0.158
		c-0.261,0.758-0.398,2.222-0.15,2.667c0.168,0.301,0.489,0.516,0.746,0.767c0.53,0.519,0.453,1.067-0.205,1.356
		c-0.237,0.105-0.494,0.22-0.744,0.226c-0.988,0.023-1.98,0.037-2.966-0.014c-0.348-0.019-0.704-0.192-1.022-0.359
		c-0.463-0.246-0.647-0.841-0.29-1.19c1.06-1.034,0.645-2.332,0.734-3.54c0.029-0.397-0.292-0.627-0.543-0.899
		c-0.398-0.432-0.345-0.882,0.125-1.175c1.045-0.648,2.191-0.957,3.424-0.908C174.866,107.603,174.928,108.019,175.201,108.499z"/>
	<path fill-rule="evenodd" clip-rule="evenodd" d="M202.589,107.691c0.206-0.02,0.414-0.027,0.618-0.062
		c0.421-0.071,0.826-0.126,1.172,0.22c0.456,0.459,0.789,0.974,0.777,1.648c-0.01,0.621-0.669,1.049-1.224,0.773
		c-0.275-0.136-0.506-0.359-0.764-0.537c-0.213-0.146-0.423-0.31-0.658-0.401c-0.104-0.041-0.326,0.038-0.39,0.134
		c-0.065,0.1-0.062,0.35,0.013,0.417c0.231,0.204,0.506,0.358,0.772,0.521c0.486,0.299,0.997,0.565,1.466,0.893
		c1.293,0.896,1.306,3.155-0.36,4.07c-0.719,0.397-1.487,0.448-2.277,0.409c-0.62-0.033-1.242-0.048-1.861-0.096
		c-0.198-0.017-0.428-0.063-0.577-0.182c-0.703-0.551-1.065-1.271-0.958-2.182c0.062-0.532,0.588-0.779,1.048-0.483
		c0.261,0.165,0.484,0.39,0.729,0.583c0.203,0.159,0.404,0.326,0.62,0.468c0.269,0.177,0.648,0.132,0.66-0.077
		c0.01-0.176-0.07-0.41-0.196-0.527c-0.187-0.171-0.448-0.257-0.675-0.387c-0.271-0.156-0.552-0.298-0.802-0.483
		c-1.019-0.755-1.412-1.777-1.126-2.867c0.25-0.954,1.307-1.823,2.431-1.938c0.515-0.055,1.039-0.009,1.559-0.009
		C202.587,107.626,202.589,107.658,202.589,107.691z"/>
	<path fill-rule="evenodd" clip-rule="evenodd" d="M234.258,107.692c0.257-0.027,0.514-0.066,0.772-0.081
		c1.05-0.061,1.977,0.968,1.816,2.011c-0.082,0.539-0.693,0.894-1.188,0.665c-0.232-0.107-0.439-0.276-0.65-0.428
		s-0.394-0.359-0.625-0.458c-0.152-0.065-0.426-0.049-0.541,0.052c-0.172,0.146-0.113,0.397,0.081,0.528
		c0.302,0.202,0.629,0.365,0.94,0.555c0.401,0.243,0.808,0.479,1.194,0.744c1.352,0.934,1.301,3.299-0.47,4.153
		c-0.741,0.356-1.505,0.385-2.293,0.33c-0.466-0.031-0.947-0.176-1.394-0.1c-0.693,0.118-1.097-0.201-1.436-0.703
		c-0.393-0.585-0.604-1.218-0.337-1.924c0.099-0.259,0.561-0.44,0.801-0.279c0.385,0.261,0.723,0.593,1.11,0.852
		c0.249,0.167,0.545,0.27,0.831,0.371c0.057,0.021,0.193-0.082,0.233-0.158c0.041-0.079,0.051-0.23,0.003-0.291
		c-0.128-0.155-0.28-0.302-0.45-0.407c-0.398-0.246-0.83-0.441-1.218-0.702c-0.531-0.357-0.931-0.839-1.121-1.466
		c-0.472-1.556,0.625-3.125,2.377-3.347c0.511-0.064,1.038-0.011,1.558-0.011C234.254,107.63,234.256,107.663,234.258,107.692z"/>
	<path fill-rule="evenodd" clip-rule="evenodd" d="M282.791,107.692c0.256-0.026,0.514-0.062,0.772-0.076
		c1.092-0.061,1.934,0.884,1.795,2.006c-0.067,0.553-0.662,0.896-1.169,0.652c-0.232-0.111-0.434-0.287-0.644-0.438
		c-0.212-0.15-0.401-0.353-0.634-0.446c-0.158-0.062-0.429-0.039-0.555,0.062c-0.199,0.159-0.081,0.393,0.098,0.514
		c0.3,0.206,0.629,0.366,0.939,0.558c0.444,0.272,0.924,0.51,1.313,0.847c1.278,1.1,1.131,2.937-0.274,3.885
		c-0.735,0.495-1.556,0.578-2.404,0.521c-0.519-0.035-1.053-0.192-1.55-0.113c-0.693,0.109-1.1-0.183-1.448-0.685
		c-0.411-0.588-0.57-1.228-0.326-1.928c0.103-0.291,0.514-0.459,0.784-0.278c0.388,0.257,0.725,0.593,1.112,0.852
		c0.249,0.164,0.547,0.262,0.833,0.356c0.064,0.022,0.206-0.071,0.251-0.148c0.043-0.072,0.048-0.231-0.002-0.282
		c-0.18-0.184-0.374-0.359-0.591-0.494c-0.352-0.224-0.75-0.376-1.086-0.619c-0.911-0.658-1.44-1.527-1.228-2.689
		c0.197-1.068,1.261-1.997,2.445-2.14c0.513-0.06,1.041-0.01,1.562-0.01C282.787,107.629,282.789,107.662,282.791,107.692z"/>
	<path fill-rule="evenodd" clip-rule="evenodd" d="M206.792,109.666c-0.177-0.137-0.215-0.175-0.261-0.199
		c-1.083-0.588-1.17-0.988-0.273-1.644c0.801-0.584,1.66-1.086,2.508-1.605c0.219-0.133,0.476-0.217,0.726-0.283
		c0.571-0.154,0.898,0.062,1,0.64c0.026,0.153,0.014,0.313,0.034,0.469c0.021,0.148,0.061,0.295,0.111,0.539
		c0.6,0.062,1.206,0.122,1.897,0.191c0.056,0.336,0.155,0.63,0.141,0.917c-0.024,0.486-0.204,0.655-0.667,0.712
		c-0.456,0.057-0.917,0.085-1.434,0.13c-0.282,1.134-0.182,2.222-0.088,3.305c0.033,0.38,0.402,0.616,0.797,0.574
		c0.153-0.017,0.301-0.084,0.452-0.125c0.323-0.089,0.68-0.108,0.81,0.243c0.101,0.266,0.094,0.615,0.013,0.892
		c-0.066,0.229-0.283,0.444-0.482,0.597c-1.127,0.864-2.404,0.974-3.724,0.607c-0.627-0.174-1.108-0.621-1.292-1.27
		c-0.141-0.496-0.237-1.02-0.257-1.533C206.765,111.778,206.792,110.732,206.792,109.666z"/>
	<path fill-rule="evenodd" clip-rule="evenodd" d="M312.018,46.389c1.161-0.442,2.303-0.42,3.44-0.335
		c0.228,0.016,0.475,0.207,0.649,0.381c0.37,0.366,0.697,0.772,1.075,1.198c-0.019,0.246-0.064,0.501-0.055,0.753
		c0.052,1.399-0.314,2.516-1.707,3.198c-0.576,0.283-0.971,0.931-1.466,1.393c-0.766,0.713-1.011,0.794-2.131,0.776
		c-0.097-0.144-0.222-0.308-0.325-0.482c-0.317-0.538-0.626-1.082-0.97-1.679c0.483-1.215,1.516-2.085,2.158-3.286
		C312.478,47.706,312.261,47.082,312.018,46.389z"/>
	<path fill-rule="evenodd" clip-rule="evenodd" d="M257.056,107.65c0.014,0.981,0.029,1.86,0.038,2.737
		c0.005,0.522,0.011,1.044-0.002,1.565c-0.019,0.84-0.033,1.65,0.66,2.315c0.321,0.31,0.151,0.828-0.233,1.068
		c-0.132,0.08-0.273,0.158-0.422,0.198c-1.234,0.333-2.477,0.354-3.694-0.037c-0.874-0.28-1.043-0.79-0.473-1.51
		c0.315-0.401,0.456-0.809,0.477-1.282c0.022-0.521,0.035-1.043,0.023-1.563c-0.012-0.529-0.146-0.987-0.543-1.411
		c-0.537-0.575-0.425-1.025,0.203-1.368C254.028,107.849,255.641,107.538,257.056,107.65z"/>
	<path fill-rule="evenodd" clip-rule="evenodd" d="M348.634,94.379c-0.792-1.68-1.269-3.262-0.143-4.957
		c1.883-0.08,3.741-0.452,5.538,0.365c0.251,1.074,0.05,2.029-0.323,2.951c-0.575,1.418-1.049,1.719-2.582,1.7
		C350.3,94.43,349.475,94.4,348.634,94.379z"/>
	<path fill-rule="evenodd" clip-rule="evenodd" d="M289.977,114.002c-0.003,1.064-0.822,1.835-1.915,1.801
		c-0.989-0.032-1.771-0.827-1.773-1.805c-0.001-1.032,0.866-1.843,1.935-1.806C289.233,112.229,289.979,112.999,289.977,114.002z"/>
	<path fill-rule="evenodd" clip-rule="evenodd" d="M254.277,107.176c-0.257-0.054-0.621-0.092-0.957-0.21
		c-0.727-0.256-0.92-1.081-0.407-1.627c0.756-0.804,2.685-1.061,3.635-0.481c0.519,0.317,0.571,0.992,0.115,1.471
		C256.039,106.98,255.207,107.056,254.277,107.176z"/>
</g>
</svg>
