<?xml version="1.0" encoding="utf-8"?>
<!-- Generator: Adobe Illustrator 16.0.0, SVG Export Plug-In . SVG Version: 6.00 Build 0)  -->
<!DOCTYPE svg PUBLIC "-//W3C//DTD SVG 1.1//EN" "http://www.w3.org/Graphics/SVG/1.1/DTD/svg11.dtd">
<svg version="1.1" xmlns="http://www.w3.org/2000/svg" xmlns:xlink="http://www.w3.org/1999/xlink" x="0px" y="0px" width="360px"
	 height="360px" viewBox="0 0 360 360" enable-background="new 0 0 360 360" xml:space="preserve">
<g id="Layer_1">
	<g>
		<g>
			<rect x="16.004" y="123.317" fill="none" width="327.991" height="54.055"/>
			<path d="M8.678,10.042v174.657h342.644V10.042H8.678z M287.672,21.362c25.471,0,46.121,20.648,46.121,46.119
				c0,25.472-20.65,46.12-46.121,46.12c-25.472,0-46.118-20.648-46.118-46.12C241.554,42.01,262.2,21.362,287.672,21.362z
				 M182.712,21.362c25.471,0,46.119,20.648,46.119,46.119c0,25.472-20.648,46.12-46.119,46.12
				c-25.472,0-46.119-20.648-46.119-46.12C136.593,42.01,157.24,21.362,182.712,21.362z M77.751,21.362
				c25.472,0,46.12,20.648,46.12,46.119c0,25.472-20.648,46.12-46.12,46.12c-25.471,0-46.119-20.648-46.119-46.12
				C31.632,42.01,52.28,21.362,77.751,21.362z M343.995,177.373H16.004v-54.055h327.991V177.373z"/>
		</g>
		<g>
			<path d="M158.845,75.986h-5.012V57.434h4.854c2.42,0,4.214,0.493,5.384,1.478c1.376,1.162,2.066,2.775,2.066,4.842
				c0,2.251-0.732,3.929-2.199,5.034c-1.001,0.745-2.439,1.117-4.313,1.117h-0.781V75.986z M158.845,66l0.227,0.012
				c0.61,0,1.094-0.186,1.454-0.558c0.361-0.374,0.542-0.884,0.542-1.533c0-0.641-0.177-1.161-0.53-1.561
				c-0.352-0.409-0.801-0.614-1.345-0.614h-0.348V66z"/>
			<path d="M181.084,75.986h-5.418l-2.475-6.609c-0.025-0.112-0.065-0.26-0.127-0.444c-0.059-0.184-0.134-0.405-0.221-0.662
				l0.035,1.226v6.489h-4.986V57.434h5.13c2.26,0,3.949,0.444,5.072,1.333c1.425,1.138,2.139,2.755,2.139,4.854
				c0,2.244-0.958,3.794-2.873,4.65L181.084,75.986z M172.902,65.76h0.336c0.577,0,1.057-0.22,1.442-0.661
				c0.385-0.44,0.577-1.002,0.577-1.682c0-1.386-0.725-2.079-2.175-2.079h-0.18V65.76z"/>
			<path d="M187.753,75.986h-5.01V57.434h5.01V75.986z"/>
			<path d="M200.777,70.338l-0.288,5.027c-1.113,0.413-2.111,0.62-2.993,0.62c-2.073,0-3.819-0.736-5.238-2.206
				c-1.585-1.647-2.379-3.979-2.379-6.995c0-2.823,0.746-5.089,2.235-6.799c1.489-1.701,3.48-2.552,5.972-2.552
				c0.809,0,1.633,0.146,2.474,0.438v5.125c-0.744-0.745-1.509-1.117-2.293-1.117c-1.026,0-1.827,0.433-2.404,1.298
				c-0.577,0.874-0.865,2.082-0.865,3.622c0,0.746,0.072,1.413,0.216,2c0.145,0.587,0.353,1.083,0.621,1.488
				c0.268,0.406,0.599,0.715,0.99,0.93c0.393,0.214,0.842,0.321,1.346,0.321C199.034,71.539,199.902,71.139,200.777,70.338z"/>
			<path d="M202.735,75.986V57.434h9.311v4.445h-4.302v2.367h3.859v4.445h-3.859v2.847h4.302v4.447H202.735z"/>
		</g>
		<g>
			<path d="M48.375,76.38l-4.025,2.176l-1.718-2.812c-0.577,0.16-1.073,0.241-1.49,0.241c-1.987,0-3.639-0.781-4.962-2.344
				c-1.409-1.663-2.114-3.961-2.114-6.892c0-2.838,0.641-5.097,1.922-6.775c1.282-1.694,2.995-2.541,5.142-2.541
				c2.091,0,3.79,0.855,5.095,2.566c1.305,1.711,1.958,3.938,1.958,6.682c0,3.13-0.701,5.527-2.102,7.19L48.375,76.38z
				 M42.992,66.815c0-0.778-0.044-1.473-0.132-2.084c-0.089-0.614-0.212-1.129-0.372-1.55c-0.161-0.42-0.359-0.741-0.595-0.965
				c-0.237-0.224-0.502-0.336-0.798-0.336c-0.562,0-1.01,0.439-1.346,1.32c-0.329,0.942-0.493,2.124-0.493,3.545
				c0,0.754,0.041,1.43,0.125,2.027c0.085,0.596,0.205,1.099,0.362,1.508c0.154,0.408,0.349,0.72,0.582,0.936
				c0.231,0.217,0.493,0.324,0.781,0.324c0.296,0,0.56-0.105,0.793-0.317c0.231-0.212,0.43-0.522,0.594-0.931
				c0.165-0.408,0.289-0.903,0.374-1.484C42.95,68.226,42.992,67.562,42.992,66.815z"/>
			<path d="M58.083,57.434h5.01V70.33c0,1.078-0.173,1.952-0.518,2.621c-0.335,0.701-0.896,1.335-1.682,1.902
				c-1.058,0.755-2.342,1.134-3.855,1.134c-1.715,0-3.153-0.418-4.315-1.252c-1.473-1.063-2.209-2.763-2.209-5.101V57.434h5.01
				V69.33c0,0.805,0.098,1.374,0.295,1.708c0.196,0.335,0.527,0.501,0.99,0.501c0.481,0,0.813-0.154,0.998-0.465
				c0.185-0.327,0.277-0.903,0.277-1.732V57.434z"/>
			<path d="M78.833,75.986h-5.178l-0.372-2.355h-3.376l-0.408,2.355h-5.18l4.458-18.552h6.128L78.833,75.986z M72.692,69.725
				l-0.323-2.162c-0.009-0.009-0.024-0.117-0.048-0.326c-0.016-0.175-0.1-0.872-0.252-2.09c-0.016-0.136-0.036-0.323-0.061-0.559
				c-0.024-0.236-0.055-0.534-0.096-0.896l-0.155-1.753c-0.017,0.168-0.039,0.356-0.066,0.565c-0.028,0.208-0.059,0.437-0.09,0.685
				c-0.057,0.496-0.097,0.841-0.12,1.032c-0.025,0.193-0.042,0.309-0.049,0.349l-0.348,2.247l-0.505,2.907H72.692z"/>
			<path d="M89.058,75.986h-8.772V57.434h5.011v14.105h3.761V75.986z"/>
			<path d="M95.559,75.986h-5.01V57.434h5.01V75.986z"/>
			<path d="M104.629,75.986h-5.01V61.879h-2.762v-4.445h10.645v4.445h-2.872V75.986z"/>
			<path d="M117.954,75.986h-5.01v-7.858l-4.602-10.693h5.228l0.9,2.751c0.176,0.536,0.335,1.053,0.475,1.549
				c0.141,0.497,0.266,0.974,0.378,1.431c0.186-0.681,0.345-1.268,0.48-1.762c0.137-0.492,0.257-0.89,0.361-1.194l0.913-2.775h5.191
				l-4.315,10.693V75.986z"/>
		</g>
		<g>
			<path d="M247.055,75.229v-5.708c0.986,1.345,2.052,2.018,3.198,2.018c0.433,0,0.784-0.11,1.056-0.331
				c0.272-0.22,0.409-0.496,0.409-0.828c0-0.479-0.297-0.946-0.889-1.403l-0.817-0.613c-0.546-0.394-1.009-0.787-1.395-1.177
				c-0.385-0.39-0.697-0.792-0.937-1.206c-0.24-0.412-0.418-0.84-0.528-1.28c-0.111-0.44-0.168-0.904-0.168-1.391
				c0-0.834,0.2-1.708,0.601-2.62c0.2-0.425,0.432-0.814,0.696-1.165c0.266-0.352,0.567-0.662,0.913-0.933
				c0.945-0.773,2.085-1.159,3.426-1.159c1.193,0,2.395,0.307,3.602,0.921v5.566c-0.406-0.632-0.872-1.131-1.393-1.496
				c-0.52-0.365-1.032-0.546-1.538-0.546c-0.383,0-0.7,0.108-0.948,0.324c-0.256,0.208-0.386,0.459-0.386,0.753
				c0,0.479,0.341,0.953,1.021,1.424l0.795,0.568c1.056,0.733,1.813,1.486,2.271,2.257c0.463,0.772,0.696,1.675,0.696,2.71
				c0,1.76-0.557,3.211-1.672,4.355c-1.111,1.143-2.521,1.713-4.229,1.713C249.663,75.984,248.402,75.733,247.055,75.229z"/>
			<path d="M258.698,75.984v-18.55h9.312v4.445h-4.302v2.366h3.858v4.446h-3.858v2.847h4.302v4.445H258.698z"/>
			<path d="M283.341,75.984h-5.418l-2.476-6.608c-0.024-0.112-0.066-0.26-0.127-0.444c-0.061-0.185-0.134-0.405-0.221-0.662
				l0.035,1.226v6.487h-4.986v-18.55h5.13c2.26,0,3.949,0.444,5.069,1.333c1.428,1.138,2.14,2.755,2.14,4.854
				c0,2.244-0.957,3.792-2.87,4.65L283.341,75.984z M275.157,65.76h0.339c0.576,0,1.057-0.22,1.441-0.662
				c0.385-0.44,0.576-1.001,0.576-1.682c0-1.385-0.725-2.078-2.175-2.078h-0.182V65.76z"/>
			<path d="M292.688,75.984h-5.105l-4.255-18.55h5.264l0.912,5.298c0.345,2.027,0.62,4.293,0.829,6.801
				c0.09-1.114,0.197-2.155,0.324-3.125c0.129-0.968,0.282-1.915,0.458-2.835l1.188-6.139h5.443L292.688,75.984z"/>
			<path d="M304.056,75.984h-5.011v-18.55h5.011V75.984z"/>
			<path d="M317.08,70.338l-0.288,5.027c-1.114,0.413-2.112,0.619-2.992,0.619c-2.074,0-3.82-0.734-5.239-2.204
				c-1.586-1.647-2.379-3.979-2.379-6.995c0-2.823,0.746-5.089,2.235-6.799c1.488-1.701,3.48-2.552,5.971-2.552
				c0.811,0,1.634,0.145,2.475,0.438v5.125c-0.744-0.745-1.509-1.117-2.294-1.117c-1.025,0-1.827,0.433-2.403,1.298
				c-0.577,0.874-0.865,2.08-0.865,3.622c0,0.746,0.073,1.413,0.218,2c0.144,0.587,0.351,1.083,0.618,1.488
				c0.269,0.406,0.6,0.715,0.991,0.93c0.393,0.213,0.842,0.321,1.345,0.321C315.337,71.539,316.205,71.139,317.08,70.338z"/>
			<path d="M319.038,75.984v-18.55h9.311v4.445h-4.302v2.366h3.858v4.446h-3.858v2.847h4.302v4.445H319.038z"/>
		</g>
		<g>
			<path d="M47.042,169.332v-35.269h15.154c5.333,0,9.231,1.029,11.697,3.083c2.465,2.057,3.698,5.316,3.698,9.783
				c0,4.159-1.107,7.198-3.325,9.117c-2.216,1.92-5.732,2.879-10.552,2.879h-3.974v10.407H47.042z M59.787,143.869v5.878h1.975
				c1.206,0,2.129-0.252,2.771-0.759c0.642-0.506,0.964-1.225,0.964-2.155c0-0.931-0.33-1.659-0.987-2.181
				c-0.66-0.521-1.575-0.782-2.748-0.782H59.787z"/>
			<path d="M82.216,169.332v-35.269h12.888v35.269H82.216z"/>
			<path d="M127.893,148.061c-1.156-1.107-2.337-1.935-3.541-2.483c-1.206-0.545-2.473-0.819-3.807-0.819
				c-2.073,0-3.738,0.641-4.999,1.917c-1.261,1.277-1.891,2.975-1.891,5.095c0,2.071,0.602,3.726,1.807,4.962
				c1.205,1.237,2.818,1.856,4.842,1.856c1.22,0,2.461-0.261,3.721-0.783c1.261-0.521,2.639-1.354,4.132-2.495l-0.409,13.275
				c-1.382,0.562-2.763,0.983-4.144,1.265c-1.382,0.281-2.762,0.421-4.143,0.421c-1.72,0-3.374-0.192-4.963-0.578
				c-1.59-0.385-3.028-0.932-4.312-1.638c-3.116-1.799-5.474-4.072-7.072-6.818c-1.598-2.747-2.396-5.902-2.396-9.468
				c0-2.634,0.455-5.075,1.361-7.324c0.907-2.248,2.229-4.231,3.963-5.95c1.75-1.735,3.778-3.049,6.083-3.938
				c2.306-0.892,4.798-1.338,7.481-1.338c1.429,0,2.839,0.149,4.228,0.446c1.389,0.297,2.743,0.743,4.06,1.337V148.061z"/>
			<path d="M133.482,169.332v-35.269h12.431v15.032l8.046-15.032h14.359l-10.649,17.37l12.143,17.899h-15.347l-8.552-14.744v14.744
				H133.482z"/>
			<path d="M192.648,169.332v-23.728h-7.057v-11.541h26.788v11.541h-7.059v23.728H192.648z"/>
			<path d="M237.051,151.48c-0.05,1.157-0.313,2.82-0.798,4.988c-0.08,0.354-0.144,0.635-0.191,0.843l-2.65,12.021h-11.057
				l-10.312-35.269h12.721l2.77,15.539c0.241,1.365,0.425,2.613,0.555,3.747c0.129,1.131,0.208,2.195,0.241,3.192h0.289
				c0.03-1.398,0.28-3.236,0.747-5.517c0.031-0.208,0.062-0.377,0.096-0.506l3.349-16.455h8.938l3.348,16.479
				c0.017,0.095,0.049,0.258,0.096,0.482c0.466,2.295,0.716,4.135,0.747,5.517h0.29c0.032-0.997,0.111-2.061,0.241-3.192
				c0.127-1.134,0.312-2.382,0.555-3.747l2.771-15.539h12.718l-10.31,35.269h-11.057l-2.652-12.021
				c-0.048-0.208-0.111-0.496-0.191-0.867c-0.482-2.152-0.749-3.807-0.796-4.964H237.051z"/>
			<path d="M301.157,151.771c0,2.586-0.458,4.991-1.374,7.216c-0.915,2.225-2.257,4.211-4.023,5.962
				c-1.766,1.719-3.803,3.035-6.107,3.951c-2.306,0.914-4.758,1.372-7.359,1.372c-2.635,0-5.1-0.458-7.396-1.372
				c-2.298-0.916-4.337-2.249-6.119-4c-1.751-1.701-3.075-3.661-3.975-5.877c-0.899-2.217-1.352-4.635-1.352-7.252
				c0-2.617,0.452-5.043,1.352-7.276c0.899-2.232,2.224-4.199,3.975-5.901c1.767-1.735,3.798-3.056,6.096-3.963
				c2.295-0.907,4.768-1.361,7.419-1.361c2.648,0,5.123,0.454,7.419,1.361c2.298,0.907,4.339,2.228,6.12,3.963
				c1.734,1.718,3.055,3.695,3.963,5.927C300.702,146.751,301.157,149.168,301.157,151.771z M282.293,158.421
				c1.782,0,3.217-0.608,4.301-1.82c1.084-1.213,1.626-2.823,1.626-4.83c0-2.024-0.542-3.65-1.626-4.878
				c-1.084-1.229-2.519-1.843-4.301-1.843c-1.783,0-3.22,0.619-4.312,1.854c-1.093,1.238-1.639,2.86-1.639,4.868
				c0,2.007,0.546,3.617,1.639,4.83C279.073,157.812,280.51,158.421,282.293,158.421z"/>
			<path d="M305.59,164.491c0-1.59,0.662-2.947,1.987-4.071c1.325-1.125,2.935-1.687,4.83-1.687c1.912,0,3.534,0.562,4.865,1.687
				c1.333,1.124,2.001,2.481,2.001,4.071c0,1.605-0.662,2.971-1.987,4.095c-1.325,1.125-2.951,1.687-4.879,1.687
				c-1.912,0-3.525-0.562-4.843-1.687C306.249,167.461,305.59,166.096,305.59,164.491z M306.433,156.01v-23.248h11.948v23.248
				H306.433z"/>
		</g>
		<g>
			<g>
				<g>
					<path fill-rule="evenodd" clip-rule="evenodd" d="M105.116,235.957c1.396,0.203,2.809,0.252,4.23,0.154
						c1.405-0.094,2.823-0.121,4.14-0.684c1.436-0.619,2.471-1.645,3.578-2.705c1.146-1.096,2.384-2.105,3.35-3.379
						c0.637-0.84,1.275-1.686,1.884-2.547c0.262-0.371,0.5-0.715,0.834-1.025c0.176-0.16,0.39-0.314,0.604-0.4
						c0.024-0.012,0.065,0.123,0.066,0.125c-0.302,0.416-0.523,1.217-0.808,1.734c-0.211,0.385-1.541,2.709-1.724,3.348
						c-1.364,3.111-0.775,7.756,1.118,10.535c0.407,0.598,1.081,1.045,1.571,1.57c0.172,0.184,0.665,0.609,0.721,0.859
						c0.097,0.42-0.664,0.773-0.655,0.811c0.011,0.041-4,2.568-4.461,2.771c-1.677,0.752-3.488,1.172-5.308,1.402
						c-3.451,0.447-7.026,0.232-10.342-0.861c-2.864-0.943-5.854-2.676-7.483-5.273c-1.447-2.311-2.441-5.207-2.599-7.93
						c-0.087-1.51,0.076-3.141,0.469-4.602c0.534-1.979,1.285-3.834,2.28-5.625c0.512-0.92,0.969-2.061,1.779-2.74
						c3.779-3.197,8.912-5.166,10.997-10.01c0.694-1.613,0.904-3.928,0.227-5.566c-0.866-2.096-2.999-2.807-5.124-2.639
						c-1.588,0.123-3.184,0.58-4.69,1.072c-2.223,0.729-4.4,1.598-6.429,2.77c-2.069,1.195-4.004,2.607-6.121,3.719
						c-4.602,2.42-9.502,4.439-14.451,6.031c-1.634,0.527-3.288,0.822-4.95,1.217c-0.674,0.158-2.201,0.697-2.865,0.475
						c0.059,0.018,0.861-0.59,0.987-0.666c0.604-0.355,1.294-0.586,1.87-0.979c0.432-0.297,0.883-0.521,1.365-0.727
						c2.181-0.943,4.046-2.434,5.792-4.018c0.57-0.514,1.021-0.992,1.542-1.504c1.157-1.135,2.116-2.455,3.01-3.781
						c0.609-0.904,0.998-1.953,1.579-2.879c-0.11,0.174,2.139,1.014,2.371,1.047c0.933,0.135,1.849-0.139,2.678-0.555
						c1.905-0.957,3.465-2.57,4.98-4.033c1.087-1.049,2.189-2.102,3.324-3.1c0.594-0.521,1.125-0.996,1.697-1.504
						c1.081-0.957,2.146-1.68,3.434-2.518c0.428-0.279,0.801-0.559,1.244-0.795c1.09-0.582,2.528-1.104,3.755-1.252
						c0.91-0.111,1.831-0.062,2.729,0.115c1.819,0.355,3.511,1.215,4.896,2.449c3.36,3.004,5.186,8.307,5.166,12.723
						c-0.014,2.928-1.164,6.047-2.727,8.482c-1.482,2.311-3.603,4.004-5.696,5.73c-1.157,0.957-2.334,1.938-3.385,3.01
						c-1.163,1.189-2.257,2.453-3.271,3.77c-1.385,1.801-2.334,4.109-1.58,6.346c0.334,0.986,1.473,1.381,2.381,1.617
						C103.764,235.721,104.439,235.857,105.116,235.957z"/>
					<path fill-rule="evenodd" clip-rule="evenodd" d="M213.377,215.043c1.502-0.289,3.017,0.039,4.525,0.051
						c1.262,0.008,2.61-0.363,3.828,0.121c1.078,0.43,1.835,1.578,1.209,2.725c-0.03,0.225-0.089,0.438-0.116,0.664
						c-0.029,0.012-0.059,0.014-0.091,0.014c-0.201,2.859-3.146,3.465-5.437,3.309c-1.419-0.098-3.587-0.176-4.758,0.799
						c-0.961,0.801-1.117,2.348-1.564,3.438c-1.567,3.826-2.566,7.541-2.851,11.674c0.343,0.402,0.205,1.031,0.715,1.246
						c1.84,0.783,4.006-2.197,4.76-3.473c0.73-1.238,1.256-2.574,1.759-3.912c0.369-0.984,0.66-2.635,1.727-3.113
						c1.176-0.533,1.641,0.982,1.862,1.805c0.224,0.834,0.284,1.707,0.36,2.564c0.156,1.77-0.089,3.707-0.595,5.404
						c-0.649,2.189-2.069,4.006-4.108,5.027c-1.627,0.818-3.602,1.191-5.42,1.096c-1.049-0.057-2.094-0.352-2.907-1.043
						c-1.476-1.26-1.921-3.537-2.255-5.355c-0.555-3.025-0.446-6.049-0.132-9.1c0.13-1.246,0.325-2.484,0.573-3.715
						c0.119-0.582,0.519-1.34,0.363-1.936c-0.277-1.086-1.836-0.414-2.579-0.408c-0.935,0.006-1.878-0.053-2.77-0.344
						c-0.814-0.26-1.702-0.701-2.19-1.434c-0.555-0.83-0.547-2.445-0.057-3.316c0.897-1.6,2.756-1.91,4.427-2.17
						c0.895-0.143,1.794-0.262,2.693-0.363c0.642-0.076,1.656,0.012,2.255-0.254c0.111-0.049,0.035-0.174,0.054-0.266
						c0.008-0.053,0.04-0.111,0.052-0.205c0.188-1.42,0.178-2.85,0.245-4.273c0.032-0.738,0.086-1.475,0.199-2.201
						c0.198-1.287,0.511-1.938,1.438-2.893c0.787-0.812,2.365-0.998,3.195-0.215c0.733,0.695,0.924,1.881,1.094,2.83
						C212.984,208.408,213.764,214.971,213.377,215.043z"/>
					<path fill-rule="evenodd" clip-rule="evenodd" d="M199.258,214.82c-0.628-0.006-1.433-0.371-2.021-0.408
						c-1.909-0.135-4.051,0.221-5.5,1.564c-1.388,1.291-1.951,3.717-0.297,5.109c0.968,0.812,2.236,0.793,3.344,1.277
						c0.759,0.336,1.451,0.852,2.061,1.406c3.132,2.852,4.121,7.293,3.521,11.377c-0.332,2.27-0.836,4.539-2.366,6.316
						c-1.451,1.688-3.426,2.818-5.386,3.809c-3.851,1.939-8.137,3.805-12.525,3.797c-0.472-0.002-1.42-0.697-1.79-1.008
						c-1.109-0.934-1.632-2.492-0.942-3.852c0.269-0.529,0.642-1.098,1.051-1.492c0.07-0.07,0.199-0.029,0.418-0.055
						c1.546-0.18,3.138-0.736,4.665-1.057c1.711-0.363,3.426-0.73,5.115-1.184c2.727-0.742,5.508-2.164,7.074-4.629
						c1.737-2.734-1.353-4.334-3.274-5.527c-1.101-0.68-2.202-1.357-3.283-2.07c-1.571-1.039-3.351-2.174-4.382-3.799
						c-1.608-2.531-2.575-6.98-0.75-9.592c1.101-1.576,2.689-2.709,4.335-3.66c1.625-0.939,3.321-1.924,5.044-2.668
						c1.284-0.553,2.523-1.221,3.83-1.721c1.212-0.465,3.139-1.246,4.444-0.771c2.649,0.969,0.401,5.16-0.322,6.736
						c-0.32,0.697-0.884,1.713-1.642,2.025C199.555,214.801,199.412,214.82,199.258,214.82z"/>
					<path fill-rule="evenodd" clip-rule="evenodd" d="M249.084,214.127c0.373-0.029,0.555-0.594,0.835-0.789
						c2.593-1.811,8.1-1.275,9.724,1.773c0.976,1.836,0.715,3.965,2.021,5.709c0.837,1.123,2.144,1.553,3.424,1.947
						c0.614,0.191,2.077,0.357,2.066,0.729c-0.023,0.639-0.579,1.848-0.959,2.293c-0.93,1.078-2.702,2.014-4.156,1.539
						c-1.213-0.393-2.344-2.309-3.009-3.312c-0.365-0.553-0.674-1.145-1.024-1.709c-0.528-0.852-1.519-2.617-2.77-2.348
						c-0.185,0.037-0.425,0.211-0.564,0.34c-1.405,1.293-1.553,4.068-1.812,5.818c-0.8,5.436-1.176,11.16-1.099,16.646
						c0.014,1.043,0.067,2.088,0.067,3.127c0,0.709,0.171,1.834-0.457,2.344c-1.065,0.869-2.363,1.055-3.376,0.096
						c-1.223-1.16-1.818-2.463-2.312-4.043c-0.207-0.66-0.372-1.299-0.485-1.986c-0.129-0.766-0.255-1.598-0.314-2.369
						c-0.247-3.121,0.212-6.506,0.676-9.607c0.35-2.348,0.875-4.605,1.236-6.947c0.202-1.318,0.208-2.717-0.219-3.996
						c-0.39-1.158-1.223-2.098-1.89-3.102c-1.086-1.633-2.221-3.131-2.851-5.018c-0.003-0.01-0.045-0.016-0.052-0.053
						c-0.14-0.617,0.618-2.438,1.312-2.623c1.668-0.455,2.617-0.037,3.524,1.504c0.795,1.354,1.621,2.688,2.422,4.037
						C249.057,214.127,249.07,214.127,249.084,214.127z"/>
					<path fill-rule="evenodd" clip-rule="evenodd" d="M284.117,217.785c-0.099,0.025-0.24-0.062-0.508-0.215
						c-0.791-0.447-1.553-0.895-2.372-1.283c-0.439-0.863-2.935-0.891-3.742-0.871c-1.731,0.039-3.521,0.975-3.879,2.775
						c-0.383,1.918,0.956,3.523,2.451,4.535c1.935,1.309,4.256,1.854,6.288,2.979c1.901,1.053,3.913,2.279,5.146,4.119
						c1.19,1.771,0.723,4.029-0.562,5.555c-1.224,1.457-2.92,2.4-4.492,3.432c-0.984,0.645-1.953,1.354-2.979,1.928
						c-3.942,2.209-8.242,3.635-12.474,5.162c-1.259,0.451-2.514,0.916-3.756,1.41c-2.403,0.949-4.989,2.414-6.261,4.768
						c-0.146,0.264-0.775,1.84-1.278,1.402c-2.4-2.092-2.148-5.568-0.193-7.818c1.345-1.551,3.183-2.547,4.929-3.578
						c0.829-0.49,1.707-0.98,2.607-1.318c0.352-0.385,1.129-0.564,1.61-0.768c0.565-0.24,1.103-0.541,1.673-0.777
						c1.018-0.428,2.047-0.869,3.063-1.266c2.387-0.928,4.767-1.867,7.144-2.848c1.114-0.457,2.278-0.879,3.259-1.598
						c0.43-0.312,0.845-0.789,1.089-1.26c0.356-0.68,0.025-0.84-0.66-0.973c-1.661-0.314-3.294-0.746-4.922-1.193
						c-1.937-0.531-4.077-0.951-5.487-2.508c-1.278-1.414-1.623-3.342-1.854-5.164c-0.319-2.529-0.396-4.852,0.37-7.312
						c0.623-1.996,2.455-4.084,4.206-5.154c1.611-0.982,3.514-1.391,5.386-1.352c1.585,0.031,3.671,0.111,5.096,0.834
						c1.292,0.654,2.106,1.75,2.271,3.189c0.099,0.85,0.072,1.736-0.078,2.576C285.14,215.604,284.529,217.676,284.117,217.785z"/>
					<path fill-rule="evenodd" clip-rule="evenodd" d="M77.888,260.15c-1.253-0.197-1.756-1.486-1.842-2.711
						c-0.05-0.678-0.075-1.523,0.09-2.191c0.372-1.494,1.066-3.131,1.821-4.467c0.543-0.961,0.876-2.016,1.33-3.014
						c0.427-0.943,0.937-1.846,1.34-2.799c0.766-1.811,1.431-3.686,2.323-5.436c1.77-3.469,2.466-7.553,3.532-11.287
						c0.679-2.375,1.354-4.855,1.786-7.289c0.37-2.086,0.77-4.166,1.186-6.242c0.208-1.047,0.162-2.889,0.929-3.691
						c1.192-1.242,2.123,2.24,2.299,2.9c0.385,1.422,0.515,2.887,0.571,4.355c0.113,2.969-0.019,5.789-0.558,8.715
						c-1.028,5.574-1.941,11.229-3.647,16.645c-1.62,5.143-3.176,10.42-6.975,14.432c-0.89,0.941-2.365,2.035-3.726,2.102
						C78.184,260.18,78.033,260.172,77.888,260.15z"/>
					<path fill-rule="evenodd" clip-rule="evenodd" d="M176.073,211.113c2.001,0.338,3.761,1.291,4.857,3.223
						c2.434,4.289,1.143,9.232-1.234,13.213c-2.268,3.795-5.45,6.99-9.426,8.977c-4.036,2.018-9.779,3.719-13.915,1.025
						c-2.822-1.836-3.464-5.266-3.095-8.395c0.362-3.094,1.709-5.988,3.5-8.506c1.395-1.959,2.9-3.785,4.881-5.184
						c3.224-2.275,6.979-3.936,10.917-4.396C173.715,210.936,174.922,210.926,176.073,211.113z M166.011,235.566
						c3.309-2.156,5.753-5.951,6.873-9.641c0.888-2.92,1.652-6.561,0.08-9.389c-0.685-1.229-1.702-2.043-2.909-2.547
						c-0.837-0.346-2.004,0.996-2.524,1.492c-2.946,2.818-4.93,6.654-5.625,10.668c-0.496,2.863-0.535,6.664,1.801,8.791
						C164.187,235.379,164.947,236.258,166.011,235.566z"/>
					<path fill-rule="evenodd" clip-rule="evenodd" d="M147.734,213.354c0.446,0.113,0.889,0.285,1.338,0.533
						c1.317,0.732,2.343,1.361,3.119,2.699c2.64,4.557,0.379,10.494-2.303,14.465c-1.635,2.416-3.904,4.727-6.444,6.182
						c-2.645,1.516-5.423,2.824-8.447,3.35c-2.538,0.439-5.516,0.488-7.646-1.186c-0.884-0.695-2.151-2.033-2.488-3.133
						c-0.897-2.936-0.568-6.475,0.546-9.299c1.041-2.631,2.733-5.145,4.719-7.152c2.012-2.033,4.355-3.572,6.924-4.809
						c2.105-1.014,4.357-1.707,6.697-1.799C145.175,213.148,146.459,213.02,147.734,213.354z M136.938,237.611
						c0.107-0.035,0.224-0.051,0.341-0.096c1.602-0.578,2.969-2.473,3.934-3.799c0.569-0.779,1.042-1.623,1.463-2.49
						c0.841-1.736,1.372-3.594,1.807-5.471c0.429-1.855,0.86-3.893,0.292-5.771c-0.264-0.865-0.792-1.629-1.412-2.277
						c-0.367-0.383-1.279-1.424-1.78-1.557c-0.08-0.016-0.524-0.172-0.949,0.061c-0.281,0.152-0.714,0.414-0.945,0.639
						c-0.747,0.711-1.588,1.32-2.27,2.102c-0.776,0.887-1.487,1.848-2.093,2.861c-1.712,2.861-2.641,6.262-2.641,9.602
						C132.687,234.836,135.145,238.197,136.938,237.611z"/>
					<path fill-rule="evenodd" clip-rule="evenodd" d="M226.224,235.787c-0.21,0.385,0.589,1.512,0.822,1.77
						c0.604,0.666,1.473,1.088,2.323,1.35c4.997,1.535,9.837-2.898,12.651-6.496c0.337-0.432,0.899-1.162,1.393-1.391
						c0.979-0.453,0.688,1.809,0.646,2.182c-0.161,1.432-0.815,2.756-1.54,3.984c-1.024,1.736-2.136,3.471-3.489,4.967
						c-0.764,0.846-1.643,1.666-2.603,2.283c-3.565,2.287-8.244,2.439-11.77-0.119c-1.634-1.191-2.936-2.875-3.46-4.84
						c-0.3-1.125-0.451-2.412-0.405-3.58c0.177-4.562,1.28-9.191,3.577-13.166c0.622-1.078,1.354-2.111,2.151-3.066
						c0.586-0.699,1.233-1.34,1.934-1.922c1.581-1.326,3.284-2.705,5.183-3.543c1.59-0.705,4.423-1.635,5.779,0.059
						c0.878,1.09,1.51,2.406,2.053,3.695c2.117,5.02-0.677,10.119-4.785,13.064c-2.055,1.475-4.224,2.996-6.687,3.668
						c-1.004,0.279-2.069,0.52-3.092,0.721C226.528,235.48,226.315,235.611,226.224,235.787z M236.673,220.359
						c-1.406,0-2.719,0.439-3.323,0.775c-0.951,0.527-1.781,1.27-2.509,2.068c-0.698,0.764-1.314,1.609-1.746,2.551
						c-0.271,0.58-1.468,2.996-0.527,3.307c0.425,0.135,1.312-0.477,1.688-0.635c0.188-0.08,2.533-1.27,2.938-1.516
						c0.546-0.328,2.697-2.047,3.59-3.559c0.327-0.553,0.619-1.137,0.832-1.744C237.875,220.879,237.58,220.359,236.673,220.359z"/>
				</g>
				<path fill-rule="evenodd" clip-rule="evenodd" d="M273.316,247.777c0.404,0.188,0.766,0.477,1.048,0.889
					c0.335,0.49,0.519,1.057,0.519,1.646c0,0.879-0.432,1.736-0.438,1.75c-0.153,0.258-0.907,1.234-2.337,1.535
					c-0.562,0.117-1.146,0.104-1.692-0.035c-0.771-0.189-1.242-0.414-1.751-1.021c-0.062-0.086-0.153-0.27-0.199-0.391
					c-0.053-0.143-0.046-0.301-0.093-0.447c-0.639-1.893,0.733-3.723,2.567-4.111C271.751,247.426,272.604,247.443,273.316,247.777z
					 M270.723,248.35c-0.423,0.143-0.856,0.373-1.132,0.646c-0.08,0.08-0.463,0.672-0.47,0.693
					c-0.061,0.164-0.252,1.256-0.137,1.705c0.105,0.422,0.233,0.738,0.577,1.033c0.234,0.199,0.458,0.27,0.741,0.373
					c0.506,0.186,0.973,0.266,1.517,0.205c0.057-0.006,0.999-0.385,1.341-0.633c0.242-0.176,0.346-0.312,0.523-0.57
					c0.065-0.098,0.122-0.135,0.178-0.25c0.041-0.078,0.231-0.381,0.215-0.438c0.068-0.422,0.17-1.125-0.032-1.525
					c-0.177-0.342-0.251-0.67-0.604-0.936c-0.337-0.252-0.805-0.436-1.225-0.473c-0.321-0.029-0.647-0.02-0.965,0.033
					C271.087,248.24,270.906,248.289,270.723,248.35z"/>
				<path fill-rule="evenodd" clip-rule="evenodd" d="M272.041,251.018c-0.041,0.33,0.447,0.369,0.643,0.553
					c0.259,0.248,0.277,0.885-0.197,0.938c-0.16,0.016-0.653-0.154-0.808-0.23c-0.236-0.115-0.751-0.684-0.76-0.838
					c-0.004-0.057-0.18,0.164-0.19,0.186c-0.03,0.076,0,0.172-0.014,0.25c-0.029,0.158-0.265,0.416-0.264,0.445
					c-0.383,0.125-0.714,0.057-0.844-0.355c-0.086-0.271-0.137-0.844-0.066-1.123c0.158-0.643,0.328-1.258,0.605-1.869
					c0.668-0.477,1.573-0.553,2.357-0.357c0.741,0.182,1.146,1.188,0.711,1.852C272.969,250.846,272.447,250.924,272.041,251.018z
					 M270.977,250.328c0.019,0.162,0.975-0.18,1.058-0.24c0.238-0.172,0.534-0.879-0.401-0.879c-0.164,0-0.331,0.053-0.495,0.018
					C271.072,249.58,271.022,249.949,270.977,250.328z"/>
			</g>
			<g>
				<path d="M81.082,264.852h0.149c0.608,0,1.035,0.4,1.278,1.203l-0.112,1.24v0.49c0,0.537,0.187,1.941,0.563,4.207l0.075,1.055
					c0,1.227-0.15,1.842-0.451,1.842c-0.432,0.299-0.883,0.451-1.354,0.451c-0.92,0-2.136-0.83-3.646-2.482
					c-0.432-0.408-0.809-0.707-1.127-0.902c-0.79,2.064-1.417,3.277-1.88,3.648c-0.589,0.477-1.077,0.713-1.466,0.713
					c-0.262,0-0.652-0.49-1.166-1.467c-0.651-1.74-0.977-3.344-0.977-4.811v-0.453c0-1.391,0.338-2.305,1.015-2.74l0.414-0.113
					h0.375c0.501,0,0.79,0.336,0.866,1.014v0.188l-0.189,2.48v0.152c0,0.48,0.088,0.816,0.264,1.014
					c0.319-0.145,0.582-0.469,0.789-0.979c0.219-0.699,0.37-1.051,0.452-1.051c0.695-0.244,1.159-0.445,1.391-0.602
					c0.483,0.068,1.146,0.52,1.992,1.354c1.047,1.15,1.66,1.727,1.842,1.727c0.125-0.586,0.188-1.152,0.188-1.689v-0.225
					l-0.301-3.834c0-0.752,0.113-1.129,0.338-1.129C80.635,264.951,80.862,264.852,81.082,264.852z"/>
				<path d="M93.156,264.852h0.15c0.608,0,1.034,0.4,1.278,1.203l-0.113,1.24v0.49c0,0.537,0.188,1.941,0.565,4.207l0.074,1.055
					c0,1.227-0.15,1.842-0.45,1.842c-0.433,0.299-0.884,0.451-1.354,0.451c-0.921,0-2.136-0.83-3.646-2.482
					c-0.433-0.408-0.81-0.707-1.127-0.902c-0.791,2.064-1.417,3.277-1.881,3.648c-0.589,0.477-1.077,0.713-1.465,0.713
					c-0.264,0-0.653-0.49-1.166-1.467c-0.651-1.74-0.977-3.344-0.977-4.811v-0.453c0-1.391,0.337-2.305,1.014-2.74l0.414-0.113
					h0.376c0.5,0,0.789,0.336,0.865,1.014v0.188l-0.188,2.48v0.152c0,0.48,0.087,0.816,0.263,1.014
					c0.319-0.145,0.583-0.469,0.789-0.979c0.22-0.699,0.371-1.051,0.452-1.051c0.696-0.244,1.159-0.445,1.39-0.602
					c0.483,0.068,1.147,0.52,1.993,1.354c1.047,1.15,1.659,1.727,1.841,1.727c0.125-0.586,0.188-1.152,0.188-1.689v-0.225
					l-0.3-3.834c0-0.752,0.112-1.129,0.338-1.129C92.711,264.951,92.937,264.852,93.156,264.852z"/>
				<path d="M105.232,264.852h0.149c0.608,0,1.033,0.4,1.278,1.203l-0.112,1.24v0.49c0,0.537,0.187,1.941,0.563,4.207l0.074,1.055
					c0,1.227-0.149,1.842-0.451,1.842c-0.432,0.299-0.883,0.451-1.353,0.451c-0.92,0-2.136-0.83-3.646-2.482
					c-0.432-0.408-0.808-0.707-1.127-0.902c-0.79,2.064-1.417,3.277-1.88,3.648c-0.59,0.477-1.078,0.713-1.467,0.713
					c-0.263,0-0.651-0.49-1.164-1.467c-0.653-1.74-0.978-3.344-0.978-4.811v-0.453c0-1.391,0.338-2.305,1.015-2.74l0.414-0.113
					h0.375c0.501,0,0.789,0.336,0.866,1.014v0.188l-0.189,2.48v0.152c0,0.48,0.088,0.816,0.265,1.014
					c0.317-0.145,0.582-0.469,0.789-0.979c0.219-0.699,0.37-1.051,0.45-1.051c0.696-0.244,1.16-0.445,1.392-0.602
					c0.482,0.068,1.146,0.52,1.992,1.354c1.046,1.15,1.66,1.727,1.842,1.727c0.125-0.586,0.188-1.152,0.188-1.689v-0.225
					l-0.301-3.834c0-0.752,0.113-1.129,0.339-1.129C104.787,264.951,105.012,264.852,105.232,264.852z"/>
				<path d="M109.771,272.879h0.151c0.726,0.168,1.089,0.48,1.089,0.938v0.076c0,0.713-0.5,1.291-1.504,1.727l-0.376,0.041
					c-0.488,0-0.838-0.291-1.052-0.867l-0.037-0.264v-0.146c0-0.578,0.3-1.029,0.903-1.355L109.771,272.879z"/>
				<path d="M115.888,258.555h0.151c0.726,0,1.09,0.35,1.09,1.053c0.926,0,3.984,0.766,9.171,2.293
					c1.028,0.361,1.542,0.764,1.542,1.201v0.078c0,2.123-1.467,3.766-4.399,4.922c-1.135,0.502-2.062,0.965-2.781,1.393
					c1.697,0.82,4.554,2.012,8.57,3.572c2.437,0.82,4.029,1.42,4.774,1.803v0.113c0,0.832-0.626,1.32-1.88,1.465l-0.452,0.039
					c-1.659,0-5.031-1.291-10.11-3.871c-2.037-0.803-3.302-1.205-3.797-1.205v0.303c0,0.199,0.175,1.166,0.527,2.893l0.037,0.377
					c0,0.951-0.539,1.428-1.617,1.428c-0.432-0.25-0.794-0.838-1.089-1.768l-0.751-3.684h-1.542c-0.927,0-1.39-0.25-1.39-0.752
					c0-0.877,0.789-1.516,2.367-1.916v-0.039c-0.2-0.977-0.3-2.654-0.3-5.037v-1.613h-0.339l-1.916,0.186
					c-0.502-0.055-0.752-0.281-0.752-0.676v-0.188c0-0.809,1.128-1.299,3.382-1.469h0.15
					C114.811,258.857,115.262,258.555,115.888,258.555z M116.603,261.938c-0.076,0.371-0.113,0.896-0.113,1.58v0.752
					c0,1.289,0.176,2.592,0.527,3.908c2.719-0.652,4.674-1.316,5.864-1.992c1.007-0.652,1.735-1.354,2.18-2.104v-0.039
					c-3.464-1.201-5.444-1.805-5.939-1.805C118.238,262.039,117.398,261.938,116.603,261.938z"/>
				<path d="M135.594,267.061h0.038c1.292,0,2.187,0.785,2.688,2.357c0.137,0.408,0.206,0.871,0.206,1.391v0.338
					c0,1.787-0.676,3.225-2.029,4.314c-0.74,0.443-1.403,0.666-1.992,0.666h-0.131c-1.329,0-2.271-0.852-2.829-2.555
					c-0.132-0.463-0.198-0.918-0.198-1.361v-0.199c0-1.17,0.167-2.244,0.499-3.223c0.069-0.096,0.378-0.26,0.931-0.498
					c0.112-0.082,0.344-0.361,0.695-0.838C133.878,267.191,134.586,267.061,135.594,267.061z M133.808,270.15l0.03,0.303
					l-0.066,1.783c0.069,1.023,0.292,1.535,0.667,1.535c0.532-0.234,0.965-0.645,1.296-1.232c0.264-0.51,0.395-1.008,0.395-1.494
					v-0.133c0-0.752-0.276-1.383-0.827-1.889c-0.414,0-0.793,0.266-1.137,0.789C133.99,270.02,133.872,270.133,133.808,270.15z"/>
				<path d="M143.064,267.061h0.038c1.291,0,2.186,0.785,2.688,2.357c0.137,0.408,0.206,0.871,0.206,1.391v0.338
					c0,1.787-0.677,3.225-2.029,4.314c-0.738,0.443-1.403,0.666-1.993,0.666h-0.131c-1.328,0-2.271-0.852-2.829-2.555
					c-0.131-0.463-0.197-0.918-0.197-1.361v-0.199c0-1.17,0.164-2.244,0.497-3.223c0.068-0.096,0.38-0.26,0.929-0.498
					c0.114-0.082,0.345-0.361,0.696-0.838C141.348,267.191,142.057,267.061,143.064,267.061z M141.28,270.15l0.027,0.303
					l-0.066,1.783c0.069,1.023,0.292,1.535,0.668,1.535c0.533-0.234,0.965-0.645,1.297-1.232c0.263-0.51,0.395-1.008,0.395-1.494
					v-0.133c0-0.752-0.275-1.383-0.827-1.889c-0.415,0-0.792,0.266-1.138,0.789C141.461,270.02,141.342,270.133,141.28,270.15z"/>
				<path d="M150.78,265.932h0.31c0.909,0,1.409,0.223,1.503,0.668c0.175,0.457,0.263,0.734,0.263,0.834
					c-0.183,0.277-0.569,0.49-1.166,0.641c-1.811,0.283-2.716,0.527-2.716,0.732c0.27,0.434,0.949,0.801,2.039,1.111
					c1.886,0.449,3.249,0.871,4.089,1.268c0.783,0.477,1.174,1.104,1.174,1.881c0,1.303-1.15,2.174-3.45,2.609
					c-0.676,0.113-1.303,0.17-1.878,0.17c-2.325-0.156-3.488-0.426-3.488-0.807c-0.244-0.266-0.367-0.566-0.367-0.902v-0.199
					c0-0.469,0.258-0.904,0.772-1.305c1.315,0.627,2.411,0.939,3.289,0.939c0.726,0,1.318-0.213,1.775-0.639v-0.037
					c-0.714-0.396-2.012-0.811-3.892-1.24c-1.897-0.57-2.847-1.266-2.847-2.078v-0.131c0-1.285,0.793-2.27,2.378-2.953
					C149.363,266.121,150.098,265.932,150.78,265.932z"/>
				<path d="M161.577,257.785h0.151c0.563,0,0.977,0.289,1.239,0.865c-0.5,3.105-0.75,5.549-0.75,7.328v1.617l0.525,0.037
					c1.11,0,2.336-0.174,3.685-0.527l0.526-0.037h0.113c0.575,0,0.863,0.277,0.863,0.83c0,0.812-0.55,1.301-1.653,1.463
					c-0.507,0.121-1.771,0.258-3.796,0.414c0,0.051-0.089,0.076-0.262,0.076v0.111l0.224,2.369c0,0.352-0.075,0.664-0.224,0.939
					c0.173,0.205,0.262,0.508,0.262,0.902v0.375c0,0.857-0.089,1.322-0.262,1.391l-0.978-0.074c-0.119,0-0.258,0.088-0.415,0.262
					c-0.676-0.273-1.015-1.363-1.015-3.27c0-1.705-0.087-2.555-0.262-2.555c-0.232-0.252-1.034-0.377-2.405-0.377
					c-0.639,0-1.077-0.326-1.316-0.977v-0.113c0.314-0.678,1.015-1.016,2.106-1.016c0.575,0.025,0.863,0.064,0.863,0.113
					c0.196,0,0.333-0.162,0.415-0.488l0.113-0.076h0.338l-0.037-0.49c0-2.227,0.224-5.047,0.676-8.455
					C160.631,257.998,161.057,257.785,161.577,257.785z"/>
				<path d="M170.176,265.189c1.304,0,2.369,0.852,3.195,2.557c0.15,0.537,0.225,0.953,0.225,1.24c0,1.26-0.977,2.273-2.931,3.043
					v0.039c0.512,0.877,1.189,1.316,2.029,1.316c1.128,0,2.344-0.914,3.647-2.746c0.777-0.877,1.377-1.312,1.803-1.312h0.076
					l0.075,0.072v0.377l-0.036,0.15c0.023,0.08,0.074,0.133,0.149,0.15c0.157,0,0.269-0.137,0.338-0.412h0.074v0.035
					c0,0.428-0.375,1.129-1.127,2.107c-0.112,0.213-0.201,0.463-0.263,0.75c-0.35,0.07-0.525,0.209-0.525,0.414
					c-0.69,1.146-1.729,1.961-3.121,2.443c-0.413,0.102-0.775,0.15-1.089,0.15h-0.376c-1.835,0-3.651-1.328-5.45-3.984v-0.074
					l-0.186-2.971v-0.301c0-1.242,0.399-2.018,1.201-2.33C168.754,265.428,169.519,265.189,170.176,265.189z M169.012,268.873
					c0,0.752,0.211,1.277,0.637,1.58c0.296,0,0.734-0.227,1.317-0.678c0.099-0.287,0.15-0.539,0.15-0.752
					c0-0.771-0.337-1.295-1.015-1.578l-0.3-0.037c-0.376,0-0.565,0.125-0.565,0.377
					C169.087,268.041,169.012,268.404,169.012,268.873z"/>
				<path d="M183.905,265.229h0.113c0.777,0,1.164,0.174,1.164,0.523c0.087,0.383,0.227,0.66,0.415,0.828v0.076
					c-2.236,1.129-3.853,2.957-4.849,5.486c-0.477,1.361-0.714,2.451-0.714,3.271c-0.754,0.35-1.254,0.525-1.503,0.525
					c0-0.293-0.314-0.582-0.94-0.865c0-0.412-0.35-2.117-1.053-5.111c-0.15-0.613-0.225-1.24-0.225-1.881v-0.523
					c0.119-0.406,0.495-0.646,1.126-0.713h0.113c0.765,0,1.228,0.537,1.392,1.613v0.188l-0.037,0.416
					c0.582-0.496,1.409-1.361,2.48-2.594C182.282,265.641,183.122,265.229,183.905,265.229z"/>
				<path d="M190.249,265.932h0.311c0.908,0,1.409,0.223,1.504,0.668c0.175,0.457,0.263,0.734,0.263,0.834
					c-0.183,0.277-0.57,0.49-1.166,0.641c-1.811,0.283-2.716,0.527-2.716,0.732c0.271,0.434,0.949,0.801,2.04,1.111
					c1.886,0.449,3.246,0.871,4.089,1.268c0.782,0.477,1.173,1.104,1.173,1.881c0,1.303-1.15,2.174-3.449,2.609
					c-0.676,0.113-1.304,0.17-1.878,0.17c-2.324-0.156-3.487-0.426-3.487-0.807c-0.245-0.266-0.367-0.566-0.367-0.902v-0.199
					c0-0.469,0.257-0.904,0.771-1.305c1.316,0.627,2.411,0.939,3.289,0.939c0.727,0,1.319-0.213,1.775-0.639v-0.037
					c-0.714-0.396-2.011-0.811-3.891-1.24c-1.898-0.57-2.847-1.266-2.847-2.078v-0.131c0-1.285,0.792-2.27,2.378-2.953
					C188.831,266.121,189.566,265.932,190.249,265.932z"/>
				<path d="M210.764,254.139c0.481,0.52,0.846,1.096,1.089,1.73c0.25,2.83,0.377,5.398,0.377,7.705v0.262
					c0,4.166-0.364,8.051-1.09,11.654c-0.271,0.793-0.659,1.334-1.166,1.615c-0.307,0.102-0.619,0.15-0.939,0.15
					c-1.409-1.232-2.362-2.412-2.856-3.533c-0.67-1.223-1.635-3.414-2.895-6.578l-0.376-0.828h-0.036
					c-0.334,0.74-0.598,2.533-0.79,5.377c0,1.439-0.215,3.043-0.64,4.811c-0.144,0.426-0.257,0.639-0.338,0.639l-0.867,0.074
					c-0.749,0-1.126-0.197-1.126-0.6c-2.104-5.531-3.158-10.018-3.158-13.459v-0.562c0-1.617,0.439-2.631,1.317-3.045l0.3-0.039
					c0.37,0,0.757,0.166,1.166,0.49v4.061c0,2.148,0.237,3.902,0.714,5.264h0.038c0.552-1.68,0.827-2.922,0.827-3.725
					c0.274-2.127,0.576-3.594,0.9-4.396c0.271-0.775,0.57-1.164,0.904-1.164l0.262-0.039h0.037c0.275,0,0.765,0.189,1.468,0.562
					c1.578,5.578,3.18,9.725,4.81,12.443v0.039h0.037c0.628-2.5,0.942-5.182,0.942-8.045v-1.541c0-2.23-0.178-5.1-0.528-8.609
					c0.157-0.168,0.62-0.342,1.391-0.525L210.764,254.139z"/>
				<path d="M214.381,260.867h0.227c0.633,0,1.02,0.162,1.164,0.49l0.113,0.41v0.041c0,0.506-0.513,0.844-1.541,1.014h-0.264
					c-0.75-0.07-1.126-0.297-1.126-0.678l-0.038-0.15v-0.227C213.116,261.168,213.605,260.867,214.381,260.867z M214.456,264.701
					c0.502,0,0.752,0.125,0.752,0.377c0.3,1.635,0.45,3.389,0.45,5.262v1.09l-0.075,4.061c-0.193,0.15-0.494,0.262-0.9,0.336
					l-0.302,0.301h-0.037c-0.219,0-0.42-0.16-0.602-0.486c0,0.148-0.026,0.225-0.075,0.225c-0.376-0.332-0.563-1.059-0.563-2.182
					l0.338-4.621c-0.05-0.658-0.075-1.586-0.075-2.781C213.366,265.229,213.729,264.701,214.456,264.701z"/>
				<path d="M222.398,264.232c0.801,0.203,1.202,0.344,1.202,0.412c0.363,0.844,0.664,1.797,0.901,2.857
					c0.525,3.57,0.927,5.875,1.202,6.914c0.062,0,0.126,0.238,0.188,0.715v0.078c0,0.424-0.275,0.637-0.827,0.637h-0.074
					c-0.804,0-1.203-0.15-1.203-0.449c-0.364-0.742-0.664-1.68-0.902-2.82l-0.827-4.961h-0.038
					c-0.877,1.076-1.917,3.156-3.119,6.238c-0.495,1.021-0.771,1.535-0.827,1.543c0-0.076-0.126-0.127-0.376-0.152h-0.563
					c-0.227,0-0.338-0.113-0.338-0.338l-0.451-0.789c0.35-1.26,0.526-3.465,0.526-6.615c0.532-0.312,0.809-0.5,0.826-0.566
					c0-0.123,0.05-0.186,0.152-0.186c0.925,0.139,1.388,0.275,1.388,0.412l-0.11,0.34l0.036,0.037h0.039
					c0.48-0.451,0.932-1.066,1.352-1.844C221.245,264.719,221.857,264.232,222.398,264.232z"/>
				<path d="M231.578,266.299h0.3c1.224,0,2.149,0.312,2.782,0.939c0.151,0.061,0.227,0.164,0.227,0.301
					c-0.227,0.162-0.353,0.275-0.377,0.338c0.15,3.314,0.226,5.783,0.226,7.406c0,3.139-0.264,5.131-0.789,5.977
					c-0.759,1.527-1.786,2.291-3.082,2.291c-1.233,0-2.312-0.486-3.232-1.465l-0.075-0.152v-0.148c0-0.371-0.326-0.959-0.978-1.766
					c-0.275-0.459-0.415-0.873-0.415-1.242c0-0.35,0.101-0.6,0.302-0.75h0.15c0.095,0,0.295,0.137,0.602,0.412
					c0.301,0,0.45,0.064,0.45,0.188c0.231,0.736,0.86,1.461,1.88,2.182c0.057,0,0.396,0.225,1.016,0.676
					c0.507-0.145,0.945-0.494,1.314-1.051c0.426-0.854,0.639-2.057,0.639-3.609l-0.113-4.625l0.04-0.75
					c-0.264,0.244-0.84,1.084-1.729,2.518c-0.715,0.854-1.416,1.277-2.105,1.277h-0.263c-0.451,0-0.953-0.287-1.504-0.861
					c-0.425-0.279-0.64-0.604-0.64-0.98c-0.148-0.412-0.226-0.902-0.226-1.463v-0.266c0-2.092,1.079-3.709,3.234-4.852
					C230.019,266.473,230.808,266.299,231.578,266.299z M228.346,271.826v0.26l0.074,0.793c0.678-0.379,1.268-1.031,1.767-1.957
					c0.646-1.127,1.136-1.93,1.466-2.406c-0.023-0.1-0.074-0.15-0.149-0.15c-0.57,0-1.271,0.338-2.104,1.018
					C228.696,270.139,228.346,270.955,228.346,271.826z"/>
				<path d="M239.819,265.932h0.31c0.91,0,1.411,0.223,1.504,0.668c0.175,0.457,0.264,0.734,0.264,0.834
					c-0.181,0.277-0.569,0.49-1.164,0.641c-1.811,0.283-2.716,0.527-2.716,0.732c0.268,0.434,0.948,0.801,2.037,1.111
					c1.886,0.449,3.249,0.871,4.089,1.268c0.783,0.477,1.175,1.104,1.175,1.881c0,1.303-1.15,2.174-3.448,2.609
					c-0.678,0.113-1.304,0.17-1.88,0.17c-2.325-0.156-3.486-0.426-3.486-0.807c-0.244-0.266-0.366-0.566-0.366-0.902v-0.199
					c0-0.469,0.256-0.904,0.771-1.305c1.314,0.627,2.411,0.939,3.288,0.939c0.726,0,1.319-0.213,1.775-0.639v-0.037
					c-0.713-0.396-2.009-0.811-3.889-1.24c-1.899-0.57-2.85-1.266-2.85-2.078v-0.131c0-1.285,0.794-2.27,2.378-2.953
					C238.401,266.121,239.137,265.932,239.819,265.932z"/>
				<path d="M248.004,272.879h0.152c0.726,0.168,1.089,0.48,1.089,0.938v0.076c0,0.713-0.502,1.291-1.504,1.727l-0.376,0.041
					c-0.488,0-0.839-0.291-1.051-0.867l-0.038-0.264v-0.146c0-0.578,0.301-1.029,0.901-1.355L248.004,272.879z"/>
				<path d="M254.536,266.281h0.112c0.513,0,0.989,0.137,1.428,0.412c-0.049,0.1-0.075,0.238-0.075,0.412l0.188,0.49v0.225
					c-0.219,0.445-0.683,0.783-1.391,1.016c-0.739,0.227-1.216,0.525-1.43,0.902c-0.275,0.588-0.412,1.064-0.412,1.428v0.227
					c0,0.744,0.426,1.184,1.277,1.316h0.527c0.84,0,2.293-0.463,4.36-1.393c0.871-0.375,1.447-0.564,1.728-0.564h0.078
					c0.417,0.434,0.644,0.758,0.674,0.979c-0.03,0.133-0.406,0.545-1.127,1.24c-0.188,0.35-0.376,0.525-0.562,0.525
					c-2.319,1.379-4.3,2.068-5.94,2.068c-1.767,0-2.943-0.84-3.533-2.518l-0.075-0.865v-0.375c0-1.912,0.789-3.555,2.367-4.928
					C253.369,266.48,253.972,266.281,254.536,266.281z"/>
				<path d="M265.842,267.061h0.037c1.29,0,2.186,0.785,2.687,2.357c0.138,0.408,0.207,0.871,0.207,1.391v0.338
					c0,1.787-0.677,3.225-2.029,4.314c-0.739,0.443-1.403,0.666-1.993,0.666h-0.131c-1.329,0-2.271-0.852-2.829-2.555
					c-0.132-0.463-0.197-0.918-0.197-1.361v-0.199c0-1.17,0.166-2.244,0.499-3.223c0.069-0.096,0.379-0.26,0.93-0.498
					c0.113-0.082,0.344-0.361,0.695-0.838C264.124,267.191,264.832,267.061,265.842,267.061z M264.055,270.15l0.027,0.303
					l-0.063,1.783c0.067,1.023,0.29,1.535,0.665,1.535c0.533-0.234,0.967-0.645,1.299-1.232c0.263-0.51,0.394-1.008,0.394-1.494
					v-0.133c0-0.752-0.275-1.383-0.826-1.889c-0.414,0-0.792,0.266-1.137,0.789C264.237,270.02,264.117,270.133,264.055,270.15z"/>
				<path d="M277.465,266.619h0.188c0.847,0.143,1.297,0.316,1.354,0.525c0.425,0.715,0.915,1.93,1.466,3.645
					c0.451,1.404,0.952,2.744,1.504,4.023c0,0.094-0.152,0.27-0.451,0.527c0,0.123-0.051,0.188-0.151,0.188
					c-1.209,0-2.023-0.664-2.443-1.994c-0.39-1.42-0.74-2.398-1.054-2.932h-0.036c-1.153,3.309-1.992,4.963-2.519,4.963h-0.338
					c-0.939,0-1.49-0.979-1.654-2.932c-0.145-1.555-0.269-2.33-0.375-2.33c-0.32,0.344-0.684,1.246-1.091,2.705
					c-0.451,1.654-1.028,2.482-1.729,2.482c-0.302,0-0.628-0.127-0.979-0.377l0.038-0.188v-0.189l-0.226-0.264
					c0.149-0.48,0.226-0.969,0.226-1.465l-0.076-2.518l0.038-0.602c0.275,0,0.415-0.225,0.415-0.676v-0.227
					c0-0.057,0.199-0.156,0.601-0.301c0.062-0.15,0.125-0.227,0.187-0.227l0.49,0.188c0.138-0.023,0.576-0.477,1.315-1.352
					c0.307-0.25,0.495-0.377,0.564-0.377c1.207,0,2.047,0.801,2.519,2.408l0.148,0.373h0.078c0.243-0.5,0.507-1.164,0.787-1.992
					c0.176-0.342,0.363-0.594,0.564-0.752l0.338,0.037L277.465,266.619z"/>
			</g>
		</g>
	</g>
</g>
<g id="Layer_2">
</g>
</svg>
