<?xml version="1.0" encoding="UTF-8" standalone="no"?>
<svg
   xmlns:dc="http://purl.org/dc/elements/1.1/"
   xmlns:cc="http://creativecommons.org/ns#"
   xmlns:rdf="http://www.w3.org/1999/02/22-rdf-syntax-ns#"
   xmlns:svg="http://www.w3.org/2000/svg"
   xmlns="http://www.w3.org/2000/svg"
   viewBox="0 0 816 1056"
   height="1056"
   width="816"
   xml:space="preserve"
   id="svg2"
   version="1.1"><metadata
     id="metadata8"><rdf:RDF><cc:Work
         rdf:about=""><dc:format>image/svg+xml</dc:format><dc:type
           rdf:resource="http://purl.org/dc/dcmitype/StillImage" /></cc:Work></rdf:RDF></metadata><defs
     id="defs6"><clipPath
       id="clipPath18"
       clipPathUnits="userSpaceOnUse"><path
         id="path16"
         d="M 0,792 H 612 V 0 H 0 Z" /></clipPath><clipPath
       id="clipPath330"
       clipPathUnits="userSpaceOnUse"><path
         id="path328"
         d="m 299.281,450.779 c -41.51,-10.218 -70.015,-51.486 -81.413,-87.859 v 0 c 1.167,0 2.185,0 2.772,-1.117 v 0 c 1.906,-15.247 12.716,-28.122 26.023,-36.932 v 0 c -0.734,-7.556 3.797,-13.154 5.555,-19.727 v 0 c -1.758,-2.794 -4.681,-2.656 -6.577,-5.036 v 0 c -7.453,-3.914 -1.174,-14.69 -8.04,-18.466 v 0 c 1.608,-0.838 3.657,-2.656 5.551,-0.979 v 0 c 4.972,-2.658 11.99,-0.279 16.52,-3.775 v 0 c 3.217,3.496 8.042,5.454 10.09,9.37 v 0 c 7.451,0.706 14.759,0.143 22.211,1.677 v 0 c 8.046,3.78 15.063,10.072 22.807,14.553 v 0 c 1.755,7.695 11.401,2.656 14.03,9.37 v 0 c 1.175,4.615 -2.042,9.234 -3.502,13.714 v 0 c 0.95,2.119 2.671,2.105 4.466,2.092 v 0 c 1.52,-0.011 3.093,-0.023 4.298,1.258 v 0 c 6.29,2.944 8.629,9.654 10.527,14.835 v 0 c -6.279,2.799 -8.625,9.094 -10.527,14.411 v 0 c 0.588,0.558 1.029,1.111 1.759,1.674 v 0 c 3.359,-1.395 6.136,-4.617 5.841,-8.673 v 0 c 1.323,-2.515 4.389,-5.316 7.749,-5.04 v 0 c 1.465,-1.533 0.436,-4.611 -1.756,-5.449 v 0 c -1.314,-6.578 -8.327,-12.454 -14.323,-15.809 v 0 c -4.087,-3.358 -0.437,-8.537 0,-12.737 v 0 c -1.756,-2.095 -2.626,-5.031 -2.773,-7.409 v 0 c 4.964,-1.399 8.031,-7.556 13.296,-8.671 v 0 c 5.707,-6.158 13.744,-9.653 22.809,-8.119 v 0 c 1.008,-0.274 2.253,-0.172 3.511,-0.069 v 0 c 2.57,0.21 5.199,0.419 5.992,-2.584 v 0 c -2.048,-6.296 0.576,-13.569 -0.44,-19.725 v 0 c -0.15,-4.76 5.405,-4.616 8.478,-6.438 v 0 c 0.723,-4.055 7.3,-7.698 3.07,-12.026 v 0 c 1.6,0.054 3.032,-0.534 4.412,-1.122 v 0 c 2.023,-0.862 3.937,-1.724 6.112,-0.56 v 0 c 13.149,18.743 19.586,40.71 19.291,64.352 v 0 c 1.466,23.503 -5.548,44.486 -11.545,65.469 v 0 c -5.261,14.124 -13.599,27.137 -22.801,39.727 v 0 c -16.699,20.869 -40.935,37.367 -68.733,37.367 v 0 c -4.812,-0.001 -9.734,-0.495 -14.74,-1.547" /></clipPath><linearGradient
       id="linearGradient346"
       spreadMethod="pad"
       gradientTransform="matrix(199.42894,0,0,-199.42894,219.07471,348.58594)"
       gradientUnits="userSpaceOnUse"
       y2="0"
       x2="1"
       y1="0"
       x1="0"><stop
         id="stop336"
         offset="0"
         style="stop-opacity:1;stop-color:#84ccf1" /><stop
         id="stop338"
         offset="0.3038728"
         style="stop-opacity:1;stop-color:#ffffff" /><stop
         id="stop340"
         offset="0.533707"
         style="stop-opacity:1;stop-color:#ffffff" /><stop
         id="stop342"
         offset="0.90566523"
         style="stop-opacity:1;stop-color:#ffffff" /><stop
         id="stop344"
         offset="1"
         style="stop-opacity:1;stop-color:#ffffff" /></linearGradient><clipPath
       id="clipPath356"
       clipPathUnits="userSpaceOnUse"><path
         id="path354"
         d="M 0,792 H 612 V 0 H 0 Z" /></clipPath><clipPath
       id="clipPath444"
       clipPathUnits="userSpaceOnUse"><path
         id="path442"
         d="m 222.392,275.629 c 9.069,2.241 10.824,11.607 13.746,18.467 v 0 c -1.755,1.115 -1.314,3.073 -1.46,5.035 v 0 c 4.674,2.798 12.278,1.958 13.736,8.391 v 0 c -4.968,6.018 -1.314,15.667 -8.765,20.704 v 0 c -7.748,6.716 -17.838,13.009 -19.009,23.92 v 0 c 0.147,3.221 -4.527,4.618 -3.8,7.975 v 0 c -9.79,-26.019 -9.936,-60.57 5.552,-84.492" /></clipPath><linearGradient
       id="linearGradient460"
       spreadMethod="pad"
       gradientTransform="matrix(38.284241,0,0,-38.284241,211.34082,317.875)"
       gradientUnits="userSpaceOnUse"
       y2="0"
       x2="1"
       y1="0"
       x1="0"><stop
         id="stop450"
         offset="0"
         style="stop-opacity:1;stop-color:#84ccf1" /><stop
         id="stop452"
         offset="0.3038728"
         style="stop-opacity:1;stop-color:#ffffff" /><stop
         id="stop454"
         offset="0.533707"
         style="stop-opacity:1;stop-color:#ffffff" /><stop
         id="stop456"
         offset="0.90566523"
         style="stop-opacity:1;stop-color:#ffffff" /><stop
         id="stop458"
         offset="1"
         style="stop-opacity:1;stop-color:#ffffff" /></linearGradient><clipPath
       id="clipPath470"
       clipPathUnits="userSpaceOnUse"><path
         id="path468"
         d="M 0,792 H 612 V 0 H 0 Z" /></clipPath></defs><g
     transform="matrix(1.3333333,0,0,-1.3333333,0,1056)"
     id="g10"><g
       id="g12"><g
         clip-path="url(#clipPath18)"
         id="g14"><g
           transform="translate(300.8438,342.7344)"
           id="g20"><path
             id="path22"
             style="fill:#231f20;fill-opacity:1;fill-rule:nonzero;stroke:none"
             d="m 0,0 c 7.133,-4.69 16.807,4.913 21.642,-4.471 3.916,1.787 6.443,-3.571 9.898,1.117 3.908,-1.117 5.289,6.703 7.129,0 1.157,-1.117 3.003,-1.117 4.381,-1.564 0.461,-2.68 -0.92,-5.359 1.149,-8.047 3.686,-0.662 15.189,-2.008 9.899,5.367 -0.455,1.112 0.688,3.804 2.761,3.804 2.301,-3.582 11.283,-3.582 7.829,-8.718 -1.612,-8.041 12.198,-1.342 7.139,-10.055 8.055,-3.346 12.887,-12.957 13.338,-20.996 5.076,-1.572 2.542,-11.173 9.912,-10.054 2.304,-5.363 2.762,-14.524 -0.692,-18.768 -3.909,0.892 -0.228,9.608 -6.454,3.576 -0.682,0 -1.381,0 -1.839,0.668 -2.067,-0.894 -0.679,-3.352 -0.927,-4.912 2.766,-1.793 5.534,-0.451 7.147,-4.255 0.688,-5.799 6.215,-12.943 1.153,-17.634 -1.615,-1.12 -3.224,-1.571 -4.608,-3.353 1.842,-3.577 6.678,-1.566 9.443,-3.577 2.294,-10.275 -13.807,-1.79 -8.743,-12.517 -3.228,-5.356 -7.835,-12.953 -4.392,-19.656 -1.14,-3.349 -5.514,-1.339 -7.359,-4.468 -2.763,-4.467 -0.221,-12.061 -6.437,-14.3 -5.304,2.686 -6.22,-2.23 -10.133,-3.349 -2.076,-1.342 -3.454,-5.587 -7.138,-3.125 -1.839,5.804 -8.514,-0.224 -11.51,4.691 -5.063,0.225 -7.828,0 -12.205,-1.566 -1.148,4.021 -4.595,-0.447 -5.063,-2.006 0.238,-2.015 0,-4.252 -1.601,-4.916 -2.077,-0.895 -3,1.566 -3.231,2.678 -7.366,2.013 -14.503,-1.567 -20.949,-1.112 -2.993,-2.909 -7.367,-3.126 -11.049,-3.804 0,11.168 -11.282,-1.342 -17.261,-0.895 -1.384,0.231 -3.223,-0.664 -3.918,0.895 0,3.126 7.366,5.139 5.062,8.042 -2.528,-2.679 -6.443,-2.007 -9.436,-3.126 -3.217,1.119 -8.287,8.943 -11.51,2.238 -7.597,3.125 -12.663,-8.496 -17.719,-1.791 -8.523,-4.685 -1.388,8.937 -9.908,2.679 -0.916,0.454 -2.067,1.566 -1.147,2.237 -0.92,5.594 -11.965,-0.224 -9.443,6.923 -3.905,1.573 -11.737,1.573 -9.898,8.041 -0.916,-0.217 -1.15,0.675 -1.608,1.119 2.3,2.237 1.384,5.366 -2.305,4.915 -2.069,1.564 0,4.469 -3.227,5.812 -0.23,5.139 16.583,2.454 4.839,7.593 -3.223,8.265 9.898,4.915 7.37,12.286 3.448,1.563 6.679,5.139 7.595,8.493 -1.378,4.24 2.996,8.709 -2.766,10.722 1.388,8.048 -3.905,1.56 -6.675,6.475 2.77,3.58 3.916,7.818 5.531,11.846 -0.922,0.671 -4.608,0.443 -3.223,3.797 1.608,2.009 3.685,2.677 5.517,4.244 -2.531,1.555 -7.825,8.041 -1.15,9.16 4.377,0.447 2.766,5.359 5.534,7.374 -2.538,8.483 15.418,6.03 7.821,16.084 5.99,3.569 11.052,11.389 18.181,13.399 2.773,-0.893 1.618,4.248 5.072,3.357 1.148,-1.116 0,-6.479 3.682,-3.799 1.381,4.912 0.923,10.716 7.828,12.731 4.602,0.226 9.441,5.366 13.349,1.117 5.759,5.364 14.736,-8.039 14.271,2.68 C -6.674,0 -3.916,2.01 -0.461,4.247 -0.461,2.676 -0.919,0.895 0,0" /></g><g
           transform="translate(313.5068,335.5859)"
           id="g24"><path
             id="path26"
             style="fill:#f9e31f;fill-opacity:1;fill-rule:nonzero;stroke:none"
             d="m 0,0 c 8.514,-4.244 17.496,-2.461 24.862,-8.935 6.906,1.782 8.517,-5.365 14.968,-4.469 0.919,-2.458 5.055,-4.471 6.667,-0.45 4.374,-2.232 5.527,-4.911 8.751,-8.043 -1.846,-2.455 2.069,-6.026 -1.611,-8.04 3.912,-2.459 5.289,-8.934 11.044,-4.914 5.989,-4.466 1.154,-14.079 8.748,-16.981 0.699,-5.14 -6.441,-4.465 -5.521,-9.16 -5.528,4.695 0.919,10.055 -2.765,15.419 0.464,1.111 -0.462,1.558 -0.92,2.23 -2.532,0.895 -2.532,-1.787 -3.909,-2.678 -2.07,-2.461 1.377,-4.021 1.15,-6.479 -4.608,-0.671 -7.601,-4.023 -11.743,-0.45 -3.682,2.013 1.387,6.03 -2.766,7.377 -2.759,-1.347 -3.905,-5.364 -3.224,-8.049 5.525,0.451 12.209,-14.74 16.583,-3.126 2.755,-5.586 9.44,-5.139 9.898,-12.285 1.381,-2.238 5.755,-3.357 3.217,-6.035 -2.29,-2.231 -5.521,1.791 -8.286,1.126 -0.686,3.573 -2.763,6.475 -4.368,9.597 -1.384,0 -2.989,-0.668 -3.226,-2.01 2.765,-8.041 9.67,-11.615 11.051,-20.324 2.762,-0.891 1.378,-3.129 1.154,-4.919 -3.919,-2.678 -1.615,5.139 -6.217,1.567 -0.919,1.782 2.07,3.352 -0.468,4.244 -2.993,-1.567 -6.898,-4.021 -6.668,-7.377 2.067,-1.112 3.913,-2.224 5.979,-3.35 -6.44,-4.02 1.385,-14.964 -10.356,-12.286 -3.684,-2.013 -0.468,-5.139 1.613,-6.926 10.128,-4.248 -7.825,-8.489 0.457,-13.848 -1.608,-1.79 0.689,-3.133 1.154,-4.468 -2.304,-1.119 -4.608,1.786 -3.909,4.468 -1.846,2.004 -2.766,-1.79 -4.384,-1.79 -3.905,-2.238 1.618,-10.048 -4.832,-8.034 -1.836,-0.231 -1.836,6.467 -5.062,2.67 0,-0.887 -1.151,-1.342 -1.612,-2.006 1.377,-2.678 2.073,-5.58 0,-7.601 0,1.566 2.304,3.58 0,4.923 -3.223,-0.224 -7.37,0.224 -10.587,1.566 2.996,2.454 1.609,5.573 -0.462,7.59 -1.387,0.892 -2.757,1.115 -4.373,0.892 -4.143,-2.238 -3.216,-14.07 -10.59,-7.37 0.231,1.342 4.608,1.119 3.913,4.241 -4.371,-1.78 -4.144,7.377 -7.826,1.118 2.301,-3.8 1.613,-5.583 -2.077,-8.709 -2.988,3.573 -8.058,-2.007 -11.041,3.35 -3.691,-1.112 0,1.783 0,2.677 2.983,-4.467 7.594,-0.216 11.041,-3.789 3.458,3.118 -3.226,6.915 0,11.167 -3.447,2.454 -4.6,-3.804 -6.212,-5.363 -5.063,3.129 -7.363,-0.672 -11.048,-3.573 -2.07,0.223 -4.15,-0.455 -5.524,-2.231 -0.455,-1.79 0.689,-3.349 2.297,-3.804 3.458,0 -2.07,-3.356 -1.144,-5.364 -3.458,0.896 1.843,2.679 -0.464,4.245 -3.452,-3.349 -6.902,4.468 -10.129,0 -2.293,4.021 -12.657,2.685 -8.744,10.276 -3.231,4.468 -6.22,-4.465 -8.754,1.562 -2.759,1.35 -3.452,-2.454 -5.521,-2.677 -1.147,0.894 0.692,2.006 2.069,2.677 2.301,2.462 -0.692,6.706 3.452,8.042 -1.836,2.461 -5.297,0 -7.826,0 -0.223,-3.79 -3.45,-5.136 -6.677,-6.475 -1.835,-0.671 -2.755,1.119 -4.367,1.79 7.132,4.916 -1.846,8.936 -5.993,9.6 -0.681,0 -1.839,-0.444 -2.3,0.455 0.919,4.238 6.909,2.007 6.67,6.475 -4.6,1.566 -10.351,0.896 -13.802,4.919 0.685,1.115 2.993,1.776 2.069,3.57 -5.065,2.014 -6.216,4.251 -5.523,9.167 5.069,5.357 -2.763,10.72 2.3,16.747 -2.993,5.587 -5.986,-6.699 -6.671,0.895 -7.601,3.58 5.524,6.923 -0.468,10.726 0.23,0.888 1.153,2.007 0,2.675 -2.99,2.011 -7.364,-3.352 -5.525,3.353 -1.839,1.79 -3.677,2.685 -2.3,5.363 1.839,6.255 6.909,9.384 12.202,13.404 1.615,3.13 -2.993,2.458 -2.301,5.364 6.217,0.446 5.524,10.051 13.349,8.04 -0.685,-2.009 0.919,-3.128 2.3,-4.243 1.616,-0.451 2.074,1.34 3.221,2.006 -4.829,4.022 7.604,10.727 -2.294,9.161 0,3.132 0.228,8.934 5.524,5.811 0.227,-2.013 1.842,-2.679 3.451,-3.58 1.615,-0.441 2.765,0.225 3.912,1.567 -2.528,2.68 -0.458,4.245 0.465,6.93 1.608,-0.232 2.99,0.439 3.916,1.558 -0.7,2.241 0.689,3.356 2.762,3.795 2.755,-2.895 5.059,-9.155 10.356,-9.155 1.15,0.671 0.462,1.79 0.685,2.685 -2.755,0.444 -4.139,3.351 -5.055,5.36 0.685,3.348 2.761,5.36 6.209,6.032 2.3,-6.7 7.597,-0.672 11.055,0.445 6.44,-9.162 15.422,7.151 23.019,-2.231 C -2.3,-2.239 -1.384,-0.228 0,0" /></g><g
           transform="translate(318.5693,314.1396)"
           id="g28"><path
             id="path30"
             style="fill:#231f20;fill-opacity:1;fill-rule:nonzero;stroke:none"
             d="M 0,0 C 0,-1.348 -2.076,-1.564 -3.454,-0.895 -6.216,1.78 -5.53,5.36 -2.765,8.042 0.927,7.593 -5.063,1.339 0,0" /></g><g
           transform="translate(284.7295,317.4873)"
           id="g32"><path
             id="path34"
             style="fill:#231f20;fill-opacity:1;fill-rule:nonzero;stroke:none"
             d="m 0,0 c -0.919,-0.447 -2.989,-5.807 1.847,-3.799 1.608,-1.56 -1.389,-2.23 -2.308,-2.676 -2.528,-1.124 -5.752,-0.446 -7.825,1.563 3.454,2.454 -1.153,4.246 1.15,6.48 C -4.377,1.787 -2.069,1.341 0,0" /></g><g
           transform="translate(259.8643,303.415)"
           id="g36"><path
             id="path38"
             style="fill:#231f20;fill-opacity:1;fill-rule:nonzero;stroke:none"
             d="m 0,0 c 0,-0.669 -0.682,-1.563 -1.608,-1.563 -5.293,1.118 -1.846,8.714 -4.371,12.288 0.69,1.115 1.609,1.338 2.762,1.115 C -0.458,8.043 -4.37,3.35 0,0" /></g><g
           transform="translate(343.4316,311.0127)"
           id="g40"><path
             id="path42"
             style="fill:#231f20;fill-opacity:1;fill-rule:nonzero;stroke:none"
             d="M 0,0 C 0,-0.897 0,-2.236 -1.157,-2.236 -3.454,-2.463 -3.454,0 -4.37,1.115 -4.14,3.35 1.153,4.017 0,0" /></g><g
           transform="translate(311.8916,306.7646)"
           id="g44"><path
             id="path46"
             style="fill:#231f20;fill-opacity:1;fill-rule:nonzero;stroke:none"
             d="M 0,0 C -1.149,-2.236 -4.37,-4.467 -5.979,-2.677 -8.971,1.345 9.901,12.735 0,0" /></g><g
           transform="translate(299.6934,305.6494)"
           id="g48"><path
             id="path50"
             style="fill:#231f20;fill-opacity:1;fill-rule:nonzero;stroke:none"
             d="M 0,0 C -2.069,-1.562 -4.149,0.442 -5.979,1.561 -5.523,4.466 3.686,5.809 0,0" /></g><g
           transform="translate(286.5762,301.4033)"
           id="g52"><path
             id="path54"
             style="fill:#231f20;fill-opacity:1;fill-rule:nonzero;stroke:none"
             d="M 0,0 C 0.23,-0.897 -0.689,-1.563 -1.154,-2.232 -3.916,-2.903 -5.759,-0.897 -6.679,1.118 -5.524,6.706 -1.847,1.786 0,0" /></g><g
           transform="translate(340.6699,295.3721)"
           id="g56"><path
             id="path58"
             style="fill:#231f20;fill-opacity:1;fill-rule:nonzero;stroke:none"
             d="m 0,0 c -1.843,-0.224 -2.997,0.668 -3.455,2.228 0.924,2.24 2.532,7.824 5.528,5.37 C 2.304,4.685 -0.231,2.901 0,0" /></g><g
           transform="translate(298.5469,301.8525)"
           id="g60"><path
             id="path62"
             style="fill:#231f20;fill-opacity:1;fill-rule:nonzero;stroke:none"
             d="M 0,0 C -0.692,-1.796 -3.003,-4.022 -4.832,-2.682 -5.531,0 -1.846,1.563 0,0" /></g><g
           transform="translate(320.6436,297.5996)"
           id="g64"><path
             id="path66"
             style="fill:#231f20;fill-opacity:1;fill-rule:nonzero;stroke:none"
             d="M 0,0 C -2.301,-1.78 -4.374,1.125 -6.447,1.571 -6.916,3.804 -3.455,4.472 -1.612,4.922 -1.612,2.906 0.688,2.24 0,0" /></g><g
           transform="translate(274.832,300.7354)"
           id="g68"><path
             id="path70"
             style="fill:#231f20;fill-opacity:1;fill-rule:nonzero;stroke:none"
             d="M 0,0 C 0.458,-1.346 -0.465,-2.235 -1.615,-2.682 -3.916,-2.905 -5.521,-0.229 -3.22,1.117 -2.077,1.117 -0.688,1.336 0,0" /></g><g
           transform="translate(364.3779,294.9248)"
           id="g72"><path
             id="path74"
             style="fill:#231f20;fill-opacity:1;fill-rule:nonzero;stroke:none"
             d="m 0,0 c -0.231,-0.892 -1.378,-2.458 -2.756,-2.234 -2.076,-0.664 -3.23,1.786 -3.919,2.681 -0.688,2.458 0.923,5.813 3.919,4.919 C -4.374,3.129 -2.298,0.447 0,0" /></g><g
           transform="translate(372.2129,294.4766)"
           id="g76"><path
             id="path78"
             style="fill:#231f20;fill-opacity:1;fill-rule:nonzero;stroke:none"
             d="m 0,0 c -1.157,-2.45 -2.997,0 -4.612,0 -1.377,0.672 -0.916,2.015 -0.916,3.123 1.143,1.125 2.3,2.906 4.371,2.24 C -2.997,3.354 -0.238,1.792 0,0" /></g><g
           transform="translate(349.417,287.998)"
           id="g80"><path
             id="path82"
             style="fill:#231f20;fill-opacity:1;fill-rule:nonzero;stroke:none"
             d="m 0,0 c 0,-3.125 -4.143,-0.664 -5.985,-0.664 -3.454,2.007 -0.689,5.58 -0.689,8.038 1.151,0.668 1.842,2.012 2.766,2.228 C -3.908,6.479 -6.674,-0.224 0,0" /></g><g
           transform="translate(248.8203,292.2432)"
           id="g84"><path
             id="path86"
             style="fill:#231f20;fill-opacity:1;fill-rule:nonzero;stroke:none"
             d="M 0,0 C -0.458,-2.902 -4.378,-1.566 -5.989,-1.119 -5.989,2.233 -2.081,3.576 0,4.908 6.446,3.797 -2.997,2.682 0,0" /></g><g
           transform="translate(239.6074,293.3613)"
           id="g88"><path
             id="path90"
             style="fill:#231f20;fill-opacity:1;fill-rule:nonzero;stroke:none"
             d="M 0,0 C 0,-1.118 -0.224,-2.905 -1.832,-2.237 -3.909,-2.905 -4.828,-0.671 -5.524,0.448 -6.209,4.469 1.381,3.79 0,0" /></g><g
           transform="translate(256.6475,286.8799)"
           id="g92"><path
             id="path94"
             style="fill:#231f20;fill-opacity:1;fill-rule:nonzero;stroke:none"
             d="m 0,0 c 4.371,-2.458 -2.072,-5.367 1.608,-8.042 -0.692,-2.233 -2.989,-3.353 -4.831,-1.559 -1.381,3.125 5.055,4.913 0.461,8.038 C -0.923,1.786 -2.304,8.492 2.759,8.492 2.759,5.363 -0.465,3.353 0,0" /></g><g
           transform="translate(322.9434,285.7607)"
           id="g96"><path
             id="path98"
             style="fill:#231f20;fill-opacity:1;fill-rule:nonzero;stroke:none"
             d="M 0,0 C 1.619,-1.783 3.221,1.343 5.066,-0.444 3.688,-1.552 1.385,-5.132 -1.15,-3.125 c -3.451,2.461 -1.839,6.929 0,9.607 3.685,0 0,-4.024 1.15,-6.482" /></g><g
           transform="translate(334.4463,283.7539)"
           id="g100"><path
             id="path102"
             style="fill:#231f20;fill-opacity:1;fill-rule:nonzero;stroke:none"
             d="M 0,0 C -0.912,-1.118 -2.521,-0.451 -3.675,-0.668 -8.74,2.238 -1.836,4.695 -0.455,6.259 2.073,4.912 -0.912,1.79 0,0" /></g><g
           transform="translate(284.2686,286.8799)"
           id="g104"><path
             id="path106"
             style="fill:#231f20;fill-opacity:1;fill-rule:nonzero;stroke:none"
             d="M 0,0 C -0.916,-3.35 -4.14,-0.444 -5.986,-0.444 -7.133,-0.224 -6.447,0.895 -6.675,1.569 -4.602,3.576 -0.231,2.909 0,0" /></g><g
           transform="translate(231.7832,283.7539)"
           id="g108"><path
             id="path110"
             style="fill:#231f20;fill-opacity:1;fill-rule:nonzero;stroke:none"
             d="M 0,0 C -0.228,-2.678 1.615,-4.465 1.615,-7.149 -1.843,-5.587 -5.986,0.455 -1.147,3.58 3.915,6.923 1.839,2.007 0,0" /></g><g
           transform="translate(301.998,283.0859)"
           id="g112"><path
             id="path114"
             style="fill:#231f20;fill-opacity:1;fill-rule:nonzero;stroke:none"
             d="M 0,0 C 0.692,-1.79 -1.378,-2.908 -2.305,-3.797 -4.832,-4.695 -4.832,-1.573 -3.909,-0.45 -3.224,0.892 -0.466,2.011 0,0" /></g><g
           transform="translate(348.9561,281.0762)"
           id="g116"><path
             id="path118"
             style="fill:#231f20;fill-opacity:1;fill-rule:nonzero;stroke:none"
             d="M 0,0 C -0.228,-1.119 -1.615,-1.787 -1.15,-3.354 1.377,-4.248 4.146,0 6.674,-2.238 5.985,-6.259 1.611,-5.14 -0.689,-7.601 c -2.304,0 -4.374,1.79 -4.374,4.247 C -5.297,-0.898 -1.615,2.01 0,0" /></g><g
           transform="translate(273.2168,273.0273)"
           id="g120"><path
             id="path122"
             style="fill:#231f20;fill-opacity:1;fill-rule:nonzero;stroke:none"
             d="M 0,0 C 0.927,-2.01 4.377,-0.668 3.919,-3.346 0.234,-6.027 -2.989,0.898 -5.063,-4.908 -10.129,-0.892 -0.462,3.356 -0.462,8.485 2.538,7.825 -2.066,2.909 0,0" /></g><g
           transform="translate(316.2695,274.5938)"
           id="g124"><path
             id="path126"
             style="fill:#231f20;fill-opacity:1;fill-rule:nonzero;stroke:none"
             d="M 0,0 C 0.461,-0.895 -0.465,-1.566 -1.154,-2.234 -3.23,-0.224 -8.517,0.672 -7.591,3.797 -4.608,3.797 -0.927,2.686 0,0" /></g><g
           transform="translate(303.6064,276.6045)"
           id="g128"><path
             id="path130"
             style="fill:#231f20;fill-opacity:1;fill-rule:nonzero;stroke:none"
             d="M 0,0 C 1.149,-2.454 -2.074,-1.787 -2.763,-3.577 -3.682,-4.018 -4.374,-3.129 -5.06,-2.679 -4.144,-0.892 -1.836,1.343 0,0" /></g><g
           transform="translate(243.2959,270.3496)"
           id="g132"><path
             id="path134"
             style="fill:#231f20;fill-opacity:1;fill-rule:nonzero;stroke:none"
             d="m 0,0 c -0.692,-1.119 -1.608,-1.336 -2.766,-1.119 -2.069,1.343 0,3.129 0,4.695 C 1.378,6.93 1.378,2.458 0,0" /></g><g
           transform="translate(367.6006,267)"
           id="g136"><path
             id="path138"
             style="fill:#231f20;fill-opacity:1;fill-rule:nonzero;stroke:none"
             d="m 0,0 c -0.23,-1.783 -2.985,-0.895 -4.373,-0.447 -1.84,-2.454 1.835,-8.713 -3.909,-6.035 0,3.797 -6.912,6.035 -3.689,9.832 2.535,1.119 1.385,-2.231 3.227,-2.231 2.99,0.217 4.143,5.133 8.287,4.908 C 0.459,4.241 -2.538,1.566 0,0" /></g><g
           transform="translate(248.8203,263.1963)"
           id="g140"><path
             id="path142"
             style="fill:#231f20;fill-opacity:1;fill-rule:nonzero;stroke:none"
             d="M 0,0 C 0.692,-2.23 2.531,-7.359 -2.081,-5.356 -4.836,-2.007 -1.843,1.79 -0.458,4.923 1.153,5.587 2.531,8.045 4.604,6.485 3.224,4.472 0.692,2.685 0,0" /></g><g
           transform="translate(333.9912,265.4268)"
           id="g144"><path
             id="path146"
             style="fill:#231f20;fill-opacity:1;fill-rule:nonzero;stroke:none"
             d="M 0,0 C 0.455,-1.328 -0.457,-2.454 -1.607,-2.671 -2.765,-2.23 -4.146,-1.776 -5.063,-0.44 -5.53,2.014 -3.45,4.255 -1.146,4.923 3.682,4.923 -3.45,1.573 0,0" /></g><g
           transform="translate(232.2441,263.8711)"
           id="g148"><path
             id="path150"
             style="fill:#231f20;fill-opacity:1;fill-rule:nonzero;stroke:none"
             d="M 0,0 C -0.916,-0.444 -1.839,-1.563 -3.224,-1.115 -4.604,0 -5.065,1.346 -4.835,3.129 -0.688,9.828 0.692,2.682 0,0" /></g><g
           transform="translate(259.4063,268.1191)"
           id="g152"><path
             id="path154"
             style="fill:#231f20;fill-opacity:1;fill-rule:nonzero;stroke:none"
             d="m 0,0 c 0.696,-1.566 -1.15,-1.566 -1.611,-2.238 -0.697,0.672 -1.385,0.895 -2.301,1.119 C -4.37,0.895 0.231,3.122 0,0" /></g><g
           transform="translate(284.7295,262.3086)"
           id="g156"><path
             id="path158"
             style="fill:#231f20;fill-opacity:1;fill-rule:nonzero;stroke:none"
             d="m 0,0 c 1.157,-2.462 -1.611,-2.007 -2.758,-2.682 -3.221,-0.22 -3.221,4.245 0,4.245 C -1.377,2.007 0,1.118 0,0" /></g><g
           transform="translate(352.1787,260.5176)"
           id="g160"><path
             id="path162"
             style="fill:#231f20;fill-opacity:1;fill-rule:nonzero;stroke:none"
             d="M 0,0 C 0.689,-2.901 -3.681,-1.335 -4.838,-0.447 -6.446,0 -6.446,2.238 -4.838,2.679 -2.989,2.679 -1.611,1.126 0,0" /></g><g
           transform="translate(293.0156,262.3086)"
           id="g164"><path
             id="path166"
             style="fill:#231f20;fill-opacity:1;fill-rule:nonzero;stroke:none"
             d="m 0,0 c 0.458,-2.007 -2.989,-3.126 -0.919,-4.916 4.149,-2.902 -6.909,-4.248 0,-5.811 1.147,-1.556 -1.84,-4.021 -3.912,-2.234 -4.832,1.57 -2.763,6.034 -1.608,9.164 C -3.682,-3.126 -3.224,1.79 0,0" /></g><g
           transform="translate(309.5947,260.5176)"
           id="g168"><path
             id="path170"
             style="fill:#231f20;fill-opacity:1;fill-rule:nonzero;stroke:none"
             d="m 0,0 c -3.682,-2.23 5.29,-8.034 -3.224,-5.803 -1.38,-3.577 -5.296,-1.57 -5.527,1.122 -0.461,1.556 -1.843,2.899 0,4.234 C -4.143,-6.698 -1.385,7.818 0,0" /></g><g
           transform="translate(321.332,257.8398)"
           id="g172"><path
             id="path174"
             style="fill:#231f20;fill-opacity:1;fill-rule:nonzero;stroke:none"
             d="m 0,0 c 2.297,-3.35 7.129,-2.003 10.362,-3.576 2.071,0.451 2.752,3.129 5.06,3.129 0.919,-1.116 -1.385,-5.811 2.759,-4.248 3.003,-1.116 -0.916,-2.675 -1.606,-2.675 -4.373,0.448 -6.904,3.794 -11.051,0.448 -4.836,0 -8.513,3.346 -9.436,7.594 C -6.447,6.259 3.454,3.804 0,0" /></g><g
           transform="translate(388.7744,253.5957)"
           id="g176"><path
             id="path178"
             style="fill:#ffffff;fill-opacity:1;fill-rule:nonzero;stroke:none"
             d="m 0,0 c -1.381,0 -6.209,-0.451 -5.056,2.682 1.618,0.447 2.996,1.783 4.374,0 C -0.455,2.007 0,1.119 0,0" /></g><g
           transform="translate(278.2822,250.918)"
           id="g180"><path
             id="path182"
             style="fill:#231f20;fill-opacity:1;fill-rule:nonzero;stroke:none"
             d="m 0,0 c -1.384,-0.672 -1.607,-3.581 -3.915,-2.686 -2.993,2.014 1.85,3.574 2.769,5.364 C 0.692,3.346 0.916,0.888 0,0" /></g><g
           transform="translate(250.6621,247.1133)"
           id="g184"><path
             id="path186"
             style="fill:#231f20;fill-opacity:1;fill-rule:nonzero;stroke:none"
             d="M 0,0 C -0.923,-2.901 -5.988,-4.691 -7.366,-1.559 -8.059,-0.668 -9.901,0.679 -8.293,1.794 -6.22,-2.003 -2.3,2.458 0,0" /></g><g
           transform="translate(267.6895,246.2217)"
           id="g188"><path
             id="path190"
             style="fill:#231f20;fill-opacity:1;fill-rule:nonzero;stroke:none"
             d="M 0,0 C 0.465,-2.675 -2.524,-1.782 -3.909,-2.675 -5.06,-3.125 -5.755,-2.01 -6.671,-1.782 -5.286,0 -2.066,2.455 0,0" /></g><g
           transform="translate(342.7432,245.5547)"
           id="g192"><path
             id="path194"
             style="fill:#231f20;fill-opacity:1;fill-rule:nonzero;stroke:none"
             d="M 0,0 C -2.996,-3.133 -5.989,-11.392 -11.049,-9.611 -7.828,-6.035 -6.451,3.572 0,0" /></g><g
           transform="translate(244.4424,236.3906)"
           id="g196"><path
             id="path198"
             style="fill:#231f20;fill-opacity:1;fill-rule:nonzero;stroke:none"
             d="M 0,0 C -3.224,-1.563 -2.755,2.905 -4.373,4.472 -1.146,12.957 -2.073,2.458 0,0" /></g><g
           transform="translate(361.1572,235.5029)"
           id="g200"><path
             id="path202"
             style="fill:#231f20;fill-opacity:1;fill-rule:nonzero;stroke:none"
             d="m 0,0 c -2.073,-1.123 -3.454,1.559 -4.601,3.129 -0.462,2.23 0.682,5.356 3.448,4.915 C -1.153,5.583 -0.695,2.678 0,0" /></g><g
           transform="translate(309.1367,240.1982)"
           id="g204"><path
             id="path206"
             style="fill:#231f20;fill-opacity:1;fill-rule:nonzero;stroke:none"
             d="M 0,0 C 1.147,-2.462 -1.839,-2.018 -2.766,-3.137 -6.446,-4.031 -6.216,0 -5.989,1.56 -3.458,2.675 -2.308,-0.234 0,0" /></g><g
           transform="translate(389.2432,239.7432)"
           id="g208"><path
             id="path210"
             style="fill:#ffffff;fill-opacity:1;fill-rule:nonzero;stroke:none"
             d="m 0,0 c -4.598,-1.79 -5.759,-7.37 -11.514,-7.594 -2.989,5.804 4.377,7.147 7.608,9.609 C -2.528,1.343 -1.15,0.668 0,0" /></g><g
           transform="translate(321.793,235.5029)"
           id="g212"><path
             id="path214"
             style="fill:#231f20;fill-opacity:1;fill-rule:nonzero;stroke:none"
             d="M 0,0 C -1.381,-3.801 0.92,-10.06 -2.762,-12.514 -6.45,-8.493 1.612,2.233 -8.754,0.888 -6.212,6.919 -4.143,-1.34 0,0" /></g><g
           transform="translate(281.9717,234.3799)"
           id="g216"><path
             id="path218"
             style="fill:#231f20;fill-opacity:1;fill-rule:nonzero;stroke:none"
             d="M 0,0 C -1.385,-1.115 -2.773,-2.458 -4.836,-2.23 -6.217,-1.563 -6.217,0.224 -5.528,1.123 -4.15,2.462 3.216,5.14 0,0" /></g><g
           transform="translate(249.9736,232.1494)"
           id="g220"><path
             id="path222"
             style="fill:#231f20;fill-opacity:1;fill-rule:nonzero;stroke:none"
             d="m 0,0 c 0.224,-1.118 0,-2.014 -1.153,-2.678 -1.382,0.664 -3.231,0.664 -4.378,2.231 C -5.3,1.56 -1.385,2.454 0,0" /></g><g
           transform="translate(343.8936,226.3457)"
           id="g224"><path
             id="path226"
             style="fill:#231f20;fill-opacity:1;fill-rule:nonzero;stroke:none"
             d="M 0,0 C -2.528,-1.573 -4.832,1.336 -5.986,3.126 -5.524,6.027 -1.847,7.817 0.691,6.919 -1.15,4.686 1.839,2.23 0,0" /></g><g
           transform="translate(257.7949,223.6543)"
           id="g228"><path
             id="path230"
             style="fill:#231f20;fill-opacity:1;fill-rule:nonzero;stroke:none"
             d="m 0,0 c -1.385,-0.665 -2.301,-1.56 -3.909,-1.112 -2.308,2.23 0.689,4.919 1.15,7.593 0.689,0.896 1.836,1.567 3.22,1.567 C 0,5.583 -0.231,2.691 0,0" /></g><g
           transform="translate(226.2588,219.4131)"
           id="g232"><path
             id="path234"
             style="fill:#f9e31f;fill-opacity:1;fill-rule:nonzero;stroke:none"
             d="m 0,0 c 0.92,-1.339 2.301,-2.007 3.912,-1.787 0,5.363 5.06,2.902 8.29,2.679 -2.763,-3.126 -9.44,-5.357 -9.44,-10.72 -1.842,-2.235 -2.992,2.454 -4.377,-0.896 -0.231,-2.23 1.153,-3.797 3.226,-3.797 2.766,-0.219 4.836,2.679 5.529,4.693 2.069,-0.444 4.139,-4.912 7.131,-2.678 2.074,1.339 1.158,5.132 4.605,4.464 -6.674,-5.811 5.759,-9.604 0,-15.631 -5.751,1.567 -5.751,-11.398 -12.198,-4.923 -4.377,-2.678 -0.231,5.37 -6.217,4.923 -2.307,-0.902 -6.216,-0.902 -7.132,2.231 0.916,0.223 0.458,1.341 0.689,2.006 -8.289,1.79 4.136,4.915 0,8.039 3.22,2.016 -1.388,3.128 -1.158,4.921 -4.142,0.442 -8.516,8.709 -11.041,1.12 0.455,-2.686 -0.699,-3.36 -1.157,-0.678 -0.688,3.352 4.611,3.352 2.766,6.481 6.217,-6.481 6.671,4.696 11.509,5.367 -0.461,2.455 -4.376,0.665 -3.223,3.79 2.989,-2.007 5.066,3.8 7.824,1.119 C -1.846,7.373 -1.846,2.905 0,0" /></g><g
           transform="translate(363.2275,227.4609)"
           id="g236"><path
             id="path238"
             style="fill:#231f20;fill-opacity:1;fill-rule:nonzero;stroke:none"
             d="M 0,0 C -0.465,-1.115 -1.84,-0.451 -2.766,-0.675 -4.602,1.115 -1.84,2.898 -0.465,3.57 1.618,3.346 0.23,1.115 0,0" /></g><g
           transform="translate(282.6602,226.3457)"
           id="g240"><path
             id="path242"
             style="fill:#231f20;fill-opacity:1;fill-rule:nonzero;stroke:none"
             d="M 0,0 C -0.462,-1.573 -2.073,-2.691 -3.909,-2.237 -5.294,-0.224 -2.763,1.56 -1.154,3.126 1.608,4.241 1.377,0.664 0,0" /></g><g
           transform="translate(211.2949,225.2275)"
           id="g244"><path
             id="path246"
             style="fill:#ffffff;fill-opacity:1;fill-rule:nonzero;stroke:none"
             d="M 0,0 C -0.692,-0.455 -1.146,-1.573 -2.07,-1.119 -5.063,0.447 -1.378,2.233 -1.146,3.79 0.237,3.349 1.378,1.118 0,0" /></g><g
           transform="translate(298.5469,225.6748)"
           id="g248"><path
             id="path250"
             style="fill:#231f20;fill-opacity:1;fill-rule:nonzero;stroke:none"
             d="m 0,0 c -2.08,-4.028 -11.74,-4.252 -7.14,-10.727 3.452,-2.909 7.14,-6.034 11.741,-4.695 -1.15,-3.346 -5.524,-0.444 -8.289,-0.668 -2.762,1.786 -6.217,3.353 -7.367,6.483 -2.993,7.586 6.223,6.027 7.367,11.837 C -2.08,2.671 -0.23,1.566 0,0" /></g><g
           transform="translate(266.542,222.9893)"
           id="g252"><path
             id="path254"
             style="fill:#231f20;fill-opacity:1;fill-rule:nonzero;stroke:none"
             d="m 0,0 c -3.685,-2.233 -6.216,-7.377 -11.048,-4.248 0.916,2.905 6.909,0.899 5.525,5.367 C -3.685,1.119 1.385,5.356 0,0" /></g><g
           transform="translate(275.5205,216.0674)"
           id="g256"><path
             id="path258"
             style="fill:#231f20;fill-opacity:1;fill-rule:nonzero;stroke:none"
             d="M 0,0 C 1.615,-1.119 2.996,2.23 5.531,1.559 4.832,-0.899 1.154,-4.696 0.923,-8.496 -5.523,-6.482 -2.304,2.23 -3.908,7.587 3.454,14.292 -1.839,2.23 0,0" /></g><g
           transform="translate(323.4053,214.9482)"
           id="g260"><path
             id="path262"
             style="fill:#231f20;fill-opacity:1;fill-rule:nonzero;stroke:none"
             d="M 0,0 C -0.92,-1.35 -3.451,-1.35 -4.836,-0.447 -5.524,1.56 -3.909,4.237 -2.073,5.356 -2.301,2.678 3.908,3.35 0,0" /></g><g
           transform="translate(377.7295,216.7314)"
           id="g264"><path
             id="path266"
             style="fill:#ffffff;fill-opacity:1;fill-rule:nonzero;stroke:none"
             d="M 0,0 C 0.699,-4.469 -5.517,-2.447 -6.213,-4.905 -5.517,-2.007 0,-2.007 -2.759,2.01 -1.153,2.01 -0.458,1.343 0,0" /></g><g
           transform="translate(310.2842,215.6123)"
           id="g268"><path
             id="path270"
             style="fill:#231f20;fill-opacity:1;fill-rule:nonzero;stroke:none"
             d="M 0,0 C -0.231,-0.888 0.458,-2.901 -1.147,-2.675 -2.986,-2.014 -7.137,0.224 -3.913,2.014 -2.074,2.909 -1.389,0.679 0,0" /></g><g
           transform="translate(335.6035,214.0566)"
           id="g272"><path
             id="path274"
             style="fill:#231f20;fill-opacity:1;fill-rule:nonzero;stroke:none"
             d="M 0,0 C 2.069,-0.678 0.916,-2.686 -0.454,-2.686 -3.22,-3.359 -6.213,-2.23 -6.675,0.444 -7.143,2.675 -4.377,4.241 -2.069,3.569 -1.839,2.675 -4.14,-1.57 0,0" /></g><g
           transform="translate(361.1572,211.3711)"
           id="g276"><path
             id="path278"
             style="fill:#231f20;fill-opacity:1;fill-rule:nonzero;stroke:none"
             d="M 0,0 C 0,-1.118 -0.23,-2.01 -1.153,-2.682 -4.143,-3.8 -7.82,1.566 -8.289,-3.8 -14.041,-5.139 -10.824,0.228 -9.436,2.008 -7.363,2.913 -7.82,6.035 -5.063,5.36 -3.919,3.354 -3.454,-0.443 0,0" /></g><g
           transform="translate(345.043,206.459)"
           id="g280"><path
             id="path282"
             style="fill:#231f20;fill-opacity:1;fill-rule:nonzero;stroke:none"
             d="m 0,0 c -2.527,-0.898 -4.373,1.336 -2.769,3.126 1.62,1.112 3,2.454 5.067,2.678 C 3.224,3.794 -0.458,2.455 0,0" /></g><g
           transform="translate(289.334,203.7744)"
           id="g284"><path
             id="path286"
             style="fill:#231f20;fill-opacity:1;fill-rule:nonzero;stroke:none"
             d="M 0,0 C 0.692,-1.119 2.531,-1.563 2.073,-3.126 0.692,-4.021 -1.842,-4.021 -2.758,-2.682 -4.835,-1.336 -3.227,0.898 -3.447,2.685 -6.674,4.241 -9.667,0 -12.891,1.118 -12.198,4.915 -8.055,4.241 -5.523,5.811 -3.912,0.898 5.989,7.37 0,0" /></g><g
           transform="translate(210.833,204.8926)"
           id="g288"><path
             id="path290"
             style="fill:#ffffff;fill-opacity:1;fill-rule:nonzero;stroke:none"
             d="M 0,0 C -3.681,-0.447 -0.23,3.123 0.462,4.248 7.367,4.469 -0.916,2.458 0,0" /></g><g
           transform="translate(217.9727,207.5713)"
           id="g292"><path
             id="path294"
             style="fill:#ffffff;fill-opacity:1;fill-rule:nonzero;stroke:none"
             d="M 0,0 C -0.923,-1.56 -2.996,-2.011 -2.304,0.444 -1.615,0.444 -0.462,0.898 0,0" /></g><g
           transform="translate(234.5518,203.3301)"
           id="g296"><path
             id="path298"
             style="fill:#231f20;fill-opacity:1;fill-rule:nonzero;stroke:none"
             d="M 0,0 C -0.237,-0.675 -1.846,-1.786 -2.769,-0.675 -4.381,0.675 -0.699,0.892 0,0" /></g><g
           transform="translate(347.3408,196.8516)"
           id="g300"><path
             id="path302"
             style="fill:#231f20;fill-opacity:1;fill-rule:nonzero;stroke:none"
             d="M 0,0 C -2.528,-4.916 -4.367,1.783 -5.524,3.126 -4.598,11.395 -1.144,1.783 0,0" /></g><g
           transform="translate(255.0361,199.5293)"
           id="g304"><path
             id="path306"
             style="fill:#ffffff;fill-opacity:1;fill-rule:nonzero;stroke:none"
             d="M 0,0 C -0.692,-0.671 -1.381,-1.559 -2.308,-1.118 -3.458,0 2.063,3.801 0,0" /></g><g
           transform="translate(242.3691,198.4111)"
           id="g308"><path
             id="path310"
             style="fill:#231f20;fill-opacity:1;fill-rule:nonzero;stroke:none"
             d="m 0,0 c -1.839,-4.237 -7.363,-2.902 -10.586,-3.126 1.153,3.804 6.904,1.119 9.436,4.244 C -0.682,0.678 -0.454,0.447 0,0" /></g><g
           transform="translate(255.0361,189.9219)"
           id="g312"><path
             id="path314"
             style="fill:#ffffff;fill-opacity:1;fill-rule:nonzero;stroke:none"
             d="M 0,0 C -2.073,-0.44 -2.992,0.896 -5.063,0.455 -3.227,1.119 -2.308,2.909 -1.15,4.252 2.063,2.686 6.898,0.672 0,0" /></g><g
           transform="translate(272.7549,190.377)"
           id="g316"><path
             id="path318"
             style="fill:#ffffff;fill-opacity:1;fill-rule:nonzero;stroke:none"
             d="M 0,0 C -2.989,-0.896 -1.143,1.559 0,2.23 3.462,3.125 1.612,0.217 0,0" /></g><g
           transform="translate(396.7881,402.7852)"
           id="g320"><path
             id="path322"
             style="fill:#231f20;fill-opacity:1;fill-rule:nonzero;stroke:none"
             d="m 0,0 c 23.533,-37.623 31.277,-85.329 20.757,-130.233 -3.954,-11.195 -7.458,-22.523 -15.503,-32.179 -3.506,-1.818 -7.891,0.419 -11.838,0.562 -2.772,0 -6.43,0 -8.765,1.399 -3.807,3.779 0.434,10.352 -6,13.156 -2.042,0.836 -5.111,1.951 -3.936,4.611 -1.175,7.27 3.356,17.621 -5.273,21.121 -4.237,0.137 -7.454,4.616 -11.838,2.378 -12.135,5.601 -21.634,19.306 -37.27,14.826 -7.754,-3.774 -16.373,-7.69 -22.078,-14.407 -9.063,-1.118 -18.415,-1.538 -25.872,-6.149 -0.29,-3.916 -7.892,-3.783 -5.699,-8.954 -1.755,-3.084 -5.266,0 -8.039,-0.423 -6.432,7.835 -16.666,8.95 -26.018,6.716 -1.028,-3.36 -5.702,-2.657 -7.024,-5.74 -3.503,1.817 -7.887,-0.553 -11.097,0.706 -15.646,44.902 -2.195,95.821 19.579,134.714 15.201,21.823 36.546,44.487 62.851,51.618 23.247,10.773 47.948,-1.118 66.954,-13.43 C -20.908,29.382 -8.479,15.112 0,0" /></g></g></g><g
       id="g324"><g
         clip-path="url(#clipPath330)"
         id="g326"><g
           id="g332"><g
             id="g334"><path
               id="path348"
               style="fill:url(#linearGradient346);stroke:none"
               d="m 299.281,450.779 c -41.51,-10.218 -70.015,-51.486 -81.413,-87.859 v 0 c 1.167,0 2.185,0 2.772,-1.117 v 0 c 1.906,-15.247 12.716,-28.122 26.023,-36.932 v 0 c -0.734,-7.556 3.797,-13.154 5.555,-19.727 v 0 c -1.758,-2.794 -4.681,-2.656 -6.577,-5.036 v 0 c -7.453,-3.914 -1.174,-14.69 -8.04,-18.466 v 0 c 1.608,-0.838 3.657,-2.656 5.551,-0.979 v 0 c 4.972,-2.658 11.99,-0.279 16.52,-3.775 v 0 c 3.217,3.496 8.042,5.454 10.09,9.37 v 0 c 7.451,0.706 14.759,0.143 22.211,1.677 v 0 c 8.046,3.78 15.063,10.072 22.807,14.553 v 0 c 1.755,7.695 11.401,2.656 14.03,9.37 v 0 c 1.175,4.615 -2.042,9.234 -3.502,13.714 v 0 c 0.95,2.119 2.671,2.105 4.466,2.092 v 0 c 1.52,-0.011 3.093,-0.023 4.298,1.258 v 0 c 6.29,2.944 8.629,9.654 10.527,14.835 v 0 c -6.279,2.799 -8.625,9.094 -10.527,14.411 v 0 c 0.588,0.558 1.029,1.111 1.759,1.674 v 0 c 3.359,-1.395 6.136,-4.617 5.841,-8.673 v 0 c 1.323,-2.515 4.389,-5.316 7.749,-5.04 v 0 c 1.465,-1.533 0.436,-4.611 -1.756,-5.449 v 0 c -1.314,-6.578 -8.327,-12.454 -14.323,-15.809 v 0 c -4.087,-3.358 -0.437,-8.537 0,-12.737 v 0 c -1.756,-2.095 -2.626,-5.031 -2.773,-7.409 v 0 c 4.964,-1.399 8.031,-7.556 13.296,-8.671 v 0 c 5.707,-6.158 13.744,-9.653 22.809,-8.119 v 0 c 1.008,-0.274 2.253,-0.172 3.511,-0.069 v 0 c 2.57,0.21 5.199,0.419 5.992,-2.584 v 0 c -2.048,-6.296 0.576,-13.569 -0.44,-19.725 v 0 c -0.15,-4.76 5.405,-4.616 8.478,-6.438 v 0 c 0.723,-4.055 7.3,-7.698 3.07,-12.026 v 0 c 1.6,0.054 3.032,-0.534 4.412,-1.122 v 0 c 2.023,-0.862 3.937,-1.724 6.112,-0.56 v 0 c 13.149,18.743 19.586,40.71 19.291,64.352 v 0 c 1.466,23.503 -5.548,44.486 -11.545,65.469 v 0 c -5.261,14.124 -13.599,27.137 -22.801,39.727 v 0 c -16.699,20.869 -40.935,37.367 -68.733,37.367 v 0 c -4.812,-0.001 -9.734,-0.495 -14.74,-1.547" /></g></g></g></g><g
       id="g350"><g
         clip-path="url(#clipPath356)"
         id="g352"><g
           transform="translate(294.0225,440.6982)"
           id="g358"><path
             id="path360"
             style="fill:#231f20;fill-opacity:1;fill-rule:nonzero;stroke:none"
             d="m 0,0 c -1.461,0.283 -2.489,-0.138 -3.51,-0.977 0.147,-1.259 1.461,-2.939 0,-4.057 -2.776,0.984 -6.576,0.704 -8.768,-1.68 -1.168,0 -2.923,-0.139 -2.777,1.401 0,0.7 -0.146,1.542 0.29,1.957 3.655,0 6.724,0.981 9.797,2.099 -1.465,0.565 -1.318,2.519 -0.294,3.355 C -3.653,0.839 1.021,3.222 0,0" /></g><g
           transform="translate(348.6973,437.0605)"
           id="g362"><path
             id="path364"
             style="fill:#231f20;fill-opacity:1;fill-rule:nonzero;stroke:none"
             d="m 0,0 c 0.434,-0.692 -0.448,-1.253 -1.032,-1.396 -3.353,1.677 -7.447,1.541 -11.25,2.376 -0.584,1.681 1.023,1.681 1.748,2.376 C -6.73,2.801 -2.347,2.103 0,0" /></g><g
           transform="translate(285.541,431.748)"
           id="g366"><path
             id="path368"
             style="fill:#231f20;fill-opacity:1;fill-rule:nonzero;stroke:none"
             d="m 0,0 v -1.398 c -4.087,-0.563 -10.083,0.277 -12.862,-3.352 -1.899,-0.563 -3.067,0.555 -2.483,2.371 C -11.397,0.419 -5.846,0 -1.021,0.979 -0.58,0.558 -0.29,0.278 0,0" /></g><g
           transform="translate(361.6992,428.9473)"
           id="g370"><path
             id="path372"
             style="fill:#231f20;fill-opacity:1;fill-rule:nonzero;stroke:none"
             d="m 0,0 c 0,-0.695 0.15,-1.536 -0.728,-1.949 -5.412,1.675 -11.114,3.629 -17.54,2.371 -1.024,0.417 -1.024,2.101 0,2.657 C -11.251,4.061 -5.846,1.541 0,0" /></g><g
           transform="translate(280.7227,425.5928)"
           id="g374"><path
             id="path376"
             style="fill:#231f20;fill-opacity:1;fill-rule:nonzero;stroke:none"
             d="m 0,0 c -1.465,-2.942 -7.021,-2.377 -10.229,-4.335 -2.056,-0.429 -1.903,-3.636 -4.539,-2.661 -1.168,0.42 -0.58,1.544 -0.727,2.381 4.535,2.515 9.202,4.897 14.762,5.311 C -0.44,0.416 -0.293,0.282 0,0" /></g><g
           transform="translate(371.5029,419.2959)"
           id="g378"><path
             id="path380"
             style="fill:#231f20;fill-opacity:1;fill-rule:nonzero;stroke:none"
             d="M 0,0 C 0.283,-0.835 -0.154,-1.674 -1.028,-1.674 -6.587,-0.138 -13.307,3.919 -19.303,0 -19.887,0.42 -20.037,0.979 -19.887,1.682 -13.895,6.579 -5.702,2.52 0,0" /></g><g
           transform="translate(277.2129,419.2959)"
           id="g382"><path
             id="path384"
             style="fill:#231f20;fill-opacity:1;fill-rule:nonzero;stroke:none"
             d="m 0,0 c 0.29,-2.657 -2.783,-1.398 -3.951,-2.657 -3.499,-1.257 -7.887,-1.958 -9.789,-5.452 -1.025,0.134 -2.629,-0.421 -2.777,0.973 -0.296,1.261 0.442,1.123 0.728,2.104 C -10.671,-3.22 -5.56,0.845 0,0" /></g><g
           transform="translate(274.7305,413.5605)"
           id="g386"><path
             id="path388"
             style="fill:#231f20;fill-opacity:1;fill-rule:nonzero;stroke:none"
             d="m 0,0 c 0.144,-0.976 -1.175,-1.958 -2.052,-1.958 -5.115,-1.394 -9.646,-3.916 -14.471,-5.735 0.147,-1.537 -1.315,-3.082 -2.773,-3.359 -1.024,0 -3.217,-0.414 -2.485,1.263 v 1.117 c 6.722,3.776 13.446,7.55 21.047,9.375 C -0.44,0.422 -0.301,0.283 0,0" /></g><g
           transform="translate(380.7051,408.8027)"
           id="g390"><path
             id="path392"
             style="fill:#231f20;fill-opacity:1;fill-rule:nonzero;stroke:none"
             d="m 0,0 c 0.437,-0.978 -1.171,-2.232 -1.755,-1.953 -5.553,2.232 -11.401,5.735 -17.978,3.359 -1.899,0.698 -0.877,2.655 0.437,3.352 C -12.279,4.618 -5.71,2.664 0,0" /></g><g
           transform="translate(270.9268,407.8252)"
           id="g394"><path
             id="path396"
             style="fill:#231f20;fill-opacity:1;fill-rule:nonzero;stroke:none"
             d="m 0,0 v -0.976 c -5.115,-3.641 -12.572,-4.34 -15.492,-10.076 -1.465,-0.973 -2.486,-2.237 -4.534,-1.677 -0.874,0.704 0,1.677 0.294,2.378 5.408,4.335 11.547,7.414 17.243,11.053 C -1.602,0.562 -0.434,1.118 0,0" /></g><g
           transform="translate(387.2852,398.1738)"
           id="g398"><path
             id="path400"
             style="fill:#231f20;fill-opacity:1;fill-rule:nonzero;stroke:none"
             d="m 0,0 c 0,-0.845 0.29,-1.682 -0.588,-2.098 -4.824,1.535 -9.503,5.596 -15.194,3.077 -1.469,0 -3.077,1.956 -1.325,3.356 C -10.671,4.611 -4.679,2.935 0,0" /></g><g
           transform="translate(266.249,400.1299)"
           id="g402"><path
             id="path404"
             style="fill:#231f20;fill-opacity:1;fill-rule:nonzero;stroke:none"
             d="m 0,0 c -3.947,-4.197 -11.545,-6.155 -14.321,-11.751 -1.028,-0.695 -2.196,-2.797 -4.241,-1.956 -0.444,0.561 -0.444,1.677 0,2.241 5.409,4.054 10.52,8.665 16.226,11.754 C -1.608,0.288 -0.581,0.563 0,0" /></g><g
           transform="translate(265.668,394.3965)"
           id="g406"><path
             id="path408"
             style="fill:#231f20;fill-opacity:1;fill-rule:nonzero;stroke:none"
             d="m 0,0 v -0.979 c -5.269,-4.476 -11.698,-6.853 -16.96,-11.466 3.801,-1.686 -1.752,-3.08 -3.066,-3.642 -4.098,2.237 4.09,6.292 6.576,8.392 4.385,2.381 8.332,6.016 12.717,8.394 C -0.44,0.421 -0.293,0.277 0,0" /></g><g
           transform="translate(392.5469,388.0996)"
           id="g410"><path
             id="path412"
             style="fill:#231f20;fill-opacity:1;fill-rule:nonzero;stroke:none"
             d="m 0,0 c 0,-0.843 0.283,-1.677 -0.591,-2.1 -4.671,1.684 -9.5,6.855 -14.468,3.357 -0.874,-0.275 -1.461,0.564 -2.048,0.983 -0.14,1.116 0,2.099 1.021,2.801 C -10.233,5.317 -4.531,3.64 0,0" /></g><g
           transform="translate(395.7598,380.2656)"
           id="g414"><path
             id="path416"
             style="fill:#231f20;fill-opacity:1;fill-rule:nonzero;stroke:none"
             d="m 0,0 c -0.874,-5.594 -4.527,1.958 -7.308,1.398 -1.755,0.142 -3.95,-0.275 -4.974,1.679 0.297,4.902 6.87,-0.557 10.24,-1.391 C -1.608,0.841 -0.587,0.974 0,0" /></g><g
           transform="translate(263.9131,384.3252)"
           id="g418"><path
             id="path420"
             style="fill:#231f20;fill-opacity:1;fill-rule:nonzero;stroke:none"
             d="m 0,0 c -3.217,-3.778 -8.188,-6.575 -12.285,-9.375 0.59,-3.356 -3.504,-2.801 -4.965,-4.753 -0.734,0 -1.902,0.138 -1.469,1.113 v 0.981 c 5.122,4.901 11.408,6.852 16.23,12.452 C -1.755,0.276 -0.734,0.56 0,0" /></g><g
           transform="translate(395.7598,375.2314)"
           id="g422"><path
             id="path424"
             style="fill:#231f20;fill-opacity:1;fill-rule:nonzero;stroke:none"
             d="m 0,0 c 0.591,-3.082 -3.356,-1.264 -4.527,-0.281 -2.637,1.54 -4.976,-1.821 -5.266,1.963 1.318,2.374 4.817,1.535 6.58,0.695 C -2.188,1.536 -0.437,1.536 0,0" /></g><g
           transform="translate(262.7422,376.9131)"
           id="g426"><path
             id="path428"
             style="fill:#231f20;fill-opacity:1;fill-rule:nonzero;stroke:none"
             d="m 0,0 c -3.661,-3.636 -9.793,-6.578 -14.034,-10.634 2.633,1.395 2.339,-2.519 0,-2.377 -1.021,-0.28 -1.903,-0.982 -3.067,-0.707 -0.447,0.707 -0.587,1.124 -0.737,1.682 4.392,6.02 11.261,7.697 16.079,13.155 C -0.878,1.396 -0.584,0.416 0,0" /></g><g
           transform="translate(262.4482,369.2148)"
           id="g430"><path
             id="path432"
             style="fill:#231f20;fill-opacity:1;fill-rule:nonzero;stroke:none"
             d="m 0,0 c -2.192,-3.219 -6.724,-5.313 -7.744,-9.372 -2.049,-1.675 -4.388,-3.633 -7.017,-3.355 v 1.399 C -9.209,-8.252 -6.283,-1.677 -0.73,0.699 -0.434,0.423 -0.29,0.281 0,0" /></g><g
           transform="translate(265.2275,361.5205)"
           id="g434"><path
             id="path436"
             style="fill:#231f20;fill-opacity:1;fill-rule:nonzero;stroke:none"
             d="m 0,0 c -6.727,-5.174 -16.226,-9.515 -20.033,-17.764 -1.454,0 -1.018,1.954 -0.58,2.656 4.681,7.275 12.425,11.474 19.299,16.09 C -0.874,0.838 0,0.982 0,0" /></g></g></g><g
       id="g438"><g
         clip-path="url(#clipPath444)"
         id="g440"><g
           id="g446"><g
             id="g448"><path
               id="path462"
               style="fill:url(#linearGradient460);stroke:none"
               d="m 222.392,275.629 c 9.069,2.241 10.824,11.607 13.746,18.467 v 0 c -1.755,1.115 -1.314,3.073 -1.46,5.035 v 0 c 4.674,2.798 12.278,1.958 13.736,8.391 v 0 c -4.968,6.018 -1.314,15.667 -8.765,20.704 v 0 c -7.748,6.716 -17.838,13.009 -19.009,23.92 v 0 c 0.147,3.221 -4.527,4.618 -3.8,7.975 v 0 c -9.79,-26.019 -9.936,-60.57 5.552,-84.492" /></g></g></g></g><g
       id="g464"><g
         clip-path="url(#clipPath470)"
         id="g466"><g
           transform="translate(441.2881,292.7256)"
           id="g472"><path
             id="path474"
             style="fill:#231f20;fill-opacity:1;fill-rule:nonzero;stroke:none"
             d="m 0,0 c 4.653,-5.144 -0.008,-12.821 6.887,-17.086 -1.528,-5.465 0.22,-11.485 -3.017,-16.411 5.171,-2.99 10.338,3.23 15.667,0.346 5.063,1.384 10.492,3.335 15.754,2.951 0.317,-0.427 0.748,-0.878 1.063,-1.301 -1.721,-6.553 -4.5,-13.174 -2.5,-19.984 -1.465,-7.972 -5.367,-16.52 -14.467,-19.342 -4.029,0.049 -7.797,-4.912 -12.052,-1.213 -2.867,-2.126 -6.772,-0.728 -9.758,-0.717 -1.451,-1.503 -0.727,-3.244 -0.665,-4.996 -3.733,-3.356 -9.303,-7.527 -14.897,-6.828 -4.703,-2.943 -8.429,-7.671 -11.94,-11.93 -0.062,-6.718 -1.489,-12.32 -4.195,-17.837 -4.759,-3.3 -9.681,-9.573 -16.575,-6.797 -2.648,0.448 -3.161,-1.58 -4.606,-3.077 -6.01,1.252 -9.167,-3.195 -14.467,-4.412 -1.405,-0.637 -3.157,-3.084 -4.912,-1.293 -1.591,5.496 1.353,12.341 -3.129,16.949 -0.063,1.755 0.014,3.602 -0.052,5.357 -3.826,1.14 -10.506,0.146 -11.828,4.985 -2.171,0.231 -4.224,1.819 -5.891,3.35 -0.99,3.146 1.157,7.02 -2.644,8.286 -0.542,0.58 -1.017,1.534 -0.146,2.014 4.083,0.307 1.733,5.184 5.24,6.58 -0.741,2.367 1.486,3.859 1.759,6.055 3.626,0.629 0.556,3.762 4.44,4.349 0.5,1.287 1.161,2.798 2.762,3.024 1.954,-0.71 1.413,-2.23 2.447,-3.653 -2.653,-1.042 -1.083,-6.657 -5.558,-4.783 -0.689,-0.259 -1.053,-0.817 -1.186,-1.545 0.525,-2.077 2.819,-0.224 2.896,-2.602 -3.039,-0.978 -0.826,-5.96 -5.221,-5.09 -1.821,-3.555 6.192,-2.412 1.444,-5.601 0.538,-0.587 2.507,-1.916 1.029,-2.909 -1.399,-0.51 -1.616,-1.72 -1.847,-2.922 1.21,-1.944 4.927,-0.826 5.069,-3.595 2.004,-1.832 6.095,-1.517 7.465,-3.244 1.885,5.286 1.252,12.482 6.783,16.407 3.024,2.976 7.17,5.759 11.499,5.284 1.93,4.153 1.406,9.097 -1.252,13.03 -3.374,-0.678 -2.268,4.604 -5.632,3.311 -1.283,1.461 -3.182,-0.339 -5.024,0.22 -0.139,-3.584 -3.639,-0.011 -5.122,-2.374 -2.856,0.731 -5.472,-2.192 -7.146,1.447 0.611,2.637 3.706,-0.37 4.653,1.958 4.178,-3.44 3.35,2.671 6.601,3.37 2.423,-1.656 8.122,3.861 6.783,-2.013 0.947,0.217 1.912,-0.196 2.591,0.685 -4.671,2.903 1.52,6.842 -0.874,10.105 -1.448,1.985 -5.301,3.007 -3.591,5.957 -4.944,2.07 -5.542,8.02 -11.154,9.339 -9.089,7.87 -2.524,18.841 -0.734,27.868 2.074,3.511 5.371,7.317 9.821,8.184 0.647,1.381 2.385,3.088 3.892,2.081 1.356,3.88 4.29,7.119 8.687,8.372 2.808,-0.972 6.182,-3.158 6.368,-6.421 -0.7,-2.37 0.458,-4.556 2.254,-6.105 4,-0.175 2.952,-4.481 4.361,-6.706 -0.584,-1.768 1.873,-2.552 2.765,-4.072 1.664,-4.392 2.066,-9.304 2.364,-14.08 2.093,6.489 4.069,12.999 8.618,17.957 3.548,5.125 10.443,4.468 15.849,6.293 0.422,0.181 0.292,-0.538 0.838,-0.385 3.822,1.721 7.524,3.458 11.548,5.524 C -1.256,0.202 -0.623,0.102 0,0" /></g><g
           transform="translate(438.5537,276.3906)"
           id="g476"><path
             id="path478"
             style="fill:#ffffff;fill-opacity:1;fill-rule:nonzero;stroke:none"
             d="m 0,0 c -3.217,-1.957 -7.224,-1.783 -10.681,-0.832 -1.674,0.791 -2.842,2.973 -1.798,4.42 3.595,3.251 7.623,6.797 12.528,8.712 C 2.943,8.954 0.986,3.934 0,0" /></g><g
           transform="translate(386.1904,297.1357)"
           id="g480"><path
             id="path482"
             style="fill:#ffffff;fill-opacity:1;fill-rule:nonzero;stroke:none"
             d="m 0,0 c 0.133,-4.257 2.748,-8.435 1.168,-12.767 -2.87,-1.513 -5.912,-1.748 -9.153,-1.702 -0.206,0.283 -0.392,0.693 -0.724,0.996 C -7.454,-8.711 -6.643,-0.753 0,0" /></g><g
           transform="translate(421.9189,280.6699)"
           id="g484"><path
             id="path486"
             style="fill:#f6bf29;fill-opacity:1;fill-rule:nonzero;stroke:none"
             d="m 0,0 c -0.889,-3.461 2.957,-5.846 5.048,-7.939 2.714,-2.2 6.038,-0.395 9.122,-1.28 1.062,1.556 2.821,2.633 4.668,1.324 1.846,0.186 3.813,7.326 3.331,1.186 -1.702,-2.202 -0.311,-5.926 -2.79,-8.114 -9.269,-0.931 -19.624,1.426 -25.994,7.844 -2.406,3.148 0.059,5.973 2.185,8.346 2.524,0.319 4.888,1.172 7.328,2.378 C 1.881,3.168 0.766,1.367 0,0" /></g><g
           transform="translate(392.5293,278.5166)"
           id="g488"><path
             id="path490"
             style="fill:#f6bf29;fill-opacity:1;fill-rule:nonzero;stroke:none"
             d="m 0,0 c -3.668,-5.104 -10.87,-7.503 -16.8,-6.503 -3.038,-2.356 -6.926,0.538 -9.866,0.787 -3.392,2.807 3.119,4.947 -0.073,8.097 1.328,3.014 3.874,4.821 6.793,6.573 -0.654,-2.87 1.307,-4.947 3.44,-6.801 4.244,-3.072 9.468,-0.839 13.894,0.644 1.626,1.105 1.486,3.119 2.426,4.703 C 2.682,5.401 -1.031,2.912 0,0" /></g><g
           transform="translate(392.8613,256.9346)"
           id="g492"><path
             id="path494"
             style="fill:#f6bf29;fill-opacity:1;fill-rule:nonzero;stroke:none"
             d="m 0,0 c -0.192,-0.965 0.797,-1.996 1.874,-1.808 1.947,0.671 4.073,0.189 3.332,-2.426 0.014,-1.993 -2.944,0.993 -3.828,-1.72 0.905,-3.51 1.279,-7.189 2.744,-10.538 5.339,-3.517 -2.664,-8.139 1.57,-11.964 0.965,-1.153 2.154,-1.727 3.689,-1.863 0.684,0.877 2.083,1.391 1.797,2.685 -2.815,0.968 -3.542,4.08 -1.717,6.258 4.129,1.923 4.846,7.275 4.507,10.32 4.722,-1.171 10.961,-0.478 13.4,-4.866 -2.097,-1.517 -1.388,-6.111 -4.408,-5.604 -2.916,-3.126 -5.178,-9.083 -10.877,-8.251 -0.514,-1.406 0.42,-2.686 1.412,-3.595 4.168,-1.447 7.569,2.207 9.385,5.014 0.15,0.846 0.877,1.223 1.258,1.906 1.626,-1.77 3.039,-4.004 5.947,-3.741 1.203,0.919 1.482,1.744 1.234,3.157 -0.035,1.992 -3.535,1.335 -2.454,3.642 3.895,-1.405 3.716,3.987 6.579,4 4.77,4.049 2.823,-4.46 6.815,-5.377 1.909,-0.196 3.772,-2.132 5.493,-0.545 -0.077,3.867 -6.79,3.37 -5.93,8.083 2.032,3.265 -3.23,4.398 -1.066,7.643 -0.469,1.706 -2.818,2.342 -3.451,0.328 -1.028,-2.055 -3.731,-3.349 -5.964,-3.467 -3.154,1.272 -6.987,0.922 -9.545,3.964 -3.238,0.797 -7.545,0.021 -9.034,3.258 0.126,1.357 0.349,2.553 1.741,3.07 1.615,-0.395 3.118,-2.14 4.855,-1.189 1.078,0.192 0.616,1.266 1,1.947 -2.209,2.113 -6.74,2.248 -6.405,6.182 1.325,3.633 1.448,8.59 4.004,11.891 6.038,-7.482 16.082,-11.538 25.963,-11.58 1.262,0.539 2.863,0.762 4.14,-0.073 0.475,-5.927 -16.528,-9.297 -4.056,-13.625 1.202,2.28 4.762,1.182 4.863,4.531 0.797,1.483 2.542,1.063 3.773,2.105 -0.913,-4.947 1.045,-9.132 3.555,-13.167 2.388,-1.898 4.755,-3.908 7.444,-5.489 4.111,-0.308 7.695,-2.032 11.736,-1.968 -0.266,-3.564 -4.223,-6.011 -7.317,-7.979 -4.248,0.217 -9.006,-5.206 -12.342,-0.661 0.58,1.77 0.196,3.202 -0.465,4.56 -0.186,1.149 -1.443,0.615 -2.283,1 -3.098,-1.965 1.843,-9.766 -4.51,-7.573 -3.843,1.761 -8.202,4.237 -9.335,8.656 -0.451,1.818 -0.252,4.276 -2.412,5.259 -0.843,0.398 -1.423,-0.633 -2.119,-0.885 0.349,-5.164 2.405,-10.985 7.474,-13.827 -1.45,-2.241 -1.482,-5.228 -2.932,-7.465 -6.717,-4.724 -15.181,-4.797 -23.146,-5.695 -1.975,0.58 -3.524,2.086 -4.342,3.964 0.136,1.468 3.612,1.262 2.196,3.49 -2.72,4.31 -6.235,-0.697 -9.8,-0.965 -3.748,0.126 -8.825,-0.637 -10.957,3.328 -0.812,3.377 -3.046,7.482 2.751,7.881 1.29,1.398 4.175,1.538 3.447,3.901 -0.454,1.819 -2.241,1.245 -3.427,1.199 -2.299,-0.493 -4.589,-4.454 -6.918,-1.577 -0.371,1.557 0.881,4.077 0.433,5.903 1.161,3.531 -9.22,7.894 -0.465,8.789 1.507,-0.252 1.214,1.664 0.962,2.451 -3.203,2.402 -9.255,-3.675 -9.943,3.164 3.038,-1.133 6.974,-1.675 8.164,1.986 0.552,0.902 -0.522,1.454 -0.885,2.262 -4.394,-3.363 -10.024,0.692 -14.523,0.951 -3.203,3.769 -4.28,8.562 -2.399,13.838 5.318,-0.766 11.499,-3.923 16.708,-1.062 6.031,0.23 13.678,1.551 16.618,7.652 C 5.863,12.831 6.275,5.171 0,0" /></g><g
           transform="translate(472.457,258.4863)"
           id="g496"><path
             id="path498"
             style="fill:#ffffff;fill-opacity:1;fill-rule:nonzero;stroke:none"
             d="m 0,0 c -1.154,-4.164 -1.234,-10.243 -7.161,-11.362 -1.433,-0.752 -3.265,-0.822 -5.01,-0.403 -1.478,1.868 -4.233,4.574 -1.269,6.56 C -9.657,-1.611 -4.86,-0.297 0,0" /></g><g
           transform="translate(456.5176,256.6865)"
           id="g500"><path
             id="path502"
             style="fill:#f6bf29;fill-opacity:1;fill-rule:nonzero;stroke:none"
             d="m 0,0 c -1.409,-2.748 -4.79,-6.286 -0.776,-9.195 2.216,-4.238 7.761,-5.167 11.95,-4.377 1.087,0.314 2.003,1.034 2.891,1.629 1.248,-1.706 -0.916,-3.58 -1.958,-5.025 -3.993,-3.31 -8.674,0.214 -13.212,0.98 -3.944,1.905 -6.048,6.74 -5.814,10.806 C -6.476,-2.021 -2.902,-0.259 0,0" /></g><g
           transform="translate(402.6084,255.5391)"
           id="g504"><path
             id="path506"
             style="fill:#ffffff;fill-opacity:1;fill-rule:nonzero;stroke:none"
             d="m 0,0 c -0.919,0.658 -1.213,2.577 -2.237,3.371 0.601,1.143 1.049,2.185 1.65,3.328 C 0.066,4.598 2.947,1.874 0,0" /></g><g
           transform="translate(430.8379,240.7227)"
           id="g508"><path
             id="path510"
             style="fill:#ffffff;fill-opacity:1;fill-rule:nonzero;stroke:none"
             d="M 0,0 C -0.867,-0.476 -2.385,1.15 -0.741,1.615 0.314,1.688 -0.161,0.524 0,0" /></g><g
           transform="translate(401.6895,242.0156)"
           id="g512"><path
             id="path514"
             style="fill:#ffffff;fill-opacity:1;fill-rule:nonzero;stroke:none"
             d="M 0,0 C -0.188,-0.342 -0.825,-0.241 -0.881,0.147 -1.863,1.182 0.528,4.266 0.374,2.049 0.245,1.329 0.112,0.599 0,0" /></g><g
           transform="translate(404.5107,207.8164)"
           id="g516"><path
             id="path518"
             style="fill:#f6bf29;fill-opacity:1;fill-rule:nonzero;stroke:none"
             d="m 0,0 c 1.622,-4.633 15.618,1.485 6.335,-5.92 -2.213,-2.115 -4.863,-3.786 -5.534,-6.779 4.104,-1.685 1.703,-7.006 1.611,-9.608 -1.433,-4.985 -6.726,-8.328 -11.614,-10.859 -7.472,-0.37 -15.027,0.28 -21.027,4.405 -3.104,4.378 -6.499,8.552 -4.726,13.979 2.58,-0.805 6.981,-5.154 9.506,-1.35 -0.735,2.37 -3.986,3.782 -6.216,5.034 0.35,2.678 2.038,4.762 3.716,6.839 2.794,-3.21 2.685,-10.16 8.668,-10.167 5.771,0.273 14.446,-4.175 17.159,2.839 0.213,0.461 0.077,1.853 -0.902,2.147 -4.741,-4.552 -11.657,-1.154 -17.135,-1.231 -0.996,0.916 -0.927,2.027 -1.93,2.937 4.213,2.402 4.797,8.398 5.276,13.173 3.535,-1.338 8.38,-2.531 11.954,-0.761 C -2.423,3.765 -2.272,1.006 0,0" /></g><g
           transform="translate(381.6592,171.8398)"
           id="g520"><path
             id="path522"
             style="fill:#f6bf29;fill-opacity:1;fill-rule:nonzero;stroke:none"
             d="m 0,0 c -3.44,-1.035 -7.804,-0.057 -10.527,2.14 -1.143,2.307 -4.322,4.09 -3.43,6.803 C -10.978,3.957 -5.174,2.244 0,0" /></g><g
           transform="translate(372.9854,169.1895)"
           id="g524"><path
             id="path526"
             style="fill:#ffffff;fill-opacity:1;fill-rule:nonzero;stroke:none"
             d="M 0,0 C -0.329,-1.063 -1.93,-1.294 -2.986,-1.363 -3.885,-0.588 -3.381,0.692 -2.87,1.356 -1.909,0.944 -1.133,0.188 0,0" /></g><g
           transform="translate(294.5508,158.2324)"
           id="g528"><path
             id="path530"
             style="fill:#231f20;fill-opacity:1;fill-rule:nonzero;stroke:none"
             d="m 0,0 c -2.993,3.95 -4.601,9.853 -9.304,12.727 -0.675,0.419 -1.412,0.768 -2.223,1.048 -3.804,1.986 -8.625,3.475 -12.615,1.797 -3.129,3.434 -4.15,8.3 -2.825,12.803 l 0.168,6.965 c 3.57,4.091 -3.559,6.104 -2.276,9.901 0.78,2.304 4.137,4.363 1.601,6.698 4.087,3.378 2.826,9.231 7.78,12.07 6.268,10.087 -3.385,18.722 -7.87,26.847 -3.067,2.766 -7.395,5.472 -11.912,5.045 -1.042,1.14 -3.223,2.277 -4.36,0.899 -2.489,3.325 -6.293,5.584 -10.877,5.542 -2.388,-1.717 -4.936,-4.762 -4.107,-7.93 1.394,-2.069 0.958,-4.482 -0.277,-6.468 -3.769,-1.29 -1.44,-5.115 -2.105,-7.635 1.108,-1.532 -0.999,-2.969 -1.384,-4.671 -0.238,-4.671 0.892,-9.483 2.076,-14.125 -3.999,5.615 -7.887,11.278 -13.767,14.733 -4.969,3.899 -11.349,1.321 -17.083,1.545 -0.455,0.056 -0.112,-0.602 -0.679,-0.608 -4.188,0.566 -8.258,1.185 -12.736,2.024 -0.57,-0.283 -1.143,-0.556 -1.71,-0.832 -2.864,-6.227 3.951,-12.251 -1.318,-18.271 3.143,-4.793 3.322,-11.038 7.936,-14.834 -4.017,-4.308 -10.876,0.173 -15.079,-4.084 -5.269,-0.098 -11.055,0.237 -15.964,-1.623 -0.168,-0.489 -0.44,-1.048 -0.611,-1.538 3.66,-5.776 8.355,-11.321 8.534,-18.39 3.856,-7.209 10.223,-14.279 19.785,-14.412 3.828,1.182 8.964,-2.496 11.89,2.245 3.395,-1.224 6.693,1.21 9.545,2.062 1.846,-1.034 1.693,-2.887 2.168,-4.593 4.605,-2.147 11.212,-4.56 16.341,-2.315 5.405,-1.482 10.419,-4.958 15.087,-8.034 2.129,-6.399 5.205,-11.349 9.492,-15.866 5.57,-1.812 12.201,-6.419 17.943,-1.819 2.391,1.168 3.5,-0.622 5.342,-1.642 5.356,2.887 9.744,-0.469 15.18,-0.133 1.546,-0.217 3.969,-2.056 5.088,0.146 -0.165,5.7 -5.084,11.413 -2.217,17.083 -0.479,1.685 -1.126,3.433 -1.601,5.132" /></g><g
           transform="translate(195.7085,221.7656)"
           id="g532"><path
             id="path534"
             style="fill:#ffffff;fill-opacity:1;fill-rule:nonzero;stroke:none"
             d="m 0,0 c 3.678,-0.958 7.451,0.336 10.468,2.224 1.356,1.223 1.797,3.629 0.353,4.723 C 6.388,9.041 1.448,11.297 -3.832,11.744 -5.573,7.727 -2.146,3.482 0,0" /></g><g
           transform="translate(239.3623,256.3574)"
           id="g536"><path
             id="path538"
             style="fill:#ffffff;fill-opacity:1;fill-rule:nonzero;stroke:none"
             d="m 0,0 c 1.182,-4.104 -0.027,-8.831 2.818,-12.53 3.206,-0.637 6.182,0 9.265,0.954 0.112,0.329 0.161,0.773 0.389,1.157 C 9.801,-6.22 6.58,1.154 0,0" /></g><g
           transform="translate(210.2881,230.5557)"
           id="g540"><path
             id="path542"
             style="fill:#f6bf29;fill-opacity:1;fill-rule:nonzero;stroke:none"
             d="m 0,0 c 1.919,-3.056 -1.028,-6.423 -2.377,-9.017 -1.916,-2.867 -5.65,-2.081 -8.329,-3.796 -1.493,1.188 -3.503,1.719 -4.863,-0.053 -1.825,-0.343 -5.902,5.929 -3.549,0.195 2.301,-1.622 2.116,-5.572 5.164,-6.968 9.143,1.724 18.313,6.899 22.422,14.827 C 9.8,-1.13 6.58,0.881 3.811,2.549 1.301,2.14 -1.221,2.286 -3.923,2.755 -2.769,2.489 -1.154,1.08 0,0" /></g><g
           transform="translate(239.041,236.7783)"
           id="g544"><path
             id="path546"
             style="fill:#f6bf29;fill-opacity:1;fill-rule:nonzero;stroke:none"
             d="m 0,0 c 5.076,-3.846 12.691,-4.104 18.055,-1.476 3.622,-1.398 6.447,2.465 9.18,3.532 2.374,3.636 -4.499,3.849 -2.419,7.758 -2.199,2.5 -5.188,3.521 -8.513,4.364 C 17.81,11.622 16.575,9.084 15.104,6.713 11.999,2.581 6.324,3.238 1.629,3.413 -0.266,4.007 -0.748,5.976 -2.133,7.22 -4.23,4.405 0.087,3.077 0,0" /></g><g
           transform="translate(245.3652,216.0596)"
           id="g548"><path
             id="path550"
             style="fill:#f6bf29;fill-opacity:1;fill-rule:nonzero;stroke:none"
             d="m 0,0 c 0.476,-0.87 -0.146,-2.136 -1.233,-2.258 -2.064,0.098 -3.945,-0.966 -2.438,-3.259 0.598,-1.905 2.504,1.784 4.186,-0.559 0.216,-3.612 0.992,-7.231 0.629,-10.845 -4.025,-4.86 5.042,-7.028 2.174,-11.874 -0.559,-1.384 -1.524,-2.258 -2.958,-2.824 -0.916,0.649 -2.412,0.741 -2.538,2.062 2.392,1.72 2.133,4.895 -0.287,6.468 -4.534,0.672 -6.873,5.58 -7.477,8.587 -4.151,-2.447 -10.332,-3.545 -11.311,-8.426 2.468,-0.86 3.202,-5.454 5.937,-4.111 3.748,-2.168 7.747,-7.224 12.932,-4.825 0.926,-1.196 0.423,-2.678 -0.245,-3.839 -3.527,-2.552 -7.905,-0.014 -10.51,2.153 -0.409,0.763 -1.21,0.924 -1.786,1.462 -1.007,-2.14 -1.672,-4.671 -4.531,-5.244 -1.434,0.531 -1.958,1.244 -2.147,2.671 -0.581,1.909 2.961,2.265 1.224,4.167 -3.294,-2.441 -4.786,2.763 -7.52,1.965 -5.808,2.532 -1.332,-5.056 -4.864,-7.055 -1.761,-0.734 -2.944,-3.104 -5.076,-2.077 -1.119,3.72 5.453,5.146 3.178,9.405 -2.947,2.552 1.73,5.111 -1.329,7.601 -0.087,1.761 1.969,3.035 3.192,1.286 1.615,-1.678 4.602,-2.14 6.769,-1.629 2.615,2.098 6.387,2.846 7.894,6.476 2.854,1.677 7.209,2.149 7.629,5.66 -0.528,1.261 -1.111,2.345 -2.608,2.451 -1.419,-0.843 -2.315,-2.931 -4.269,-2.511 -1.087,-0.119 -0.982,1.035 -1.562,1.573 1.467,2.643 5.751,4.056 4.222,7.716 -2.383,3.102 -4.027,7.801 -7.485,10.237 -3.468,-8.855 -11.82,-15.561 -21.243,-18.386 -1.374,0.154 -2.975,-0.084 -3.94,-1.238 1.374,-5.796 18.656,-4.223 8.076,-11.88 -1.853,1.846 -4.919,-0.21 -6.045,2.964 -1.213,1.197 -2.751,0.301 -4.247,0.945 2.391,-4.469 1.807,-9.021 0.649,-13.586 -1.695,-2.483 -3.335,-5.077 -5.422,-7.343 -3.828,-1.454 -6.724,-4.104 -10.611,-5.188 1.353,-3.335 5.887,-4.559 9.45,-5.559 3.997,1.398 10.213,-2.434 11.999,2.846 -1.101,1.524 -1.171,3 -0.958,4.489 -0.178,1.146 1.192,0.993 1.871,1.595 3.566,-1 1.244,-9.846 6.639,-5.958 3.133,2.761 6.538,6.356 6.261,10.901 -0.132,1.867 -1.076,4.153 0.683,5.706 0.682,0.615 1.556,-0.203 2.297,-0.252 1.251,-5.035 1.084,-11.167 -2.889,-15.32 2.081,-1.735 3.029,-4.573 5.106,-6.308 7.873,-2.615 15.984,-0.294 23.872,1.084 1.706,1.112 2.72,2.986 2.93,5.021 -0.587,1.363 -3.839,0.181 -3.175,2.706 1.265,4.887 6.168,1.097 9.664,1.845 3.538,1.175 8.629,1.881 9.446,6.273 -0.266,3.454 0.606,8.007 -5.056,6.755 -1.67,0.971 -4.467,0.287 -4.492,2.755 -0.136,1.86 1.759,1.825 2.906,2.112 2.342,0.182 5.754,-2.965 7.097,0.44 -0.133,1.594 -2.101,3.65 -2.234,5.517 -2.206,3.049 6.374,10.139 -2.262,8.534 -1.36,-0.668 -1.675,1.248 -1.679,2.067 2.322,3.199 9.972,-0.899 8.532,5.825 -2.553,-1.938 -6.147,-3.563 -8.413,-0.399 -0.811,0.706 0.042,1.532 0.154,2.406 5.234,-1.973 9.356,3.489 13.58,5.006 1.905,4.51 1.454,9.391 -1.969,13.901 C 19.523,18.656 14.59,13.891 8.734,15.153 2.898,13.678 -4.817,12.782 -9.506,17.786 -9.559,10.608 -7.59,3.168 0,0" /></g><g
           transform="translate(168.8188,195.0967)"
           id="g552"><path
             id="path554"
             style="fill:#ffffff;fill-opacity:1;fill-rule:nonzero;stroke:none"
             d="m 0,0 c 2.388,-3.65 4.335,-9.44 10.338,-8.839 1.609,-0.314 3.378,0.148 4.923,1.028 0.832,2.203 2.636,5.566 -0.807,6.629 C 9.73,1.188 4.745,1.091 0,0" /></g><g
           transform="translate(184.6113,197.873)"
           id="g556"><path
             id="path558"
             style="fill:#f6bf29;fill-opacity:1;fill-rule:nonzero;stroke:none"
             d="m 0,0 c 2.189,-2.225 6.51,-4.657 3.566,-8.573 -0.811,-4.664 -5.824,-7.118 -10.062,-7.545 -1.14,-0.007 -2.237,0.42 -3.269,0.741 -0.674,-1.978 1.975,-3.16 3.416,-4.244 4.835,-2.042 8.223,2.65 12.328,4.656 3.174,2.938 3.699,8.14 2.23,11.972 C 6.811,-0.105 2.853,0.573 0,0" /></g><g
           transform="translate(236.4746,211.9795)"
           id="g560"><path
             id="path562"
             style="fill:#ffffff;fill-opacity:1;fill-rule:nonzero;stroke:none"
             d="M 0,0 C 0.682,0.892 0.371,2.808 1.108,3.85 0.175,4.772 -0.573,5.644 -1.493,6.563 -1.476,4.374 -3.388,0.958 0,0" /></g><g
           transform="translate(214.0635,189.8594)"
           id="g564"><path
             id="path566"
             style="fill:#ffffff;fill-opacity:1;fill-rule:nonzero;stroke:none"
             d="M 0,0 C 0.973,-0.21 1.927,1.769 0.214,1.748 -0.817,1.531 -0.007,0.545 0,0" /></g><g
           transform="translate(241.5195,199.3203)"
           id="g568"><path
             id="path570"
             style="fill:#ffffff;fill-opacity:1;fill-rule:nonzero;stroke:none"
             d="M 0,0 C 0.29,-0.273 0.864,0 0.794,0.385 1.416,1.646 -1.811,3.923 -0.989,1.846 -0.646,1.188 -0.29,0.535 0,0" /></g><g
           transform="translate(249.3477,165.833)"
           id="g572"><path
             id="path574"
             style="fill:#f6bf29;fill-opacity:1;fill-rule:nonzero;stroke:none"
             d="m 0,0 c -0.122,-4.881 -15.38,-2.979 -4.224,-7.433 2.756,-1.406 5.812,-2.252 7.374,-4.916 -3.405,-2.776 0.532,-7.188 1.416,-9.635 2.906,-4.364 8.993,-6.063 14.447,-7.112 7.251,1.763 14.271,4.503 18.736,10.147 1.619,5.048 3.573,9.999 0.206,14.683 -2.216,-1.496 -5.09,-6.901 -8.667,-3.971 -0.02,2.475 2.65,4.741 4.395,6.566 -1.161,2.454 -3.412,3.972 -5.654,5.489 -1.688,-3.853 0.556,-10.467 -5.157,-12.16 -5.601,-1.371 -12.516,-8.055 -17.27,-2.119 -0.343,0.371 -0.644,1.741 0.209,2.294 5.929,-3.014 11.485,2.182 16.747,3.65 0.664,1.167 0.258,2.203 0.937,3.356 -4.766,1.105 -7.168,6.678 -9.1,11.104 C 11.433,7.671 7.164,5.16 3.21,5.846 1.161,4.286 1.871,1.608 0,0" /></g><g
           transform="translate(282.2617,137.8984)"
           id="g576"><path
             id="path578"
             style="fill:#f6bf29;fill-opacity:1;fill-rule:nonzero;stroke:none"
             d="m 0,0 c 3.607,-0.021 7.485,2.146 9.401,5.014 0.385,2.523 2.874,5.132 1.192,7.467 C 9.271,6.88 4.262,3.601 0,0" /></g><g
           transform="translate(291.3721,137.8145)"
           id="g580"><path
             id="path582"
             style="fill:#ffffff;fill-opacity:1;fill-rule:nonzero;stroke:none"
             d="M 0,0 C 0.637,-0.923 2.241,-0.692 3.273,-0.462 3.889,0.531 3.018,1.622 2.325,2.104 1.532,1.44 1.021,0.503 0,0" /></g><g
           transform="translate(348.7461,399.7119)"
           id="g584"><path
             id="path586"
             style="fill:#231f20;fill-opacity:1;fill-rule:nonzero;stroke:none"
             d="m 0,0 c 16.936,8.786 38.948,4.395 58.415,4.994 9.342,-1.204 18.677,-2.724 26.592,-7.27 2.531,0.911 4.601,-1.514 6.496,-2.875 5.856,-7.423 -3.8,-13.031 -5.702,-19.699 -2.377,-11.059 -3.636,-22.419 -11.72,-31.207 -17.25,-14.848 -44.478,-12.12 -64.578,-5.15 -4.434,3.026 -7.92,8.18 -10.615,12.725 -3.8,-14.847 -20.894,-14.091 -32.763,-17.728 -15.995,-0.15 -34.197,-1.36 -46.385,9.395 -8.076,9.24 -12.831,21.666 -9.023,33.787 -7.762,1.665 -9.339,10 -11.087,16.058 -0.315,5.304 3.965,8.486 8.398,10.152 6.964,-0.453 12.502,4.087 19.785,4.087 C -48.126,9.089 -21.684,7.874 0,0" /></g><g
           transform="translate(348.7461,391.2285)"
           id="g588"><path
             id="path590"
             style="fill:#4db448;fill-opacity:1;fill-rule:nonzero;stroke:none"
             d="m 0,0 c 3.958,0 3.164,4.388 6.489,5.903 7.44,3.943 16.939,4.399 25.333,5.005 17.727,0.151 37.829,1.211 52.556,-7.879 3.954,-2.732 2.37,-6.365 1.108,-9.848 -1.272,-1.062 -3.01,-1.969 -4.59,-1.062 -7.444,-5.756 1.58,-13.179 -1.902,-20.757 -2.217,-8.33 -6.65,-17.269 -15.191,-21.818 -15.52,-6.357 -35.306,-4.085 -50.189,2.124 -8.545,2.126 -9.814,11.667 -15.992,16.061 -0.314,0 -0.943,0 -1.104,-0.456 -3.329,-5.452 -4.594,-13.791 -12.506,-15.605 -17.097,-6.359 -38.63,-6.514 -55.881,-0.303 -11.402,8.636 -15.991,22.123 -13.614,35.906 1.741,6.666 -7.608,5.299 -9.185,10.605 -1.262,2.575 0.472,4.85 1.577,6.972 22.799,10.601 54.618,7.425 79.319,3.936 C -9.027,6.359 -3.954,3.635 0,0" /></g><g
           transform="translate(331.1738,390.1641)"
           id="g592"><path
             id="path594"
             style="fill:#231f20;fill-opacity:1;fill-rule:nonzero;stroke:none"
             d="m 0,0 c 7.443,-4.236 6.649,-12.877 6.496,-19.995 -0.958,-8.189 -3.64,-16.964 -12.51,-20.756 -12.988,-7.273 -30.549,-5.304 -42.108,2.573 -8.713,9.094 -11.716,21.212 -10.769,33.18 4.91,8.788 16.146,9.24 25.963,9.697 C -21.845,3.79 -9.499,5.912 0,0" /></g><g
           transform="translate(409.5313,389.1045)"
           id="g596"><path
             id="path598"
             style="fill:#231f20;fill-opacity:1;fill-rule:nonzero;stroke:none"
             d="m 0,0 c 11.087,-8.027 6.175,-23.787 4.115,-34.238 -7.115,-7.57 -17.258,-10.909 -28.018,-9.7 -10.919,1.518 -21.692,5.759 -28.488,14.548 -4.594,7.726 -6.338,19.692 0,27.27 11.398,9.245 28.015,7.879 42.109,6.815 C -6.485,3.942 -3.482,1.518 0,0" /></g><g
           transform="translate(334.9736,381.834)"
           id="g600"><path
             id="path602"
             style="fill:#231f20;fill-opacity:1;fill-rule:nonzero;stroke:none"
             d="m 0,0 c 2.06,-10.457 0.787,-21.974 -7.911,-28.332 -5.542,-4.697 -12.989,-5.91 -19.796,-6.205 8.076,11.205 8.545,26.963 6.807,40.75 0.951,1.512 0.472,3.182 0,4.391 C -12.348,10.604 -3.481,7.426 0,0" /></g><g
           transform="translate(299.6729,381.0771)"
           id="g604"><path
             id="path606"
             style="fill:#231f20;fill-opacity:1;fill-rule:nonzero;stroke:none"
             d="m 0,0 c 3.64,-10.753 3.324,-22.421 -1.108,-32.729 -8.234,-0.151 -16.625,6.362 -19.786,13.489 -2.377,3.03 0.308,6.967 -3.332,9.091 -1.108,4.695 -3.164,11.359 0.319,15.601 3.164,3.334 7.439,4.394 11.716,5.454 C -6.492,9.693 -1.745,5.302 0,0" /></g><g
           transform="translate(378.667,384.71)"
           id="g608"><path
             id="path610"
             style="fill:#231f20;fill-opacity:1;fill-rule:nonzero;stroke:none"
             d="m 0,0 c -0.158,-11.363 4.115,-24.995 -2.221,-34.842 -7.754,1.664 -15.515,7.273 -18.995,14.09 -1.111,2.872 1.112,6.059 -2.216,7.73 -0.315,4.688 0,9.998 3.328,13.784 3.955,4.391 9.657,4.845 14.883,6.511 C -2.378,5.912 -0.318,3.337 0,0" /></g><g
           transform="translate(413.332,380.7734)"
           id="g612"><path
             id="path614"
             style="fill:#231f20;fill-opacity:1;fill-rule:nonzero;stroke:none"
             d="m 0,0 c 1.269,-9.547 1.427,-20.602 -4.584,-27.724 -5.541,-3.636 -12.034,-5.152 -19.005,-5.458 6.492,12.73 11.404,28.182 8.709,43.637 C -8.702,8.939 -3.318,5.605 0,0" /></g><g
           transform="translate(394.3398,386.9844)"
           id="g616"><path
             id="path618"
             style="fill:#ffffff;fill-opacity:1;fill-rule:nonzero;stroke:none"
             d="m 0,0 c 0.476,-13.483 -1.266,-26.813 -8.712,-37.571 -5.542,-1.065 -1.427,4.998 -1.895,7.727 0.79,11.365 -0.472,23.023 -3.8,33.782 C -9.185,3.638 -1.901,5.151 0,0" /></g><g
           transform="translate(311.0703,389.1045)"
           id="g620"><path
             id="path622"
             style="fill:#ffffff;fill-opacity:1;fill-rule:nonzero;stroke:none"
             d="m 0,0 c 1.898,-12.421 2.374,-28.024 -4.908,-38.483 -1.266,-0.302 -2.221,0.457 -3.483,0.608 3.797,12.729 1.742,28.934 -4.433,38.634 C -9.03,-0.604 -4.275,0.304 0,0" /></g><g
           transform="translate(101.3872,517.4053)"
           id="g624"><path
             id="path626"
             style="fill:#231f20;fill-opacity:1;fill-rule:nonzero;stroke:none"
             d="m 0,0 c 4.775,1.629 9.838,-0.17 15.189,-5.397 1.996,-2.467 3.209,-4.332 3.639,-5.591 -0.856,-2.538 -1.39,-3.927 -1.601,-4.167 -0.536,-0.706 -0.935,-1.105 -1.198,-1.195 l -0.141,-0.048 c -1.11,-0.378 -3.224,1.114 -6.345,4.479 -1.984,2.555 -3.909,3.924 -5.776,4.106 l -0.708,0.136 c -2.213,-1.447 -3.624,-3.156 -4.233,-5.127 -1.801,-4.686 -1.557,-10.385 0.732,-17.097 l 0.394,-1.157 c 3.412,-10.001 9.123,-17.487 17.136,-22.457 2.408,-1.277 4.533,-1.602 6.376,-0.973 4.249,1.449 6.362,7.93 6.339,19.445 -0.042,2.399 -0.405,5.801 -1.089,10.207 -2.128,-1.083 -6.299,-3.471 -12.511,-7.164 l -0.115,0.339 c -0.251,0.733 -1.186,1.075 -2.806,1.026 -0.844,0.321 -1.34,0.697 -1.487,1.13 l -0.039,0.113 c -0.993,2.914 1.924,6.143 8.753,9.691 3.687,1.803 7.299,3.307 10.833,4.513 1.128,0.384 1.762,0.37 1.903,-0.043 0.674,-1.114 1.263,-2.351 1.77,-3.71 1.776,-5.208 2.125,-13.862 1.047,-25.962 -0.838,-6.098 -3.229,-10.933 -7.174,-14.504 -0.798,-0.797 -1.753,-1.385 -2.862,-1.763 l -0.366,-0.125 c -4.08,-1.392 -8.684,-0.936 -13.813,1.365 -9.727,6.61 -16.289,14.896 -19.688,24.862 l -0.413,1.212 c -3.258,9.551 -3.463,18.148 -0.613,25.794 1.981,4.035 4.665,6.629 8.049,7.783 z" /></g><g
           transform="translate(153.3877,487.5386)"
           id="g628"><path
             id="path630"
             style="fill:#231f20;fill-opacity:1;fill-rule:nonzero;stroke:none"
             d="M 0,0 C 0.863,0.233 2.021,1.276 3.475,3.13 3.522,4.172 3.469,4.981 3.314,5.556 2.687,7.876 1.216,9.207 -1.099,9.549 L -2.021,9.423 C -3.21,9.102 -3.704,8.567 -3.502,7.82 -3.716,6.938 -3.627,5.769 -3.233,4.313 -2.616,2.03 -1.539,0.593 0,0 M 9.145,11.392 C 10.05,9.866 10.627,8.644 10.876,7.723 11.913,3.888 9.767,-0.015 4.441,-3.985 L 4.472,-4.1 c 2.331,-2.231 4.752,-3.006 7.264,-2.328 3.491,0.944 6.451,4.726 8.879,11.35 1.699,3.381 3.182,5.243 4.448,5.585 l 0.23,0.062 0.3,-0.196 0.319,-1.18 0.009,-0.491 c 0.09,-0.182 0.28,-0.275 0.569,-0.279 0.518,0.14 0.741,0.642 0.673,1.509 l 0.23,0.062 0.031,-0.115 C 27.776,8.575 27.225,6.122 25.771,2.519 25.554,1.72 25.481,0.887 25.55,0.021 c -0.987,-0.534 -1.398,-1.108 -1.232,-1.722 -1.209,-4.133 -3.715,-7.496 -7.521,-10.088 -1.298,-0.68 -2.379,-1.136 -3.241,-1.369 l -1.18,-0.319 C 6.719,-15.006 0.055,-12.423 -7.619,-5.73 l -3.093,9.164 -0.233,0.862 c -1.031,3.816 -0.436,6.528 1.783,8.137 2.262,2.215 4.399,3.596 6.412,4.14 4.008,1.082 7.973,-0.645 11.895,-5.181" /></g><g
           transform="translate(182.6655,536.1309)"
           id="g632"><path
             id="path634"
             style="fill:#231f20;fill-opacity:1;fill-rule:nonzero;stroke:none"
             d="m 0,0 c 1.786,0.386 3.251,-0.233 4.395,-1.856 0.513,-9.908 1.367,-17.629 2.562,-23.162 l 1.082,-5.01 1.627,0.229 c 3.456,0.747 7.156,2.104 11.1,4.074 l 1.956,0.544 c 1.786,0.386 2.863,-0.277 3.233,-1.985 0.548,-2.543 -0.835,-4.417 -4.152,-5.621 -1.426,-0.735 -5.242,-2.027 -11.449,-3.874 0.035,-0.156 -0.23,-0.294 -0.793,-0.416 l 2.388,-7.531 c 0.231,-1.068 0.193,-2.072 -0.112,-3.012 0.71,-0.558 1.192,-1.429 1.448,-2.613 l 0.257,-1.195 c 0.579,-2.679 0.608,-4.176 0.087,-4.492 l -3.108,-0.428 c -0.35,-0.075 -0.708,-0.437 -1.077,-1.086 -2.294,0.461 -4.071,3.612 -5.334,9.457 -1.14,5.281 -1.992,7.861 -2.554,7.739 -0.883,0.602 -3.45,0.445 -7.702,-0.474 -1.903,-0.411 -3.472,0.318 -4.708,2.184 l -0.076,0.35 c 0.498,2.303 2.437,3.819 5.815,4.548 1.796,0.346 2.713,0.422 2.756,0.229 0.601,0.13 0.931,0.719 0.989,1.768 l 0.329,0.315 1.019,0.22 -0.485,1.542 c -1.459,6.757 -2.644,15.635 -3.556,26.636 0.748,1.523 1.937,2.461 3.568,2.812 z" /></g><g
           transform="translate(213.4189,542.0205)"
           id="g636"><path
             id="path638"
             style="fill:#231f20;fill-opacity:1;fill-rule:nonzero;stroke:none"
             d="m 0,0 c 1.803,0.3 3.236,-0.389 4.3,-2.065 0.035,-9.921 0.517,-17.674 1.444,-23.259 l 0.839,-5.056 1.637,0.151 c 3.488,0.579 7.248,1.757 11.283,3.535 l 1.979,0.448 c 1.803,0.3 2.848,-0.413 3.134,-2.137 0.426,-2.567 -1.046,-4.372 -4.417,-5.415 -1.46,-0.665 -5.334,-1.771 -11.622,-3.318 0.027,-0.157 -0.245,-0.282 -0.813,-0.377 l 2.023,-7.638 c 0.179,-1.078 0.093,-2.079 -0.256,-3.002 0.682,-0.592 1.122,-1.486 1.321,-2.681 l 0.199,-1.206 c 0.449,-2.704 0.406,-4.201 -0.13,-4.491 l -3.125,-0.278 c -0.353,-0.058 -0.729,-0.402 -1.128,-1.032 -2.269,0.57 -3.893,3.803 -4.872,9.702 -0.885,5.33 -1.611,7.948 -2.18,7.853 -0.852,0.644 -3.423,0.61 -7.715,-0.102 -1.92,-0.319 -3.453,0.484 -4.598,2.409 l -0.058,0.352 c 0.608,2.276 2.618,3.696 6.027,4.262 1.809,0.261 2.73,0.293 2.764,0.096 0.606,0.102 0.964,0.674 1.073,1.72 l 0.344,0.298 1.028,0.171 -0.41,1.562 c -1.133,6.82 -1.889,15.746 -2.271,26.777 0.821,1.485 2.054,2.365 3.7,2.638 z" /></g><g
           transform="translate(241.3813,522.7456)"
           id="g640"><path
             id="path642"
             style="fill:#231f20;fill-opacity:1;fill-rule:nonzero;stroke:none"
             d="m 0,0 c 1.605,-5.12 2.782,-10.566 3.531,-16.337 l 0.448,-3.458 1.42,-12.796 c -0.594,-0.517 -1.505,-0.986 -2.732,-1.406 l -0.764,-1.06 -0.118,-0.016 c -0.69,-0.089 -1.388,0.351 -2.095,1.321 0.065,-0.492 0.018,-0.749 -0.14,-0.769 -1.36,0.905 -2.267,3.111 -2.721,6.618 l -0.789,14.65 c -0.405,1.89 -0.864,4.805 -1.374,8.745 -0.43,3.309 0.508,5.114 2.813,5.413 C -0.945,1.109 -0.105,0.808 0,0 m -3.612,13.022 c 2.029,0.263 3.305,-0.082 3.829,-1.036 L 0.764,10.555 C 0.961,9.038 -0.51,7.786 -3.646,6.798 L -4.503,6.687 C -6.868,6.54 -8.132,7.097 -8.295,8.359 l -0.18,0.456 -0.084,0.651 c 0.362,1.99 1.774,3.144 4.238,3.464 z" /></g><g
           transform="translate(269.9399,527.0693)"
           id="g644"><path
             id="path646"
             style="fill:#231f20;fill-opacity:1;fill-rule:nonzero;stroke:none"
             d="m 0,0 c 1.266,-2.34 2.485,-5.272 3.657,-8.797 2.612,-10.955 4.517,-18.115 5.715,-21.478 0.256,0.024 0.531,-0.711 0.824,-2.2 l 0.022,-0.237 c 0.12,-1.345 -0.691,-2.096 -2.432,-2.251 l -0.237,-0.021 c -2.513,-0.224 -3.811,0.128 -3.894,1.058 -1.405,2.328 -2.631,5.23 -3.679,8.706 l -4.009,15.438 -0.118,-0.011 c -2.487,-3.653 -5.184,-10.534 -8.091,-20.645 -1.279,-3.325 -2.005,-5.024 -2.177,-5.1 -0.023,0.257 -0.444,0.389 -1.262,0.396 l -1.751,-0.157 c -0.733,-0.064 -1.131,0.268 -1.196,1.001 l -1.618,2.369 c 0.735,4.054 0.66,11.047 -0.226,20.98 1.572,1.157 2.389,1.847 2.448,2.072 -0.032,0.356 0.12,0.55 0.457,0.58 2.944,-0.137 4.436,-0.432 4.477,-0.888 l -0.259,-1.129 0.129,-0.108 0.119,0.01 c 1.448,1.644 2.72,3.723 3.811,6.233 1.824,3.254 3.606,4.959 5.348,5.114 C -1.333,0.529 -0.019,0.218 0,0" /></g><g
           transform="translate(289.6001,504.5815)"
           id="g648"><path
             id="path650"
             style="fill:#231f20;fill-opacity:1;fill-rule:nonzero;stroke:none"
             d="m 0,0 0.313,-2.495 c 2.129,1.237 3.943,3.368 5.442,6.394 1.617,3.089 3.08,5.676 4.389,7.763 -0.049,0.276 -0.211,0.41 -0.489,0.402 C 7.827,12.009 5.646,10.88 3.108,8.679 0.935,6.268 -0.109,3.653 -0.025,0.834 Z m 10.679,18.683 c 3.851,0.115 6.809,-0.789 8.875,-2.715 0.481,-0.145 0.729,-0.466 0.744,-0.962 -0.72,-0.518 -1.117,-0.878 -1.189,-1.079 0.808,-10.469 1.293,-18.284 1.445,-23.447 0.301,-9.966 -0.346,-16.295 -1.931,-18.986 -2.22,-4.955 -5.402,-7.495 -9.551,-7.62 -3.892,-0.116 -7.355,1.35 -10.386,4.399 l -0.251,0.41 -0.016,0.506 c -0.035,1.172 -1.133,3.007 -3.295,5.505 -0.897,1.445 -1.363,2.732 -1.397,3.864 -0.034,1.131 0.249,1.955 0.85,2.47 l 0.506,0.015 c 0.357,0.011 0.996,-0.418 1.917,-1.284 0.972,0.029 1.465,-0.165 1.478,-0.582 0.803,-2.281 2.868,-4.515 6.192,-6.7 0.12,0.003 1.193,-0.68 3.222,-2.05 1.614,0.466 2.991,1.63 4.128,3.492 1.25,2.721 1.801,6.543 1.654,11.467 l -0.797,14.612 0.049,2.386 C 12.058,1.504 10.31,-1.211 7.685,-5.762 5.521,-8.509 3.348,-9.916 1.164,-9.981 L 0.3,-10.007 c -1.39,-0.042 -3.006,0.824 -4.847,2.597 -1.356,0.814 -2.052,1.827 -2.089,3.038 -0.535,1.295 -0.83,2.836 -0.884,4.623 l -0.025,0.865 c -0.201,6.671 3.061,11.896 9.784,15.674 2.529,1.169 5.014,1.791 7.456,1.863 z" /></g><g
           transform="translate(348.9355,531.0537)"
           id="g652"><path
             id="path654"
             style="fill:#231f20;fill-opacity:1;fill-rule:nonzero;stroke:none"
             d="m 0,0 -0.225,-2.373 c -0.408,-4.292 -0.662,-8.418 -0.757,-12.379 9.511,1.191 16.296,2.673 20.355,4.442 3.385,1.814 5.879,3.812 7.482,5.995 l 0.012,0.118 C 16.332,0.634 10.252,3.127 8.631,3.281 5.9,4.158 3.281,4.717 0.77,4.956 0.447,3.668 0.189,2.017 0,0 M 0.033,15.8 C 2.326,15.582 3.369,14.385 3.162,12.21 6.129,11.929 15.541,8.582 31.393,2.168 c 3.132,-1.475 4.634,-2.885 4.505,-4.229 l -0.021,-0.237 c -0.639,-6.724 -5.748,-11.467 -15.328,-14.229 -3.627,-1.212 -6.701,-2.397 -9.227,-3.554 5.344,-3.201 14.024,-7.826 26.039,-13.875 7.311,-3.268 12.147,-5.623 14.504,-7.064 l -0.033,-0.355 c -0.252,-2.65 -2.375,-4.005 -6.371,-4.065 l -1.406,0.014 c -5.28,0.502 -15.553,5.577 -30.819,15.227 -7.869,3.501 -12.615,5.327 -14.236,5.481 l -0.779,-10.101 0.009,-1.169 c -0.287,-3.006 -1.941,-4.465 -4.966,-4.378 -1.328,0.945 -2.299,2.893 -2.916,5.845 l 0.189,11.774 -3.945,0.375 c -2.156,0.205 -3.158,1.087 -3.01,2.65 0.258,2.729 2.555,4.536 6.889,5.422 l 0.011,0.119 c 0.442,2.751 1.034,8.052 1.78,15.904 l 0.484,5.101 -1.098,0.105 -6.14,-0.046 c -1.563,0.367 -2.285,1.154 -2.172,2.361 l 0.06,0.623 c 0.239,2.511 3.944,3.705 11.116,3.584 l 0.506,-0.048 c 1.029,1.817 2.533,2.633 4.509,2.445 z" /></g><g
           transform="translate(400.2051,502.4741)"
           id="g656"><path
             id="path658"
             style="fill:#231f20;fill-opacity:1;fill-rule:nonzero;stroke:none"
             d="M 0,0 C 0.877,-0.171 2.377,0.254 4.498,1.276 5.002,2.19 5.311,2.94 5.424,3.524 5.885,5.883 5.152,7.727 3.227,9.054 L 2.342,9.349 C 1.133,9.584 0.455,9.322 0.307,8.563 -0.275,7.866 -0.711,6.777 -1,5.295 -1.453,2.976 -1.119,1.21 0,0 M 13.23,6.188 C 13.371,4.421 13.35,3.069 13.168,2.133 12.404,-1.766 8.758,-4.322 2.229,-5.536 L 2.205,-5.653 c 1.108,-3.029 2.938,-4.794 5.492,-5.293 3.549,-0.693 7.873,1.396 12.975,6.27 3.016,2.284 5.168,3.301 6.455,3.05 l 0.234,-0.047 0.182,-0.308 -0.232,-1.199 -0.209,-0.445 c 0,-0.203 0.128,-0.37 0.386,-0.501 0.528,-0.103 0.951,0.249 1.27,1.058 l 0.234,-0.047 -0.023,-0.116 c -0.258,-1.326 -1.836,-3.285 -4.731,-5.877 -0.545,-0.621 -0.978,-1.336 -1.299,-2.144 -1.123,-0.044 -1.744,-0.378 -1.865,-1.002 -2.908,-3.176 -6.64,-5.088 -11.201,-5.736 -1.465,-0.037 -2.635,0.03 -3.512,0.201 l -1.201,0.234 c -5.75,1.124 -10.592,6.381 -14.527,15.772 l 1.267,9.589 0.172,0.877 c 0.758,3.88 2.489,6.051 5.19,6.516 3.006,0.991 5.533,1.287 7.582,0.887 4.074,-0.796 6.869,-4.095 8.386,-9.898" /></g><g
           transform="translate(430.6133,488.5518)"
           id="g660"><path
             id="path662"
             style="fill:#231f20;fill-opacity:1;fill-rule:nonzero;stroke:none"
             d="m 0,0 0.115,-0.031 c 1.838,-0.508 4.139,0.588 6.905,3.288 4.642,3.314 7.294,6.168 7.955,8.561 l -0.082,0.147 -0.26,0.071 C 13.156,11.99 10.143,10.626 5.592,7.947 2.645,5.772 0.752,3.172 -0.082,0.146 Z M 23.076,19.228 C 24.57,18.815 25.227,17.274 25.047,14.604 24.682,13.283 24.303,8.771 23.91,1.07 c 0.016,-4.352 0.723,-8.215 2.121,-11.588 0.748,-2.289 0.979,-3.959 0.686,-5.012 l -0.196,-0.718 c -0.248,-0.9 -0.939,-1.194 -2.068,-0.882 -1.285,-0.408 -2.133,-0.557 -2.533,-0.445 -1.91,1.371 -3.346,3.592 -4.313,6.66 C 17.197,-9.03 16.631,-5 15.904,1.177 L 15.43,2.265 C 11.475,-1.239 8.15,-3.886 5.451,-5.676 2.219,-7.608 -1.023,-8.125 -4.281,-7.227 c -3.102,0.856 -4.68,3.021 -4.729,6.498 l 0.416,1.956 c 1.194,4.328 5.481,8.924 12.86,13.792 4.267,1.873 8.955,3.177 14.06,3.911 1.52,0.652 2.912,0.804 4.176,0.456 z" /></g><g
           transform="translate(466.7051,475.2905)"
           id="g664"><path
             id="path666"
             style="fill:#231f20;fill-opacity:1;fill-rule:nonzero;stroke:none"
             d="m 0,0 c 3.246,-1.188 6.85,0.423 10.811,4.833 0.652,0.628 1.054,1.148 1.205,1.559 C 8.055,6.55 4.766,5.542 2.152,3.369 0.234,1.828 -0.795,0.862 -0.938,0.47 Z m 29.221,37.028 c -0.213,-0.579 0.088,-1.237 0.894,-1.977 0.512,-0.738 -0.123,-3.837 -1.91,-9.296 L 24.086,14.667 C 22.127,9.313 21.676,2.328 22.732,-6.287 c 0.866,-2.263 1.151,-3.795 0.858,-4.597 l -0.186,-0.852 c -0.17,-0.466 -1.216,-1.363 -3.14,-2.689 l -1.764,0.644 c -2.574,0.942 -3.783,3.331 -3.629,7.166 -0.012,1.528 -0.385,3.165 -1.119,4.915 -1.859,-2.133 -4.779,-3.666 -8.76,-4.6 -4.445,-0.532 -9.056,0.077 -13.832,1.824 -1.387,2.052 -2.058,3.133 -2.017,3.245 0.316,2.021 0.607,3.395 0.875,4.122 l 0.244,0.672 c 0.785,2.145 4.338,4.747 10.662,7.807 5.691,2.084 9.922,2.81 12.695,2.177 1.069,0.094 1.76,0.561 2.067,1.401 2.375,9.094 4.097,15.104 5.169,18.033 l 1.159,3.162 4.724,1.381 c 0.498,0.092 0.907,0.081 1.225,-0.036 z" /></g><g
           transform="translate(530.541,485.7236)"
           id="g668"><path
             id="path670"
             style="fill:#231f20;fill-opacity:1;fill-rule:nonzero;stroke:none"
             d="m 0,0 c 1.029,-0.472 1.664,-1.277 1.908,-2.416 -5.4,-13.63 -9.457,-23.407 -12.172,-29.329 l -0.384,-0.84 -6.645,-17.703 c -3.307,-7.115 -8.299,-10.594 -14.98,-10.437 -1.483,0.199 -2.811,0.567 -3.985,1.105 -4.621,2.12 -8.035,6.996 -10.238,14.628 -0.459,2.002 -0.385,3.663 0.219,4.98 1.254,0.496 2.359,0.525 3.316,0.086 0.705,-0.323 1.787,-1.868 3.25,-4.637 0.191,-0.393 0.775,-0.836 1.752,-1.328 l 3.746,-5.553 c 0.553,-0.559 1.109,-0.967 1.668,-1.224 l 0.217,-0.1 c 2.256,-1.034 4.66,0.3 7.211,4.003 1.314,1.911 2.836,4.753 4.566,8.528 2.832,6.175 5.19,13.102 7.072,20.783 -1.892,-0.792 -5.041,-2.681 -9.449,-5.664 -3.383,-1.421 -5.57,-1.903 -6.562,-1.448 -1.354,0.007 -2.985,0.45 -4.899,1.328 l -0.461,0.212 c -1.138,0.521 -1.517,2.53 -1.136,6.027 0.418,1.864 1.048,3.716 1.892,5.558 2.037,4.441 5.338,9.352 9.905,14.733 1.642,1.344 2.988,1.776 4.035,1.295 l 0.705,-0.322 c 0.812,-0.373 1.541,-1.287 2.185,-2.74 l -0.125,-0.271 c -0.795,-1.733 -3.23,-5.14 -7.308,-10.219 -1.18,-1.382 -2.262,-3.148 -3.248,-5.296 l -0.725,-1.864 0.354,-0.162 c 0.957,-0.439 2.88,0.066 5.775,1.515 0.342,-0.157 1.158,0.43 2.447,1.762 7.34,5.571 11.422,9.251 12.24,11.039 0.778,0.932 1.458,2.031 2.038,3.295 l 0.097,0.217 c 1.084,0.312 2.194,0.829 3.334,1.551 z" /></g><g
           transform="translate(195.9648,124.9932)"
           id="g672"><path
             id="path674"
             style="fill:#231f20;fill-opacity:1;fill-rule:nonzero;stroke:none"
             d="m 0,0 c 1.981,-0.749 3.017,-2.271 3.108,-4.57 -5.736,-9.965 -9.762,-18.015 -12.082,-24.151 l -2.1,-5.555 1.727,-0.801 c 3.832,-1.448 8.287,-2.456 13.365,-3.023 l 2.245,-0.7 c 1.981,-0.748 2.613,-2.07 1.897,-3.966 -1.066,-2.821 -3.592,-3.772 -7.577,-2.856 -1.851,0.182 -6.377,1.327 -13.578,3.434 -0.065,-0.172 -0.41,-0.14 -1.034,0.096 l -2.415,-8.833 c -0.448,-1.183 -1.117,-2.137 -2.004,-2.859 0.339,-0.99 0.26,-2.142 -0.236,-3.453 l -0.5,-1.326 c -1.124,-2.971 -2.038,-4.447 -2.744,-4.425 l -3.293,1.539 c -0.388,0.147 -0.965,0.021 -1.731,-0.378 -1.943,1.89 -1.69,6.076 0.761,12.556 2.213,5.857 3.007,8.904 2.383,9.14 -0.479,1.141 -3.076,2.604 -7.792,4.385 -2.109,0.797 -3.178,2.494 -3.207,5.088 l 0.146,0.387 c 1.934,1.927 4.775,2.183 8.521,0.767 1.965,-0.793 2.907,-1.296 2.825,-1.512 0.667,-0.252 1.359,0.115 2.076,1.099 l 0.517,0.1 1.131,-0.428 0.498,1.805 c 2.832,7.494 7.266,16.878 13.301,28.157 1.686,1.011 3.435,1.175 5.243,0.492 z" /></g><g
           transform="translate(207.9258,71.9453)"
           id="g676"><path
             id="path678"
             style="fill:#231f20;fill-opacity:1;fill-rule:nonzero;stroke:none"
             d="m 0,0 -1.982,-6.294 c -0.826,-3.618 -0.528,-5.626 0.89,-6.023 2.142,0.306 4.069,1.331 5.778,3.075 1.418,1.561 2.361,3.174 2.828,4.837 l 0.14,0.497 C 8.4,-1.247 8.047,1.242 6.595,3.563 5.133,3.975 3.53,3.419 1.789,1.899 1.048,1.392 0.532,1.128 0.242,1.115 Z m 9.776,10.165 c 4.543,-1.276 6.912,-4.93 7.108,-10.962 0.092,-1.627 -0.111,-3.328 -0.608,-5.101 l -0.345,-1.23 c -1.774,-6.316 -5.607,-10.726 -11.499,-13.232 -3.079,-0.833 -5.638,-0.963 -7.676,-0.391 l -0.466,0.13 c -4.72,1.326 -7.22,5.279 -7.5,11.861 -0.008,1.676 0.222,3.345 0.689,5.008 l 0.196,0.697 c 1.144,4.078 2.802,7.725 4.972,10.942 0.265,0.26 1.52,0.516 3.767,0.771 0.606,0.282 1.695,1.053 3.267,2.31 1.718,0.497 4.372,0.243 7.963,-0.766 z" /></g><g
           transform="translate(297.8066,117.2188)"
           id="g680"><path
             id="path682"
             style="fill:#231f20;fill-opacity:1;fill-rule:nonzero;stroke:none"
             d="M 0,0 C 2.729,-0.242 4.191,-1.344 4.387,-3.301 4.59,-3.62 4.656,-4.551 4.59,-6.093 L 4.242,-16.219 c -0.774,-8.69 -1.698,-18.787 -2.768,-30.293 0.059,-2.455 0.283,-3.7 0.672,-3.734 9.503,-2.025 14.486,-4.457 14.951,-7.295 -0.207,-2.315 -1.743,-3.346 -4.609,-3.09 l -0.826,0.074 C 4.67,-59.68 1.188,-59.059 1.222,-58.69 l 0.012,0.135 -0.294,-0.181 c 0.229,-0.02 0.242,-1.177 0.038,-3.47 L 0.865,-63.479 C 0.97,-65.66 0.826,-74.29 0.431,-89.369 v -1.559 c -1.237,-1.162 -3.036,-1.636 -5.397,-1.426 -2.568,0.228 -3.804,0.881 -3.708,1.958 -0.292,4.765 -0.265,13.371 0.081,25.82 0.013,3.788 -0.09,5.738 -0.31,5.85 l -2.806,0.423 -14.152,0.672 c -0.194,-6.848 -0.377,-11.232 -0.548,-13.16 l -0.101,-1.133 c -0.38,-4.265 -1.316,-6.331 -2.806,-6.198 l -4.137,0.644 -1.641,-0.13 c -0.986,0.087 -1.281,2.344 -0.888,6.77 0.088,0.985 0.211,2.106 0.37,3.364 0.356,6.6 0.306,10.06 -0.151,10.378 l -0.912,-0.128 -1.423,-0.011 c -3.347,0.298 -5.45,1.214 -6.306,2.746 -0.28,0.51 -0.398,0.993 -0.356,1.453 0.375,3.178 1.078,4.722 2.111,4.631 l 4.951,-0.442 c 1.499,-0.042 2.262,0.087 2.289,0.386 1.044,12.247 1.852,25.348 2.425,39.303 l 0.027,0.308 c 1.103,6.419 2.504,9.553 4.201,9.402 l 1.628,-0.007 c 2.862,-0.301 4.251,-0.922 4.168,-1.862 0.538,-0.695 0.756,-1.626 0.651,-2.796 l -0.748,-6.07 c -0.643,-7.221 -1.593,-18.922 -2.849,-35.104 l 0.116,-3.753 0.825,-0.074 c 7.245,-0.646 12.878,-0.72 16.898,-0.223 1.574,22.092 2.452,36.237 2.635,42.439 l 0.098,1.099 c 0.31,3.486 1.665,5.457 4.063,5.913 z" /></g><g
           transform="translate(319.9238,48.751)"
           id="g684"><path
             id="path686"
             style="fill:#231f20;fill-opacity:1;fill-rule:nonzero;stroke:none"
             d="m 0,0 0.137,0.009 c 2.205,0.135 4.315,2.201 6.331,6.199 3.845,5.377 5.679,9.503 5.505,12.375 l -0.146,0.129 -0.31,-0.02 C 9.916,18.088 7.124,15.461 3.143,10.813 0.728,7.319 -0.37,3.76 -0.147,0.131 Z m 18.069,29.749 c 1.792,0.108 3.091,-1.334 3.898,-4.328 0.096,-1.586 1.377,-6.674 3.839,-15.264 1.652,-4.763 3.879,-8.733 6.678,-11.906 1.682,-2.226 2.562,-3.971 2.638,-5.235 l 0.053,-0.86 c 0.066,-1.08 -0.578,-1.662 -1.934,-1.746 -1.258,-0.929 -2.128,-1.41 -2.611,-1.439 -2.608,0.786 -5.019,2.68 -7.232,5.681 -1.153,1.912 -3.292,6.117 -6.409,12.616 L 16.062,8.281 C 13.044,2.955 10.392,-1.198 8.106,-4.174 5.289,-7.506 1.929,-9.291 -1.979,-9.529 -5.7,-9.759 -8.242,-7.976 -9.604,-4.185 l -0.279,2.3 c -0.318,5.194 2.653,11.844 8.914,19.952 3.974,3.657 8.622,6.846 13.945,9.572 1.42,1.286 2.888,1.974 4.405,2.067 z" /></g><g
           transform="translate(361.1641,108.2686)"
           id="g688"><path
             id="path690"
             style="fill:#231f20;fill-opacity:1;fill-rule:nonzero;stroke:none"
             d="m 0,0 c 2.083,0.382 3.758,-0.388 5.023,-2.309 0.236,-11.493 0.944,-20.466 2.127,-26.92 l 1.073,-5.841 1.891,0.208 c 4.032,0.737 8.366,2.176 13.006,4.314 l 2.284,0.561 c 2.082,0.38 3.307,-0.424 3.672,-2.416 0.545,-2.967 -1.126,-5.086 -5.012,-6.362 -1.678,-0.799 -6.144,-2.157 -13.399,-4.072 0.033,-0.182 -0.279,-0.331 -0.936,-0.452 l 2.494,-8.811 c 0.228,-1.245 0.148,-2.406 -0.239,-3.483 0.801,-0.673 1.33,-1.699 1.583,-3.079 l 0.256,-1.394 c 0.573,-3.125 0.551,-4.86 -0.064,-5.207 l -3.615,-0.382 c -0.408,-0.075 -0.836,-0.481 -1.287,-1.218 -2.64,0.615 -4.586,4.331 -5.835,11.146 -1.128,6.158 -2.023,9.177 -2.678,9.057 -1.001,0.729 -3.979,0.639 -8.939,-0.271 -2.218,-0.406 -4.009,0.494 -5.374,2.702 l -0.074,0.407 c 0.661,2.648 2.961,4.334 6.9,5.055 2.092,0.338 3.159,0.393 3.2,0.167 0.701,0.128 1.105,0.799 1.211,2.012 l 0.391,0.353 1.189,0.218 -0.506,1.802 c -1.446,7.88 -2.497,18.206 -3.155,30.982 0.922,1.735 2.334,2.779 4.236,3.128 z" /></g><g
           transform="translate(401.2148,85.875)"
           id="g692"><path
             id="path694"
             style="fill:#231f20;fill-opacity:1;fill-rule:nonzero;stroke:none"
             d="M 0,0 C 1.805,0.551 3.619,0.563 5.441,0.035 5.358,-0.327 5.414,-0.826 5.609,-1.466 L 6.816,-2.938 7.068,-3.765 C 6.774,-5.563 5.486,-7.256 3.203,-8.842 c -2.342,-1.556 -3.693,-3.124 -4.053,-4.702 -0.309,-2.381 -0.273,-4.197 0.111,-5.452 l 0.252,-0.826 c 0.779,-2.555 2.742,-3.629 5.891,-3.221 l 1.882,0.574 c 2.973,0.906 7.573,4.091 13.802,9.552 2.707,2.246 4.535,3.514 5.481,3.802 l 0.264,0.082 c 1.998,-1.029 3.133,-1.909 3.406,-2.644 0.067,-0.534 -0.818,-2.405 -2.657,-5.612 -0.196,-1.408 -0.656,-2.221 -1.383,-2.443 -6.685,-7.359 -12.889,-11.91 -18.614,-13.657 -6.187,-1.886 -11.237,-0.202 -15.15,5.053 l -1.191,2.958 -0.413,1.355 c -2.068,6.781 -1.058,13.407 3.033,19.877 1.779,2.059 3.681,3.398 5.707,4.015 z" /></g><g
           transform="translate(421.3154,116.2598)"
           id="g696"><path
             id="path698"
             style="fill:#231f20;fill-opacity:1;fill-rule:nonzero;stroke:none"
             d="m 0,0 c 1.771,-0.025 2.745,-0.24 2.921,-0.64 2.737,-10.01 6.431,-20.306 11.078,-30.885 l 1.89,-3.959 c 0.942,1.746 1.105,6.784 0.49,15.111 0.029,2.853 0.559,4.506 1.592,4.961 1.162,1.591 2.026,2.513 2.596,2.762 l 0.632,0.278 c 0.948,0.417 2.133,-0.221 3.554,-1.908 2.232,-2.163 5.705,-6.923 10.419,-14.281 2.714,-3.484 4.993,-5.901 6.844,-7.251 1.291,-0.994 2.956,-1.807 4.996,-2.444 l 0.055,-0.127 c -0.39,-2.032 -1.071,-3.599 -2.044,-4.707 -1.77,-0.777 -4.323,-0.629 -7.661,0.444 -2.103,1.012 -4.266,2.815 -6.487,5.41 l -6.171,8.64 c -0.565,-2.259 -0.697,-7.371 -0.392,-15.333 -0.22,-3.791 -0.779,-6.841 -1.677,-9.145 l -0.917,-0.404 c -0.823,-0.36 -2.234,-0.126 -4.232,0.707 l -1.511,0.089 -0.414,1.289 c -0.53,1.202 -1.65,2.695 -3.364,4.482 0.209,0.091 -3.662,9.479 -11.615,28.16 -2.59,7.21 -4.077,12.2 -4.466,14.973 1.117,0.489 1.649,1.313 1.593,2.47 l -0.056,0.127 c 0.946,-0.037 1.641,0.042 2.084,0.237 0.21,0.092 0.214,0.37 0.011,0.834 z" /></g><g
           transform="translate(477.3066,84.2393)"
           id="g700"><path
             id="path702"
             style="fill:#231f20;fill-opacity:1;fill-rule:nonzero;stroke:none"
             d="M 0,0 C 1.42,0.76 2.765,0.734 4.033,-0.074 4.529,-0.462 4.885,-0.858 5.102,-1.266 6.144,-3.214 5.393,-5.273 2.848,-7.444 l -1.553,-0.83 c -1.459,0.237 -2.487,0.915 -3.085,2.03 l -0.374,0.7 c -1.021,1.908 -0.885,3.312 0.409,4.214 z m -24.214,60.116 3.127,-5.845 C -19.034,50.436 -13.942,39.623 -5.81,21.837 -2.396,15.021 -1.037,11.428 -1.726,11.059 -2.18,9.563 -2.95,8.394 -4.04,7.55 L -4.709,7.191 c -2.135,-0.647 -4,0.524 -5.597,3.507 l -1.075,2.01 c -0.912,1.703 -3.654,8.147 -8.226,19.329 -2.867,6.429 -5.134,11.205 -6.807,14.332 l -1.499,2.801 -3.587,6.266 c 0.635,2.035 1.445,3.421 2.435,4.161 l 1.369,1.319 z" /></g></g></g></g></svg>