<?xml version="1.0" encoding="UTF-8" standalone="no"?>
<svg
   xmlns:dc="http://purl.org/dc/elements/1.1/"
   xmlns:cc="http://creativecommons.org/ns#"
   xmlns:rdf="http://www.w3.org/1999/02/22-rdf-syntax-ns#"
   xmlns:svg="http://www.w3.org/2000/svg"
   xmlns="http://www.w3.org/2000/svg"
   viewBox="0 0 840 1080"
   height="1080"
   width="840"
   xml:space="preserve"
   id="svg2"
   version="1.1"><metadata
     id="metadata8"><rdf:RDF><cc:Work
         rdf:about=""><dc:format>image/svg+xml</dc:format><dc:type
           rdf:resource="http://purl.org/dc/dcmitype/StillImage" /></cc:Work></rdf:RDF></metadata><defs
     id="defs6"><clipPath
       id="clipPath18"
       clipPathUnits="userSpaceOnUse"><path
         id="path16"
         d="M 0,810 H 630 V 0 H 0 Z" /></clipPath></defs><g
     transform="matrix(1.3333333,0,0,-1.3333333,0,1080)"
     id="g10"><g
       id="g12"><g
         clip-path="url(#clipPath18)"
         id="g14"><g
           transform="translate(72.3413,562.0605)"
           id="g20"><path
             id="path22"
             style="fill:#000001;fill-opacity:1;fill-rule:evenodd;stroke:none"
             d="m 0,0 c 0,0 5.919,-0.395 62.746,28.413 0,0 22.494,16.18 31.965,4.341 C 104.183,20.916 85.054,6.895 74.19,-2.763 63.327,-12.419 52.148,-49.386 88.397,-56.827 c 36.249,-7.441 41.436,9.866 41.436,9.866 0,0 -20.125,11.839 -3.157,39.068 -0.726,-0.181 -33.523,-35.593 -46.171,-17.363 -8.13,11.717 12.628,11.444 31.57,44.987 3.355,6.314 9.077,32.755 -15.39,40.647 C 72.217,68.271 56.038,38.279 0,0" /></g><g
           transform="translate(122.8296,557.8428)"
           id="g24"><path
             id="path26"
             style="fill:#000001;fill-opacity:1;fill-rule:evenodd;stroke:none"
             d="m 0,0 c -0.74,-6.758 -12.999,-48.663 -18.918,-58.923 -5.919,-10.261 -6.708,-23.678 7.104,-18.153 13.812,5.524 24.072,74.98 23.677,90.765 C 11.469,29.474 0.395,31.176 0,0" /></g><g
           transform="translate(235.8169,573.8008)"
           id="g28"><path
             id="path30"
             style="fill:#000001;fill-opacity:1;fill-rule:evenodd;stroke:none"
             d="M 0,0 C 13.221,-0.197 2.565,-32.557 1.973,-33.741 1.382,-34.925 -1.579,-46.764 -12.431,-44.988 -26.176,-42.739 -13.385,0.2 0,0 m -36.799,-37.391 c 0.394,-28.413 46.961,-13.812 55.248,5.525 0,0 14.939,19.329 0.395,35.516 C 4.526,19.586 -37.19,-9.245 -36.799,-37.391" /></g><g
           transform="translate(294.3691,578.9312)"
           id="g32"><path
             id="path34"
             style="fill:#000001;fill-opacity:1;fill-rule:evenodd;stroke:none"
             d="M 0,0 C 11.343,-0.197 2.201,-32.558 1.693,-33.741 1.185,-34.925 -1.354,-46.764 -10.666,-44.988 -22.459,-42.739 -11.485,0.2 0,0 m -36.157,-36.207 c 0.395,-28.414 46.962,-13.813 55.249,5.524 0,0 14.938,19.33 0.394,35.517 C 5.168,20.77 -36.547,-8.061 -36.157,-36.207" /></g><g
           transform="translate(337.9277,562.8496)"
           id="g36"><path
             id="path38"
             style="fill:#000001;fill-opacity:1;fill-rule:evenodd;stroke:none"
             d="m 0,0 c 3.946,-2.17 16.18,-7.103 20.126,-18.547 3.946,-11.445 6.314,-20.916 -29.597,-36.899 -35.912,-15.982 -29.006,4.934 -15.785,10.261 13.22,5.327 34.135,11.049 33.938,18.548 -0.198,7.498 -26.441,15.588 -24.073,31.767 2.369,16.18 34.531,35.714 40.647,25.454 C 31.373,20.323 23.283,16.574 12.628,15.193 1.973,13.813 -7.104,5.328 0,0" /></g><g
           transform="translate(384.79,579.1284)"
           id="g40"><path
             id="path42"
             style="fill:#000001;fill-opacity:1;fill-rule:evenodd;stroke:none"
             d="m 0,0 c 0,0 19.929,2.763 20.718,-3.946 0.79,-6.709 2.171,-12.826 -22.889,-13.221 0,0 -4.933,-15.193 -5.13,-22.691 -0.197,-7.498 -1.578,-17.956 6.709,-7.103 8.287,10.852 2.763,17.166 11.05,18.942 8.287,1.776 5.524,-23.678 -3.749,-31.768 -9.274,-8.09 -29.992,-8.287 -27.427,17.561 l 2.17,23.481 c 0,0 -18.152,-2.368 -16.18,8.879 1.974,11.247 20.324,6.709 20.324,6.709 0,0 -0.395,26.243 8.682,26.637 C 3.354,23.875 0,0 0,0" /></g><g
           transform="translate(417.248,551.603)"
           id="g44"><path
             id="path46"
             style="fill:#000001;fill-opacity:1;fill-rule:evenodd;stroke:none"
             d="M 0,0 C 4.539,13.022 21.705,23.678 18.351,11.642 14.996,-0.395 0,0 0,0 m -2.17,-13.615 c 0,0 27.821,4.341 30.19,23.875 2.367,19.534 -14.01,29.992 -31.374,5.92 -17.364,-24.073 -17.167,-57.617 7.3,-52.684 24.468,4.933 35.122,27.23 32.163,30.782 -2.96,3.552 -11.641,-10.458 -20.324,-14.602 -8.681,-4.143 -20.126,-6.905 -17.955,6.709" /></g><g
           transform="translate(462.6318,581.2002)"
           id="g48"><path
             id="path50"
             style="fill:#000001;fill-opacity:1;fill-rule:evenodd;stroke:none"
             d="m 0,0 c 0,0 2.17,6.314 12.233,3.946 10.063,-2.367 10.655,-19.731 17.166,-21.31 6.511,-1.578 8.485,-2.762 8.288,-6.906 -0.198,-4.144 -14.799,-14.996 -21.903,2.763 -7.103,17.758 -8.879,10.063 -10.062,7.103 -1.185,-2.96 -0.396,-46.961 -1.974,-58.011 -1.578,-11.05 -10.655,3.355 -12.233,9.668 -1.578,6.315 -0.395,52.289 -0.395,52.289 0,0 -9.077,10.458 -11.444,15.588 -2.368,5.13 4.143,12.826 13.023,3.947 C 1.577,0.197 0,0 0,0" /></g><g
           transform="translate(525.6729,579.918)"
           id="g52"><path
             id="path54"
             style="fill:#000001;fill-opacity:1;fill-rule:evenodd;stroke:none"
             d="m 0,0 c 0,0 5.131,-10.063 10.853,-2.96 5.722,7.103 1.38,18.548 -13.812,18.548 -15.193,0 -31.769,-20.127 -24.27,-32.755 7.498,-12.628 30.189,-14.798 30.189,-18.745 0,-3.946 -29.104,-5.426 -64.028,-37.785 0,0 -22.495,-17.561 -109.708,-2.96 -87.213,14.601 -180.149,21.507 -259.47,-60.181 0,0 39.069,12.234 48.539,-3.552 9.472,-15.785 -9.47,-53.275 -9.47,-53.275 0,0 54.459,61.168 134.174,74.585 0,0 63.141,9.866 113.653,10.261 50.513,0.394 87.608,13.417 108.524,37.095 0,0 11.05,12.628 35.516,18.153 24.468,5.525 23.284,29.202 -5.524,35.911 C -33.642,-10.951 0.69,8.386 0,0" /></g><g
           transform="translate(510.085,499.6104)"
           id="g56"><path
             id="path58"
             style="fill:none;stroke:#000001;stroke-width:3;stroke-linecap:butt;stroke-linejoin:miter;stroke-miterlimit:2.61299992;stroke-dasharray:none;stroke-opacity:1"
             d="m 0,0 c 4.021,0 7.301,3.28 7.301,7.301 0,4.021 -3.28,7.301 -7.301,7.301 -4.021,0 -7.301,-3.28 -7.301,-7.301 C -7.301,3.28 -4.021,0 0,0 Z" /></g></g></g><text
       id="text62"
       style="font-variant:normal;font-weight:normal;font-stretch:normal;font-size:12.62819958px;font-family:Arial;-inkscape-font-specification:ArialMT;writing-mode:lr-tb;fill:#000001;fill-opacity:1;fill-rule:nonzero;stroke:none"
       transform="matrix(1,0,0,-1,505.3502,502.1757)"><tspan
         id="tspan60"
         y="0"
         x="0">R</tspan></text>
<text
       id="text66"
       style="font-variant:normal;font-weight:normal;font-stretch:normal;font-size:15.3906002px;font-family:'Myriad Pro';-inkscape-font-specification:MyriadPro-Regular;writing-mode:lr-tb;fill:#ffffff;fill-opacity:1;fill-rule:nonzero;stroke:none"
       transform="matrix(1,0,0,-1,168.481,479.4785)"><tspan
         id="tspan64"
         y="0"
         x="0 7.772253 18.376377 28.334095 36.614239 39.877045 47.464611 54.698193 65.302315 73.582458 83.709473 91.281647 94.544456 104.67147 114.02895 126.403 133.97517 137.23798 147.27264 154.84483 163.12497">YOUR STORNE NAME HERE</tspan></text>
</g></svg>