<?xml version="1.0" encoding="UTF-8"?>
<svg width="217px" height="157px" viewBox="0 0 217 157" version="1.1" xmlns="http://www.w3.org/2000/svg" xmlns:xlink="http://www.w3.org/1999/xlink">
    <!-- Generator: Sketch 44.1 (41455) - http://www.bohemiancoding.com/sketch -->
    <title>Branding_white</title>
    <desc>Created with Sketch.</desc>
    <defs></defs>
    <g id="Page-1" stroke="none" stroke-width="1" fill="none" fill-rule="evenodd">
        <g id="Branding_white" fill-rule="nonzero" fill="#000000">
            <path d="M206.097,36.637 C205.796,36.774 205.334,36.707 205.242,36.439 C205.252,36.054 205.521,35.929 205.967,35.978 C206.01,36.177 206.219,36.208 206.164,36.505 C206.099,36.506 206.112,36.585 206.097,36.637 Z M202.869,34.134 C202.31,34.677 201.376,34.666 201.025,33.935 C200.699,32.166 203.22,32.63 202.869,34.134 Z M194.24,48.232 C194.205,48.002 193.961,48.059 193.91,47.968 C193.295,46.869 195.437,46.576 195.424,47.77 C195.174,48.069 194.719,48.162 194.24,48.232 Z M192.131,31.895 C192.745,31.944 192.77,32.757 192.791,33.541 C191.46,35.156 190.551,31.765 192.131,31.895 Z M191.275,62.066 C189.533,62.437 190.657,59.661 191.473,61.276 C191.376,61.509 191.443,61.905 191.275,62.066 Z M188.376,64.965 C188.168,65.996 186.52,65.948 185.807,65.36 C185.44,64.295 185.851,63.384 186.664,63.119 C187.789,62.937 188.582,63.946 188.376,64.965 Z M185.412,44.74 C185.279,44.471 185.168,44.322 185.083,44.08 C184.984,43.809 184.693,43.889 184.819,43.423 C184.456,42.796 183.623,42.643 183.238,42.038 C183.667,41.83 183.948,41.474 184.489,41.38 C184.75,40.521 184.954,39.605 185.346,38.877 C185.81,39.687 186.298,40.472 186.464,41.577 C187.226,41.384 187.742,41.838 188.178,42.171 C187.817,42.643 186.927,42.588 186.4,42.895 C186.09,43.661 186.117,44.764 185.874,45.597 C185.505,45.439 185.572,45.066 185.412,44.74 Z M183.568,74.385 C183.535,73.948 183.931,73.396 184.029,72.87 C184.57,73.053 184.978,73.369 185.412,73.661 C184.942,74.046 184.259,74.221 183.568,74.385 Z M183.041,73.791 C182.9,74.147 182.473,74.654 182.184,74.781 C181.173,75.225 179.561,74.828 178.758,75.505 C179.004,76.323 180.002,75.984 180.537,76.494 C180.611,76.854 180.837,77.097 180.734,77.482 C180.13,79.734 176.883,81.047 175.07,82.224 C172.903,82.84 170.827,83.29 168.614,83.674 C166.905,83.585 168.637,84.825 168.875,85.453 C168.11,85.309 167.088,84.876 166.11,84.728 C165.714,84.31 165.101,84.112 164.858,83.542 C163.295,83.308 162.652,81.984 161.564,81.105 C161.451,80.472 161.029,80.147 160.773,79.656 C160.877,79.098 160.798,78.636 160.708,77.877 C161.435,78.161 161.651,78.953 162.353,79.261 C162.906,78.292 161.447,77.826 161.169,76.887 C161.045,76.472 161.267,76.167 161.102,75.637 C161.502,75.478 162.024,76.281 162.552,76.428 C163.138,77.467 163.65,78.579 164.924,78.93 C165.105,78.916 165.257,78.823 165.385,78.601 C165.316,78.309 165.087,78.01 164.726,78.206 C164.001,77.533 163.813,76.695 163.277,75.965 C163.011,75.607 162.644,75.545 162.289,75.241 C161.858,74.874 161.8,74.253 161.499,73.791 C161.447,73.602 161.179,73.627 161.038,73.529 C160.111,72.212 158.763,71.158 157.611,70.037 C157.074,69.515 156.193,69.111 155.24,68.916 C154.986,68.418 154.508,68.215 154.054,67.864 C153.809,67.675 153.701,67.346 153.46,67.205 C153.165,67.031 152.669,66.948 152.605,66.545 C152.455,65.62 153.764,65.443 153.46,64.174 C153.727,63.869 153.999,63.57 154.12,63.119 L154.449,63.119 C154.569,62.678 155.104,62.348 155.24,61.869 C155.323,61.575 155.218,61.184 155.305,60.814 C155.509,59.938 156.261,59.205 155.766,57.915 C156.557,56.615 157.091,57.754 158.204,58.376 C158.999,58.822 159.983,59.346 160.773,59.958 C161.285,60.353 161.723,60.832 162.289,61.209 C164.109,62.423 166.077,63.04 168.942,63.252 C169.01,64.198 168.3,64.367 168.417,65.36 C168.743,65.38 168.843,65.172 168.811,64.832 C169.349,64.713 169.337,64.042 169.601,63.648 C170.082,63.627 170.291,63.88 170.589,64.042 C170.126,65.046 170.416,66.115 170.063,67.007 C169.762,67.767 169.099,68.35 169.074,69.246 C168.226,70.77 167.067,71.983 165.648,72.936 C165.057,72.839 164.505,73.505 165.187,73.726 C167.227,72.978 168.547,71.51 169.733,69.906 C170.159,70.643 170.614,71.352 171.05,72.079 C171.893,72.077 173.205,74.358 173.553,73.001 C172.959,72.519 172.542,71.86 171.775,71.551 C171.506,71.294 171.494,70.781 171.05,70.696 C170.93,69.915 170.578,69.367 169.996,69.049 C170.226,68.359 170.509,67.717 170.918,67.205 C171.011,66.287 171.141,65.409 171.38,64.635 C173.792,66.307 175.889,68.293 178.758,69.51 C178.599,69.663 178.861,69.688 178.889,69.839 C179.69,70.222 180.356,70.623 181.196,71.158 C182.211,71.803 183.691,72.141 183.041,73.791 Z M162.223,87.297 C162.213,87.419 162.179,87.518 162.09,87.56 C162.201,88.117 162.707,88.242 162.618,88.68 C162.414,89.69 158.827,89.859 157.48,89.933 C157.363,89.993 157.276,90.08 157.215,90.197 C157.155,90.717 157.598,90.736 157.611,91.185 C156.923,92.167 154.835,92.488 153.132,92.304 C152.619,92.248 151.977,91.847 151.813,92.501 C151.772,92.829 152.013,92.871 152.011,93.16 C151.245,95.195 147.824,95.294 145.225,95.136 C145.061,95.191 145.018,95.369 144.896,95.466 C144.987,95.982 145.548,96.05 145.555,96.52 C145.562,97.002 144.718,97.642 144.238,97.838 C142.972,98.357 140.877,98.347 139.626,98.299 C139.463,98.378 139.369,98.525 139.297,98.694 C139.429,99.13 139.5,99.67 139.1,99.88 C139.081,99.872 139.065,99.861 139.045,99.853 C138.897,100.19 138.635,100.442 138.297,100.617 C137.985,101.087 137.379,101.265 136.793,101.462 C136.593,100.98 136.428,100.465 136.002,100.209 C135.854,100.257 135.667,100.268 135.542,100.341 C135.558,100.984 136.058,101.143 136.134,101.725 C135.728,102.088 135.259,102.386 134.488,102.384 C134.558,101.627 135.469,101.131 135.212,100.474 C134.442,100.534 134.502,101.432 133.96,101.725 C133.872,102.25 133.583,102.577 133.236,102.845 C133,102.072 132.786,101.274 132.182,100.868 C131.479,101.393 131.423,102.57 130.732,103.109 C130.576,103.258 130.491,102.963 130.207,103.042 C129.87,103.079 129.985,103.569 129.613,103.569 C129.318,103.32 129.226,102.868 129.125,102.424 C128.986,102.227 128.881,102.02 128.797,101.808 C128.784,101.808 128.774,101.814 128.76,101.814 C128.647,101.814 128.559,101.779 128.484,101.729 C128.42,101.771 128.354,101.811 128.295,101.856 C128.224,101.861 128.166,101.889 128.099,101.902 C128.009,102.257 127.842,102.579 127.624,102.874 C127.403,103.585 126.889,104 126.713,104.755 C126.562,104.735 126.461,104.766 126.385,104.822 C126.431,105.268 126.552,106.001 126.055,106.205 C126.076,105.323 125.618,104.486 125.202,103.837 C125.016,103.775 124.918,103.617 124.887,103.443 C124.851,103.431 124.816,103.419 124.784,103.404 C123.769,103.529 123.823,105.176 123.025,105.677 C121.962,105.203 122.125,103.502 121.313,102.779 C120.625,102.966 120.574,104.125 120.456,104.492 C120.153,104.563 120.073,104.857 119.929,105.084 C119.67,105.122 119.76,104.813 119.598,104.755 C119.251,104.715 119.1,104.871 119.006,105.084 C118.863,104.251 118.518,103.203 118.017,102.384 C117.532,102.415 117.596,102.908 117.292,103.502 C117.103,103.876 116.714,104.21 116.569,104.492 C116.437,104.747 116.426,105.168 116.173,105.415 C115.998,105.141 116.12,104.548 115.712,104.361 C115.349,104.39 115.024,104.463 114.922,104.755 C115.211,105.834 114.26,106.639 114,107.587 C113.18,106.639 112.849,107.715 112.418,108.313 C112.445,107.613 111.742,107.117 111.759,106.533 C111.783,105.838 112.569,105.386 113.011,104.887 C113.349,105.449 113.583,106.116 114,106.599 C114.478,105.788 113.721,104.817 113.473,103.965 C113.284,103.978 113.138,103.948 113.077,103.832 C112.161,104.498 111.856,105.774 110.772,106.271 C110.53,105.503 110.417,104.604 109.849,104.162 C109.449,104.141 109.389,104.643 109.455,104.887 C109.029,105.296 108.794,105.896 108.4,106.337 C107.91,106.125 108.085,105.245 107.28,105.349 C106.913,105.749 106.833,106.44 106.292,106.665 C106.113,106.317 105.9,106.001 105.632,105.742 C105.416,105.834 105.214,105.94 104.974,106.007 C104.922,106.767 104.535,107.192 104.184,107.655 C103.848,107.582 103.818,107.059 103.657,106.665 C103.498,106.278 103.173,105.887 103.129,105.677 C103.079,105.44 103.265,105.115 102.867,105.084 C102.267,105.039 102.136,106.418 101.614,106.665 C101.001,106.181 100.914,105.169 100.362,104.623 C99.685,105.197 99.594,106.359 98.979,106.994 C98.597,106.944 98.386,107.059 98.254,107.259 C98.093,106.58 97.688,106.127 97.661,105.216 C97.244,105.107 97.294,105.464 97.067,105.545 C96.062,104.993 95.354,104.143 94.302,103.635 L93.907,103.635 C93.413,103.252 92.902,103.196 92.522,102.779 C92.248,102.477 92.061,101.99 91.665,101.725 C91.141,101.372 90.383,101.526 90.151,100.868 C90.695,99.875 91.974,99.617 92.062,98.167 C92.866,98.812 93.213,99.914 94.565,100.012 C94.331,98.776 92.972,98.663 92.786,97.376 C93.002,97.154 93.143,96.854 93.379,96.652 C94.039,97.222 95.032,97.458 95.619,98.102 C95.651,98.596 95.938,98.836 96.278,99.024 C96.557,99.958 97.717,100.898 98.715,100.474 C98.689,99.817 98.106,99.72 97.595,99.55 C96.764,98.919 96.625,97.615 95.816,96.982 C95.274,96.556 94.613,96.432 94.038,95.994 C93.582,94.845 92.811,94.014 92.918,92.304 C95.408,92.761 97.529,94.377 100.031,94.808 C101.705,95.815 103.121,97.077 105.171,97.705 C105.676,98.344 106.644,98.518 107.28,99.024 C107.354,99.768 106.454,100.28 106.423,100.934 C106.439,101.005 106.554,100.979 106.555,101.066 C107.38,100.771 107.59,99.861 108.07,99.221 C110.178,98.836 110.112,101.112 111.561,101.592 C112.075,101.377 112.779,101.713 113.208,101.592 C113.293,101.266 113.049,101.271 113.077,100.999 C112.324,101.029 111.817,100.813 111.298,100.605 C111.033,99.815 110.442,99.354 110.047,98.694 C109.54,98.635 109.312,98.363 108.665,98.496 C107.753,98.264 107.107,97.771 106.161,97.575 C105.097,96.486 103.157,96.275 102.273,95.006 C104.333,94.32 105.862,93.103 107.345,91.843 C107.504,91.76 107.745,91.758 107.873,91.646 C108.059,91.35 108.235,91.041 108.4,90.723 C108.936,90.632 108.792,90.41 109.191,90.394 C110.313,89.401 111.424,88.435 112.616,87.43 C113.058,87.054 113.601,86.751 113.869,86.244 C114.352,86.288 115.435,85.222 115.778,84.662 C117.153,83.424 118.845,82.501 120.193,81.238 L120.522,81.238 C121.06,82.145 121.321,83.512 121.905,84.464 C122.197,84.94 122.813,85.167 123.157,85.717 C123.749,86.662 123.455,88.008 124.342,88.878 C124.526,89.004 124.705,89.132 124.87,89.273 C124.552,89.968 124.322,90.745 123.619,91.052 C123.644,91.671 123.076,91.696 122.959,92.172 C122.257,92.327 121.523,92.389 121.707,93.226 C123.347,92.781 124.5,91.847 125.331,90.591 C125.351,90.065 125.643,89.805 125.924,89.536 C126.222,89.677 126.325,90.015 126.583,90.197 C126.469,90.494 126.244,90.979 126.385,91.317 C126.827,91.206 126.893,91.048 127.174,90.723 C128.32,91.016 129.186,92.183 130.667,92.107 C132.92,93.405 135.119,94.744 138.309,94.939 C138.311,94.971 138.303,94.994 138.302,95.023 C138.625,95.057 138.95,95.097 139.274,95.077 C139.351,95.073 139.453,95.064 139.541,95.044 C139.546,95.031 139.555,95.02 139.561,95.006 C139.603,94.999 139.645,94.99 139.688,94.983 C139.705,94.968 139.722,94.952 139.722,94.933 C139.722,94.709 139.618,94.596 139.425,94.49 C139.087,94.303 138.461,94.18 137.913,93.98 C136.422,93.928 134.856,93.49 133.83,92.765 C133.524,92.779 133.894,92.531 133.697,92.436 C131.644,92.03 130.174,91.039 128.295,90.459 C127.861,89.928 127.272,89.551 126.583,89.273 C126.25,88.488 124.937,88.678 124.671,87.825 C124.573,87.265 124.469,86.709 124.145,86.375 C124.335,85.014 123.083,84.545 122.499,83.741 C122.322,82.661 121.663,81.724 121.51,80.84 C121.96,80.87 122.552,80.666 123.157,80.974 C123.79,81.988 123.839,83.585 125.001,84.07 C124.986,84.794 125.507,85.183 125.99,85.584 C126.342,85.877 126.393,85.889 126.78,86.111 C127.045,86.264 127.776,86.764 128.295,86.573 C128.301,86.468 128.264,86.322 128.362,86.31 C127.433,85.48 125.942,85.214 125.66,83.741 C125.467,83.343 124.962,83.243 124.737,82.818 C124.437,82.249 124.482,81.452 124.013,80.974 C124.131,80.696 124.57,80.739 124.737,80.512 C125.127,80.671 125.537,80.429 125.99,80.446 C126.139,80.377 126.292,80.31 126.385,80.182 C126.597,80.221 126.691,80.138 126.847,80.117 C128.338,79.26 129.826,78.4 130.931,77.152 C131.053,77.1 131.171,77.041 131.324,77.021 C134.485,74.097 137.15,70.679 140.484,67.929 C140.933,67.931 140.973,68.327 141.273,68.588 C141.722,68.978 142.433,69.212 142.789,69.708 C142.901,69.866 142.913,70.145 143.052,70.432 C143.236,70.813 143.605,71.242 143.711,71.551 C143.764,71.708 143.71,71.873 143.776,72.014 C144.041,72.573 144.529,72.983 144.764,73.529 C144.728,74.487 145.593,74.841 146.082,75.505 C146.875,76.579 146.786,78.091 147.333,79.391 C146.83,80.321 147.517,81.276 148.058,81.764 C148.109,82.46 148.454,82.863 148.784,83.279 C149.638,83.543 150.472,83.829 151.088,84.333 C151.391,84.219 151.723,84.133 151.616,83.607 C150.91,83.173 149.967,82.974 149.31,82.488 C149.013,81.884 148.904,81.094 148.256,80.84 C147.863,79.841 148.382,79.047 147.927,78.141 C148.011,77.832 148.29,78.363 148.454,78.404 C148.627,78.582 148.954,78.608 149.047,78.865 C150.365,79.281 151.375,80.639 153,80.314 L153,79.787 C152.593,79.522 151.846,79.438 151.417,79.391 C150.352,78.262 148.433,77.988 148.058,76.163 C147.419,75.289 146.408,74.785 145.752,73.925 C145.467,72.87 144.892,72.106 144.369,71.288 C144.279,70.327 143.769,69.781 143.448,69.049 C142.966,68.608 142.33,68.321 141.932,67.798 C142.26,67.561 142.757,67.295 143.183,67.336 C144.014,67.414 144.321,68.683 145.029,68.654 C145.266,68.121 144.498,67.309 144.436,66.875 C146.706,65.454 148.331,63.391 150.298,61.67 C151.777,60.602 152.845,59.122 154.646,58.376 L154.712,58.376 C155.335,59.147 154.475,59.915 154.317,60.486 C154.22,60.834 154.34,61.213 154.251,61.606 C154.031,62.565 152.784,63.065 152.473,63.779 C152.603,65.02 151.795,65.801 151.155,66.48 C150.997,67.626 150.24,68.038 149.508,68.588 C149.174,68.837 148.665,69.188 148.717,69.774 C149.18,69.957 149.662,69.631 149.771,69.246 C150.898,69.055 151.295,68.136 151.945,67.468 C152.179,67.433 152.108,67.701 152.34,67.665 C152.647,68.601 151.151,68.987 151.749,69.642 C152.351,69.345 152.785,68.877 153.132,68.326 C153.854,68.331 153.927,69.03 154.317,69.445 C154.882,70.048 155.866,69.915 156.623,70.367 C157.437,71.349 158.452,72.081 159.457,73.068 C159.765,73.372 160.198,73.763 160.247,74.056 C160.291,74.319 160.071,74.704 160.049,75.045 C160.008,75.631 160.251,76.24 160.18,76.625 C160.111,77 159.686,77.303 159.652,77.679 C159.624,78.017 159.892,78.333 159.917,78.601 C159.951,78.964 159.8,79.303 159.851,79.656 C159.922,80.152 160.251,80.476 160.446,80.932 C160.729,81.271 160.937,81.713 161.135,82.126 C161.212,82.115 161.278,82.092 161.367,82.092 C162.174,82.798 162.59,83.899 163.936,84.07 C164.61,84.967 163.967,85.61 163.87,86.836 C164.851,86.83 164.669,85.659 165.122,85.124 C165.932,85.63 167.34,85.54 167.954,86.244 C166.216,87.101 164.403,87.378 162.223,87.297 Z M134.422,104.425 C134.118,104.114 133.826,103.626 134.026,103.174 C134.48,103.237 134.566,103.982 134.422,104.425 Z M131.655,106.732 C131.853,105.632 132.458,104.946 132.972,104.162 C133.432,104.351 133.861,104.948 133.83,105.349 C133.77,106.074 132.177,106.594 131.655,106.732 Z M132.248,102.384 C132.921,103.381 131.976,104.643 131.391,105.216 C130.545,104.187 131.478,102.937 132.248,102.384 Z M129.02,107.983 C128.649,106.692 129.743,105.838 130.008,104.755 C130.731,105.158 130.716,106.406 130.865,107.192 C130.391,107.598 129.721,107.806 129.02,107.983 Z M128.362,106.599 C128.039,106.196 127.756,105.682 127.439,105.282 C127.015,104.748 128.132,103.696 128.295,103.109 C128.937,103.524 128.486,104.818 129.085,105.15 C128.87,105.659 128.663,106.177 128.362,106.599 Z M125.99,110.487 C125.402,108.633 126.41,107.466 127.042,106.271 C127.453,106.872 128.237,107.775 127.833,108.575 C128.691,109.701 127.126,110.362 125.99,110.487 Z M123.619,106.599 C123.573,105.846 124.106,105.117 124.605,104.689 C125.42,105.039 125.118,106.505 125.857,106.929 C125.902,107.404 125.58,107.47 125.395,107.852 C124.99,107.222 124.505,106.158 123.619,106.599 Z M124.409,108.775 C124.447,108.636 124.572,108.585 124.541,108.378 C124.739,108.554 124.915,108.751 124.87,109.169 C124.782,109.235 124.624,109.231 124.605,109.367 C124.281,109.158 124.823,108.849 124.409,108.775 Z M125.264,110.75 C124.502,110.801 123.689,111.161 122.893,110.948 C122.891,110.726 123.199,110.814 123.289,110.684 C123.086,109.498 123.749,108.727 124.21,107.852 C124.432,107.872 124.474,108.072 124.541,108.246 C124.333,108.214 124.283,108.341 124.145,108.378 C124.135,108.542 124.132,108.698 124.277,108.708 C123.819,108.862 123.667,109.339 123.88,109.828 C123.503,109.801 123.621,110.27 123.487,110.487 C123.667,110.684 123.916,110.392 124.079,110.355 C124.262,110.368 124.265,110.565 124.409,110.618 C124.747,110.473 125.014,110.257 124.935,109.697 C125.353,109.845 125.312,110.319 125.264,110.75 Z M121.905,106.073 C123.016,106.707 123.364,108.867 122.367,109.828 C121.863,109.235 121.388,108.611 120.851,108.049 C121.062,107.25 121.491,106.667 121.905,106.073 Z M120.39,107.259 C120.043,106.745 120.201,105.876 120.257,105.415 C120.802,105.298 120.774,104.612 121.115,104.292 C122.24,105.103 120.666,106.406 120.39,107.259 Z M119.467,113.782 C118.865,112.022 120.293,110.859 120.785,109.565 C121.763,110.145 122.109,111.36 122.629,112.397 C121.94,113.223 120.806,113.605 119.467,113.782 Z M119.336,106.599 C119.589,107.837 120.674,109.295 119.665,110.29 C119.132,109.679 118.833,108.836 118.347,108.181 C118.611,107.587 118.715,106.835 119.336,106.599 Z M117.887,107.655 C117.551,107.61 117.082,107.519 116.766,107.655 C116.076,106.382 117.138,104.861 117.689,103.832 C118.034,103.949 118.458,105.824 118.414,106.403 C118.374,106.904 117.965,107.291 117.887,107.655 Z M118.742,111.606 C118.571,111.318 118.407,111.02 118.083,110.881 C118.105,110.729 118.372,110.818 118.414,110.684 C118.444,110.478 118.248,110.498 118.15,110.421 C118.014,110.363 117.855,110.591 118.017,110.618 C117.796,110.73 117.538,110.105 117.096,110.421 C116.69,111.837 116.087,113.057 115.384,114.175 C114.776,113.536 115.013,112.324 114.658,111.54 C114.791,111.392 114.97,112.103 115.186,111.869 C115.333,111.898 115.238,112.219 115.186,112.265 C115.294,112.374 115.572,112.318 115.778,112.331 C115.914,111.983 116.156,111.743 116.502,111.606 C116.459,111.387 116.334,111.249 116.042,111.278 C115.887,110.033 116.962,109.486 117.228,108.444 C117.474,108.461 117.483,108.716 117.557,108.906 C118.347,109.367 118.58,110.386 119.269,110.948 C119.195,111.27 119.033,111.501 118.742,111.606 Z M117.952,114.11 C118.35,113.891 118.14,113.275 118.215,112.858 C118.571,113.03 118.549,113.577 118.742,113.911 C118.565,114.063 118.314,114.142 117.952,114.11 Z M117.425,112.068 C117.303,112.078 117.385,112.29 117.292,112.331 C117.571,112.671 117.32,112.868 117.491,113.188 C117.056,113.055 117.094,113.742 116.833,113.979 C116.876,114.175 117.094,114.2 117.361,114.175 C117.493,114.135 117.378,113.843 117.623,113.911 C117.839,114.638 116.708,114.783 116.108,114.703 C116.389,113.534 116.976,112.673 117.491,111.739 C117.894,111.725 118.126,112.178 118.017,112.462 C117.916,112.236 117.643,112.18 117.425,112.068 Z M112.55,116.811 C112.252,116.45 111.885,116.158 111.561,115.822 C111.594,115.591 111.902,115.635 111.958,115.428 C111.927,114.674 111.722,114.492 111.628,113.846 L112.024,113.846 C112.464,114.44 113.271,114.264 114.262,114.308 C114.6,114.366 114.592,114.771 115.054,114.703 C115.199,115.899 116.801,115.513 117.689,115.231 C116.678,116.616 114.436,116.784 112.55,116.811 Z M114.262,113.384 C113.758,113.516 112.811,113.448 112.484,113.384 C112.668,112.558 113.153,112.034 113.538,111.408 C114.145,111.848 114.099,112.547 114.262,113.384 Z M115.844,111.475 C115.745,111.574 115.825,111.85 115.581,111.804 C115.531,111.558 115.655,111.483 115.844,111.475 Z M115.581,109.894 C115.231,109.339 114.523,108.683 114.527,107.983 C114.531,107.286 115.261,106.745 115.384,106.073 C115.91,106.777 116.05,107.865 116.304,108.839 C116.023,109.15 115.899,109.618 115.581,109.894 Z M111.1,111.936 C112.271,111.129 112.39,109.272 113.407,108.313 C113.973,109.15 115.557,110.207 114.79,111.343 C114.34,111.156 114.311,110.548 114,110.223 L113.538,110.223 C112.799,111.197 112.172,112.283 111.561,113.384 C111.3,112.896 111.22,112.448 111.1,111.936 Z M108.466,119.512 C107.176,120.477 109.143,121.092 110.113,121.554 C110.832,121.896 111.734,122.118 112.353,122.41 C112.569,122.512 112.731,122.783 113.077,122.872 C113.343,122.94 113.646,122.87 113.869,122.937 C114.387,123.096 115.114,123.52 115.911,123.727 C116.288,123.827 116.681,123.81 117.03,123.926 C118.435,124.391 120.281,124.956 121.905,125.045 C122.006,125.142 121.962,125.382 121.971,125.573 C122.474,126.255 123.35,127.008 123.75,127.813 C123.816,127.947 123.958,128.401 123.948,128.536 C123.9,129.149 122.959,129.268 122.762,129.789 C122.423,130.683 123.612,131.109 124.342,131.37 C123.943,132.398 123.17,133.052 122.564,133.872 C121.05,134.11 121.584,135.553 122.893,135.653 C123.002,135.783 122.25,137.034 121.971,137.036 C121.817,137.036 120.781,135.619 120.653,135.388 C120.554,135.208 120.544,134.964 120.456,134.794 C120.137,134.197 119.751,133.786 119.402,133.544 C119.113,133.474 119.185,133.767 118.94,133.742 C118.863,135.035 117.705,136.063 117.096,137.036 C116.863,137.405 116.796,137.8 116.569,138.023 C116.295,138.292 115.598,138.475 115.514,138.814 C115.282,139.77 116.494,139.622 117.228,139.869 C117.173,140.23 116.708,140.87 116.239,141.383 C115.77,141.896 115.132,142.536 114.723,142.832 C114.296,143.146 113.556,143.246 113.604,143.755 C113.674,144.496 115.127,144.334 115.712,144.479 C115.438,145.248 114.445,145.533 113.67,145.929 C112.867,146.34 112.079,146.888 111.233,147.115 C109.883,146.4 108.508,145.711 107.939,144.215 C107.297,144.044 107.319,144.452 107.016,144.875 C106.468,145.641 105.431,146.346 106.093,147.049 C107.18,147.125 107.726,147.745 108.268,148.367 C108.448,149.147 108.291,150.294 107.742,150.869 C107.79,151.326 108.172,151.45 108.466,151.661 C109.563,151.767 110.235,151.105 110.772,150.869 C111.059,152.509 110.27,154.111 108.794,154.361 C108.388,154.431 108.018,154.113 107.609,154.428 C107.343,156.139 104.269,156.293 103.986,154.428 C103.242,154.172 102.504,154.847 101.878,154.361 C101.614,153.557 101.372,152.773 101.416,151.791 C101.479,150.453 102.04,149.333 102.537,148.103 C102.776,147.509 102.453,146.203 102.273,145.271 C101.995,143.832 101.804,142.675 101.352,141.45 C101.128,140.848 100.524,140.204 99.967,139.605 C99.293,138.877 98.952,138.275 98.123,137.958 C97.71,138.095 97.688,138.62 97.529,139.012 C97.238,139.158 96.858,139.22 96.475,139.276 C96.169,139.663 96.461,140.3 96.212,140.791 C95.531,141.034 94.568,140.167 94.038,140.857 C94.003,141.353 94.196,141.703 93.972,142.043 C93.495,142.223 92.859,142.246 92.852,142.899 C92.297,142.934 91.794,143.117 91.732,143.492 C91.613,144.203 93.22,144.758 93.512,145.929 C93.613,146.344 93.43,146.448 93.774,146.852 C94.807,146.917 94.918,146.062 95.619,145.798 C96.311,147.575 95.417,149.201 94.302,149.949 C94.095,149.933 93.817,149.992 93.708,149.881 C93.355,149.99 93.24,150.336 93.115,150.673 C92.492,150.41 92.149,149.929 91.601,149.288 C91.043,148.639 90.476,148.26 90.35,147.51 C91.001,147.437 92.271,146.897 92.259,146.192 C92.25,145.672 91.338,145.311 90.941,144.942 C90.205,144.252 89.467,143.392 89.163,142.767 C90.103,142.367 91.486,142.411 91.732,141.316 C90.452,140.182 89.006,139.212 88.175,137.629 C89.048,137.294 90.081,137.12 90.48,136.31 C90.237,135.676 89.573,135.462 89.295,134.862 C90.771,134.182 92.647,133.823 94.367,133.346 C97.239,132.549 99.689,130.607 101.152,128.407 C101.193,128.246 101.247,128.104 101.22,127.878 C101.387,127.827 101.537,127.758 101.614,127.616 C102.617,124.473 100.818,121.338 98.386,120.237 C98.131,119.811 97.612,119.648 97.332,119.247 C97.246,119.339 97.046,119.313 96.871,119.314 C96.851,118.649 96.88,117.927 96.41,117.535 C95.866,117.584 95.618,117.929 95.686,118.59 C94.898,118.508 94.453,117.774 93.577,117.997 C93.587,117.525 92.949,117.7 92.655,117.535 C92.08,116.925 91.92,115.688 91.403,114.9 C91.204,114.599 90.46,113.775 90.019,114.11 C89.648,114.393 89.317,115.862 88.965,116.415 C88.624,116.232 88.348,115.978 87.713,116.087 C87.138,115.63 87.338,114.399 86.265,114.44 C86.13,114.458 86.135,114.617 86.001,114.638 C85.941,115.253 86.411,115.529 85.935,115.888 C85.159,115.567 84.398,115.229 83.366,115.164 C82.747,114.841 82.817,112.503 82.047,112.462 C81.55,112.436 81.211,113.567 80.993,114.11 C80.567,115.177 80.251,115.658 79.939,116.613 C79.236,116.484 79.143,115.742 79.083,114.965 C79.49,114.982 80.184,115.17 80.467,114.9 C80.401,114.067 79.362,114.204 78.755,113.911 C78.556,113.178 78.102,112.688 78.029,112.001 C77.703,111.776 77.297,112.106 77.107,112.397 C76.986,112.582 77.013,112.9 76.909,113.121 C76.509,113.989 75.773,114.907 75.592,115.624 C74.902,114.887 74.67,113.34 74.341,112.462 C74.852,112.768 75.463,113.313 76.252,113.121 C76.305,112.425 75.587,112.248 75.197,112.001 C74.745,111.716 74.367,111.318 73.879,111.146 C73.594,110.838 73.256,110.584 72.892,110.355 C72.333,109.337 71.256,108.268 71.64,106.732 C72.14,108.844 73.93,109.667 75.46,110.75 C77.568,111.516 80.27,112.174 82.642,112.265 C85.506,113.431 89.018,112.982 92.325,113.253 C92.981,113.309 93.491,113.373 94.234,113.384 C96.788,113.428 99.357,113.534 101.746,113.782 C102.708,113.88 103.636,114.121 104.58,114.242 C107.204,114.577 109.596,115.517 111.43,116.811 C111.711,118.905 109.989,119.657 108.466,119.512 Z M123.948,125.507 C124.055,125.742 123.917,126.019 123.75,126.166 C123.547,125.95 123.292,125.789 123.223,125.441 C123.464,125.462 123.805,125.384 123.948,125.507 Z M125.132,125.638 C125.098,125.691 125.063,125.745 125.067,125.837 C124.833,125.806 124.641,125.961 124.671,126.364 C124.36,126.214 124.459,125.652 124.145,125.507 C124.404,125.511 124.833,125.386 125.132,125.638 Z M125.395,125.638 C125.495,125.673 125.563,125.736 125.66,125.771 C125.52,126.597 125.053,127.095 124.737,127.747 C124.487,127.247 123.925,126.722 123.88,126.232 C124.55,126.149 124.095,126.794 124.475,126.956 C124.852,126.807 124.94,126.368 125.395,126.297 C125.451,126.024 125.307,125.747 125.395,125.638 Z M128.427,129.724 C128.382,130.492 127.737,130.658 127.703,131.436 C127.054,131.975 126.672,132.777 125.924,133.215 C125.617,134.283 126.89,134.182 127.571,134.466 C127.494,135.268 126.387,136.236 125.792,136.969 C125.698,137.084 125.696,137.275 125.594,137.366 C125.314,137.613 124.768,137.668 124.737,138.023 C124.693,138.561 125.321,138.513 125.726,138.814 C125.567,139.174 125.063,138.786 124.935,139.144 C124.972,139.414 125.206,139.488 125.264,139.736 C125.15,139.863 125.116,140.07 125.001,140.198 C124.92,139.883 124.831,139.578 124.541,139.473 C124.46,139.064 124.656,138.932 124.804,138.747 C124.768,138.654 124.701,138.588 124.605,138.55 C124.406,138.724 124.573,139.264 124.21,139.276 C124.194,139.71 124.633,139.688 124.541,140.198 C124.265,140.253 124.279,140.019 124.145,139.935 C123.992,140 123.932,140.16 123.948,140.396 C124.024,140.658 124.552,140.481 124.475,140.593 C124.391,140.661 123.913,140.675 123.88,140.989 C123.871,141.153 123.982,141.195 124.079,141.252 C124.505,141.152 124.7,140.819 124.804,140.396 C125.13,140.45 125.536,140.273 125.395,139.669 L125.726,139.669 C125.794,139.41 125.917,139.204 125.924,138.88 C126.325,138.93 126.48,138.815 126.713,139.012 C126.251,139.825 125.821,140.796 125.067,141.316 C124.584,141.653 123.917,141.581 123.552,142.108 C122.832,141.62 122.499,140.746 121.971,140.066 C122.387,139.647 123.023,139.449 123.487,139.077 C123.712,138.286 122.799,138.166 122.564,137.629 C122.982,136.728 123.802,136.232 124.21,135.323 C124.116,134.737 123.165,135.007 122.826,134.663 C123.05,134.207 123.657,134.133 123.683,133.479 C123.852,133.444 123.913,133.391 124.013,133.544 C124.311,133.292 124.512,132.945 124.605,132.49 C125.236,132.21 125.858,131.204 125.462,130.514 C124.892,130.742 124.389,130.365 124.013,130.184 C124.637,128.988 125.798,128.324 126.252,126.956 C127.088,127.768 127.245,129.259 128.427,129.724 Z M132.049,126.166 C131.676,127.309 131.334,128.582 130.732,129.657 C130.202,129.383 130.471,128.11 129.811,128.01 C129.467,127.958 128.985,128.331 128.955,128.932 C128.076,128.187 127.469,127.168 127.109,125.902 C128.958,125.538 130.244,125.974 132.049,126.166 Z M133.631,130.184 C133.797,130.586 134.214,131.067 134.159,131.766 C134.128,132.125 133.837,132.386 133.83,132.753 C133.69,132.84 133.634,132.72 133.434,132.82 C133.375,133.033 133.649,132.912 133.697,133.017 C133.606,133.19 133.663,133.51 133.434,133.544 C133.508,133.462 133.526,133.337 133.434,133.215 C132.856,132.454 131.506,131.658 131.259,130.514 C132.245,130.161 131.833,128.417 132.578,127.68 C133.112,127.999 133.265,129.304 133.631,130.184 Z M135.015,126.364 C134.82,127.115 134.521,127.759 134.224,128.407 C133.686,127.935 133.59,127.02 133.301,126.297 C133.934,126.372 134.361,126.266 135.015,126.364 Z M137.65,126.429 C137.983,127.536 138.957,128.453 138.834,129.724 C138.735,130.783 137.826,131.583 137.584,132.556 C136.893,132.266 136.603,128.933 135.607,128.932 C134.951,128.932 135.102,129.812 134.818,130.317 C134.188,129.954 134.677,129.529 134.95,128.932 C135.361,128.027 135.714,127.003 136.134,126.297 C136.69,126.161 137.235,126.168 137.65,126.429 Z M139.297,126.297 C139.484,126.479 138.955,126.62 139.166,126.825 C139.386,127.146 139.911,126.786 139.626,126.297 C139.825,126.135 139.92,126.213 140.219,126.232 C140.178,127.001 139.702,127.338 139.561,128.01 C139.073,127.642 139.04,126.818 138.637,126.364 C138.812,126.295 139.042,126.284 139.297,126.297 Z M143.579,129.263 C143.697,130.336 144.137,131.413 143.315,132.227 C142.537,131.707 142.667,129.409 141.208,130.381 C140.829,132.329 139.887,133.717 138.771,134.927 C138.217,134.423 137.491,133.014 138.506,132.622 C138.74,132.628 138.366,132.839 138.573,132.82 C138.824,132.784 138.755,132.431 138.771,132.16 C139.832,130.434 140.35,128.163 141.273,126.297 C143.243,125.888 142.846,128.234 143.579,129.263 Z M144.238,126.232 C144.083,126.537 143.985,126.901 143.644,127.022 C143.683,126.611 143.394,126.528 143.448,126.1 C143.778,126.075 144.023,126.14 144.238,126.232 Z M145.095,127.351 C145.59,127.474 145.426,126.937 145.555,126.693 C145.939,126.638 145.802,127.104 146.082,127.154 C146.327,127.224 146.186,126.907 146.412,126.956 C146.622,127.252 146.757,127.622 147.137,127.747 C147.427,127.603 147.144,126.986 147.268,126.825 C147.121,126.728 146.952,126.659 146.675,126.693 C146.654,126.473 146.562,126.324 146.412,126.232 C146.153,126.35 145.844,126.604 145.49,126.429 C145.19,126.482 145.316,126.958 144.896,126.89 C144.947,125.909 146.245,126.175 147.202,126.1 C148.248,126.878 147.599,128.1 147.071,128.997 C146.621,128.593 146.251,128.103 146.082,127.417 C146.044,127.257 145.833,127.271 145.688,127.219 C145.042,127.74 144.908,128.768 144.5,129.525 C143.998,129.172 143.958,128.471 143.842,127.878 C144.473,127.795 144.329,127.322 144.699,126.956 C144.963,126.956 144.917,127.265 145.095,127.351 Z M153.198,125.573 C153.243,126.188 152.938,126.456 152.669,126.759 C152.553,126.7 152.586,126.492 152.34,126.561 C152.15,126.59 152.042,126.7 152.011,126.89 C151.927,127.193 152.345,126.994 152.408,127.154 C151.482,128.844 150.004,129.979 148.125,130.712 C147.836,130.45 147.571,130.167 147.532,129.657 C148.173,128.41 148.825,127.172 149.442,125.902 C150.54,125.561 152.003,125.696 153.198,125.573 Z M147.993,132.82 C148.276,133.806 148.997,134.876 149.178,136.18 C147.874,136.982 146.369,137.585 144.764,138.09 C144.175,137.81 143.694,137.19 143.711,136.509 C144.074,136.212 144.581,136.061 145.095,135.916 C145.511,134.704 144.583,134.477 144.106,133.872 C143.914,133.63 144.109,133.259 143.711,133.281 C143.875,133.094 143.815,132.68 144.238,132.753 C144.215,132.49 144.355,132.388 144.304,132.094 C144.931,131.229 145.055,129.861 145.752,129.064 C146.342,129.748 146.96,130.405 147.333,131.303 C146.781,131.409 146.299,131.588 146.149,132.094 C146.273,132.952 147.515,132.424 147.993,132.82 Z M150.233,135.256 C150.175,134.855 150.306,135.022 150.497,134.927 C150.489,134.189 149.991,133.94 149.508,133.676 C149.045,133.934 149.96,134.58 149.31,134.663 C149.322,133.95 148.78,133.787 148.717,133.148 C149.671,133.092 151.515,134.481 150.233,135.256 Z M149.705,135.653 C149.636,135.348 149.427,135.184 149.376,134.862 C149.511,134.745 149.743,134.933 149.903,134.994 C149.748,135.142 149.576,135.508 150.035,135.453 C149.974,135.57 149.913,135.683 149.705,135.653 Z M142.853,141.647 C142.939,141.513 143.224,141.578 143.25,141.383 C143.471,141.614 142.996,141.939 142.853,141.647 Z M142.129,140.659 C142.066,140.661 142.078,140.74 142.063,140.791 C141.743,140.782 141.682,140.514 141.405,140.461 C141.212,140.466 141.261,140.713 141.01,140.659 C141.062,140.601 141.082,140.509 141.076,140.396 C141.576,140.418 141.937,140.174 142.129,140.659 Z M139.297,136.772 C139.435,136.617 139.817,136.775 139.956,136.838 C139.817,136.963 139.768,137.177 139.626,137.299 C139.328,137.312 139.514,136.839 139.297,136.772 Z M132.972,135.125 C132.733,135.124 132.833,134.782 132.512,134.862 C132.3,134.804 132.374,135.033 132.248,135.059 C132.249,135.256 132.417,135.283 132.446,135.453 C132.648,135.502 132.685,135.388 132.84,135.388 C132.864,135.674 132.681,135.756 132.643,135.983 C132.215,135.597 131.888,135.112 131.655,134.533 C132.469,134.366 133.023,134.321 133.301,133.676 C133.524,133.994 133.102,134.728 132.972,135.125 Z M138.045,141.515 C137.447,143.266 136.363,144.533 135.081,145.599 C134.38,145.268 134.019,144.597 133.83,143.755 C134.646,143.672 135.744,143.421 135.74,142.767 C135.737,142.238 134.594,141.662 134.092,141.252 C133.352,140.645 132.913,140.089 132.578,139.605 C133.345,139.207 134.54,138.966 134.422,138.023 C134.338,137.36 133.376,137.207 133.104,136.575 C133.367,136.375 133.524,136.073 133.762,135.849 C134.202,133.915 134.942,132.284 135.607,130.579 C136.544,132.117 137.075,134.133 137.913,135.718 C138.062,135.999 138.283,136.238 138.573,136.376 C138.802,137.132 139.181,137.405 139.1,137.958 C139.045,138.324 137.968,139.521 137.453,139.935 C137.13,140.19 136.223,140.346 136.333,140.922 C136.439,141.474 137.453,141.31 138.045,141.515 Z M124.671,143.228 C124.884,143.11 125.241,143.24 125.395,143.228 C125.271,144.378 124.561,145.509 123.683,146.125 C123.329,145.758 122.721,145.64 122.696,144.942 C123.484,144.587 124.492,144.453 124.804,143.622 C124.87,143.42 124.453,143.367 124.671,143.228 Z M113.34,148.301 C112.845,148.203 112.528,147.926 112.088,147.774 C112.961,147.174 113.934,146.678 114.922,146.192 C114.763,147.001 113.908,147.681 113.34,148.301 Z M71.64,127.68 L71.837,127.68 C71.836,127.966 71.969,128.119 72.035,128.339 C71.854,128.198 71.759,128.377 71.573,128.274 C71.692,128.032 71.687,128.008 71.64,127.68 Z M71.178,128.01 C70.981,127.877 70.767,127.764 70.784,127.417 C71.033,127.376 71.36,127.324 71.507,127.022 C71.744,127.22 71.34,127.333 71.441,127.616 C71.208,127.423 71.02,127.788 71.178,128.01 Z M72.628,125.441 C72.792,125.43 72.901,125.476 72.957,125.573 C72.987,125.901 72.509,125.764 72.628,125.441 Z M72.562,127.022 C72.196,127.021 71.585,127.031 71.507,126.693 C71.777,126.799 72.128,126.62 72.298,126.429 C72.483,126.419 72.452,126.627 72.628,126.627 C72.675,126.828 72.514,126.821 72.562,127.022 Z M66.566,123.53 C65.979,122.494 64.83,122.017 64.195,121.028 C64.673,119.227 65.314,117.299 66.039,115.559 C67.306,117.193 68.158,119.238 69.069,121.225 C69.043,121.505 68.734,121.504 68.74,121.817 C68.966,122.537 69.822,122.624 70.784,122.608 C70.286,123.979 69.353,125.482 68.279,126.493 C67.432,125.785 67.745,123.911 66.566,123.53 Z M63.603,119.512 C63.529,119.737 63.704,120.005 63.404,120.17 C61.891,119.401 61.249,117.758 60.243,116.481 C60.645,114.886 61.075,113.319 61.559,111.804 C61.807,111.931 61.889,112.222 62.153,112.331 C62.208,113.864 63.553,115.241 63.997,116.613 C64.136,117.04 64.305,117.659 64.261,118.063 C64.216,118.491 63.771,118.987 63.603,119.512 Z M57.608,112.134 C57.615,111.071 57.859,110.235 58.267,109.302 C58.372,109.283 58.379,109.364 58.465,109.367 C58.7,109.979 59.088,110.709 59.451,111.343 C59.677,111.734 60.281,112.521 60.243,113.188 C60.201,113.887 59.736,114.424 59.649,115.231 C58.961,114.206 58.394,113.061 57.608,112.134 Z M57.212,109.498 C57.255,109.148 57.066,109.029 56.948,108.839 C57.11,108.607 57.401,108.503 57.541,108.246 C57.272,107.23 57.929,105.901 58.465,105.084 C58.879,105.218 59.061,105.584 58.991,106.205 C58.662,106.269 58.729,105.939 58.53,105.875 C58.036,106.088 58.488,106.917 57.74,106.929 C57.74,107.104 57.703,107.317 57.87,107.325 C58.194,106.895 58.97,107.053 59.057,106.271 C59.541,106.732 60.481,107.075 60.571,107.785 C60.664,108.507 59.895,109.159 59.583,109.697 C59.458,108.983 58.646,108.617 58.793,107.852 C58.994,107.847 58.951,108.089 59.188,108.049 C59.19,108.375 59.138,108.758 59.386,108.839 C59.916,108.646 60.013,108.017 60.177,107.455 C59.897,107.248 59.847,107.492 59.386,107.39 C59.454,107.217 59.465,106.987 59.451,106.732 C59.375,106.742 59.335,106.717 59.32,106.665 C58.915,106.933 58.669,106.959 58.331,107.259 C58.261,107.504 58.495,107.446 58.465,107.655 C58.009,107.594 57.857,107.837 57.673,108.049 C57.678,108.483 57.73,109.384 57.212,109.498 Z M56.883,111.078 C56.488,111.078 56.376,110.795 56.29,110.487 C55.65,110.336 55.362,109.832 54.775,109.631 C54.743,108.544 54.769,107.688 55.302,106.994 L55.499,106.994 C56.099,108.173 56.497,109.557 57.015,110.816 C56.926,110.859 56.891,110.957 56.883,111.078 Z M55.039,103.502 L55.235,103.502 C55.93,104.594 57.295,105.668 56.75,107.39 C56.198,106.824 56.035,105.866 55.433,105.349 C54.631,105.533 54.845,106.736 54.445,107.325 C53.099,106.23 54.424,104.517 55.039,103.502 Z M53.852,109.036 C52.896,108.785 52.235,108.239 51.217,108.049 C51.183,107.078 51.684,106.174 52.074,105.282 C52.431,105.518 52.822,105.719 52.799,106.337 C52.52,106.306 52.442,106.076 52.074,106.139 C51.923,106.707 51.916,107.11 51.612,107.587 C51.692,107.904 52.053,107.939 52.337,108.049 C52.522,108.036 52.617,107.935 52.601,107.718 C52.726,107.748 52.72,107.908 52.93,107.852 C52.937,108.041 52.894,108.283 52.996,108.378 C53.236,108.378 53.349,108.247 53.456,108.116 C53.428,107.903 53.356,107.733 53.06,107.785 C53.013,107.583 53.243,107.658 53.193,107.455 C53.155,107.362 53.091,107.295 52.996,107.259 C52.659,107.185 52.73,107.521 52.468,107.521 C52.46,107.4 52.426,107.302 52.337,107.259 C52.639,107.208 52.719,106.937 52.996,106.864 C53.553,107.162 53.52,108.053 53.983,108.444 C54.004,108.706 53.987,108.931 53.852,109.036 Z M50.559,105.019 C50.639,104.857 50.751,104.728 50.887,104.623 C50.686,103.604 51.355,103.691 51.349,102.779 C51.514,102.548 51.619,102.26 51.876,102.12 C52.446,102.23 52.466,102.893 52.799,103.239 C52.825,103.943 53.473,104.357 53.325,105.019 C52.897,104.701 52.429,104.421 52.074,104.031 C51.324,104.314 51.335,105.357 51.02,106.073 C50.672,105.915 50.684,105.397 50.559,105.019 Z M50.427,107.521 C49.641,107.549 48.959,106.934 48.252,106.665 C48.193,105.575 48.622,104.972 48.91,104.227 C49.649,104.786 50.109,105.968 50.229,106.929 C50.247,107.065 50.52,106.946 50.491,107.127 C50.539,107.327 50.425,107.367 50.427,107.521 Z M47.923,104.292 C47.864,104.046 47.769,103.832 47.726,103.569 C48.111,103.362 48.249,102.908 48.318,102.384 C48.119,102.003 48.717,102.6 48.714,102.845 C48.17,103.046 48.479,104.104 47.923,104.292 Z M47.33,106.073 C47.171,106.1 47.186,105.951 47.001,106.007 C46.886,105.774 47.045,105.845 47.067,105.612 C47.059,105.444 46.971,105.356 46.803,105.349 C46.63,105.327 46.634,105.485 46.606,105.612 C46.479,105.495 46.199,105.535 46.211,105.282 C46.443,105.054 47.017,105.166 47.001,104.689 C47.398,104.91 47.517,105.635 47.33,106.073 Z M46.079,105.282 C45.327,105.197 45.856,104.179 45.881,103.701 C46.216,103.551 46.385,103.604 46.803,103.502 C46.822,103.879 47.026,104.072 47.001,104.492 C46.847,104.492 46.807,104.377 46.606,104.425 C46.746,104.279 46.652,103.992 46.474,103.965 C45.858,104.074 46.107,104.735 46.079,105.282 Z M50.427,103.109 C50.252,103.351 50.218,103.735 50.03,103.965 C49.823,103.82 49.668,103.625 49.571,103.372 C49.799,103.206 49.787,102.797 50.03,102.647 C50.262,102.701 50.339,102.909 50.427,103.109 Z M44.761,101.198 C45.832,100.842 46.678,100.261 47.133,99.286 C47.27,99.432 47.32,99.254 47.527,99.286 C47.747,99.264 47.814,99.089 47.923,98.959 C49.263,98.672 50.269,98.052 51.217,97.376 C52.873,97.035 53.947,96.111 55.631,95.796 C55.809,96.474 56.501,96.639 56.685,97.311 C56.313,97.552 55.968,97.822 55.762,98.233 C56.302,98.223 56.517,97.891 56.883,97.705 C57.634,98.098 58.089,98.784 58.53,99.486 C58.301,99.848 58.117,100.259 58.003,100.737 C57.376,101.449 56.052,101.465 55.961,102.712 C55.696,102.559 55.482,102.357 55.235,102.186 C54.505,102.422 54.422,103.303 53.918,103.769 C53.564,103.29 53.312,102.135 52.732,101.527 C52.5,101.283 52.072,100.922 51.81,100.934 C51.199,100.962 51.328,101.669 50.887,101.989 C50.55,102.011 50.598,101.549 50.69,101.329 C50.436,100.849 49.887,101.217 49.571,101.396 C49.538,101.753 49.585,101.835 49.438,102.12 C48.909,101.947 48.828,101.324 48.121,101.329 C47.771,101.551 47.737,102.088 47.395,102.319 C46.834,102.162 46.918,101.497 46.342,101.527 C45.649,101.564 45.723,102.642 45.354,103.239 C45.108,102.608 44.948,101.889 44.761,101.198 Z M44.826,104.623 C44.356,104.435 43.91,104.222 43.51,103.965 C43.269,103.102 43.497,102.594 43.904,101.989 C44.619,102.335 44.215,103.463 44.959,103.701 C45.047,103.635 45.091,103.526 45.156,103.437 C45.304,103.828 44.994,104.328 44.826,104.623 Z M42.191,101.198 C41.024,101.075 41.685,102.378 41.137,102.845 C40.794,102.442 40.621,101.868 40.281,101.462 C40.431,101.128 40.659,100.873 40.874,100.605 C41.067,99.382 41.343,97.109 42.521,97.114 C42.969,97.115 43.295,97.578 43.708,97.773 C43.644,98.236 43.353,98.471 43.246,98.892 C43.845,99.16 44.221,98.637 44.433,98.299 C45.274,98.269 45.6,98.757 46.276,98.892 C46.102,99.371 45.907,99.767 45.551,100.012 C45.104,100.321 44.443,100.263 43.97,100.474 C43.258,100.79 43.467,101.618 42.983,102.186 C42.638,101.936 42.559,101.422 42.191,101.198 Z M41.532,103.965 C41.61,103.514 41.894,103.271 41.994,102.845 C42.495,102.915 42.386,103.594 42.587,103.965 L41.532,103.965 Z M38.502,105.019 C38.567,103.984 38.836,102.587 39.755,102.186 C40.101,102.696 40.239,103.413 40.545,103.965 C39.977,104.428 39.105,104.589 38.502,105.019 Z M47.395,94.15 C46.509,91.721 44.838,89.823 43.048,88.22 C41.615,86.936 39.818,85.713 38.305,84.399 C37.383,83.597 36.315,83.006 35.275,82.29 C34.763,81.938 34.383,81.42 33.892,81.105 C33.237,80.685 32.586,80.119 31.915,79.656 C31.409,79.305 30.904,78.869 30.334,78.535 C30.307,78.365 30.138,78.337 30.136,78.141 C29.09,77.627 28.519,76.64 27.436,76.163 C26.092,74.585 24.368,73.389 23.351,71.487 C25.342,69.986 27.371,68.526 29.74,67.402 C29.901,68.472 30.365,69.238 30.662,70.168 C31.692,70.807 32.156,72.013 32.639,73.2 C33.194,73.83 33.551,74.66 34.222,75.176 C35.121,75.329 35.574,75.931 35.802,76.757 C35.859,76.796 35.919,76.836 35.933,76.757 C36.01,76.77 35.97,76.823 35.933,76.823 C36.162,77.583 36.756,77.977 37.118,78.601 C37.208,79.263 36.889,79.513 36.854,80.05 C37.424,80.287 37.733,79.701 37.909,79.326 C38.681,79.508 39.846,80.735 40.874,79.985 C40.346,79.196 39.041,79.183 38.305,78.601 C38.033,78.236 37.818,77.815 37.252,77.744 C36.895,76.827 36.324,76.125 35.998,75.176 C35.658,74.88 35.234,74.667 34.748,74.517 C33.211,73.309 33.014,70.759 31.322,69.708 C31.102,68.829 30.611,68.222 30.598,67.139 C31.521,66.933 32.339,66.966 33.231,66.875 C33.551,67.964 34.083,69.057 34.813,69.839 C35.022,70.064 35.296,70.551 35.669,70.235 C35.706,69.891 35.371,69.917 35.208,69.774 C34.754,68.883 34.068,67.891 34.155,66.678 C35.291,66.241 36.309,66.194 37.185,65.559 C37.554,65.29 37.823,64.782 38.173,64.569 C38.282,64.502 38.415,64.569 38.502,64.503 C38.929,64.186 39.207,63.723 39.623,63.383 C40.317,62.817 41.223,62.493 41.665,61.737 C41.7,62.575 41.478,63.548 41.072,64.305 C40.693,65.008 40.038,65.351 40.348,66.48 C40.26,66.702 40.063,66.811 39.885,66.942 C39.599,68.257 38.742,69.003 37.909,69.774 C39.003,70.65 39.826,68.694 40.479,68.193 C40.662,68.99 41.519,69.554 41.334,70.367 C41.167,71.11 40.061,71.235 39.755,71.948 C40.254,72.584 40.698,71.575 41.334,71.551 C41.508,72.525 41.769,73.487 42.322,74.188 C42.509,74.422 42.748,74.454 42.983,74.649 C43.43,75.019 43.84,75.459 44.365,75.834 C44.859,76.187 45.484,76.446 45.947,76.823 C46.572,77.334 47.102,77.99 47.726,78.272 C48.313,78.538 48.933,78.546 49.438,78.799 C49.481,79.185 49.12,79.642 48.977,80.05 C49.054,80.23 49.035,80.478 48.977,80.71 C48.785,81.468 47.156,83.964 46.145,84.202 C45.821,84.277 45.452,83.99 45.222,84.399 C45.219,84.687 45.409,84.781 45.551,84.925 C46.533,84.856 46.946,84.769 47.595,84.267 C47.607,84.669 47.665,85.031 47.923,85.19 C48.448,85.057 48.392,83.939 48.186,83.477 C48.518,83.38 48.375,82.979 48.517,82.752 C48.674,82.501 49.108,82.178 49.306,81.829 C49.711,81.115 49.871,80.009 50.229,79.127 C51.65,79.793 53.256,80.274 54.775,80.84 C55.79,81.867 56.457,83.243 57.278,84.464 C56.759,84.8 56.373,85.612 55.828,86.111 C55.436,86.474 54.824,86.72 55.433,87.034 C56.456,86.783 56.932,85.986 57.541,85.321 C58.32,85.943 57.833,87.548 57.936,88.484 C57.109,88.755 56.839,89.739 56.093,90.197 C55.591,90.503 54.861,90.463 54.313,90.79 C53.896,91.038 53.727,91.401 53.259,91.579 C53.161,91.812 53.054,92.034 52.93,92.239 C51.918,92.332 51.013,92.654 50.03,92.436 C49.846,92.493 49.85,92.737 49.637,92.765 C49.8,93.491 50.672,93.056 51.152,93.03 C51.767,92.995 52.338,93.048 52.864,93.096 C53.024,93.353 52.976,93.819 53.193,94.017 C53.253,93.966 53.342,93.946 53.456,93.952 C53.513,93.023 53.682,92.454 54.38,91.843 C54.861,91.421 55.408,91.042 56.29,91.052 C56.96,90.56 57.455,89.889 58.068,89.34 C58.609,90.103 59.392,90.501 60.177,91.118 C60.949,91.724 62.156,93.312 62.087,93.952 C62.054,94.245 61.736,94.308 61.362,94.743 C60.993,95.167 60.625,96.083 59.716,95.994 C59.445,95.967 59.261,95.655 58.991,95.533 C58.111,95.135 55.941,94.582 55.039,94.873 C53.825,95.265 52.713,95.99 51.547,96.455 C50.448,96.891 49.381,97.246 48.582,97.903 C46.984,98.477 45.689,97.546 44.365,97.246 C44.06,96.891 43.616,96.678 43.181,96.455 C44.267,95.367 46.282,95.209 47.395,94.15 Z M18.278,50.998 C18.081,50.427 17.977,49.439 18.146,48.759 C18.431,47.615 19.356,46.882 20.057,46.057 C20.429,46.035 20.634,45.845 20.912,45.728 L20.979,45.728 C21.209,46.099 20.66,46.808 20.584,47.31 C20.911,48.165 20.458,49.137 20.979,49.878 C21.223,52.138 22.605,53.259 23.943,54.423 C23.639,54.604 23.106,54.553 22.823,54.753 C20.832,54.473 18.954,52.955 18.278,50.998 Z M19.595,29.522 C19.62,28.564 20.117,27.554 20.385,26.623 C20.632,27.497 20.848,28.403 21.242,29.126 C21.964,29.372 22.514,29.789 23.152,30.115 C22.706,30.738 21.8,31.201 21.242,31.498 C21.139,32.257 21.133,32.979 20.912,33.671 C20.207,33.17 20.333,31.836 19.793,31.168 C19.013,31.05 18.368,30.793 17.883,30.378 C18.554,30.194 18.995,29.779 19.595,29.522 Z M25.261,62.396 C26.086,63.323 25.249,65.198 23.811,64.569 C23.253,64.024 23.119,62.509 24.074,62.198 C24.453,62.018 24.912,62.326 25.261,62.396 Z M35.603,42.895 C35.896,43.892 35.41,44.774 34.748,44.872 C33.917,44.995 33.283,44.179 33.365,43.489 C33.477,42.522 34.858,42.139 35.603,42.895 Z M36.46,55.15 C37.109,55.028 37.68,55.538 37.447,56.202 C37.177,56.984 35.837,56.667 35.735,56.006 C35.665,55.556 36.056,55.224 36.46,55.15 Z M40.939,53.436 C41.057,54.175 39.993,54.496 39.819,53.963 C39.665,53.485 40.5,52.959 40.939,53.436 Z M70.585,106.073 C70.236,105.067 70.639,102.952 69.004,103.305 C68.745,103.706 68.584,104.203 68.411,104.689 C68.159,104.079 67.751,103.292 66.961,103.437 C66.716,103.743 66.775,104.231 66.5,104.623 C65.688,103.479 65.161,104.977 64.984,105.809 C64.601,105.42 64.289,104.698 63.733,104.689 C63.779,103.568 63.105,103.166 62.22,102.977 C61.904,103.606 61.396,104.043 61.297,104.887 C61.049,104.12 59.906,103.674 59.518,104.623 C59.178,104.545 59.11,104.195 58.727,104.162 C58.632,103.492 58.29,102.505 57.608,102.845 C57.736,103.175 57.837,103.537 58.068,103.769 C57.782,104.139 57.726,104.741 57.475,105.15 C57.251,104.98 57.062,104.772 57.015,104.425 L57.343,104.425 C57.088,103.712 57.847,102.779 57.081,102.515 C56.72,102.77 56.578,103.243 56.488,103.769 C55.705,102.471 57.74,102.088 58.396,101.396 C58.712,101.54 58.879,101.835 59.255,101.922 C59.389,101.904 59.383,101.743 59.518,101.725 C59.409,101.326 59.077,101.155 58.793,100.934 C58.855,100.601 58.909,100.259 59.057,100.012 C59.736,100.452 60.098,101.211 60.703,101.725 C61.609,101.516 62.329,102.192 62.878,101.725 C62.551,100.695 61.038,101.393 60.439,100.605 C60.22,100.316 60.124,99.827 59.847,99.419 C59.693,99.398 59.6,99.315 59.386,99.353 C59.047,97.869 57.564,97.53 57.212,96.059 L57.343,96.059 C58.6,96.123 59.595,97.012 60.835,97.311 C64.081,99.313 67.674,100.968 71.113,102.779 C71.229,102.904 71.392,102.984 71.507,103.109 C71.833,103.113 72.056,103.218 72.232,103.372 C72.149,103.795 71.923,104.074 71.837,104.492 C71.211,104.81 71.126,105.67 70.585,106.073 Z M71.046,114.9 C70.612,114.265 70.312,113.197 69.795,112.858 C69.888,112.657 69.862,112.408 69.664,112.331 C70.123,112.177 70.243,111.682 70.717,111.54 C71.07,112.592 72.086,113.924 71.046,114.9 Z M69.138,113.384 C70.086,114.862 70.991,116.548 71.375,118.392 C70.892,119.072 70.523,119.867 69.795,120.302 C69.335,119.496 68.97,118.475 68.543,117.667 C68.38,117.358 68.006,117.06 67.95,116.745 C67.815,115.977 69.049,114.247 69.138,113.384 Z M69.992,111.671 C69.924,111.846 69.731,111.894 69.664,112.068 C69.456,111.967 69.268,111.848 69.004,111.804 C69.029,111.588 69.197,111.513 69.268,111.343 C69.602,111.407 69.813,111.365 69.992,111.671 Z M67.95,111.739 C67.965,111.708 68.132,111.711 68.147,111.671 C68.358,111.135 68.541,110.327 68.808,109.762 C68.942,109.474 69.388,108.967 69.465,108.51 C69.95,109.297 70.304,110.22 70.519,111.278 C70.041,111.184 69.691,110.964 69.597,110.487 L69.138,110.487 C69.067,110.554 68.77,110.929 69.069,110.948 C68.645,111.379 68.545,112.135 67.95,112.397 C67.942,112.755 68.181,112.868 68.346,113.055 C68.284,113.367 68.12,113.575 68.016,113.846 C67.737,113.662 67.62,113.284 67.621,112.99 C67.621,112.737 67.812,111.999 67.95,111.739 Z M69.268,104.425 C69.375,104.408 69.382,104.488 69.465,104.492 C69.632,105.533 70.017,106.357 70.123,107.455 C69.819,107.431 69.814,107.107 69.53,107.062 C68.73,107.402 68.716,108.528 68.279,109.235 C67.919,108.914 67.721,108.432 67.556,107.918 C68.027,106.654 68.53,105.423 69.268,104.425 Z M67.226,106.468 C66.821,105.933 67.009,105.043 67.357,104.558 C67.689,104.707 67.509,105.372 67.818,105.545 C67.643,105.875 67.576,106.314 67.226,106.468 Z M67.291,111.408 C67.048,111.348 66.863,110.879 66.765,110.487 C66.662,110.076 66.5,109.61 66.434,109.302 C66.378,109.033 66.56,108.455 65.907,108.575 C65.27,108.694 65.582,110.044 64.984,110.355 C63.826,108.9 65.381,107.033 65.843,105.612 C66.758,106.957 67.033,108.945 67.753,110.487 C67.504,110.699 67.521,111.178 67.291,111.408 Z M65.776,110.552 L65.974,110.552 C66.32,111.139 66.495,111.97 66.765,112.99 C67.028,113.99 67.721,114.463 67.357,115.494 C67.007,115.057 65.584,113.335 65.512,114.834 C65.232,115.3 65.08,115.896 64.919,116.481 C64.501,116.021 64.385,115.26 64.063,114.703 C64.926,113.717 65.122,111.913 65.776,110.552 Z M63.471,106.732 C63.71,107.044 64.327,106.813 64.458,106.599 C64.448,107.183 64.22,107.547 64.063,107.983 C63.593,107.882 63.716,107.188 63.471,106.864 C63.374,106.833 63.478,106.805 63.471,106.732 Z M62.22,105.084 C62.22,104.558 62.417,104.228 62.615,103.899 C63.458,104.419 63.448,105.567 63.404,106.533 C63.064,106.264 63.227,105.883 63.206,105.545 C62.788,105.482 62.637,105.149 62.22,105.084 Z M61.362,105.084 C61.464,105.18 61.618,105.223 61.758,105.282 C61.694,105.504 61.685,105.78 61.362,105.742 C61.263,105.623 61.263,105.204 61.362,105.084 Z M60.968,106.864 C60.416,106.512 59.641,105.595 60.243,104.887 C60.788,105.131 60.583,106.127 61.23,106.271 C61.15,106.477 61.072,106.681 60.968,106.864 Z M61.626,108.444 C61.343,107.689 61.736,106.856 62.153,106.271 C62.878,107.081 63.181,108.185 63.668,109.432 C63.819,109.82 64.067,110.145 64.13,110.487 C64.206,110.921 63.975,111.41 64.458,111.671 C64.183,112.429 64.053,113.33 63.536,113.846 C63.21,112.327 62.178,111.516 62.087,109.762 C62.038,109.613 61.889,109.565 61.758,109.498 C60.988,109.825 61.085,111.023 60.77,111.804 C60.305,111.721 60.284,111.191 60.045,110.881 C60.583,109.952 60.523,108.821 61.626,108.444 Z M72.232,112.595 C71.738,112.057 71.656,111.108 71.178,110.552 C71.306,109.739 70.572,109.231 70.519,108.378 C70.614,108.341 70.681,108.276 70.717,108.181 C70.995,108.331 70.965,108.745 71.178,109.235 C71.858,110.789 73.501,111.097 72.232,112.595 Z M75.197,120.631 C74.172,119.635 73.664,118.125 73.154,116.613 C72.949,116.467 72.685,116.382 72.363,116.35 C72.144,116.392 72.153,116.665 72.166,116.944 C71.793,116.787 71.872,116.183 71.573,115.954 C72.211,114.965 72.498,113.628 73.154,112.66 C73.944,113.386 74.045,114.799 74.539,115.822 C74.825,116.237 75.068,116.867 75.329,117.735 C75.677,118.897 76.044,119.686 75.197,120.631 Z M77.437,118.128 C78.413,118.778 78.498,120.317 79.281,121.159 C79.467,121.776 79.372,122.313 79.808,122.608 C79.676,123.326 78.266,123.881 78.425,124.651 C78.529,125.154 79.305,125.173 79.875,125.375 C79.9,125.794 79.534,126.01 79.413,126.364 C79.204,126.979 78.813,127.414 78.358,128.01 C78.058,128.405 77.397,128.992 77.371,129.328 C77.313,130.079 78.315,130.494 79.216,130.645 C79.314,131.249 78.734,131.625 78.49,132.094 C77.777,131.646 77.385,130.778 76.909,130.053 C76.451,129.352 75.824,128.641 75.725,127.813 C76.601,127.853 77.169,127.498 77.503,126.759 C76.578,125.311 75.189,124.328 74.472,122.674 C74.628,122.435 75.021,122.432 75.329,122.345 C76.258,121.163 76.597,119.397 77.437,118.128 Z M79.018,118.392 C78.393,117.883 78.313,116.377 77.503,116.415 C76.699,116.454 77.031,117.735 76.382,118.063 C76.003,117.425 76.138,117.027 76.316,116.284 C76.396,115.958 76.366,115.486 76.448,115.296 C76.487,115.205 76.729,115.171 76.777,115.098 C77.088,114.621 77.212,113.949 77.503,113.584 L77.699,113.584 C78.071,114.97 78.416,116.381 79.083,117.469 C79.271,117.525 79.255,117.377 79.413,117.405 C79.396,117.848 79.135,118.048 79.018,118.392 Z M84.749,118.853 C84.091,118.15 83.954,116.924 83.496,116.021 C84.335,116.054 84.929,116.561 85.737,116.415 C85.513,117.333 85.078,118.04 84.749,118.853 Z M91.271,118.392 C90.438,118.746 90.593,119.914 89.888,120.501 C89.5,119.878 89.458,118.909 88.965,118.392 C89.422,117.422 89.852,116.423 90.283,115.428 L90.48,115.428 C91.187,117.048 92.064,118.497 92.655,120.237 C91.809,120.266 92.098,118.6 91.271,118.392 Z M96.212,123.465 C96.162,123.687 95.719,123.764 95.619,123.727 C95.503,123.354 96.075,123.174 96.212,123.465 Z M97.595,124.583 C97.42,124.738 97.172,124.821 96.871,124.848 C97.315,124.322 96.563,124.193 96.475,123.794 C96.678,123.746 96.716,123.862 96.871,123.86 C96.966,123.823 97.031,123.757 97.067,123.662 C97.176,123.335 96.839,123.451 96.871,123.2 C97.378,123.158 97.423,124.08 97.595,124.583 Z M93.445,131.831 C93.978,131.696 96.028,131.05 96.079,130.514 C96.125,130.045 95.725,129.968 95.355,129.789 C94.598,129.418 93.702,128.794 93.313,128.207 C93.872,127.772 94.83,128.002 94.828,127.219 C94.827,126.679 94.296,126.783 94.17,126.232 C95.656,126.142 96.719,125.803 98.188,125.771 C98.466,125.521 98.665,125.192 98.781,124.783 C98.16,124.11 98.213,122.76 97.595,122.081 C97.773,121.454 97.26,121.203 97.332,120.631 C98.667,121.185 99.51,122.232 100.362,123.267 C100.6,124.169 100.91,125.002 101.152,125.902 C100.74,128.389 99.151,129.699 97.595,131.04 C96.083,131.856 94.49,132.591 92.522,132.95 C91.148,133.428 90.08,133.88 88.504,134.071 C88.177,133.431 87.583,133.06 87.319,132.358 C89.079,132.419 91.486,132.329 93.445,131.831 Z M88.175,128.867 C87.761,129.661 87.362,130.47 86.527,130.843 C86.422,130.75 86.359,130.617 86.329,130.448 C87.157,130.199 87.685,129.651 87.911,128.801 C88.029,128.791 88.051,128.881 88.175,128.867 Z M90.81,122.937 C90.577,122.736 90.125,122.764 89.755,122.741 C90.145,121.833 90.759,121.15 91.139,120.237 C91.548,121.105 92.182,122.091 92.457,122.872 C92.202,122.862 92.152,122.649 91.864,122.674 C91.402,122.673 91.475,123.208 91.337,123.53 C91.797,124.959 92.493,126.153 93.512,127.022 C92.75,127.366 91.169,126.747 91.535,128.01 C92.453,128.894 93.53,129.616 94.434,130.514 C92.642,131.261 89.901,131.508 87.713,131.303 C88.257,130.354 88.931,129.533 89.427,128.536 C89.216,127.839 88.647,128.077 88.043,128.075 C88.923,126.892 90.031,125.936 90.35,124.189 C90.682,123.815 91.06,123.153 91.073,122.674 C90.854,122.629 90.833,122.783 90.81,122.937 Z M93.577,123.53 C93.402,123.86 93.295,124.258 93.182,124.651 C93.153,124.876 93.379,124.849 93.445,124.98 C94.205,124.881 94.146,124.382 94.499,123.662 C94.586,123.484 94.827,123.356 94.894,123.2 C94.983,122.995 94.939,122.695 95.025,122.477 C95.302,121.784 95.899,121.53 95.816,120.434 C95.954,120.396 96.04,120.308 96.079,120.17 C96.332,120.33 96.379,120.806 96.212,121.028 C96.219,121.328 96.573,121.28 96.673,121.488 C96.663,122.047 96.877,122.382 97.067,122.741 C96.832,123.048 96.55,122.597 96.278,122.542 C96.399,122.309 96.443,121.832 96.146,121.686 C95.716,121.672 95.539,122.118 95.686,122.477 C95.175,122.72 95.687,123.346 95.421,123.662 C95.296,123.634 95.256,123.52 95.092,123.53 C94.954,123.9 95.14,124.19 94.894,124.453 C94.907,124.505 94.962,124.519 94.96,124.583 C95.359,124.522 95.612,124.093 96.015,124.123 C96.459,124.157 96.488,124.489 96.806,124.783 C95.728,125.363 94.239,125.123 93.115,125.112 C92.876,124.582 92.524,124.283 92.457,123.727 C92.893,123.893 93.153,123.57 93.577,123.53 Z M93.247,118.59 C94.023,118.779 94.937,118.831 95.355,119.381 C95.209,120.793 94.287,121.429 94.038,122.741 C93.494,122.597 93.066,121.783 92.786,121.159 C94.791,121.231 93.344,119.655 93.247,118.59 Z M88.241,117.141 C88.307,117.032 88.521,117.068 88.635,117.009 C88.626,117.195 88.516,117.283 88.504,117.469 C88.228,117.547 88.387,117.192 88.241,117.141 Z M88.9,121.093 C88.9,121.378 89.211,121.353 89.295,121.554 C89.119,122.129 88.255,122.384 88.372,123.07 C88.454,123.551 89.027,123.591 89.558,123.794 C89.119,125.486 88.006,126.5 86.988,127.616 C86.438,127.354 86.19,126.79 85.869,126.297 C86.23,126.352 86.569,126.432 86.726,126.693 C86.855,126.603 87.032,126.561 87.055,126.364 C87.001,125.978 86.46,126.079 86.265,125.837 C86.039,125.834 85.842,126.2 85.803,126.166 C85.444,126.019 85.306,125.654 85.276,125.177 C86.017,125.018 86.516,124.616 86.462,123.662 C85.705,122.948 84.746,122.435 84.222,121.488 C84.443,121.336 84.657,121.177 84.946,121.093 C85.303,119.199 86.028,118.057 86.659,116.415 C87.176,117.128 87.639,117.897 87.911,118.853 C88.489,119.352 88.876,120.039 88.9,121.093 Z M82.047,115.954 C82.282,115.969 82.393,115.859 82.378,115.624 C82.864,116.873 83.327,118.146 83.63,119.577 C83.79,119.789 83.959,119.994 84.222,120.105 C84.042,120.343 84.072,120.789 83.827,120.96 C83.467,120.509 83.199,119.964 82.839,119.512 C82.999,119.343 83.212,119.226 83.168,118.853 C83.091,118.865 83.051,118.839 83.036,118.787 C82.753,118.812 82.722,119.088 82.706,119.381 C82.388,119.391 82.396,119.077 82.114,119.051 C81.45,119.791 81.096,120.843 80.532,121.686 C79.919,121.114 79.819,120.028 79.281,119.381 C80.302,117.877 80.892,115.94 81.851,114.373 C82.243,114.53 82.198,115.125 82.378,115.494 C82.143,115.369 81.88,115.433 81.851,115.692 C81.84,115.856 81.951,115.898 82.047,115.954 Z M91.535,107.785 C91.621,107.169 92.124,106.971 92.391,106.533 C93.05,107.132 92.569,108.233 92.062,108.708 C91.679,108.609 91.785,108.017 91.535,107.785 Z M89.295,108.246 C89.696,107.682 89.671,106.691 90.086,106.139 C91.237,106.839 90.097,108.103 89.623,108.839 C89.334,108.823 89.423,108.425 89.295,108.246 Z M88.307,106.271 C88.513,106.526 88.686,106.813 88.635,107.325 C88.149,107.563 88.093,108.229 87.581,108.444 C86.753,107.75 87.628,106.623 88.307,106.271 Z M85.539,110.881 C85.763,110.091 86.335,109.31 86.857,109.036 C87.07,109.369 86.735,109.639 86.726,109.958 C86.865,110.233 87.11,110.463 87.45,110.355 C87.721,110.814 87.541,111.54 88.241,111.671 C88.914,111.173 88.209,110.085 87.977,109.498 C88.076,109.201 88.187,108.917 88.57,108.906 C88.604,109.377 88.994,109.493 89.03,109.958 C89.052,110.222 88.782,110.488 88.833,110.75 C89.018,111.674 90.158,110.886 91.139,111.014 C91.455,110.888 91.334,110.375 91.139,110.223 C90.822,110.345 90.306,110.268 89.888,110.29 C89.959,109.526 90.344,109.077 90.679,108.575 C91.647,108.881 91.232,110.57 91.665,111.408 C91.876,111.352 91.87,111.511 91.996,111.54 C92.266,110.978 93.208,111.085 93.379,110.421 C93.287,109.904 92.719,110.255 92.325,110.026 C92.268,109.177 92.866,108.986 93.115,108.444 C93.476,108.897 93.636,109.549 94.038,109.958 C93.66,110.701 93.498,111.659 93.182,112.462 C90.686,112.104 87.861,112.45 85.343,111.936 C85.745,111.306 87.294,111.824 87.516,111.014 C87.026,110.585 86.248,110.853 85.539,110.881 Z M85.144,107.259 C85.818,107.882 85.803,109.498 85.078,110.026 C84.272,109.373 84.553,107.983 85.144,107.259 Z M81.589,106.599 C81.883,107.073 81.987,107.738 82.245,108.246 C82.095,108.491 82.052,108.844 81.785,108.971 C81.811,108.17 80.657,107.068 81.589,106.599 Z M80.664,107.983 C80.918,108.014 80.788,108.43 80.928,108.575 C80.582,108.867 80.067,108.989 79.61,109.169 C79.762,108.575 80,108.066 80.664,107.983 Z M78.951,108.51 C78.594,107.808 78.396,106.736 79.018,106.205 C79.361,106.52 79.364,107.176 79.677,107.521 C79.458,107.875 79.273,108.26 78.951,108.51 Z M79.083,110.026 C79.326,110.004 79.237,109.655 79.347,109.498 C79.949,110.355 80.8,109.169 81.521,109.631 C81.563,110.002 81.331,110.1 81.323,110.421 C81.543,111.591 83.089,110.94 83.761,110.552 C83.77,110.434 83.681,110.414 83.695,110.29 C83.194,109.944 82.821,110.276 82.245,110.29 C82.227,109.454 82.936,108.785 83.168,107.983 L83.366,107.983 C83.831,108.967 83.688,110.338 84.617,110.948 C84.685,111.321 84.879,111.566 85.013,111.869 C83.965,111.913 82.978,111.466 81.982,111.278 C80.424,110.981 78.823,111.052 77.634,110.29 C77.869,109.972 78.712,109.995 79.083,110.026 Z M77.173,109.302 C77.215,108.66 77.548,108.315 77.699,107.785 L77.831,107.785 C78.294,108.048 78.255,108.812 78.425,109.367 C77.899,109.312 77.729,109.309 77.173,109.302 Z M76.053,107.325 C76.071,106.904 76.347,106.74 76.448,106.403 C76.782,106.529 76.754,107.018 76.844,107.39 C76.567,107.493 76.225,107.596 76.053,107.325 Z M74.539,107.521 C74.575,107.041 74.53,106.844 74.67,106.533 L74.867,106.533 C74.938,106.859 75.135,107.058 75.13,107.455 C75.021,107.565 74.743,107.509 74.539,107.521 Z M76.844,107.983 C76.748,108.576 76.281,108.971 76.514,109.697 C76.738,109.934 77.163,109.969 77.305,110.29 C76.025,110.097 74.981,109.337 74.01,108.642 C74.078,108.404 74.229,108.245 74.341,108.049 C75.38,108.256 75.894,108.134 76.844,107.983 Z M96.541,112.529 C95.523,112.564 94.986,112.408 94.234,112.529 C94.696,112.14 96.313,111.669 96.541,112.529 Z M94.434,108.906 C93.641,108.394 94.329,107.345 94.696,106.864 C94.989,106.966 95.025,107.326 95.158,107.587 C94.89,108.001 94.668,108.459 94.434,108.906 Z M95.29,109.828 C95.184,109.94 95.014,109.992 94.764,109.958 C94.897,109.544 95.081,109.18 95.225,108.775 C95.354,108.821 95.399,108.95 95.421,109.102 C94.992,109.148 95.092,109.643 95.29,109.828 Z M94.696,111.014 C95.126,111.158 95.507,110.839 95.75,111.278 C95.245,111.239 95.041,111.419 94.302,111.408 C94.234,111.023 94.567,110.498 94.696,110.091 C95.021,110.231 94.577,110.415 94.565,110.618 C94.547,110.811 94.715,110.821 94.696,111.014 Z M96.079,110.684 C96.334,110.803 96.472,111.039 96.41,111.475 C96.196,111.513 96.103,111.43 95.948,111.408 C95.91,111.011 96.26,111.064 96.079,110.684 Z M95.619,108.971 C95.861,108.949 95.817,109.212 95.882,109.367 C95.609,109.418 95.497,109.113 95.619,108.971 Z M95.686,109.894 C95.746,109.963 95.928,109.913 95.882,110.091 C96.028,110.083 95.911,109.812 95.948,109.697 C96.2,109.792 96.105,110.133 96.079,110.355 C95.913,110.097 95.711,110.205 95.421,110.158 C95.372,109.933 95.665,110.048 95.686,109.894 Z M96.871,109.302 C96.104,108.662 96.477,107.252 97.199,106.864 C97.57,107.107 97.529,107.765 97.794,108.116 C97.537,108.562 97.155,108.882 96.871,109.302 Z M97.067,110.158 C97.362,109.443 97.954,109.021 98.319,108.378 C98.916,108.703 99.016,109.528 99.375,110.091 C98.766,110.298 97.761,110.303 97.067,110.158 Z M100.164,111.343 C100.031,112.024 100.432,112.174 100.428,112.726 C99.163,112.748 98.1,112.592 96.937,112.529 C96.967,112.317 97.192,112.303 97.332,112.2 C97.124,111.849 97.135,111.528 97.199,111.014 C98.282,111.043 99.563,110.506 100.164,111.343 Z M100.494,110.552 C100.271,110.028 99.748,109.226 99.44,108.313 C99.191,107.575 99.8,106.672 100.23,106.139 C101.158,106.686 100.778,108.116 101.152,108.971 C100.861,109.427 100.821,110.132 100.494,110.552 Z M102.998,112.068 C103.245,112.239 103.522,112.378 103.919,112.397 C103.844,112.673 103.855,113.034 103.657,113.188 C102.99,113.086 102.333,112.973 101.68,112.858 C101.896,112.358 102.544,112.918 102.8,112.529 C102.811,112.278 102.634,112.211 102.603,112.001 C102.186,111.937 101.479,112 101.021,112.001 C101.265,111.026 101.319,109.953 101.812,109.102 C102.354,109.902 102.884,111.06 102.998,112.068 Z M103.129,109.828 C102.863,108.93 102.473,108.157 101.943,107.521 C102.104,107.158 102.338,106.863 102.537,106.533 C103.11,107.036 103.253,107.97 103.789,108.51 C103.608,108.988 103.504,109.543 103.129,109.828 Z M105.304,109.631 C104.697,109.288 104.633,110.002 105.106,109.958 C104.819,110.772 104.36,111.408 104.051,112.2 C103.792,111.58 103.498,110.995 103.328,110.29 C104.075,110.311 104.201,109.714 104.447,109.235 C104.563,109.251 104.597,109.349 104.58,109.498 C104.739,109.404 105.315,109.346 105.304,109.631 Z M105.238,107.587 C105.292,107.333 105.289,107.025 105.566,106.994 C105.703,107.298 105.778,107.661 105.962,107.918 C105.799,107.989 105.553,107.583 105.238,107.587 Z M105.37,108.642 C105.042,108.621 104.942,108.828 104.974,109.169 C104.811,109.254 104.654,109.021 104.644,109.169 C104.501,108.739 104.932,108.314 105.04,107.918 C105.315,107.993 105.302,108.358 105.37,108.642 Z M107.083,113.714 C106.757,113.777 106.625,113.644 106.687,113.319 C106.136,112.889 105.387,113.18 104.644,113.253 C104.527,112.291 105.345,111.446 105.764,110.618 C106.491,111.365 106.638,112.686 107.083,113.714 Z M107.478,109.102 C106.748,108.473 106.611,107.188 107.345,106.468 C107.772,106.889 107.303,107.818 107.939,108.049 C107.875,108.491 107.55,108.67 107.478,109.102 Z M109.585,111.014 C109.391,111.591 108.991,112.047 108.665,112.529 C108.339,113.005 108.161,113.647 107.609,113.911 C107.427,113.664 107.77,113.489 107.807,113.253 C106.739,111.744 107.708,109.928 108.466,108.775 C109.04,109.321 109.108,110.372 109.585,111.014 Z M109.455,108.775 C109.198,108.24 109.024,107.623 108.665,107.192 C108.922,106.594 109.316,106.13 109.651,105.612 C110.14,105.936 110.186,106.702 110.508,107.192 C110.239,107.802 109.893,108.334 109.455,108.775 Z M110.047,109.958 C110.111,108.881 110.634,108.264 111.167,107.655 C112.24,108.564 111.775,110.241 110.969,111.078 C110.664,110.705 110.76,109.925 110.047,109.958 Z M108.598,114.308 C108.723,113.05 109.634,112.578 110.047,111.606 C110.726,112.42 110.709,113.931 111.298,114.834 C111.233,115.011 111.164,115.182 111.167,115.428 C110.741,115.349 110.403,115.182 110.245,114.834 C110.54,114.845 110.677,114.697 110.772,114.505 C110.273,113.783 109.337,114.445 108.598,114.308 Z M106.621,109.235 C106.642,109.544 106.978,109.887 106.819,110.158 C106.452,109.866 106.33,108.98 105.566,109.302 C105.442,109.292 105.521,109.083 105.37,109.102 C105.756,108.771 106.602,108.192 106.226,109.169 C106.235,109.314 106.505,109.197 106.621,109.235 Z M89.623,102.055 C90.131,102.223 90.816,102.277 91.139,102.515 C91.512,102.791 91.655,103.29 91.996,103.569 C92.818,104.245 93.836,104.423 94.894,105.019 C95.233,105.691 96.066,105.867 96.541,106.403 C96.378,106.765 96.222,107.136 95.882,107.325 C95.613,106.672 95.399,105.962 94.631,105.809 C94.271,106.217 94.105,106.821 93.708,107.192 C93.55,107.22 93.565,107.073 93.379,107.127 C93.213,106.599 93.199,105.793 92.786,105.349 C92.691,105.353 92.601,105.359 92.588,105.282 C92.008,105.601 91.935,106.429 91.271,106.665 C91.178,105.946 90.591,105.72 90.283,105.216 C89.797,105.347 89.551,105.714 89.36,106.139 C88.896,106.176 88.653,105.448 88.043,105.415 C87.317,106.049 86.886,106.978 86.199,107.655 C86.146,106.98 85.793,106.61 85.869,105.809 C84.799,105.601 84.745,106.967 84.156,107.455 C83.872,107.169 83.489,106.981 83.101,106.796 C82.846,106.804 82.842,107.063 82.706,107.192 C82.259,106.678 82.191,105.349 81.521,105.349 C80.793,105.349 80.915,106.742 80.138,106.929 C79.794,106.11 79.793,104.946 79.018,104.558 C78.278,105.07 78.461,106.503 77.634,106.929 C77.378,106.419 77.239,105.333 76.514,105.084 C76.105,105.29 76.003,105.802 75.79,106.205 C75.306,105.898 75.181,105.233 74.405,105.216 C73.771,105.834 74.148,107.239 73.418,107.852 C72.244,107.151 72.61,105.141 73.088,103.965 C75.372,102.285 78.014,100.931 80.336,99.286 C81.539,98.435 82.577,97.412 83.827,96.784 C84.452,97.322 84.283,98.656 85.539,98.563 C85.606,97.352 84.531,97.325 84.749,96.125 C85.206,96.054 85.366,95.69 85.935,95.73 C86.108,96.066 86.074,96.757 86.594,96.914 C87.079,96.692 86.858,96.099 86.726,95.664 C89.157,95.483 90.007,93.72 91.864,92.963 C91.82,93.79 92.165,94.582 92.655,95.07 C92.529,95.626 92.382,96.159 92.259,96.718 C91.638,97.216 90.905,97.603 90.941,98.761 C90.405,99.343 89.677,99.735 89.229,100.408 L89.229,100.934 C88.943,101.219 88.681,101.529 88.57,101.989 C88.069,102.432 87.192,102.498 86.924,103.174 C87.953,103.585 88.982,102.65 89.623,102.055 Z M43.181,66.018 C42.811,65.406 42.366,64.312 42.322,63.581 C42.267,62.605 42.92,61.775 42.916,60.682 C43.7,60.282 43.97,60.764 44.562,61.012 C45.622,62.66 47.315,64.009 48.778,65.36 C49.969,66.456 51.19,67.556 52.601,68.326 C52.333,68.651 51.924,68.835 51.612,69.115 C51.614,69.376 51.867,69.388 52.007,69.51 C52.507,69.328 52.918,69.059 53.325,68.785 C54.008,69.026 54.521,69.434 55.104,69.774 C54.792,70.581 54.177,71.085 53.786,71.816 C51.993,72.295 50.686,73.427 49.24,74.056 C49.224,74.291 49.438,74.297 49.438,74.517 C51.199,74.258 52.086,73.122 53.721,72.738 C54.008,72.609 54.126,72.311 54.511,72.278 C54.93,71.641 55.357,71.017 55.762,70.367 C56.796,70.609 57.272,71.973 58.267,72.474 C58.238,72.633 58.385,72.619 58.331,72.805 C60.475,74.656 62.243,76.886 65.117,78.008 C65.848,79.605 66.411,81.369 67.357,82.752 C66.5,83.99 66.053,85.385 64.854,86.31 C64.546,86.547 63.88,86.669 64.195,87.297 C65.174,87.087 65.951,86.442 66.566,85.783 C67.16,85.146 67.228,84.171 67.95,83.607 C68.63,84.919 69.682,86.744 69.992,88.549 C70.062,88.95 69.953,89.482 70.123,89.802 C70.335,90.197 70.85,90.16 71.113,90.394 C73.155,89.906 74.493,90.722 76.252,90.987 C77.098,91.531 78.537,91.965 79.808,92.239 C80.48,92.383 81.536,92.595 82.114,92.304 C83.108,91.805 83.901,91.26 84.816,90.79 C85.817,90.271 87,89.948 88.438,89.736 C89.402,89.592 90.785,89.693 91.799,89.603 C93.41,89.46 94.499,88.49 95.882,87.956 C96.015,87.846 96.189,87.781 96.212,87.56 C96.773,87.681 97.18,87.141 97.661,86.967 C98.327,87.444 99.236,88.3 100.1,88.68 C100.541,88.875 101.072,88.895 101.548,89.077 C101.884,89.203 102.163,89.487 102.47,89.603 C102.826,89.739 103.24,89.69 103.59,89.868 C104.56,90.357 105.364,91.099 106.358,91.448 C105.887,91.853 105.438,92.168 104.909,92.567 C104.408,92.944 103.951,93.148 103.129,93.556 C102.466,93.886 101.791,94.279 100.691,94.214 C99.726,94.159 98.755,93.512 97.925,93.226 C97.338,93.025 96.768,92.946 96.212,92.7 C95.743,92.49 95.552,92.226 95.158,92.04 C95.057,91.992 94.953,92.147 94.828,92.107 C94.807,92.099 94.851,91.92 94.828,91.909 C94.496,91.744 93.767,91.75 93.512,91.646 C93.24,91.535 93.204,91.334 92.983,91.317 C92.384,91.266 91.03,92.142 90.35,92.633 C89.286,93.4 88.329,94.478 86.924,94.743 C86.199,94.877 85.71,94.747 84.946,95.006 C83.362,95.54 82.127,96.732 80.863,97.705 C80.547,97.951 80.188,98.186 79.875,98.43 C79.047,99.075 78.078,99.584 77.239,100.341 C75.963,100.8 75.003,101.574 73.945,102.252 C73.582,102.263 73.371,102.424 73.154,102.58 C71.832,102.075 70.498,101.63 69.334,100.999 C69.187,100.92 69.001,100.802 68.938,100.605 C68.658,100.644 68.503,100.558 68.279,100.539 C67.996,100.493 68.009,100.15 67.753,100.077 C65.296,99.087 63.333,97.601 61.032,96.455 C61.227,96.076 61.589,95.985 61.758,95.796 C62.048,95.471 62.406,94.472 62.878,94.411 C63.284,94.361 64.201,95.286 64.656,95.533 C65.102,95.772 66.683,96.416 67.226,96.52 C67.618,96.596 69.142,96.854 69.138,96.39 C69.132,95.884 67.82,95.843 67.423,95.861 C65.568,95.278 64.308,94.101 62.679,93.292 L62.679,92.831 C61.539,90.885 59.523,90.201 58.595,88.022 C58.909,86.347 58.507,85.589 58.135,84.267 C57.905,84.078 57.819,83.746 57.541,83.607 C57.31,82.85 56.803,82.037 56.354,81.302 C55.391,79.715 52.775,79.279 50.822,78.47 C50.368,78.281 49.972,78.013 49.571,77.877 C49.018,77.689 48.5,77.641 47.988,77.349 C47.389,77.007 46.782,76.5 46.145,76.031 C45.189,75.33 44.495,74.845 43.642,74.121 C42.879,73.475 42.488,72.785 42.191,71.619 C42.524,70.009 41.789,68.702 41.072,67.468 C41.428,66.552 40.899,65.485 41.731,65.03 C42.284,65.661 42.507,66.5 43.048,67.139 C43.363,67.509 43.79,67.737 44.168,68.061 C44.372,68.001 44.53,67.897 44.694,67.798 C44.444,67.1 43.596,66.707 43.181,66.018 Z M100.362,85.124 C101.652,84.767 102.585,83.766 103.657,83.08 C104.208,82.73 104.834,82.628 105.238,82.092 C106.262,81.646 107.19,81.102 107.939,80.381 C108.722,80.092 109.338,79.798 109.981,79.261 L110.245,79.261 C110.688,80.302 109.608,80.791 108.993,81.302 C108.114,82.035 107.3,82.953 106.753,83.741 C106.435,85.95 104.494,87.101 102.603,87.956 C102.409,88.025 102.373,88.254 102.273,88.416 C100.923,88.016 99.461,87.61 98.583,86.573 C99.037,85.95 99.958,85.795 100.362,85.124 Z M110.969,87.494 C110.993,87.927 110.543,87.955 110.311,88.154 C109.357,88.962 108.515,90.044 107.345,90.723 C105.639,90.433 104.763,89.309 103.195,88.878 C103.276,88.497 103.715,88.476 103.855,88.154 C105.333,87.811 105.976,86.63 107.016,85.848 C107.06,85.564 107.229,85.402 107.345,85.19 L107.543,85.19 C108.392,86.226 109.826,86.967 110.969,87.494 Z M111.1,80.71 C112.151,81.166 112.89,82.871 114.198,82.423 C114.026,81.781 113.369,81.625 112.946,81.238 C112.563,80.434 111.827,79.985 111.233,79.391 C111.24,79.07 111.198,78.698 111.298,78.47 C113.368,77.311 115.265,75.981 117.228,74.714 C118.094,75.297 118.863,75.977 119.665,76.625 C119.701,77.189 119.395,77.409 119.269,77.811 C119.352,77.992 119.625,77.981 119.863,78.008 C119.979,77.555 120.231,77.237 120.522,76.954 C121.396,77.332 122.015,77.964 122.696,78.535 C123.544,78.894 124.582,79.067 125.2,79.656 C124.423,80.072 122.97,79.895 121.905,79.985 C120.665,80.09 119.623,80.447 118.612,81.105 C117.948,81.536 117.424,82.176 116.766,82.752 C116.471,83.01 116.07,83.175 115.844,83.41 C115.756,83.502 115.747,83.707 115.646,83.807 C115.171,84.276 114.445,84.55 114.198,85.255 C113.163,85.561 112.694,86.43 111.827,86.903 C110.303,86.162 108.714,85.492 107.939,84.004 C107.959,83.716 108.112,83.562 108.136,83.279 C109.148,82.445 110.148,81.602 111.1,80.71 Z M128.822,70.762 C129.958,69.842 131.083,71.521 130.207,72.607 C128.984,73.115 128.201,71.745 128.822,70.762 Z M136.002,63.845 C136.262,63.899 136.369,64.378 136.662,64.439 C136.934,66.137 134.889,65.759 134.95,64.702 C134.974,64.262 135.531,63.745 136.002,63.845 Z M145.555,59.496 C145.865,59.853 145.978,60.39 145.555,60.682 C145.268,60.685 144.946,60.722 144.831,60.551 C144.915,60.041 144.833,59.365 145.555,59.496 Z M163.737,52.053 C164.658,52.256 165.294,53.132 164.924,54.226 C164.547,54.654 163.609,54.606 163.145,54.292 C162.476,53.48 163.082,52.465 163.737,52.053 Z M175.991,61.012 C175.459,60.922 175.546,60.367 175.661,59.826 C176.596,59.625 177.035,61.186 175.991,61.012 Z M177.439,47.244 C177.368,46.646 177.796,46.093 177.967,45.531 C178.562,45.778 178.784,46.393 179.154,46.847 C179.349,47.09 179.75,47.19 179.746,47.573 C180.289,47.573 180.587,47.736 181.13,48.1 C181.319,48.226 181.911,48.595 181.919,48.693 C181.961,49.132 179.804,49.726 179.483,50.274 C179.113,50.903 179.171,51.706 179.021,52.249 C178.952,52.504 178.764,52.623 178.889,52.975 C178.684,53.275 178.64,53.735 178.429,54.03 C177.754,53.064 177.748,50.777 176.98,50.077 C176.44,49.584 175.779,49.668 175.201,49.154 C175.631,48.201 176.631,47.818 177.439,47.244 Z M14.919,34.462 C14.303,34.629 13.715,34.472 13.667,34.001 C13.544,32.806 15.623,33.045 14.919,34.462 Z M10.108,40.261 C9.786,39.684 10.36,38.54 11.164,38.811 C11.421,38.898 11.776,39.267 11.755,39.798 C11.397,40.123 10.754,40.629 10.108,40.261 Z M9.45,19.311 C10.23,19.321 11.212,19.983 11.164,21.024 C11.15,21.297 10.898,22.082 10.569,22.144 C10.258,22.201 9.539,22.412 9.384,22.407 C7.92,22.351 7.591,19.477 9.45,19.311 Z M215.189,26.36 C214.39,26.902 213.839,27.691 213.014,28.205 C213.301,27.141 214.103,26.585 214.201,25.503 C215.145,24.225 215.186,22.236 215.649,20.562 C215.729,20.279 215.921,20.045 215.98,19.773 C216.193,18.763 215.926,17.968 215.848,17.072 C215.833,16.9 215.885,16.598 215.848,16.412 C215.714,15.758 215.095,14.279 214.266,14.436 C213.821,14.521 213.454,15.487 213.147,15.952 C212.025,17.65 210.991,19.19 209.721,20.496 C210.318,17.924 212.305,13.718 210.84,10.878 C209.455,10.422 209.104,12.002 208.667,12.92 C207.662,14.102 206.994,15.44 206.097,16.676 C205.054,18.114 203.678,19.235 202.804,20.694 C201.893,21.564 200.97,22.418 200.3,23.528 C199.531,23.989 199.004,25.042 198.324,25.371 C198.929,24.495 198.728,22.566 198.982,20.892 C199.113,20.041 199.409,18.934 199.181,17.927 C199.118,17.649 198.802,16.825 198.523,16.742 C197.566,16.46 197.553,17.869 196.875,18.059 C195.061,20.879 192.54,22.99 190.287,25.371 C188.374,26.863 186.942,28.834 185.28,30.576 C183.609,32.327 181.84,33.922 180.009,35.517 C178.472,36.717 176.501,38.44 174.739,39.798 C174.458,40.017 174.105,40.119 173.751,40.392 C173.475,40.607 173.048,41.129 172.83,41.117 C172.825,41.117 172.784,41.086 172.729,41.045 C172.463,41.315 172.179,41.55 171.87,41.742 C171.88,41.754 171.897,41.761 171.906,41.776 C171.528,42.187 170.978,42.428 170.655,42.895 C168.947,43.964 167.288,45.154 165.516,46.255 C163.783,47.332 162.07,48.654 160.114,49.416 C159.996,49.463 159.86,49.369 159.72,49.416 C159.385,49.531 159.071,49.77 158.731,49.878 C157.54,50.259 156.528,50.638 155.502,51.197 L155.042,51.197 C149.511,53.66 143.747,55.886 138.309,58.443 C138.081,58.39 138.056,58.539 137.846,58.509 C134.797,60.618 132.083,63.064 128.955,65.096 C128.881,65.287 128.743,65.412 128.624,65.559 C126.127,67.607 123.483,69.508 120.851,71.421 C120.043,71.692 119.431,72.266 118.742,72.738 C116.23,74.46 113.601,75.994 111.035,77.679 L110.574,77.679 C109.744,78.781 108.192,79.162 107.215,80.117 C106.676,80.233 106.42,80.54 106.028,80.776 C103.03,82.563 100.141,84.57 97.135,86.244 C94.861,87.508 93.255,88.581 90.283,88.746 C87.536,88.9 85.592,89.239 83.761,90.13 C83.065,90.47 82.508,91.21 81.652,91.448 C80.827,91.679 79.726,91.345 78.887,91.118 C76.361,90.435 74.13,89.035 71.046,89.34 C70.452,85.674 68.613,83.076 66.896,80.248 C66.619,79.029 66.075,77.737 65.512,77.021 C65.284,75.911 64.532,74.922 64.063,74.188 C63.973,74.045 63.962,73.812 63.866,73.661 C63.054,72.39 61.874,71.138 61.23,69.839 C60.247,68.742 59.281,67.794 58.331,66.744 C57.669,66.01 57.037,65.29 56.421,64.635 C55.792,63.966 55.24,63.318 54.643,62.66 C54.213,62.184 53.487,61.85 52.996,61.407 C52.732,61.17 52.546,60.786 52.271,60.551 C51.64,60.009 50.979,59.598 50.427,59.035 C50.097,58.7 49.797,58.249 49.504,57.981 C49.401,57.886 49.402,57.756 49.306,57.653 C47.864,56.09 46.102,54.013 45.551,51.789 C45.251,50.577 45.406,49.208 45.091,47.704 C44.796,46.304 43.739,45.233 42.587,44.872 C42.259,42.219 41.456,39.973 39.161,39.47 C39.04,36.912 38.489,34.75 36.79,33.869 C36.373,33.655 36.023,33.718 35.868,33.409 C35.754,33.185 35.894,32.995 35.868,32.75 C35.725,31.438 35.173,29.151 34.088,28.534 C33.771,28.355 33.418,28.429 33.034,28.205 C32.496,25.785 31.181,21.412 28.226,23.198 C27.161,19.906 26.392,16.552 24.273,14.436 C23.121,14.558 22.268,14.978 21.571,15.556 C21.302,12.649 21.034,9.445 19.858,7.255 C19.464,7.1 19.015,7.002 18.409,7.057 C17.272,7.94 16.441,9.129 15.445,10.154 C15.477,6.774 16.656,4.322 16.105,1.195 C15.8,0.862 15.457,0.567 14.919,0.47 C14.403,0.68 13.845,0.844 13.337,1.063 C11.397,3.361 9.577,5.779 8.792,9.232 C8.16,10.225 8.276,11.967 7.672,12.987 C7.065,12.815 6.887,12.048 6.289,11.998 C5.619,11.942 5.383,12.698 4.839,13.052 C4.575,14.018 3.992,14.667 3.916,15.819 C2.545,18.302 2.336,21.989 2.468,25.174 C2.347,26.319 2.428,27.835 2.401,29.193 C2.346,32.13 3.046,34.978 3.322,37.823 C2.858,37.365 2.09,37.66 1.412,37.428 C1.222,37.582 0.706,37.64 0.623,37.954 C0.54,38.262 0.829,38.537 0.953,38.877 C1.007,39.029 0.965,39.222 1.019,39.404 C1.452,40.902 2.412,43.098 2.729,44.542 C3.573,45.828 4.348,47.325 4.971,48.89 C5.297,49.711 5.42,50.462 6.09,50.8 C6.407,51.825 7.16,52.98 7.869,53.831 C8.096,54.703 8.635,55.262 9.186,55.807 C9.063,55.933 9.18,55.972 9.186,56.136 C10.281,57.239 10.918,58.797 12.151,59.759 C12.691,61.151 13.613,61.831 14.589,62.79 C15.093,63.285 15.81,64.139 16.105,64.702 C16.15,64.79 16.239,64.819 16.302,64.899 C16.623,65.314 17.002,65.837 17.356,66.215 C19.574,68.598 21.842,70.825 23.614,73.594 C24.412,74.181 24.979,74.996 25.787,75.572 C25.731,75.781 25.846,75.821 25.92,75.901 C26.958,76.597 27.714,77.576 28.886,78.141 C28.905,78.294 28.964,78.412 29.016,78.535 C29.253,78.518 29.333,78.658 29.543,78.667 C30.244,79.68 31.28,80.356 32.375,80.974 C32.815,82.004 34.124,82.168 34.682,83.08 C35.56,83.386 35.986,84.148 36.921,84.399 C40.061,87.495 44.31,89.484 46.211,93.82 C44.452,94.916 42.161,95.48 41.006,97.179 C40.163,98.211 40.397,99.62 39.755,100.671 C39.601,100.922 39.34,101.095 39.161,101.329 C38.284,102.483 37.11,104.432 37.645,106.271 C37.852,106.304 38.014,106.385 38.173,106.468 C39.08,106.016 39.587,105.37 40.545,105.084 C42.732,104.431 44.462,105.481 45.815,106.337 C48.109,107.789 51.219,109.012 53.721,109.958 C55.613,111.181 57.143,112.827 58.267,114.768 C58.713,115.544 59.077,116.388 59.583,117.141 C60.089,117.889 60.55,118.731 61.099,119.381 C61.863,120.284 63.009,121.229 63.997,122.148 C64.976,123.055 66.2,123.999 66.699,125.177 C66.989,125.864 66.994,126.34 67.488,126.825 C67.911,128.886 69.279,129.928 70.454,131.239 C71.036,131.888 71.313,132.448 72.102,132.95 C73.913,134.107 75.957,135.149 78.229,135.586 C79.64,136.194 81.383,136.472 82.642,137.233 C83.166,138.071 84.122,138.475 84.552,139.408 C84.41,139.881 83.955,139.971 83.63,140.262 C82.563,141.219 81.781,142.77 81.785,144.545 C81.788,146.637 83.158,148.042 83.564,149.75 C84.541,150.662 85.533,153.033 87.186,153.308 C88.271,153.486 89.282,152.801 89.623,151.791 C90.163,151.972 90.547,152.508 91.073,152.648 C92.491,153.026 93.617,151.828 94.17,150.869 C94.395,150.764 94.649,150.691 94.894,150.606 C95.882,149.789 97.012,148.322 96.739,146.39 C96.554,145.066 96.393,143.534 95.225,143.425 C94.884,144.074 95.366,145.232 94.499,145.533 C94.242,145.329 94.238,145.071 94.038,144.743 C93.88,144.484 93.303,144.05 93.313,143.821 C93.321,143.667 93.591,143.647 93.774,143.425 C93.976,143.18 93.975,142.998 94.17,142.899 C94.313,142.825 94.523,142.862 94.631,142.767 C95.014,142.435 94.851,142.009 95.158,141.647 C96.275,142.028 97.355,141.38 97.332,140.198 C97.833,140.039 98.178,139.727 98.583,139.473 C100.676,141.242 101.573,144.892 101.548,148.169 C100.452,149.942 100.104,153.144 101.152,155.021 C101.726,155.463 102.63,155.77 103.458,155.414 C103.898,156.141 104.288,156.42 105.304,156.602 C106.591,156.831 107.695,156.398 108.333,155.283 C110.217,155.301 110.923,154.142 111.43,152.781 C111.454,151.945 111.834,150.939 111.561,150.078 C111.505,149.903 111.012,149.025 110.706,149.026 C109.956,149.028 110.455,151.158 108.993,150.541 C109.713,148.436 108.537,146.945 107.215,146.125 C107.25,145.854 107.43,145.73 107.609,145.599 C107.963,145.907 108.4,146.282 108.861,146.588 C109.476,146.996 110.142,147.294 110.772,147.641 C111.156,147.856 111.451,148.243 111.827,148.432 C111.994,148.517 112.228,148.482 112.418,148.565 C112.959,148.796 113.419,149.201 114,149.42 C115.767,150.088 117.769,150.784 119.665,151.133 C121.615,151.492 123.622,151.909 125.462,151.859 C126.381,151.831 127.186,151.608 127.901,151.464 C128.781,151.285 129.81,151.271 130.468,150.739 C131.077,149.519 129.762,148.855 129.546,148.103 C132.641,148.72 135.754,148.187 138.309,147.906 C138.639,147.599 139.06,147.382 139.495,147.181 C140.151,146.243 139.555,145.141 139.166,144.348 C142.693,144.689 145.824,143.794 147.137,141.515 C146.502,140.393 145.164,139.974 144.369,139.012 C145.332,138.543 146.698,138.288 147.664,137.825 C147.977,137.675 148.254,137.358 148.585,137.233 C149.31,136.957 149.743,136.687 150.365,136.244 C151.155,135.684 151.792,135.129 151.682,134.071 C151.034,132.72 149.226,132.53 147.927,131.831 C149.212,130.922 150.99,130.503 151.749,129.064 C152.529,128.765 152.749,128.209 153.262,127.483 C153.774,126.762 154.304,126.175 154.186,124.98 C154.049,124.961 154.054,124.804 153.987,124.717 C153.086,124.247 152.185,124.707 151.286,124.848 C148.932,125.216 146.413,125.256 143.909,125.375 C139.67,125.576 135.345,125.42 131.589,125.375 C131.462,125.348 131.537,125.118 131.324,125.177 C128.09,124.961 124.959,124.819 122.3,124.253 C121.596,124.105 120.833,124.182 120.193,123.992 C120.003,123.935 119.852,123.777 119.665,123.727 C118.751,123.491 118.162,123.469 117.361,123.267 C116.656,123.091 115.86,122.786 115.12,122.542 C113.796,122.107 112.86,121.774 111.759,121.29 C110.993,120.952 110.322,120.694 109.849,120.237 C111.191,120.071 112.005,118.846 112.616,117.735 C115.315,117.546 118.18,117.287 118.94,114.9 C120.996,114.343 123.337,114.073 123.815,111.936 C125.87,111.408 128.858,111.534 129.284,108.839 C129.598,108.76 129.797,108.564 130.207,108.575 C130.4,108.486 130.472,108.273 130.667,108.181 C132.117,107.74 133.756,106.876 134.882,105.742 C134.921,105.495 135.015,105.304 135.212,105.216 C135.229,104.507 135.706,103.861 135.345,103.174 C137.411,102.138 139.955,101.614 140.484,99.221 C143.072,98.894 146.432,98.932 146.675,96.059 C149.125,96.008 152.328,95.678 153.132,93.292 C155.381,93.125 158.592,93.31 158.731,90.656 C160.557,90.411 162.787,90.341 163.737,88.945 C163.814,88.596 163.601,88.289 163.737,88.088 C165.015,88.143 166.348,87.61 167.294,87.297 C167.999,87.066 168.742,86.873 169.14,86.639 C170.167,86.03 169.907,85.285 169.469,84.399 C170.759,83.926 172.268,83.79 173.62,83.41 C174.183,83.253 174.689,82.859 175.266,82.951 C175.743,82.7 176.043,82.277 176.782,82.29 C177.187,81.733 178.018,81.603 178.626,81.17 C178.743,81.087 179.096,80.546 179.154,80.512 C179.258,80.45 179.393,80.594 179.483,80.512 C179.64,80.367 179.646,80.169 179.812,80.05 C179.997,79.918 180.235,79.91 180.406,79.787 C181.293,79.143 181.584,78.03 181.788,76.887 C181.506,76.665 181.48,76.187 181.327,75.834 C183.68,75.348 186.332,74.422 188.442,73.594 C188.687,73.498 188.941,73.554 189.167,73.463 C189.297,73.41 189.353,73.207 189.496,73.134 C189.674,73.042 189.942,73.081 190.088,73.001 C190.291,72.893 190.502,72.63 190.749,72.474 C192.065,71.635 193.183,70.7 192.46,68.916 C192.637,68.646 192.985,68.76 193.251,68.654 C194.222,68.267 194.96,67.446 195.492,66.612 C195.533,65.766 195.468,65.415 195.163,64.899 C196.888,63.726 198.99,62.928 200.234,61.276 C200.532,61.331 200.564,61.12 200.76,61.077 C200.886,60.94 200.951,60.74 201.025,60.551 C201.603,60.558 201.499,59.883 202.013,59.826 C202.316,59.132 203.11,58.498 203.264,57.586 C203.395,56.812 202.966,56.201 202.804,55.544 C204.904,54.218 206.428,52.318 207.81,50.274 C208.089,49.438 208.208,48.581 208.007,47.573 C207.773,47.194 207.385,46.965 207.152,46.584 C207.993,46.003 208.7,45.512 209.457,44.872 C209.945,44.459 210.449,43.946 210.84,43.489 C211.008,43.292 211.063,42.971 211.237,42.764 C211.413,42.552 211.669,42.438 211.829,42.237 C212,42.021 212.052,41.74 212.225,41.511 C212.257,41.469 212.445,41.491 212.488,41.446 C212.923,40.981 213.209,40.219 213.41,39.601 C213.589,39.582 213.721,39.517 213.806,39.404 C213.976,38.813 214.45,38.225 214.201,37.428 C213.624,37.055 212.917,37.403 212.225,37.098 C212.836,35.866 213.668,34.854 214.398,33.739 C214.881,32.815 215.237,31.848 215.584,30.839 C215.89,29.948 216.286,28.952 216.176,28.138 C216.068,27.325 216.125,26.501 215.189,26.36 L215.189,26.36 Z" id="Fill-354"></path>
        </g>
    </g>
</svg>